<?xml version="1.0" encoding="UTF-8"?><svg id="Layer_1" xmlns="http://www.w3.org/2000/svg" width="47.71" height="46" viewBox="0 0 47.71 46"><defs><style>.cls-1{opacity:.5;}.cls-2{fill:#c6e6e4;}.cls-2,.cls-3{stroke-width:0px;}.cls-3{fill:#e1f2f1;}</style></defs><g class="cls-1"><path class="cls-3" d="m23.43,2.25c-3.28,2.73-4.93,4.1-5.75,4.85-7.73,7.02-9.74,6.7-11.88,10.57-.79,1.43-1.17,2.64-2.67,4.89-.84,1.26-1.6,2.18-2.37,3.94-.87,1.99-.84,2.98-.62,3.71.26.84.78,1.32,1.2,1.76,3.46,3.52,3.89,6.89,6.22,7.37.99.21,1.71.22,1.71.22,1.23.03,1.74-.25,1.95.02.38.48-1.03,1.55-.73,2.77.17.67.65.56,1.72,1.8.98,1.13,1.17,1.9,1.65,1.86.47-.04.6-.82,1.41-.99.26-.05.47-.02.53,0,3.04.41,8.35-2.6,8.35-2.6,6.52-3.7,11.57-8.95,12.09-9.5,2.68-2.82,2.97-3.72,5.28-5.42,2.78-2.05,4.31-2.18,5.39-4.13,1.49-2.68.49-5.82.32-6.37-.86-2.7-2.37-3.11-5.92-6.91-4.46-4.79-3.78-5.97-6.89-7.95-.81-.51-4.96-3.16-8.51-1.7-.56.23-.85.46-2.49,1.82ZM5.21,27.56c.7-.2,1.66.98,3.37,3.32,2.01,2.75,2.39,3.48,2.16,4.27-.16.56-.63,1.15-1.08,1.14-.48,0-.71-.69-1.37-1.8-.2-.33-1.21-2.01-2.6-3.44-.97-1-1.81-1.55-1.68-2.22.04-.22.21-.55.48-.82.27-.28.58-.41.72-.45Z"/><path class="cls-2" d="m18.03,43.79c2.5-.7,4.35-1.69,5.62-2.41,2.62-1.5,4.41-2.87,6.32-4.35,2.71-2.09,4.07-3.14,5.11-4.51,1.6-2.1,1.26-2.72,2.8-4.21,1.45-1.4,2.14-1.22,4.75-3.08,2.04-1.46,3.06-2.19,3.47-3.17,1.16-2.74-1-6.71-3.87-8.6-1.92-1.26-4.89-2.06-5.9-.96-.6.65-.04,1.48-.1,4.66-.04,2.18-.06,3.27-.61,4.05-.91,1.27-2.04.83-4.49,2.51-1.07.74-1.76,1.21-2.32,2.07-1.22,1.88-.29,3.19-1.03,6.11-.32,1.25-.76,2.99-2.16,4.25-1.82,1.64-4.47,1.74-6.98,1.83-2.58.1-3.61-.34-4.85.55-.15.11-1.73,1.28-1.57,3.03.14,1.48,1.42,2.29,1.5,2.34.66.4,1.65.64,4.3-.1Z"/></g></svg>