<?xml version="1.0" encoding="UTF-8"?><svg id="Layer_1" xmlns="http://www.w3.org/2000/svg" width="36.95" height="27.9" viewBox="0 0 36.95 27.9"><defs><style>.cls-1{opacity:.5;}.cls-2{fill:#c6e6e4;}.cls-2,.cls-3{stroke-width:0px;}.cls-3{fill:#e1f2f1;}</style></defs><g class="cls-1"><path class="cls-2" d="m3.36,9.73c.08.86-.26,1.51-.4,1.81-.9,2.04,1.16,3.62,2.43,8.7.49,1.97.49,2.96,1.47,3.92.45.44.6.38,2.5,1.41,2.44,1.32,2.62,1.66,3.55,1.82,1.22.22,1.6-.23,3.11-.41,2.94-.35,3.33,1.15,5.5.9,1.55-.18,3.4-1.67,7.11-4.66.52-.42,1.46-1.19,2.79-1.3.82-.07.93.19,1.55.04.84-.2,1.01-.74,2.66-2.59,1.03-1.16,1.31-1.33,1.31-1.8,0-.57-.4-.76-.9-1.96-.36-.87-.18-.85-.46-1.43-.05-.1-1.01-2.05-2.5-2.22-.25-.03-.6-.01-1.1-.18-.3-.1-.65-.23-.8-.52-.16-.32,0-.61.02-.88.08-.92-1.45-2.11-2.82-2.36-1.96-.35-3.55,1.43-4.36,2.3-.95,1.03-1.42,2.05-1.7,2.69-.55,1.25-.75,2.3-1.08,4.1-.41,2.26-.41,3.32-1.32,4.04-.08.06-.5.38-1.12.49-1.11.19-2.42-.38-2.7-1.23-.2-.6.17-1.13.46-1.76,1-2.13.84-4.81.08-6.45-.18-.39-1.32-1.37-3.61-3.35-1.35-1.16-2.43-2.02-3.42-2.1-.08,0-.4-.03-.72-.22-.49-.28-.95-.9-.82-1.4.11-.43.58-.47.56-.8-.01-.25-.28-.28-.62-.81-.21-.33-.14-.35-.29-.54-.39-.46-.85-.28-1.05-.63-.2-.35.19-.62-.03-1.03-.16-.32-.46-.27-.71-.7-.16-.28-.1-.4-.22-.52-.31-.3-1.19.17-1.83.49C1.37,1.83.4,1.71.09,2.61c-.07.21-.16.64-.02,1.1.16.52.56.89.66.98.28.26.37.22.44.39.19.42-.36.76-.22,1.27.1.38.44.35.53.76.09.4-.19.66-.05.82.15.18.49-.08.89.02.62.15.98,1.08,1.05,1.78Z"/><path class="cls-3" d="m15.14,19.38c.15-.96.68-1.33,1.07-2.01.91-1.6.42-3.79-.19-5.02-.99-1.98-3.32-3.46-5.1-3.89-.56-.14-1.52-.27-2.19-1.06-.52-.61-.6-1.28-.89-1.27-.29.01-.68.72-.61,1.39.13,1.28,1.83,1.35,3.21,3.05.12.15,1.85,2.34,1.21,4.14-.6,1.7-2.8,1.63-2.95,2.94-.11,1.04,1.18,2.06,2.27,2.91,1.72,1.35,2.85,1.37,3.17,2.44.3.98-.47,1.55-.09,2.12.68,1.03,4.08.53,4.36-.62.18-.71-.82-1.79-1.66-2.31-.53-.33-.77-.29-1.1-.65-.71-.78-.54-1.95-.51-2.15Z"/><path class="cls-3" d="m23.39,12.47c-.27-.45,1.32-1.96,2.89-2.85.98-.55,1.82-1.01,2.69-.7.66.24,1.34.92,1.51,1.71.14.65-.1,1.17.24,1.46.3.26.73.07.82.27.1.22-.25.74-.64.78-.55.05-.66-.95-1.51-1.38-.6-.31-1.08-.08-2.87.31-1.99.44-2.98.65-3.14.39Z"/></g></svg>