<?xml version="1.0" encoding="UTF-8"?><svg id="Layer_1" xmlns="http://www.w3.org/2000/svg" width="34.32" height="32.04" viewBox="0 0 34.32 32.04"><defs><style>.cls-1{opacity:.5;}.cls-2{fill:#c6e6e4;}.cls-2,.cls-3{stroke-width:0px;}.cls-3{fill:#e1f2f1;}</style></defs><g class="cls-1"><path class="cls-2" d="m2.34,6.6c-.48.8.7,1.97,1.51,4.28.3.86.41,1.48.96,1.72.35.15.51,0,.97.05,1.02.1,1.39.98,2.38,1.65.38.26,1.29.82,2.37.79,1.37-.04,2.08-1.03,2.47-.76.3.21-.14.88-.31,2.29-.12,1.03-.42,2.65.26,3.09.37.24.88.04.99.3.09.22-.26.42-.25.82.01.34.28.56.47.76.64.68.49,1.3.81,1.89.88,1.6,4.28,1.26,4.3,1.85,0,.16-.26.19-.44.57-.23.47-.07.98,0,1.19.37,1.25,1.52,1.64,3.41,3.19,1.55,1.27,1.81,1.62,2.56,1.72.6.08,1.57,0,1.93-.57.25-.39,0-.67.24-.98.36-.45,1.08-.09,2.47-.29.8-.11,1.44-.2,1.79-.68.46-.62-.04-1.21.41-1.77.47-.58,1.24-.19,1.91-.69.27-.2.64-.64.72-2.46.07-1.48.14-3.12-.67-5.07-.66-1.57-.84-.84-2.58-3.71-.29-.48-.99-1.67-1.58-1.55-.26.05-.43.36-.52.3-.12-.07.17-.6.21-1.02.1-1.17-1.81-1.55-2.94-3.19-1.17-1.69-.11-2.69-1.35-4.06-.84-.93-2.36-1.6-3.55-1.22-.72.23-.79.68-1.5.8-.36.06-1.14.08-2.56-1.05-1.89-1.51-1.57-2.39-2.87-3.37C12.8.24,10.48.14,8.95.49c-1.21.28-2.01.86-3.92.98-.59.04-.75,0-1.11.13-1.83.64-2.7,3.42-2.09,4.01.2.19.58.17.67.45.07.22-.1.44-.16.55Z"/><path class="cls-2" d="m4.37.63c0-.3-.49-.58-.92-.62-.28-.03-.68.04-1.37.61,0,0-1.91,1.6-2.08,4.21,0,.09-.02.28.08.5.26.61,1.15.91,1.34.71.1-.1-.02-.29-.09-.6-.23-.92.19-1.76.42-2.22.46-.93,1.2-1.49,1.48-1.7.66-.49,1.15-.59,1.14-.9Z"/><path class="cls-2" d="m5.19,1.08c.03-.19-.38-.49-.78-.51-.28-.02-.57.09-1.4.82-.74.65-1.1.98-1.29,1.29-.21.35-.31,1-.51,2.29-.11.69-.13.99.06,1.22.26.31.8.4.93.23.1-.13-.1-.38-.22-.72-.27-.76.07-1.52.37-2.19.24-.53.72-1.61,1.78-2.05.56-.23,1.04-.19,1.08-.39Z"/><path class="cls-3" d="m5,2.15c.11-.32,1.24.08,2.96-.17,1.63-.24,1.71-.76,2.79-.77,1.57-.02,2.81,1.08,3.68,1.86,1.7,1.51,1.57,2.47,3.14,3.2.41.19,1.22.56,2.19.41.81-.12.9-.47,1.76-.64.83-.16,2.13-.11,2.67.63.36.5,0,.78.23,1.76.29,1.21.98,1.33,1.44,2.65.11.32.57,1.68.13,2.03-.6.47-2.19-1.34-5.42-3.12-3.24-1.79-3.8-1.16-5.91-2.79-2.18-1.69-1.96-2.64-3.59-3.13-1.66-.5-2.81.23-4.71-.73-.71-.36-1.45-.92-1.36-1.19Z"/><path class="cls-3" d="m20.52,25.4c-.12.02-.93.18-1.13.76-.11.32.02.64.14.88.54,1.09,1.45,1.51,2.8,2.61,1.39,1.13,1.7,1.7,2.54,1.71.47,0,1.16-.09,1.28-.44.09-.26-.18-.47-.07-.67.18-.33,1.02,0,1.24-.33.14-.2,0-.59-.21-.82-.37-.41-.91-.3-2.01-.36-1.27-.07-1.91-.1-2.42-.44-.22-.15-.59-.66-1.31-1.69-.15-.22-.69-.97-.85-1.21Z"/></g></svg>