<?xml version="1.0" encoding="utf-8"?>
<!-- Generator: Adobe Illustrator 28.0.0, SVG Export Plug-In . SVG Version: 6.00 Build 0)  -->
<svg version="1.1" id="Layer_1" xmlns="http://www.w3.org/2000/svg" xmlns:xlink="http://www.w3.org/1999/xlink" x="0px" y="0px"
	 viewBox="0 0 1013.5 453.9" style="enable-background:new 0 0 1013.5 453.9;" xml:space="preserve">
<style type="text/css">
	.st0{fill:#E8F4F6;}
	.st1{fill:#FFFFFF;}
</style>
<path class="st0" d="M202.2,30.6c-3.3-2-8.2,2.9-17.8,6.3c-3.6,1.3-6.2,1.7-7.2,4c-0.6,1.4,0,2.1-0.2,4c-0.4,4.2-4.1,5.8-6.8,9.9
	c-1.1,1.6-3.4,5.4-3.2,9.9c0.2,5.7,4.3,8.7,3.2,10.3c-0.9,1.3-3.7-0.6-9.5-1.3c-4.3-0.5-11-1.7-12.9,1.1c-1,1.5-0.2,3.7-1.3,4.1
	c-0.9,0.4-1.8-1.1-3.4-1c-1.4,0-2.3,1.2-3.2,2c-2.8,2.7-5.4,2-7.9,3.4c-6.7,3.7-5.2,17.8-7.7,17.9c-0.7,0-0.8-1.1-2.4-1.8
	c-2-0.9-4.1-0.3-5,0c-5.2,1.6-6.8,6.3-13.2,14.2c-5.3,6.4-6.7,7.5-7.1,10.7c-0.3,2.5,0,6.5,2.4,8c1.6,1,2.8,0,4.1,1
	c1.9,1.5,0.4,4.5,1.2,10.3c0.5,3.3,0.8,6,2.8,7.4c2.6,1.9,5-0.2,7.4,1.7c2.4,2,0.8,5.2,2.9,8c0.8,1.1,2.7,2.7,10.2,3
	c6.2,0.3,13,0.6,21.1-2.8c6.5-2.7,3.5-3.5,15.4-10.8c2-1.2,7-4.1,6.4-6.6c-0.2-1.1-1.5-1.8-1.3-2.2c0.3-0.5,2.5,0.7,4.2,0.9
	c4.9,0.4,6.4-7.5,13.2-12.3c7-4.9,11.2-0.5,16.8-5.7c3.9-3.5,6.6-9.9,5-14.7c-1-3-2.8-3.3-3.4-6.2c-0.3-1.5-0.4-4.7,4.4-10.6
	c6.3-7.9,9.9-6.6,14-12c5-6.6,5.4-16.2,3.9-22.6c-1.2-5-3.6-8.4-4.1-16.3c-0.2-2.4,0-3.1-0.5-4.6c-2.7-7.6-14.3-11.2-16.7-8.7
	c-0.8,0.8-0.7,2.4-1.9,2.8C203.6,31.6,202.7,30.9,202.2,30.6L202.2,30.6L202.2,30.6z"/>
<path class="st0" d="M230.2,32.9c1.2,0,2.4-2,2.6-3.8c0.1-1.2-0.2-2.8-2.6-5.7c0,0-6.7-7.9-17.5-8.6c-0.4,0-1.2-0.1-2.1,0.3
	c-2.5,1.1-3.8,4.8-2.9,5.6c0.4,0.4,1.2-0.1,2.5-0.4c3.8-0.9,7.3,0.8,9.2,1.7c3.9,1.9,6.2,5,7.1,6.2C228.5,31,229,33,230.2,32.9z"/>
<path class="st0" d="M226.5,39c0.8,0.1,2-1.6,2.1-3.3c0.1-1.2-0.4-2.4-3.5-5.8c-2.7-3-4.1-4.6-5.4-5.3c-1.5-0.9-4.2-1.3-9.5-2.1
	c-2.9-0.4-4.1-0.5-5.1,0.3c-1.3,1.1-1.7,3.3-1,3.9c0.6,0.4,1.6-0.4,3-0.9c3.2-1.1,6.3,0.3,9.1,1.5c2.2,1,6.7,3,8.6,7.4
	C225.8,36.8,225.6,38.9,226.5,39L226.5,39z"/>
<path class="st0" d="M105.5,45.3c-3.3-4.6-6.4-9.4-10-13.8c-3.7-4.5-5.6-6.3-5.8-9.7c-0.1-2.5,0.9-3.8,0-6.2c-0.9-2.7-2.5-2.5-4-5.6
	c-1.5-3.1-0.7-4.9-2.3-6c-1.3-0.9-3.3-0.6-4.6-0.1c-3.2,1.3-3.1,5.3-5.9,11.1c-1.2,2.5-3.7,7.7-8.7,12.1c-2.8,2.4-6.6,4.8-6.8,8.5
	c0,0.8,0.1,1.3-0.3,2.1c-1,2.4-4.7,3.7-7.6,3c-1.9-0.5-1.7-1.4-3.7-2.2c-3.1-1.2-7.3-0.4-9.4,2c-1.3,1.5-0.6,2.2-1.7,3.4
	C32,46.7,24,45.4,22.2,41.7c-0.8-1.7-0.1-3.4-1.7-5.1c-0.9-0.9-1.8-1.1-2.7-1.5c-3.6-1.6-2.7-5.9-6.3-11.6c-3.1-5-6.4-5.7-6.5-9.6
	c0-1.2,0.2-2.2,0.5-2.8c0.4-0.1,1-0.3,1.7-0.2c1.9,0.4,3.1,3.2,4.4,3.7c1.1,0.5,1.2,0,4.1,0.5c0.6,0.1,2,0.4,2.9,0.7
	c3.5,1.2,5.3,5,5.7,5.9c1.8,3.9,1.3,7.6,1.1,8.8c-0.8,5.1-3.5,7-2.3,9.7c0.6,1.3,1.7,1.9,2.8,2.5c2.1,1.2,5.7,2.1,7.7,0.5
	c1.5-1.3,0.6-2.8,2.4-4.4c1.8-1.6,3.9-1,4.3-2c0.3-0.9-1.3-2-3.3-3.9c-4.2-4-6.5-8.8-8-11.9c-1-2.1-0.9-2.2-1.6-3.2
	c-0.6-0.8-2.4-3.3-7.7-5.5C18.5,12,8.3,7.9,5.8,10c-0.9,0.2-6,5.7-5.6,11.8c0.3,4.7,3.7,7.3,2.3,11c-0.3,0.8-1.1,2.2-0.8,4.2
	c0.1,1.3,0.6,1.8,0.9,2.7c0.9,2.8-1.2,5.7-1.8,6.8c-1.8,3.3-0.9,9.2,8.7,26.1c5.9,10.5,5.9,8.8,9.1,15c8.7,16.7,9.6,29.8,17.7,32.8
	c0.8,0.3,2.8,0.9,5,1.4c4.5,1,7.2,0.8,11,1.1c6,0.4,5.1,1.1,14.2,2.3c6.2,0.8,9.2,1.2,11.3,0.7c4.2-0.9,6.3-2.9,9.4-1.8
	c1.8,0.7,2.9,2,4.6,1.6c1.2-0.3,1.4-1.2,2.5-2.3c2.3-2.3,4.3-1.8,8.2-3.7c1.8-0.9,2.9-1.8,4.9-3.5c0.5-0.4,5.8-4.8,8.3-9.1
	c4.3-7.5,1.6-17.6-1.9-30.6c-0.7-2.7-1.6-5.7-1.9-10c-0.3-5.3,0.8-6.5,0.2-10.1C111.6,53.9,110.8,52.7,105.5,45.3
	C105.5,45.4,105.5,45.3,105.5,45.3z M85.8,26.2c-1.2,1.8-3.7,3.9-5.6,3.2c-1.5-0.5-2-2.6-2.9-6.7c-0.6-2.7-1.1-4.9-0.8-7.8
	c0.4-3.9,2.1-8,3.2-7.8c0.9,0.1,0.5,2.9,2.8,6.3c1.5,2.2,2.3,1.9,3.4,3.8C87.3,19.5,87.7,23.3,85.8,26.2L85.8,26.2L85.8,26.2z"/>
<rect x="0" y="100.8" class="st0" width="1013.5" height="353.1"/>
<path class="st0" d="M269.3,23c1.5-0.3,0.9-3.7,3.2-5.6c0.3-0.3,1.2-0.9,3.8-1.2c5.4-0.7,6.8,1.4,11.8,1.4c3.8-0.1,4.2-1.3,8.3-1
	c0.7,0.1,3.4,0.2,5.7,1.2c4.3,1.8,6.3,5.7,8.6,9.9c8.5,15.4,9.6,13.9,11.6,20.2c1.1,3.6,0.5,3.4,1.9,15.7
	c1.3,11.1,2.3,22.2,3.5,33.3c0.4,3.6,0.7,6.8-0.7,10.4c-2.8,7-9.8,9.7-10.5,10c-1.6,0.6-2.4,0.6-11.2,1c-8.7,0.4-13,0.5-14.8,0.7
	c-8.4,0.7-8.3,1.5-14.4,1.7c-6,0.2-9.9,0.3-14.6-1.7c-2.1-0.9-6.8-2.9-9.3-7.6c-1.9-3.6-1.3-6.5-1.2-11.5c0-2.2-0.8-7.7-2.4-18.7
	c-2.6-18.3-4.1-17.1-4.9-27.9c-0.3-4.8-1.1-17.2,2.6-22.4c1-1.4,3.2-3.6,3.6-6.7c0.1-0.4,0.2-2.1,1.1-4c0.5-1,0.7-1.5,1.2-1.9
	c1.3-0.9,2.6,0.2,5.3,0.4c3.8,0.3,5.2-1.4,6.8-0.2c0.9,0.7,0.6,1.5,2.1,2.9C267.5,22.2,268.5,23.2,269.3,23L269.3,23L269.3,23z"/>
<path class="st1" d="M292,29c0.1-0.6-0.2-1.2-0.6-1.9c-0.5-1-1.2-1.7-1.6-2.1c-1.8-1.4-4.2,0.5-9.2,0.8c-1.5,0.1-3.5,0.2-6.1-0.4
	c-2.8-0.6-4.5-1.7-5.4-0.9c-0.8,0.7-0.3,2.4-0.3,2.6c0.3,1.1,1.1,1.8,2.1,2.5c1.9,1.2,3.8,1.4,6.9,1.7c6.7,0.6,8.1,0.6,10.1,0.1
	C289.1,31.1,291.7,30.5,292,29L292,29L292,29z"/>
<path class="st0" d="M540.1,30.6c-3.3-2-8.2,2.9-17.8,6.3c-3.6,1.3-6.2,1.7-7.2,4c-0.6,1.4,0,2.1-0.2,4c-0.4,4.2-4.1,5.8-6.8,9.9
	c-1.1,1.6-3.4,5.4-3.2,9.9c0.2,5.7,4.3,8.7,3.2,10.3c-0.9,1.3-3.7-0.6-9.5-1.3c-4.3-0.5-11-1.7-12.9,1.1c-1,1.5-0.2,3.7-1.3,4.1
	c-0.9,0.4-1.8-1.1-3.4-1c-1.4,0-2.3,1.2-3.2,2c-2.8,2.7-5.4,2-7.9,3.4c-6.7,3.7-5.2,17.8-7.7,17.9c-0.7,0-0.8-1.1-2.4-1.8
	c-2-0.9-4.1-0.3-5,0c-5.2,1.6-6.8,6.3-13.2,14.2c-5.3,6.4-6.7,7.5-7.1,10.7c-0.3,2.5,0,6.5,2.4,8c1.6,1,2.8,0,4.1,1
	c1.9,1.5,0.4,4.5,1.2,10.3c0.5,3.3,0.8,6,2.8,7.4c2.6,1.9,5-0.2,7.4,1.7c2.4,2,0.8,5.2,2.9,8c0.8,1.1,2.7,2.7,10.2,3
	c6.2,0.3,13,0.6,21.1-2.8c6.5-2.7,3.5-3.5,15.4-10.8c2-1.2,7-4.1,6.4-6.6c-0.2-1.1-1.5-1.8-1.3-2.2c0.3-0.5,2.5,0.7,4.2,0.9
	c4.9,0.4,6.4-7.5,13.2-12.3c7-4.9,11.2-0.5,16.8-5.7c3.9-3.5,6.6-9.9,5-14.7c-1-3-2.8-3.3-3.4-6.2c-0.3-1.5-0.4-4.7,4.4-10.6
	c6.3-7.9,9.9-6.6,14-12c5-6.6,5.4-16.2,3.9-22.6c-1.2-5-3.6-8.4-4.1-16.3c-0.2-2.4,0-3.1-0.5-4.6c-2.7-7.6-14.3-11.2-16.7-8.7
	c-0.8,0.8-0.7,2.4-1.9,2.8C541.5,31.6,540.6,30.9,540.1,30.6L540.1,30.6L540.1,30.6z"/>
<path class="st0" d="M568.1,32.9c1.2,0,2.4-2,2.6-3.8c0.1-1.2-0.2-2.8-2.6-5.7c0,0-6.7-7.9-17.5-8.6c-0.4,0-1.2-0.1-2.1,0.3
	c-2.5,1.1-3.8,4.8-2.9,5.6c0.4,0.4,1.2-0.1,2.5-0.4c3.8-0.9,7.3,0.8,9.2,1.7c3.9,1.9,6.2,5,7.1,6.2C566.4,31,566.9,33,568.1,32.9
	L568.1,32.9L568.1,32.9z"/>
<path class="st0" d="M564.4,39c0.8,0.1,2-1.6,2.1-3.3c0.1-1.2-0.4-2.4-3.5-5.8c-2.7-3-4.1-4.6-5.4-5.3c-1.5-0.9-4.2-1.3-9.5-2.1
	c-2.9-0.4-4.1-0.5-5.1,0.3c-1.3,1.1-1.7,3.3-1,3.9c0.6,0.4,1.6-0.4,3-0.9c3.2-1.1,6.3,0.3,9.1,1.5c2.2,1,6.7,3,8.6,7.4
	C563.7,36.8,563.5,38.9,564.4,39L564.4,39L564.4,39z"/>
<path class="st0" d="M443.4,41.8c-3.3-4.6-6.4-9.4-10-13.8c-3.7-4.5-5.6-6.3-5.8-9.7c-0.1-2.5,0.9-3.8,0-6.2c-0.9-2.7-2.5-2.5-4-5.6
	c-1.5-3.1-0.7-4.9-2.3-6c-1.3-0.9-3.3-0.6-4.6-0.1c-3.2,1.3-3.1,5.3-5.9,11.1c-1.2,2.5-3.7,7.7-8.7,12.1c-2.8,2.4-6.6,4.8-6.8,8.5
	c0,0.8,0.1,1.3-0.3,2.1c-1,2.4-4.7,3.7-7.6,3c-1.9-0.5-1.7-1.4-3.7-2.2c-3.1-1.2-7.3-0.4-9.4,2c-1.3,1.5-0.6,2.2-1.7,3.4
	c-2.8,2.9-10.9,1.6-12.7-2.1c-0.8-1.7-0.1-3.4-1.7-5.1c-0.9-0.9-1.8-1.1-2.7-1.5c-3.6-1.6-2.7-5.9-6.3-11.6c-3.1-5-6.4-5.7-6.5-9.6
	c0-1.2,0.2-2.2,0.5-2.8c0.4-0.1,1-0.3,1.7-0.2c1.9,0.4,3.1,3.2,4.4,3.7c1.1,0.5,1.2,0,4.1,0.5c0.6,0.1,2,0.4,2.9,0.7
	c3.5,1.2,5.3,5,5.7,5.9c1.8,3.9,1.3,7.6,1.1,8.8c-0.8,5.1-3.5,7-2.3,9.7c0.6,1.3,1.7,1.9,2.8,2.5c2.1,1.2,5.7,2.1,7.7,0.5
	c1.5-1.3,0.6-2.8,2.4-4.4c1.8-1.6,3.9-1,4.3-2c0.3-0.9-1.3-2-3.3-3.9c-4.2-4-6.5-8.8-8-11.9c-1-2.1-0.9-2.2-1.6-3.2
	c-0.6-0.8-2.4-3.3-7.7-5.5c-1.3-0.5-11.5-4.6-14-2.5c-0.9,0.2-6,5.7-5.6,11.8c0.3,4.7,3.7,7.3,2.3,11c-0.3,0.8-1.1,2.2-0.8,4.2
	c0.1,1.3,0.6,1.8,0.9,2.7c0.9,2.8-1.2,5.7-1.8,6.8c-1.8,3.3-0.9,9.2,8.7,26.1c5.9,10.5,5.9,8.8,9.1,15c8.7,16.7,9.6,29.8,17.7,32.8
	c0.8,0.3,2.8,0.9,5,1.4c4.5,1,7.2,0.8,11,1.1c6,0.4,5.1,1.1,14.2,2.3c6.2,0.8,9.2,1.2,11.3,0.7c4.2-0.9,6.3-2.9,9.4-1.8
	c1.8,0.7,2.9,2,4.6,1.6c1.2-0.3,1.4-1.2,2.5-2.3c2.3-2.3,4.3-1.8,8.2-3.7c1.8-0.9,2.9-1.8,4.9-3.5c0.5-0.4,5.8-4.8,8.3-9.1
	c4.3-7.5,1.6-17.6-1.9-30.6c-0.7-2.7-1.6-5.7-1.9-10c-0.3-5.3,0.8-6.5,0.2-10.1C449.5,50.4,448.8,49.2,443.4,41.8L443.4,41.8
	L443.4,41.8z M423.7,22.7c-1.2,1.8-3.7,3.9-5.6,3.2c-1.5-0.5-2-2.6-2.9-6.7c-0.6-2.7-1.1-4.9-0.8-7.8c0.4-3.9,2.1-8,3.2-7.8
	c0.9,0.1,0.5,2.9,2.8,6.3c1.5,2.2,2.3,1.9,3.4,3.8C425.2,16,425.6,19.8,423.7,22.7L423.7,22.7L423.7,22.7z"/>
<path class="st0" d="M607.2,23c1.5-0.3,0.9-3.7,3.2-5.6c0.3-0.3,1.2-0.9,3.8-1.2c5.4-0.7,6.8,1.4,11.8,1.4c3.8-0.1,4.2-1.3,8.3-1
	c0.7,0.1,3.4,0.2,5.7,1.2c4.3,1.8,6.3,5.7,8.6,9.9c8.5,15.4,9.6,13.9,11.6,20.2c1.1,3.6,0.5,3.4,1.9,15.7
	c1.3,11.1,2.3,22.2,3.5,33.3c0.4,3.6,0.7,6.8-0.7,10.4c-2.8,7-9.8,9.7-10.5,10c-1.6,0.6-2.4,0.6-11.2,1c-8.7,0.4-13,0.5-14.8,0.7
	c-8.4,0.7-8.3,1.5-14.4,1.7c-6,0.2-9.9,0.3-14.6-1.7c-2.1-0.9-6.8-2.9-9.3-7.6c-1.9-3.6-1.3-6.5-1.2-11.5c0-2.2-0.8-7.7-2.4-18.7
	c-2.6-18.3-4.1-17.1-4.9-27.9c-0.3-4.8-1.1-17.2,2.6-22.4c1-1.4,3.2-3.6,3.6-6.7c0.1-0.4,0.2-2.1,1.1-4c0.5-1,0.7-1.5,1.2-1.9
	c1.3-0.9,2.6,0.2,5.3,0.4c3.8,0.3,5.2-1.4,6.8-0.2c0.9,0.7,0.6,1.5,2.1,2.9C605.4,22.2,606.4,23.2,607.2,23L607.2,23L607.2,23z"/>
<path class="st1" d="M629.9,32.2c0.1-0.6-0.2-1.2-0.6-1.9c-0.5-1-1.2-1.7-1.6-2.1c-1.8-1.4-4.2,0.5-9.2,0.8
	c-1.5,0.1-3.5,0.2-6.1-0.4c-2.8-0.6-4.5-1.7-5.4-0.9c-0.8,0.7-0.3,2.4-0.3,2.6c0.3,1.1,1.1,1.8,2.1,2.5c1.9,1.2,3.8,1.4,6.9,1.7
	c6.7,0.6,8.1,0.6,10.1,0.1C627,34.3,629.6,33.6,629.9,32.2L629.9,32.2L629.9,32.2z"/>
<path class="st0" d="M873,33.8c-3.3-2-8.2,2.9-17.8,6.3c-3.6,1.3-6.2,1.7-7.2,4c-0.6,1.4,0,2.1-0.2,4c-0.4,4.2-4.1,5.8-6.8,9.9
	c-1.1,1.6-3.4,5.4-3.2,9.9c0.2,5.7,4.3,8.7,3.2,10.3c-0.9,1.3-3.7-0.6-9.5-1.3c-4.3-0.5-11-1.7-12.9,1.1c-1,1.5-0.2,3.7-1.3,4.1
	c-0.9,0.4-1.8-1.1-3.4-1c-1.4,0-2.3,1.2-3.2,2c-2.8,2.7-5.4,2-7.9,3.4c-6.7,3.7-5.2,17.8-7.7,17.9c-0.7,0-0.8-1.1-2.4-1.8
	c-2-0.9-4.1-0.3-5,0c-5.2,1.6-6.8,6.3-13.2,14.2c-5.3,6.4-6.7,7.5-7.1,10.7c-0.3,2.5,0,6.5,2.4,8c1.6,1,2.8,0,4.1,1
	c1.9,1.5,0.4,4.5,1.2,10.3c0.5,3.3,0.8,6,2.8,7.4c2.6,1.9,5-0.2,7.4,1.7c2.4,2,0.8,5.2,2.9,8c0.8,1.1,2.7,2.7,10.2,3
	c6.2,0.3,13,0.6,21.1-2.8c6.5-2.7,3.5-3.5,15.4-10.8c2-1.2,7-4.1,6.4-6.6c-0.2-1.1-1.5-1.8-1.3-2.2c0.3-0.5,2.5,0.7,4.2,0.9
	c4.9,0.4,6.4-7.5,13.2-12.3c7-4.9,11.2-0.5,16.8-5.7c3.9-3.5,6.6-9.9,5-14.7c-1-3-2.8-3.3-3.4-6.2c-0.3-1.5-0.4-4.7,4.4-10.6
	c6.3-7.9,9.9-6.6,14-12c5-6.6,5.4-16.2,3.9-22.6c-1.2-5-3.6-8.4-4.1-16.3c-0.2-2.4,0-3.1-0.5-4.6c-2.7-7.6-14.3-11.2-16.7-8.7
	c-0.8,0.8-0.7,2.4-1.9,2.8C874.4,34.8,873.4,34.1,873,33.8L873,33.8L873,33.8z"/>
<path class="st0" d="M901,36.1c1.2,0,2.4-2,2.6-3.8c0.1-1.2-0.2-2.8-2.6-5.7c0,0-6.7-7.9-17.5-8.6c-0.4,0-1.2-0.1-2.1,0.3
	c-2.5,1.1-3.8,4.8-2.9,5.6c0.4,0.4,1.2-0.1,2.5-0.4c3.8-0.9,7.3,0.8,9.2,1.7c3.9,1.9,6.2,5,7.1,6.2C899.3,34.1,899.7,36.1,901,36.1
	L901,36.1L901,36.1z"/>
<path class="st0" d="M897.2,42.1c0.8,0.1,2-1.6,2.1-3.3c0.1-1.2-0.4-2.4-3.5-5.8c-2.7-3-4.1-4.6-5.4-5.3c-1.5-0.9-4.2-1.3-9.5-2.1
	c-2.9-0.4-4.1-0.5-5.1,0.3c-1.3,1.1-1.7,3.3-1,3.9c0.6,0.4,1.6-0.4,3-0.9c3.2-1.1,6.3,0.3,9.1,1.5c2.2,1,6.7,3,8.6,7.4
	C896.6,40,896.4,42,897.2,42.1L897.2,42.1L897.2,42.1z"/>
<path class="st0" d="M776.3,45c-3.3-4.6-6.4-9.4-10-13.8c-3.7-4.5-5.6-6.3-5.8-9.7c-0.1-2.5,0.9-3.8,0-6.2c-0.9-2.7-2.5-2.5-4-5.6
	c-1.5-3.1-0.7-4.9-2.3-6c-1.3-0.9-3.3-0.6-4.6-0.1c-3.2,1.3-3.1,5.3-5.9,11.1c-1.2,2.5-3.7,7.7-8.7,12.1c-2.8,2.4-6.6,4.8-6.8,8.5
	c0,0.8,0.1,1.3-0.3,2.1c-1,2.4-4.7,3.7-7.6,3c-1.9-0.5-1.7-1.4-3.7-2.2c-3.1-1.2-7.3-0.4-9.4,2c-1.3,1.5-0.6,2.2-1.7,3.4
	c-2.8,2.9-10.9,1.6-12.7-2.1c-0.8-1.7-0.1-3.4-1.7-5.1c-0.9-0.9-1.8-1.1-2.7-1.5c-3.6-1.6-2.7-5.9-6.3-11.6c-3.1-5-6.4-5.7-6.5-9.6
	c0-1.2,0.2-2.2,0.5-2.8c0.4-0.1,1-0.3,1.7-0.2c1.9,0.4,3.1,3.2,4.4,3.7c1.1,0.5,1.2,0,4.1,0.5c0.6,0.1,2,0.4,2.9,0.7
	c3.5,1.2,5.3,5,5.7,5.9c1.8,3.9,1.3,7.6,1.1,8.8c-0.8,5.1-3.5,7-2.3,9.7c0.6,1.3,1.7,1.9,2.8,2.5c2.1,1.2,5.7,2.1,7.7,0.5
	c1.5-1.3,0.6-2.8,2.4-4.4c1.8-1.6,3.9-1,4.3-2c0.3-0.9-1.3-2-3.3-3.9c-4.2-4-6.5-8.8-8-11.9c-1-2.1-0.9-2.2-1.6-3.2
	c-0.6-0.8-2.4-3.3-7.7-5.5c-1.3-0.5-11.5-4.6-14-2.5c-0.9,0.2-6,5.7-5.6,11.8c0.3,4.7,3.7,7.3,2.3,11c-0.3,0.8-1.1,2.2-0.8,4.2
	c0.1,1.3,0.6,1.8,0.9,2.7c0.9,2.8-1.2,5.7-1.8,6.8c-1.8,3.3-0.9,9.2,8.7,26.1c5.9,10.5,5.9,8.8,9.1,15c8.7,16.7,9.6,29.8,17.7,32.8
	c0.8,0.3,2.8,0.9,5,1.4c4.5,1,7.2,0.8,11,1.1c6,0.4,5.1,1.1,14.2,2.3c6.2,0.8,9.2,1.2,11.3,0.7c4.2-0.9,6.3-2.9,9.4-1.8
	c1.8,0.7,2.9,2,4.6,1.6c1.2-0.3,1.4-1.2,2.5-2.3c2.3-2.3,4.3-1.8,8.2-3.7c1.8-0.9,2.9-1.8,4.9-3.5c0.5-0.4,5.8-4.8,8.3-9.1
	c4.3-7.5,1.6-17.6-1.9-30.6c-0.7-2.7-1.6-5.7-1.9-10c-0.3-5.3,0.8-6.5,0.2-10.1C782.4,53.6,781.6,52.3,776.3,45L776.3,45L776.3,45z
	 M756.6,25.8c-1.2,1.8-3.7,3.9-5.6,3.2c-1.5-0.5-2-2.6-2.9-6.7c-0.6-2.7-1.1-4.9-0.8-7.8c0.4-3.9,2.1-8,3.2-7.8
	c0.9,0.1,0.5,2.9,2.8,6.3c1.5,2.2,2.3,1.9,3.4,3.8C758.1,19.2,758.5,22.9,756.6,25.8L756.6,25.8L756.6,25.8z"/>
<path class="st0" d="M940.1,26.1c1.5-0.3,0.9-3.7,3.2-5.6c0.3-0.3,1.2-0.9,3.8-1.2c5.4-0.7,6.8,1.4,11.8,1.4c3.8-0.1,4.2-1.3,8.3-1
	c0.7,0.1,3.4,0.2,5.7,1.2c4.3,1.8,6.3,5.7,8.6,9.9c8.5,15.4,9.6,13.9,11.6,20.2c1.1,3.6,0.5,3.4,1.9,15.7
	c1.3,11.1,2.3,22.2,3.5,33.3c0.4,3.6,0.7,6.8-0.7,10.4c-2.8,7-9.8,9.7-10.5,10c-1.6,0.6-2.4,0.6-11.2,1c-8.7,0.4-13,0.5-14.8,0.7
	c-8.4,0.7-8.3,1.5-14.4,1.7c-6,0.2-9.9,0.3-14.6-1.7c-2.1-0.9-6.8-2.9-9.3-7.6c-1.9-3.6-1.3-6.5-1.2-11.5c0-2.2-0.8-7.7-2.4-18.7
	c-2.6-18.3-4.1-17.1-4.9-27.9c-0.3-4.8-1.1-17.2,2.6-22.4c1-1.4,3.2-3.6,3.6-6.7c0.1-0.4,0.2-2.1,1.1-4c0.5-1,0.7-1.5,1.2-1.9
	c1.3-0.9,2.6,0.2,5.3,0.4c3.8,0.3,5.2-1.4,6.8-0.2c0.9,0.7,0.6,1.5,2.1,2.9C938.3,25.4,939.2,26.3,940.1,26.1L940.1,26.1L940.1,26.1
	z"/>
<path class="st1" d="M962.8,32.2c0.1-0.6-0.2-1.2-0.6-1.9c-0.5-1-1.2-1.7-1.6-2.1c-1.8-1.4-4.2,0.5-9.2,0.8
	c-1.5,0.1-3.5,0.2-6.1-0.4c-2.8-0.6-4.5-1.7-5.4-0.9c-0.8,0.7-0.3,2.4-0.3,2.6c0.3,1.1,1.1,1.8,2.1,2.5c1.9,1.2,3.8,1.4,6.9,1.7
	c6.7,0.6,8.1,0.6,10.1,0.1C959.9,34.3,962.5,33.6,962.8,32.2L962.8,32.2L962.8,32.2z"/>
</svg>
