<?xml version="1.0" encoding="UTF-8"?><svg id="Layer_1" xmlns="http://www.w3.org/2000/svg" width="1013.54" height="453.85" viewBox="0 0 1013.54 453.85"><defs><style>.cls-1{fill:#fff;}.cls-1,.cls-2{stroke-width:0px;}.cls-2{fill:#e8f4f6;}</style></defs><path class="cls-2" d="m202.21,30.65c-3.32-1.99-8.2,2.94-17.78,6.32-3.58,1.26-6.15,1.73-7.16,4.02-.64,1.44,0,2.12-.18,4.03-.42,4.23-4.05,5.8-6.85,9.91-1.08,1.59-3.4,5.37-3.25,9.86.18,5.71,4.31,8.65,3.18,10.28-.88,1.26-3.65-.58-9.53-1.26-4.27-.49-11.03-1.72-12.85,1.11-.99,1.53-.18,3.67-1.26,4.11-.91.37-1.75-1.08-3.41-1.02-1.42.04-2.34,1.19-3.16,1.95-2.81,2.68-5.4,2.04-7.87,3.41-6.66,3.65-5.22,17.83-7.67,17.89-.68,0-.8-1.08-2.35-1.83-1.97-.93-4.09-.29-4.97-.04-5.18,1.57-6.81,6.33-13.23,14.22-5.26,6.44-6.74,7.52-7.12,10.68-.31,2.48,0,6.52,2.41,8.03,1.62,1.04,2.77,0,4.05,1,1.88,1.48.4,4.49,1.22,10.28.47,3.34.84,5.97,2.83,7.45,2.56,1.92,5.04-.16,7.36,1.7,2.43,1.97.8,5.17,2.9,7.96.84,1.13,2.67,2.67,10.22,2.99,6.15.27,12.98.57,21.1-2.85,6.54-2.74,3.47-3.5,15.42-10.77,1.99-1.2,6.95-4.14,6.44-6.57-.22-1.08-1.48-1.77-1.26-2.15.29-.51,2.5.71,4.23.86,4.86.4,6.44-7.54,13.23-12.27,7.03-4.87,11.19-.47,16.85-5.66,3.85-3.52,6.61-9.86,5.04-14.75-.97-2.99-2.83-3.27-3.36-6.24-.26-1.5-.37-4.73,4.36-10.64,6.26-7.87,9.91-6.57,14-11.97,4.97-6.57,5.39-16.21,3.91-22.58-1.17-5.04-3.58-8.38-4.13-16.28-.16-2.43,0-3.14-.53-4.64-2.67-7.61-14.26-11.21-16.7-8.65-.78.82-.71,2.41-1.86,2.77-.91.29-1.84-.4-2.28-.66h-.02Z"/><path class="cls-2" d="m230.23,32.93c1.24-.04,2.41-2.03,2.59-3.82.11-1.19-.16-2.83-2.57-5.68,0,0-6.68-7.92-17.52-8.63-.37-.02-1.19-.05-2.08.33-2.54,1.1-3.8,4.78-2.94,5.59.42.4,1.22-.07,2.5-.4,3.82-.95,7.32.78,9.22,1.73,3.89,1.92,6.19,4.97,7.06,6.15,2.03,2.76,2.48,4.76,3.74,4.73Z"/><path class="cls-2" d="m226.47,38.99c.8.13,2.03-1.57,2.14-3.27.07-1.17-.37-2.37-3.45-5.82-2.72-3.05-4.07-4.58-5.39-5.35-1.46-.86-4.16-1.3-9.53-2.12-2.88-.44-4.11-.55-5.09.27-1.3,1.08-1.66,3.34-.97,3.87.57.44,1.57-.44,2.98-.95,3.16-1.13,6.32.27,9.11,1.52,2.21.99,6.72,2.99,8.56,7.37.97,2.32.8,4.34,1.64,4.47h0Z"/><path class="cls-2" d="m105.52,45.34c-3.34-4.58-6.37-9.4-9.97-13.78-3.67-4.49-5.62-6.3-5.8-9.67-.13-2.54.86-3.76,0-6.24-.93-2.67-2.5-2.46-4-5.57-1.52-3.12-.69-4.89-2.26-5.99-1.33-.91-3.29-.6-4.56-.07-3.23,1.31-3.08,5.28-5.9,11.14-1.2,2.5-3.71,7.72-8.73,12.07-2.76,2.37-6.59,4.78-6.77,8.45-.04.77.09,1.3-.26,2.12-1,2.35-4.73,3.72-7.63,2.96-1.9-.49-1.66-1.44-3.69-2.23-3.1-1.22-7.3-.44-9.36,1.95-1.26,1.46-.6,2.25-1.72,3.38-2.85,2.9-10.9,1.61-12.72-2.1-.84-1.72-.11-3.43-1.66-5.09-.89-.95-1.83-1.1-2.67-1.48-3.61-1.59-2.74-5.9-6.26-11.55-3.12-5.02-6.37-5.73-6.46-9.62-.04-1.19.24-2.15.47-2.85.4-.07,1.02-.29,1.7-.16,1.86.37,3.07,3.18,4.44,3.74,1.11.46,1.17-.04,4.07.53.64.13,1.97.38,2.9.69,3.52,1.24,5.31,5.04,5.73,5.93,1.81,3.85,1.3,7.56,1.11,8.76-.77,5.06-3.5,7.01-2.28,9.67.58,1.26,1.68,1.88,2.76,2.48,2.1,1.19,5.73,2.12,7.74.46,1.52-1.26.64-2.81,2.37-4.36,1.79-1.61,3.92-1,4.27-2.01.31-.93-1.33-1.95-3.3-3.85-4.16-4.02-6.5-8.84-7.98-11.87-1-2.06-.88-2.19-1.55-3.19-.57-.84-2.39-3.27-7.74-5.48-1.31-.55-11.54-4.58-14.04-2.46-.88.22-6.01,5.66-5.57,11.83.33,4.73,3.72,7.28,2.32,10.95-.29.78-1.06,2.25-.82,4.18.15,1.26.6,1.83.88,2.68.88,2.79-1.2,5.71-1.83,6.85-1.83,3.34-.86,9.24,8.65,26.09,5.91,10.5,5.86,8.76,9.11,15.01,8.69,16.67,9.57,29.85,17.72,32.8.82.29,2.77.88,4.97,1.35,4.55.97,7.17.84,10.99,1.11,5.95.42,5.09,1.13,14.17,2.26,6.17.77,9.24,1.15,11.32.69,4.16-.93,6.28-2.92,9.4-1.81,1.84.66,2.92,1.97,4.56,1.55,1.15-.29,1.39-1.15,2.54-2.3,2.32-2.34,4.31-1.81,8.16-3.74,1.83-.93,2.92-1.83,4.95-3.49.55-.44,5.8-4.8,8.29-9.11,4.33-7.52,1.64-17.56-1.86-30.63-.73-2.72-1.64-5.66-1.86-10.02-.26-5.28.82-6.54.2-10.06-.42-2.32-1.2-3.52-6.54-10.84,0,0,0-.05,0-.05Zm-19.68-19.17c-1.19,1.79-3.69,3.89-5.6,3.23-1.53-.53-1.99-2.57-2.92-6.7-.6-2.72-1.1-4.91-.8-7.83.4-3.85,2.08-7.98,3.21-7.85.93.09.47,2.9,2.81,6.32,1.53,2.23,2.34,1.92,3.38,3.76,1.37,2.45,1.79,6.21-.09,9.07h.02Z"/><rect class="cls-2" x="0" y="100.8" width="1013.53" height="353.06"/><path class="cls-2" d="m269.31,22.98c1.53-.35.93-3.71,3.25-5.64.33-.27,1.2-.93,3.83-1.24,5.39-.66,6.77,1.42,11.83,1.35,3.82-.05,4.18-1.26,8.29-1,.75.05,3.38.24,5.68,1.2,4.27,1.77,6.26,5.66,8.58,9.88,8.45,15.41,9.6,13.89,11.57,20.24,1.11,3.6.53,3.38,1.93,15.72,1.28,11.1,2.28,22.22,3.49,33.31.38,3.56.73,6.75-.75,10.42-2.81,6.95-9.8,9.73-10.48,9.97-1.62.62-2.37.62-11.17,1-8.65.37-13.02.55-14.77.69-8.42.69-8.29,1.5-14.37,1.7-5.95.18-9.95.27-14.57-1.7-2.06-.88-6.85-2.92-9.33-7.63-1.88-3.58-1.3-6.54-1.24-11.46,0-2.15-.77-7.67-2.35-18.66-2.65-18.33-4.09-17.1-4.86-27.86-.35-4.84-1.13-17.16,2.61-22.4.97-1.35,3.21-3.61,3.61-6.74.05-.42.24-2.08,1.11-4,.46-1,.69-1.53,1.24-1.9,1.3-.89,2.59.2,5.35.44,3.78.33,5.18-1.41,6.75-.22.95.71.64,1.52,2.1,2.94.82.8,1.81,1.77,2.68,1.57h-.04,0Z"/><path class="cls-1" d="m291.99,29c.09-.58-.22-1.19-.57-1.9-.49-.99-1.17-1.73-1.61-2.08-1.77-1.41-4.2.53-9.2.77-1.5.07-3.52.16-6.1-.42-2.85-.64-4.51-1.72-5.39-.91-.8.73-.33,2.41-.27,2.59.33,1.06,1.1,1.84,2.12,2.5,1.9,1.22,3.78,1.42,6.88,1.72,6.7.6,8.1.62,10.06.15,1.17-.27,3.83-.95,4.09-2.41h-.02Z"/><path class="cls-2" d="m540.1,30.65c-3.32-1.99-8.2,2.94-17.78,6.32-3.58,1.26-6.15,1.73-7.16,4.02-.64,1.44,0,2.12-.18,4.03-.42,4.23-4.05,5.8-6.85,9.91-1.08,1.59-3.4,5.37-3.25,9.86.18,5.71,4.31,8.65,3.18,10.28-.88,1.26-3.65-.58-9.53-1.26-4.27-.49-11.03-1.72-12.85,1.11-.99,1.53-.18,3.67-1.26,4.11-.91.37-1.75-1.08-3.41-1.02-1.42.04-2.34,1.19-3.16,1.95-2.81,2.68-5.4,2.04-7.87,3.41-6.66,3.65-5.22,17.83-7.67,17.89-.68,0-.8-1.08-2.35-1.83-1.97-.93-4.09-.29-4.97-.04-5.18,1.57-6.81,6.33-13.23,14.22-5.26,6.44-6.74,7.52-7.12,10.68-.31,2.48,0,6.52,2.41,8.03,1.62,1.04,2.77,0,4.05,1,1.88,1.48.4,4.49,1.22,10.28.47,3.34.84,5.97,2.83,7.45,2.56,1.92,5.04-.16,7.36,1.7,2.43,1.97.8,5.17,2.9,7.96.84,1.13,2.67,2.67,10.22,2.99,6.15.27,12.98.57,21.1-2.85,6.54-2.74,3.47-3.5,15.42-10.77,1.99-1.2,6.95-4.14,6.44-6.57-.22-1.08-1.48-1.77-1.26-2.15.29-.51,2.5.71,4.24.86,4.86.4,6.44-7.54,13.23-12.27,7.03-4.87,11.19-.47,16.85-5.66,3.85-3.52,6.61-9.86,5.04-14.75-.97-2.99-2.83-3.27-3.36-6.24-.26-1.5-.37-4.73,4.36-10.64,6.26-7.87,9.91-6.57,14-11.97,4.97-6.57,5.39-16.21,3.91-22.58-1.17-5.04-3.58-8.38-4.13-16.28-.16-2.43,0-3.14-.53-4.64-2.67-7.61-14.26-11.21-16.7-8.65-.78.82-.71,2.41-1.86,2.77-.91.29-1.84-.4-2.28-.66h-.02Z"/><path class="cls-2" d="m568.14,32.93c1.24-.04,2.41-2.03,2.59-3.82.11-1.19-.16-2.83-2.57-5.68,0,0-6.68-7.92-17.52-8.63-.37-.02-1.19-.05-2.08.33-2.54,1.1-3.8,4.78-2.94,5.59.42.4,1.22-.07,2.5-.4,3.82-.95,7.32.78,9.22,1.73,3.89,1.92,6.19,4.97,7.06,6.15,2.03,2.76,2.48,4.76,3.74,4.73h0Z"/><path class="cls-2" d="m564.38,38.99c.8.13,2.03-1.57,2.14-3.27.07-1.17-.37-2.37-3.45-5.82-2.72-3.05-4.07-4.58-5.39-5.35-1.46-.86-4.16-1.3-9.53-2.12-2.88-.44-4.11-.55-5.09.27-1.3,1.08-1.66,3.34-.97,3.87.57.44,1.57-.44,2.98-.95,3.16-1.13,6.32.27,9.11,1.52,2.21.99,6.72,2.99,8.56,7.37.97,2.32.8,4.34,1.64,4.47h0Z"/><path class="cls-2" d="m443.42,41.84c-3.34-4.58-6.37-9.4-9.97-13.78-3.67-4.49-5.62-6.3-5.8-9.67-.13-2.54.86-3.76,0-6.24-.93-2.67-2.5-2.46-4-5.57-1.52-3.12-.69-4.89-2.26-5.99-1.33-.91-3.29-.6-4.56-.07-3.23,1.31-3.08,5.28-5.9,11.14-1.2,2.5-3.71,7.72-8.73,12.07-2.76,2.37-6.59,4.78-6.77,8.45-.04.77.09,1.3-.26,2.12-1,2.35-4.73,3.72-7.63,2.96-1.9-.49-1.66-1.44-3.69-2.23-3.1-1.22-7.3-.44-9.36,1.95-1.26,1.46-.6,2.25-1.72,3.38-2.85,2.9-10.9,1.61-12.72-2.1-.84-1.72-.11-3.43-1.66-5.09-.89-.95-1.83-1.1-2.67-1.48-3.61-1.59-2.74-5.9-6.26-11.55-3.12-5.02-6.37-5.73-6.46-9.62-.04-1.19.24-2.15.47-2.85.4-.07,1.02-.29,1.7-.16,1.86.37,3.07,3.18,4.44,3.74,1.11.46,1.17-.04,4.07.53.64.13,1.97.38,2.9.69,3.52,1.24,5.31,5.04,5.73,5.93,1.81,3.85,1.3,7.56,1.11,8.76-.77,5.06-3.5,7.01-2.28,9.67.58,1.26,1.68,1.88,2.76,2.48,2.1,1.19,5.73,2.12,7.74.46,1.52-1.26.64-2.81,2.37-4.36,1.79-1.61,3.92-1,4.27-2.01.31-.93-1.33-1.95-3.3-3.85-4.16-4.02-6.5-8.84-7.98-11.87-1-2.06-.88-2.19-1.55-3.19-.57-.84-2.39-3.27-7.74-5.48-1.31-.55-11.54-4.58-14.04-2.46-.88.22-6.01,5.66-5.57,11.83.33,4.73,3.72,7.28,2.32,10.95-.29.78-1.06,2.25-.82,4.18.15,1.26.6,1.83.88,2.68.88,2.79-1.2,5.71-1.83,6.85-1.83,3.34-.86,9.24,8.65,26.09,5.91,10.5,5.86,8.76,9.11,15.01,8.69,16.67,9.57,29.85,17.72,32.8.82.29,2.77.88,4.97,1.35,4.55.97,7.17.84,10.99,1.11,5.95.42,5.09,1.13,14.17,2.26,6.17.77,9.24,1.15,11.32.69,4.16-.93,6.28-2.92,9.4-1.81,1.84.66,2.92,1.97,4.56,1.55,1.15-.29,1.39-1.15,2.54-2.3,2.32-2.34,4.31-1.81,8.16-3.74,1.83-.93,2.92-1.83,4.95-3.49.55-.44,5.8-4.8,8.29-9.11,4.33-7.52,1.64-17.56-1.86-30.63-.73-2.72-1.64-5.66-1.86-10.02-.26-5.28.82-6.54.2-10.06-.42-2.32-1.2-3.52-6.54-10.84v-.05h0Zm-19.68-19.17c-1.19,1.79-3.69,3.89-5.6,3.23-1.53-.53-1.99-2.57-2.92-6.7-.6-2.72-1.1-4.91-.8-7.83.4-3.85,2.08-7.98,3.21-7.85.93.09.47,2.9,2.81,6.32,1.53,2.23,2.34,1.92,3.38,3.76,1.37,2.45,1.79,6.21-.09,9.07h.02Z"/><path class="cls-2" d="m607.2,22.98c1.53-.35.93-3.71,3.25-5.64.33-.27,1.2-.93,3.83-1.24,5.39-.66,6.77,1.42,11.83,1.35,3.82-.05,4.18-1.26,8.29-1,.75.05,3.38.24,5.68,1.2,4.27,1.77,6.26,5.66,8.58,9.88,8.45,15.41,9.6,13.89,11.57,20.24,1.11,3.6.53,3.38,1.93,15.72,1.28,11.1,2.28,22.22,3.49,33.31.38,3.56.73,6.75-.75,10.42-2.81,6.95-9.8,9.73-10.48,9.97-1.62.62-2.37.62-11.17,1-8.65.37-13.02.55-14.77.69-8.42.69-8.29,1.5-14.37,1.7-5.95.18-9.95.27-14.57-1.7-2.06-.88-6.85-2.92-9.33-7.63-1.88-3.58-1.3-6.54-1.24-11.46.02-2.15-.77-7.67-2.35-18.66-2.65-18.33-4.09-17.1-4.86-27.86-.35-4.84-1.13-17.16,2.61-22.4.97-1.35,3.21-3.61,3.61-6.74.05-.42.24-2.08,1.11-4,.46-1,.69-1.53,1.24-1.9,1.3-.89,2.59.2,5.35.44,3.78.33,5.18-1.41,6.75-.22.95.71.64,1.52,2.1,2.94.82.8,1.81,1.77,2.68,1.57h-.04Z"/><path class="cls-1" d="m629.87,32.16c.09-.58-.22-1.19-.57-1.9-.49-.99-1.17-1.73-1.61-2.08-1.77-1.41-4.2.53-9.2.77-1.5.07-3.52.16-6.1-.42-2.85-.64-4.51-1.72-5.39-.91-.8.73-.33,2.41-.27,2.59.33,1.06,1.1,1.84,2.12,2.5,1.9,1.22,3.78,1.42,6.88,1.72,6.7.6,8.1.62,10.06.15,1.17-.27,3.83-.95,4.09-2.41h-.02Z"/><path class="cls-2" d="m872.96,33.8c-3.32-1.99-8.2,2.94-17.78,6.32-3.58,1.26-6.15,1.73-7.16,4.02-.64,1.44,0,2.12-.18,4.03-.42,4.23-4.05,5.8-6.85,9.91-1.08,1.59-3.4,5.37-3.25,9.86.18,5.71,4.31,8.65,3.18,10.28-.88,1.26-3.65-.58-9.53-1.26-4.27-.49-11.03-1.72-12.85,1.11-.99,1.53-.18,3.67-1.26,4.11-.91.37-1.75-1.08-3.41-1.02-1.42.04-2.34,1.19-3.16,1.95-2.81,2.68-5.4,2.04-7.87,3.41-6.66,3.65-5.22,17.83-7.67,17.89-.68,0-.8-1.08-2.35-1.83-1.97-.93-4.09-.29-4.97-.04-5.18,1.57-6.81,6.33-13.23,14.22-5.26,6.44-6.74,7.52-7.12,10.68-.31,2.48,0,6.52,2.41,8.03,1.62,1.04,2.77,0,4.05,1,1.88,1.48.4,4.49,1.22,10.28.47,3.34.84,5.97,2.83,7.45,2.56,1.92,5.04-.16,7.36,1.7,2.43,1.97.8,5.17,2.9,7.96.84,1.13,2.67,2.67,10.22,2.99,6.15.27,12.98.57,21.1-2.85,6.54-2.74,3.47-3.5,15.42-10.77,1.99-1.2,6.95-4.14,6.44-6.57-.22-1.08-1.48-1.77-1.26-2.15.29-.51,2.5.71,4.24.86,4.86.4,6.44-7.54,13.23-12.27,7.03-4.87,11.19-.47,16.85-5.66,3.85-3.52,6.61-9.86,5.04-14.75-.97-2.99-2.83-3.27-3.36-6.24-.26-1.5-.37-4.73,4.36-10.64,6.26-7.87,9.91-6.57,14-11.97,4.97-6.57,5.39-16.21,3.91-22.58-1.17-5.04-3.58-8.38-4.13-16.28-.16-2.43,0-3.14-.53-4.64-2.67-7.61-14.26-11.21-16.7-8.65-.78.82-.71,2.41-1.86,2.77-.91.29-1.84-.4-2.28-.66h-.02Z"/><path class="cls-2" d="m901,36.07c1.24-.04,2.41-2.03,2.59-3.82.11-1.19-.16-2.83-2.57-5.68,0,0-6.68-7.92-17.52-8.63-.37-.02-1.19-.05-2.08.33-2.54,1.1-3.8,4.78-2.94,5.59.42.4,1.22-.07,2.5-.4,3.82-.95,7.32.78,9.22,1.73,3.89,1.92,6.19,4.97,7.06,6.15,2.03,2.76,2.48,4.76,3.74,4.73h0Z"/><path class="cls-2" d="m897.24,42.15c.8.13,2.03-1.57,2.14-3.27.07-1.17-.37-2.37-3.45-5.82-2.72-3.05-4.07-4.58-5.39-5.35-1.46-.86-4.16-1.3-9.53-2.12-2.88-.44-4.11-.55-5.09.27-1.3,1.08-1.66,3.34-.97,3.87.57.44,1.57-.44,2.98-.95,3.16-1.13,6.32.27,9.11,1.52,2.21.99,6.72,2.99,8.56,7.37.97,2.32.8,4.34,1.64,4.47h0Z"/><path class="cls-2" d="m776.29,44.98c-3.34-4.58-6.37-9.4-9.97-13.78-3.67-4.49-5.62-6.3-5.8-9.67-.13-2.54.86-3.76,0-6.24-.93-2.67-2.5-2.46-4-5.57-1.52-3.12-.69-4.89-2.26-5.99-1.33-.91-3.29-.6-4.56-.07-3.23,1.31-3.08,5.28-5.9,11.14-1.2,2.5-3.71,7.72-8.73,12.07-2.76,2.37-6.59,4.78-6.77,8.45-.04.77.09,1.3-.26,2.12-1,2.35-4.73,3.72-7.63,2.96-1.9-.49-1.66-1.44-3.69-2.23-3.1-1.22-7.3-.44-9.36,1.95-1.26,1.46-.6,2.25-1.72,3.38-2.85,2.9-10.9,1.61-12.72-2.1-.84-1.72-.11-3.43-1.66-5.09-.89-.95-1.83-1.1-2.67-1.48-3.61-1.59-2.74-5.9-6.26-11.55-3.12-5.02-6.37-5.73-6.46-9.62-.04-1.19.24-2.15.47-2.85.4-.07,1.02-.29,1.7-.16,1.86.37,3.07,3.18,4.44,3.74,1.11.46,1.17-.04,4.07.53.64.13,1.97.38,2.9.69,3.52,1.24,5.31,5.04,5.73,5.93,1.81,3.85,1.3,7.56,1.11,8.76-.77,5.06-3.5,7.01-2.28,9.67.58,1.26,1.68,1.88,2.76,2.48,2.1,1.19,5.73,2.12,7.74.46,1.52-1.26.64-2.81,2.37-4.36,1.79-1.61,3.92-1,4.27-2.01.31-.93-1.33-1.95-3.3-3.85-4.16-4.02-6.5-8.84-7.98-11.87-1-2.06-.88-2.19-1.55-3.19-.57-.84-2.39-3.27-7.74-5.48-1.31-.55-11.54-4.58-14.04-2.46-.88.22-6.01,5.66-5.57,11.83.33,4.73,3.72,7.28,2.32,10.95-.29.78-1.06,2.25-.82,4.18.15,1.26.6,1.83.88,2.68.88,2.79-1.2,5.71-1.83,6.85-1.83,3.34-.86,9.24,8.65,26.09,5.91,10.5,5.86,8.76,9.11,15.01,8.69,16.67,9.57,29.85,17.72,32.8.82.29,2.77.88,4.97,1.35,4.55.97,7.17.84,10.99,1.11,5.95.42,5.09,1.13,14.17,2.26,6.17.77,9.24,1.15,11.32.69,4.16-.93,6.28-2.92,9.4-1.81,1.84.66,2.92,1.97,4.56,1.55,1.15-.29,1.39-1.15,2.54-2.3,2.32-2.34,4.31-1.81,8.16-3.74,1.83-.93,2.92-1.83,4.95-3.49.55-.44,5.8-4.8,8.29-9.11,4.33-7.52,1.64-17.56-1.86-30.63-.73-2.72-1.64-5.66-1.86-10.02-.26-5.28.82-6.54.2-10.06-.42-2.32-1.2-3.52-6.54-10.84v-.05h0Zm-19.68-19.17c-1.19,1.79-3.69,3.89-5.6,3.23-1.53-.53-1.99-2.57-2.92-6.7-.6-2.72-1.1-4.91-.8-7.83.4-3.85,2.08-7.98,3.21-7.85.93.09.47,2.9,2.81,6.32,1.53,2.23,2.34,1.92,3.38,3.76,1.37,2.45,1.79,6.21-.09,9.07h.02Z"/><path class="cls-2" d="m940.08,26.12c1.53-.35.93-3.71,3.25-5.64.33-.27,1.2-.93,3.83-1.24,5.39-.66,6.77,1.42,11.83,1.35,3.82-.05,4.18-1.26,8.29-1,.75.05,3.38.24,5.68,1.2,4.27,1.77,6.26,5.66,8.58,9.88,8.45,15.41,9.6,13.89,11.57,20.24,1.11,3.6.53,3.38,1.93,15.72,1.28,11.1,2.28,22.22,3.49,33.31.38,3.56.73,6.75-.75,10.42-2.81,6.95-9.8,9.73-10.48,9.97-1.62.62-2.37.62-11.17,1-8.65.37-13.02.55-14.77.69-8.42.69-8.29,1.5-14.37,1.7-5.95.18-9.95.27-14.57-1.7-2.06-.88-6.85-2.92-9.33-7.63-1.88-3.58-1.3-6.54-1.24-11.46.02-2.15-.77-7.67-2.35-18.66-2.65-18.33-4.09-17.1-4.86-27.86-.35-4.84-1.13-17.16,2.61-22.4.97-1.35,3.21-3.61,3.61-6.74.05-.42.24-2.08,1.11-4,.46-1,.69-1.53,1.24-1.9,1.3-.89,2.59.2,5.35.44,3.78.33,5.18-1.41,6.75-.22.95.71.64,1.52,2.1,2.94.82.8,1.81,1.77,2.68,1.57h-.04,0Z"/><path class="cls-1" d="m962.76,32.16c.09-.58-.22-1.19-.57-1.9-.49-.99-1.17-1.73-1.61-2.08-1.77-1.41-4.2.53-9.2.77-1.5.07-3.52.16-6.1-.42-2.85-.64-4.51-1.72-5.39-.91-.8.73-.33,2.41-.27,2.59.33,1.06,1.1,1.84,2.12,2.5,1.9,1.22,3.78,1.42,6.88,1.72,6.7.6,8.1.62,10.06.15,1.17-.27,3.83-.95,4.09-2.41h-.02Z"/></svg>