<?xml version="1.0" encoding="utf-8"?>
<!-- Generator: Adobe Illustrator 28.0.0, SVG Export Plug-In . SVG Version: 6.00 Build 0)  -->
<svg version="1.1" id="Layer_1" xmlns="http://www.w3.org/2000/svg" xmlns:xlink="http://www.w3.org/1999/xlink" x="0px" y="0px"
	 viewBox="0 0 611.6 230.7" style="enable-background:new 0 0 611.6 230.7;" xml:space="preserve">
<style type="text/css">
	.st0{fill:none;stroke:#009995;stroke-width:1;stroke-miterlimit:10.0001;}
	.st1{fill:#00403D;}
	.st2{fill:#46B2B0;}
	.st3{fill:#C6E6E4;}
	.st4{fill:#8BCCC9;}
	.st5{fill:#009995;}
	.st6{fill:#007F7A;}
	.st7{fill:none;stroke:#02403D;stroke-width:1;stroke-miterlimit:10.0001;}
	.st8{font-family:'Campton-BoldDEMO';}
	.st9{font-size:10px;}
	.st10{letter-spacing:-1;}
	.st11{fill:none;stroke:#8BCCC9;stroke-width:1;stroke-miterlimit:10.0001;}
	.st12{fill:#FFFFFF;}
	.st13{fill:#C6E3E3;}
	.st14{fill:#049995;}
	.st15{fill:none;stroke:#C6E6E4;stroke-width:1;stroke-miterlimit:10.0001;}
	.st16{fill:none;stroke:#007F7B;stroke-width:1;stroke-miterlimit:10.0001;}
	.st17{fill:none;stroke:#44B2B0;stroke-width:1;stroke-miterlimit:10.0001;}
</style>
<line class="st0" x1="361.9" y1="210.6" x2="554.9" y2="210.6"/>
<path class="st1" d="M189.7,105.9l81.3,4c2.8-16.2,17.2-28.2,34.1-27.3c10.9,0.5,20.3,6.4,25.9,14.9L398.4,52
	c-19.4-29-51.8-48.7-89.3-50.6C247.4-1.6,194.8,44.9,189.7,105.9L189.7,105.9z"/>
<path class="st2" d="M275.2,132.4l-71.1,39.4c11,19.4,27.6,35.4,47.7,45.5l39.1-71.4C284.3,143.2,278.8,138.4,275.2,132.4
	L275.2,132.4z"/>
<path class="st3" d="M270.6,113.9c0-1,0.1-1.9,0.3-2.9l-81.2-4c-0.1,1-0.1,1.9-0.2,2.9c-0.4,7.5,0,14.9,1,22l80.1-14.4
	C270.5,116.3,270.5,115.1,270.6,113.9L270.6,113.9z"/>
<path class="st4" d="M270.7,118.5l-80.1,14.4c2.1,13.6,6.6,26.4,13,38l71.1-39.4C272.5,127.6,271.1,123.2,270.7,118.5L270.7,118.5z"
	/>
<path class="st5" d="M301.8,148.4c-3.5-0.2-6.8-0.9-9.9-2l-39.1,71.5c13.6,6.8,28.8,10.9,45,11.7c34.3,1.7,65.8-11.9,87.9-34.9
	L330,134.9C323.7,143.5,313.3,148.9,301.8,148.4L301.8,148.4z"/>
<path class="st6" d="M336.4,117.1c-0.3,6.3-2.4,12.1-5.7,16.9l55.8,59.8c18.1-19.1,29.6-44.5,31-72.8c1.2-25.1-5.7-48.7-18.5-68.2
	l-67.4,45.4C334.9,103.8,336.7,110.2,336.4,117.1z"/>
<path class="st1" d="M508.7,17.7c-0.8,0.1-1,1.4-2.1,3.1c-0.4,0.6-0.8,1-0.7,1.5c0.1,0.3,0.3,0.3,0.5,0.7c0.4,0.7,0,1.4,0.1,2.4
	c0,0.4,0.1,1.3,0.7,2c0.7,0.9,1.7,0.9,1.7,1.3c0,0.3-0.6,0.3-1.7,0.9c-0.7,0.4-2,1-1.9,1.7c0,0.4,0.4,0.6,0.3,0.8
	c-0.1,0.2-0.4,0-0.7,0.2c-0.2,0.2-0.2,0.5-0.3,0.7c-0.1,0.8-0.6,1-0.9,1.5c-0.6,1.4,1.3,3.5,0.9,3.8c-0.1,0.1-0.3-0.1-0.6,0
	c-0.4,0.1-0.7,0.4-0.8,0.6c-0.6,0.9-0.3,1.8-0.4,3.8c-0.1,1.7-0.2,2,0.1,2.6c0.2,0.4,0.8,1,1.3,1c0.4,0,0.4-0.3,0.8-0.3
	c0.5,0,0.6,0.7,1.4,1.5c0.5,0.5,0.9,0.9,1.3,0.9c0.6,0,0.8-0.6,1.4-0.6c0.6,0,0.7,0.7,1.4,0.9c0.3,0.1,0.7,0.1,2-0.7
	c1-0.7,2.1-1.5,3-3c0.7-1.2,0.1-1,1.2-3.6c0.2-0.4,0.6-1.5,0.2-1.8c-0.2-0.1-0.5-0.1-0.5-0.2c0-0.1,0.5-0.2,0.8-0.4
	c0.8-0.5,0.1-2,0.7-3.5c0.5-1.6,1.7-1.4,2-2.9c0.2-1-0.1-2.4-1-3c-0.5-0.4-0.8-0.2-1.3-0.6c-0.2-0.2-0.6-0.7-0.6-2.2
	c0.1-2,0.8-2.2,0.8-3.6c0-1.6-1.1-3.2-2.1-4.1c-0.8-0.7-1.6-0.9-2.6-2.1c-0.3-0.4-0.4-0.5-0.6-0.7c-1.3-0.9-3.6-0.1-3.7,0.6
	c0,0.2,0.2,0.5,0,0.7C509.1,17.7,508.8,17.7,508.7,17.7L508.7,17.7z"/>
<path class="st1" d="M513.7,16.1c0.2-0.2,0.1-0.6,0-0.9c-0.1-0.2-0.4-0.4-1.1-0.6c0,0-2-0.5-3.8,0.7c-0.1,0-0.2,0.1-0.3,0.3
	c-0.3,0.5,0,1.2,0.2,1.2c0.1,0,0.2-0.2,0.4-0.4c0.5-0.6,1.3-0.8,1.7-0.8c0.9-0.2,1.6,0.1,1.9,0.1C513.2,16,513.5,16.2,513.7,16.1z"
	/>
<path class="st1" d="M513.8,16.8c0.1-0.1,0.1-0.5,0-0.8c-0.1-0.2-0.3-0.3-1.2-0.5c-0.8-0.2-1.2-0.2-1.5-0.2c-0.3,0-0.8,0.3-1.8,0.8
	c-0.5,0.3-0.7,0.4-0.8,0.7c-0.1,0.3,0.1,0.7,0.3,0.7c0.1,0,0.2-0.3,0.4-0.5c0.4-0.6,1-0.7,1.6-0.8c0.5-0.1,1.4-0.3,2.2,0.2
	C513.4,16.6,513.6,16.9,513.8,16.8z"/>
<path class="st4" d="M513,17.2c0.3-0.1,0.6,0.9,1.6,1.9c1,1,1.4,0.8,1.9,1.5c0.8,1,0.7,2.4,0.6,3.4c-0.2,1.9-0.8,2.3-0.6,3.7
	c0.1,0.4,0.2,1.1,0.8,1.7c0.5,0.5,0.8,0.4,1.3,0.8c0.5,0.5,1.1,1.4,0.9,2.1c-0.2,0.5-0.5,0.4-1,1c-0.7,0.8-0.4,1.3-1,2.3
	c-0.2,0.2-0.8,1.2-1.3,1.1c-0.6-0.2-0.2-2.1-0.6-5.1c-0.4-3-1.1-3.1-1.1-5.3c0-2.3,0.8-2.6,0.3-3.9c-0.5-1.4-1.5-1.7-1.9-3.5
	C512.8,18,512.8,17.3,513,17.2L513,17.2z"/>
<path class="st4" d="M505.3,39c-0.1-0.1-0.6-0.5-1.1-0.4c-0.3,0.1-0.4,0.3-0.5,0.5c-0.5,0.9-0.3,1.7-0.3,3.2c0,1.5-0.3,2,0.1,2.5
	c0.2,0.3,0.6,0.7,0.9,0.6c0.2-0.1,0.2-0.4,0.4-0.4c0.3,0,0.5,0.7,0.8,0.7c0.2,0,0.4-0.3,0.4-0.5c0.1-0.4-0.3-0.8-0.8-1.5
	c-0.6-0.9-0.9-1.3-0.9-1.8c0-0.2,0.1-0.7,0.5-1.7C505.1,40,505.3,39.3,505.3,39L505.3,39z"/>
<polygon class="st4" points="486.8,15.5 483.5,9.2 483.4,7 495.3,6.5 495.3,8.4 499.7,15 501,48.5 488.9,51 "/>
<polygon class="st1" points="480.5,15.7 483.5,9.2 486.8,15.5 488.9,51 482.4,48.2 "/>
<rect x="486.8" y="15.2" transform="matrix(0.9993 -3.786459e-02 3.786459e-02 0.9993 -0.2265 18.6888)" class="st1" width="12.9" height="0.2"/>
<rect x="483.5" y="8.7" transform="matrix(0.9983 -5.878369e-02 5.878369e-02 0.9983 0.3304 28.7857)" class="st1" width="11.9" height="0.1"/>
<path class="st1" d="M489.5,8.8c0.3,0.2-0.4,1,0,2c0.4,1,1.7,1.7,2.8,1.6c1.1-0.1,1.9-1.2,2.1-1c0.1,0.1,0,0.6-0.2,0.9
	c-0.1,0.2-0.3,0.8-0.8,1.2c-1.2,1-3.3,0.1-3.5,0c-0.5-0.2-1.4-0.6-1.7-1.6c-0.3-0.7-0.2-1.2-0.1-1.4C488.2,9.5,489.2,8.7,489.5,8.8
	L489.5,8.8z"/>
<path class="st4" d="M494.5,11.2c-0.3,1.1-1.8,1.6-2.9,1.5c-1.6-0.1-3.3-1.5-3.1-2.9c0.2-1.3,2-2.1,3.5-1.8
	C493.5,8.3,494.9,9.9,494.5,11.2L494.5,11.2z"/>
<line class="st7" x1="476.1" y1="33.3" x2="382.8" y2="34.4"/>
<text transform="matrix(1 0 0 1 392.1431 28.7619)" class="st1 st8 st9">Embal</text>
<text transform="matrix(1 0 0 1 422.5733 28.7619)" class="st1 st8 st9">l</text>
<text transform="matrix(1 0 0 1 425.2733 28.7619)" class="st1 st8 st9">a</text>
<text transform="matrix(1 0 0 1 431.5134 28.7619)" class="st1 st8 st9">g</text>
<text transform="matrix(1 0 0 1 437.7635 28.7619)" class="st1 st8 st9">e 3</text>
<text transform="matrix(1 0 0 1 451.8436 28.7619)" class="st1 st8 st9 st10">9</text>
<text transform="matrix(1 0 0 1 457.0236 28.7619)" class="st1 st8 st9">,</text>
<text transform="matrix(1 0 0 1 458.5936 28.7619)" class="st1 st8 st9">9%</text>
<text transform="matrix(1 0 0 1 435.5634 123.9626)" class="st6 st8 st9">Hus</text>
<text transform="matrix(1 0 0 1 454.1736 123.9626)" class="st6 st8 st9">h</text>
<text transform="matrix(1 0 0 1 460.1836 123.9626)" class="st6 st8 st9">ol</text>
<text transform="matrix(1 0 0 1 468.7837 123.9626)" class="st6 st8 st9">dni</text>
<text transform="matrix(1 0 0 1 483.8738 123.9626)" class="st6 st8 st9">n</text>
<text transform="matrix(1 0 0 1 489.8239 123.9626)" class="st6 st8 st9">g</text>
<text transform="matrix(1 0 0 1 496.0439 123.9626)" class="st6 st8 st9">s</text>
<text transform="matrix(1 0 0 1 501.1839 123.9626)" class="st6 st8 st9">a</text>
<text transform="matrix(1 0 0 1 507.424 123.9626)" class="st6 st8 st9">r</text>
<text transform="matrix(1 0 0 1 511.594 123.9626)" class="st6 st8 st9">tik</text>
<text transform="matrix(1 0 0 1 525.0641 123.9626)" class="st6 st8 st9">l</text>
<text transform="matrix(1 0 0 1 527.7642 123.9626)" class="st6 st8 st9">e</text>
<text transform="matrix(1 0 0 1 533.4042 123.9626)" class="st6 st8 st9">r</text>
<text transform="matrix(1 0 0 1 537.2943 123.9626)" class="st6 st8 st9"> </text>
<text transform="matrix(1 0 0 1 539.8643 123.9626)" class="st6 st8 st9">2</text>
<text transform="matrix(1 0 0 1 545.5543 123.9626)" class="st6 st8 st9">2</text>
<text transform="matrix(1 0 0 1 551.2744 123.9626)" class="st6 st8 st9">,</text>
<text transform="matrix(1 0 0 1 553.4144 123.9626)" class="st6 st8 st9">4</text>
<text transform="matrix(1 0 0 1 559.2744 123.9626)" class="st6 st8 st9">%</text>
<text transform="matrix(1 0 0 1 403.9432 204.1633)" class="st5 st8 st9">B</text>
<text transform="matrix(1 0 0 1 410.6132 204.1633)" class="st5 st8 st9">y</text>
<text transform="matrix(1 0 0 1 416.7933 204.1633)" class="st5 st8 st9">gni</text>
<text transform="matrix(1 0 0 1 431.9234 204.1633)" class="st5 st8 st9">n</text>
<text transform="matrix(1 0 0 1 437.8734 204.1633)" class="st5 st8 st9">g </text>
<text transform="matrix(1 0 0 1 446.7235 204.1633)" class="st5 st8 st9">o</text>
<text transform="matrix(1 0 0 1 452.5636 204.1633)" class="st5 st8 st9">g </text>
<text transform="matrix(1 0 0 1 461.4136 204.1633)" class="st5 st8 st9">k</text>
<text transform="matrix(1 0 0 1 467.0337 204.1633)" class="st5 st8 st9">o</text>
<text transform="matrix(1 0 0 1 472.8737 204.1633)" class="st5 st8 st9">nstru</text>
<text transform="matrix(1 0 0 1 499.0039 204.1633)" class="st5 st8 st9">k</text>
<text transform="matrix(1 0 0 1 504.914 204.1633)" class="st5 st8 st9">t</text>
<text transform="matrix(1 0 0 1 509.614 204.1633)" class="st5 st8 st9">i</text>
<text transform="matrix(1 0 0 1 512.3741 204.1633)" class="st5 st8 st9">o</text>
<text transform="matrix(1 0 0 1 518.2141 204.1633)" class="st5 st8 st9">n </text>
<text transform="matrix(1 0 0 1 526.8442 204.1633)" class="st5 st8 st9">1</text>
<text transform="matrix(1 0 0 1 531.6942 204.1633)" class="st5 st8 st9 st10">9</text>
<text transform="matrix(1 0 0 1 536.8743 204.1633)" class="st5 st8 st9">,7%</text>
<path class="st2" d="M47,201.2c0,0-5.8,5.6-5.9,7.1s-0.3,9.6-0.3,9.6h1.8c0,0-0.1,0.1,0.2-1.3c0.2-1.3,1.4-2.3,2.1-2.7
	c0.7-0.4,1.8-0.8,2.4-0.8c0.5,0,1.6,0,2,0.2c0.5,0.2,1.9,0.6,2.3,1.2c0.4,0.6,1.2,1.2,1.4,2.1c0.3,1,0.2,1.5,0.2,1.5h25
	c0,0,0-2.8,1.4-3.7c1.4-0.9,1.7-1.6,3.5-1.5c1.8,0,4.3,1.2,4.7,2.8c0.4,1.6,0.6,1.7,0.6,2.5c0,0.8,2.1-0.1,2.1-0.1s0.9-7.2-0.3-7.8
	c-1.1-0.6-3.7-0.9-3.7-0.9l-12-2.4c0,0-8.1-5.5-9.2-5.7C64.3,201.1,47,201.2,47,201.2L47,201.2z"/>
<ellipse class="st2" cx="47.7" cy="217.7" rx="4" ry="3.9"/>
<ellipse class="st2" cx="83.3" cy="217.7" rx="4" ry="3.9"/>
<path class="st3" d="M48.6,214.6c0-0.1-0.7-0.2-1.4,0c-0.4,0.1-1.6,0.4-2.3,1.5c-0.6,1-0.3,2.1-0.3,2.4c0.1,0.3,0.4,1.4,1.4,2
	c1,0.6,2.1,0.2,2.5,0.1c0.4-0.1,1.1-0.4,1-0.6c0-0.2-1.1,0.3-2.4-0.1c-0.4-0.1-0.9-0.2-1.3-0.7c-0.5-0.6-0.6-1.6-0.2-2.2
	c0.4-0.6,1.3-0.8,1.2-1.2c0-0.1-0.1-0.1-0.1-0.2C47,215,48.6,214.8,48.6,214.6L48.6,214.6z"/>
<path class="st3" d="M84.1,214.7c0-0.1-0.7-0.2-1.4,0c-0.4,0.1-1.6,0.4-2.3,1.5c-0.6,1-0.3,2.1-0.3,2.4c0.1,0.3,0.4,1.4,1.4,2
	c1,0.6,2.1,0.2,2.5,0.1c0.4-0.1,1.1-0.4,1-0.6c0-0.2-1.1,0.3-2.4-0.1c-0.4-0.1-0.9-0.2-1.3-0.7c-0.5-0.6-0.6-1.6-0.2-2.2
	c0.4-0.6,1.3-0.8,1.2-1.2c0-0.1-0.1-0.1-0.1-0.2C82.4,215,84.1,214.8,84.1,214.7L84.1,214.7z"/>
<polygon class="st3" points="42.6,207.4 47.1,202.3 63.5,202.3 66.7,207.4 "/>
<polygon class="st3" points="64.6,202.3 67.9,207.3 72.9,207.3 64.9,202.2 64.6,202.2 "/>
<path class="st11" d="M94.6,172.5l-10.7,2.2c-1.6,0.3-3.1-0.7-3.5-2.3l-5.3-25.8c-0.3-1.6,0.7-3.1,2.3-3.5l10.7-2.2
	c1.6-0.3,3.1,0.7,3.5,2.3l5.3,25.8C97.2,170.7,96.2,172.2,94.6,172.5L94.6,172.5z"/>
<path class="st4" d="M77.7,144l10.8-2.2c1-0.2,1.9,0.5,2.1,1.5l5.4,26.2c0.2,1-0.4,2-1.3,2.2l-10.8,2.2c-1,0.2-1.9-0.5-2.1-1.5
	l-5.4-26.2C76.2,145.2,76.8,144.2,77.7,144z"/>
<text transform="matrix(1 0 0 1 82.3206 104.4524)" class="st3 st8 st9">Lan</text>
<text transform="matrix(1 0 0 1 106.2308 104.4522)" class="st3 st8 st9">b</text>
<text transform="matrix(1 0 0 1 112.3809 104.4522)" class="st3 st8 st9">rug 3,3%</text>
<g>
	<text transform="matrix(1 0 0 1 99.9909 104.452)" class="st3 st8 st9">d</text>
</g>
<text transform="matrix(1 0 0 1 108.2309 153.9529)" class="st4 st8 st9">E</text>
<text transform="matrix(1 0 0 1 114.3309 153.9529)" class="st4 st8 st9">le</text>
<text transform="matrix(1 0 0 1 122.731 153.9529)" class="st4 st8 st9">k</text>
<text transform="matrix(1 0 0 1 128.641 153.9529)" class="st4 st8 st9">t</text>
<text transform="matrix(1 0 0 1 133.341 153.9529)" class="st4 st8 st9">r</text>
<text transform="matrix(1 0 0 1 137.2911 153.9529)" class="st4 st8 st9">o</text>
<text transform="matrix(1 0 0 1 143.1311 153.9529)" class="st4 st8 st9">nik </text>
<text transform="matrix(1 0 0 1 160.5313 153.9529)" class="st4 st8 st9">5</text>
<text transform="matrix(1 0 0 1 166.4413 153.9529)" class="st4 st8 st9">,</text>
<text transform="matrix(1 0 0 1 168.7813 153.9529)" class="st4 st8 st9">8</text>
<text transform="matrix(1 0 0 1 174.6414 153.9529)" class="st4 st8 st9">%</text>
<text transform="matrix(1 0 0 1 97.9008 206.4833)" class="st2 st8 st9">Bili</text>
<text transform="matrix(1 0 0 1 113.1509 206.4833)" class="st2 st8 st9">n</text>
<text transform="matrix(1 0 0 1 119.1609 206.4833)" class="st2 st8 st9">dustri 8</text>
<text transform="matrix(1 0 0 1 157.0612 206.4833)" class="st2 st8 st9">,</text>
<text transform="matrix(1 0 0 1 158.6312 206.4833)" class="st2 st8 st9">9%</text>
<polygon class="st6" points="593.3,105.5 577.1,115.9 577.1,137.3 610.1,137.3 610.1,114.9 "/>
<polygon class="st4" points="575.6,116.3 592.4,104.9 593.7,104.9 611.6,114.6 611.6,117.3 593.4,106.5 575.6,118.4 "/>
<rect x="575.5" y="137.3" class="st4" width="36" height="3.4"/>
<polygon class="st4" points="602.9,109.9 602.9,107 605.3,107 605.3,111.7 "/>
<path class="st5" d="M578.1,136c-1-1.1-0.1-2.3,0-6.3c0.1-4.4-0.8-5.7,0-9.4c0.3-1.4,0.5-2.2,1.2-3.1c1.1-1.5,2-1.1,5.3-3.3
	c1-0.7,2-1.3,3-2c0.9-0.7,1.4-1.2,1.7-1c0.5,0.3,0.1,2.1,0.1,2.2c-0.7,2.9-2.9,3.5-5.4,6.7c-0.8,1-1.7,2.2-2.3,4.1
	c-0.2,0.7-1.4,4.1-0.2,7.9c0.8,2.6,2.2,3.4,1.7,4.3C582.5,137.2,579.4,137.4,578.1,136L578.1,136z"/>
<path class="st5" d="M608.9,125.8c0.1,0,0.4,0.2,0.3,6.7c0,2.5-0.1,3.2-0.6,3.6c-1,0.8-2.2-0.2-5.3-0.3c-3,0-4.6,1-5.1,0.3
	c-0.3-0.6,0.3-1.8,1.2-2.5c1.7-1.2,3.3,0.3,5.2-0.4C607.8,132.2,608.1,125.6,608.9,125.8z"/>
<rect x="599.4" y="118.4" class="st12" width="6.3" height="6.3"/>
<ellipse class="st13" cx="48.4" cy="112" rx="8.1" ry="8.8"/>
<path class="st13" d="M75.9,118.5c-1.8,2.6-5.2,3.1-7.6,1.1c-1.4-1.2-2.1-2.9-2.1-4.7c0-1.3,0.4-2.5,1.1-3.6
	c1.8-2.6,5.2-3.1,7.6-1.1C77.3,112.2,77.8,115.9,75.9,118.5L75.9,118.5z"/>
<path class="st13" d="M41.9,106.7l-1.7-1.1c0,0,2.7-4.9,6.7-4.9s6.6,0.2,8.3,2.5c1.7,2.3,2.5,3.7,2.8,5.8c0.3,2.1,0.4,5.1,0.4,5.1
	h-2.2"/>
<path class="st13" d="M64.4,114.9c0,0,0.2-4.3,1.4-5.4s2.4-1.9,4-2.1s3.2,0,3.2,0l-0.6,1.6l-6.2,5.9"/>
<path class="st13" d="M74.3,109.8c0,0,3.4-4.9,1.6-5.9c-1.8-1.1-4.1-2.2-7.2-2.5c-3-0.3-7.2,0-7.2,0l0.5,6.7l0.4,6.1h2"/>
<path class="st13" d="M61.2,98.1c0,0,1.2,0.2,1.3,1.1c0.2,1.8-1.1,2.2-1.1,2.2"/>
<path class="st13" d="M64.1,101.3v-6.1l0.7-0.4c0,0-0.2-2.7,0.3-3.2c0.9-0.8,1.6-0.8,1.6-0.8v0.9c0,0-0.4,0.1-0.6,0.1
	c-0.1,0.1-0.5,0.2-0.6,1c-0.1,1.3-0.1,1.9-0.1,1.9l0.8,0.2l0,6.3"/>
<polyline class="st13" points="58.4,114.2 62.4,114.2 62,108.1 57.8,108.1 62,108.1 60.7,91.2 61.2,89.7 48.8,89.7 49.3,91 
	48.4,99.1 44,99.1 44,101.6 "/>
<path class="st13" d="M49.7,90c0,0,0.2-1.3,1-1.4c1.6-0.2,2,1.2,2,1.2"/>
<polygon class="st14" points="50.5,91.5 49.7,99.7 52.8,99.7 52.8,91.5 "/>
<polygon class="st14" points="54.7,91.5 59.5,91.5 60.4,104.5 57.6,104.5 54.7,100.8 "/>
<path class="st14" d="M75.5,112.9c-0.1,0.4-0.8-0.2-1.3-0.5c-1-0.6-1.8-0.5-2.6-0.5c-1.1,0.1-2.2,1.6-2.3,1.8
	c-0.8,1.6,0.3,3.7-0.1,3.8c-0.3,0.1-1.2-1.2-1.2-2.6c0-2,1.6-3.2,1.7-3.3c1.5-1.1,3-0.7,3.4-0.6C74.4,111.4,75.6,112.4,75.5,112.9
	L75.5,112.9L75.5,112.9z"/>
<path class="st14" d="M43.2,116.3c-0.1,0.3-1.7-2.8-0.8-5.6c0.1-0.3,0.7-2.2,2.5-3.2c2.9-1.7,7.1-0.1,6.5,0.5
	c-0.3,0.3-1.7-0.6-3.9-0.1c-2.6,0.5-2.6,1.7-3.6,3C42.5,112.7,43.5,115.5,43.2,116.3L43.2,116.3z"/>
<path class="st14" d="M569.7,224.9h4c0.2,0,0.5-0.2,0.5-0.5v-25.6c0-0.2,0.2-0.5,0.5-0.5h17.1c0.3,0,0.5-0.3,0.4-0.6l-0.9-2.3
	c-0.1-0.2-0.2-0.3-0.4-0.3h-16.2c-0.2,0-0.4-0.1-0.4-0.3l-1.7-6.1c-0.1-0.3-0.5-0.4-0.7-0.2l-1.9,1.6c-0.1,0.1-0.2,0.2-0.2,0.3
	l-0.2,4.3c0,0.2-0.2,0.4-0.5,0.4h-3.4c-0.2,0-0.4-0.1-0.4-0.3l-0.9-2.4c-0.1-0.2-0.2-0.3-0.4-0.3h-2.8c-0.2,0-0.5,0.2-0.5,0.5v7.9
	c0,0.2,0.2,0.5,0.5,0.5h3.4c0.2,0,0.5-0.2,0.5-0.5v-1.1c0-0.3,0.2-0.5,0.5-0.5l3.8,0.1c0.2,0,0.4,0.2,0.4,0.5l-0.2,24.8
	C569.2,224.7,569.4,224.9,569.7,224.9L569.7,224.9L569.7,224.9z"/>
<path class="st14" d="M573.5,200.3h6.7c0.3,0,0.6,0.3,0.6,0.6V216c0,0.3-0.3,0.6-0.6,0.6h-6.7"/>
<polyline class="st14" points="564.6,194 572.1,188.1 588.1,195.2 586.6,195.2 572.3,189.5 565.1,195.2 "/>
<path class="st14" d="M589.2,204.6c0.3,0.2,0.8,0,1-0.2c0.1-0.2,0-0.4,0.2-0.6c0.2-0.2,0.5-0.2,0.7,0c0.3,0.3,0,1-0.3,1.4
	c-0.1,0.1-0.5,0.7-1.2,0.7c-0.8,0.1-1.3-0.6-1.4-0.7c-0.1-0.1-0.6-0.7-0.4-1.3c0.1-0.5,0.6-0.8,0.7-0.9c0.4-0.2,0.7-0.2,0.7-0.3
	c0-0.2-0.5-0.2-0.9-0.6c-0.5-0.4-0.7-1.1-0.8-1.3c-0.1-0.5,0-1,0-1.3c0-0.1,0-0.5,0.1-0.5c1.9-0.1,2.8,0,4.4,0
	c0.3,0,0.3,1.1,0.2,1.6c-0.2,0.4-0.5,0.8-0.9,1.2c-0.5,0.5-0.8,0.6-1,1c-0.2,0.3-0.2,0.2-0.4,0.4c-0.3,0.2-0.6,0.3-0.8,0.5
	C588.9,203.9,588.9,204.3,589.2,204.6L589.2,204.6L589.2,204.6z"/>
<path class="st13" d="M579,202c0.1,0,0.1-0.2,0-0.2h-2c-0.4,0-0.8,0-1.3,0c-0.4,0-0.7-0.1-0.7,0.4l0,9c0,0.1,0.2,0.1,0.2,0l0.7-6.4
	c0-0.3,0.1-0.7,0.3-1c0.1-0.2,0.3-0.4,0.5-0.5C577.4,202.7,578.2,202.3,579,202L579,202z"/>
<path class="st13" d="M563.8,193.2c0-0.1-0.1-0.3-0.2-0.4c-0.2-0.1-0.5-0.1-0.7,0c-1,0.2-1.5-0.4-1.9-0.1c-0.3,0.2-0.2,0.7-0.1,1.4
	c0.2,1.5,0.3,3.5-0.1,5c-0.1,0.2-0.2,0.7,0,1.1c0.1,0.2,0.4,0.3,0.8,0.4c1,0.2,1.4-0.3,2.2-0.1c0.1,0,0.3,0.1,0.4,0
	c0.1-0.1-0.1-0.4-0.2-0.5c-0.5-0.5-1.3,0.1-1.9-0.2c-0.4-0.3-0.2-0.8-0.2-2.5c0-2.1-0.3-2.4,0.1-2.9
	C562.5,193.7,563.8,193.7,563.8,193.2L563.8,193.2L563.8,193.2z"/>
<path class="st13" d="M580.2,213c0.2,0.1,0.1,0.3,0.2,1.4c0,0.6,0.1,0.9-0.1,1.2c0,0-0.1,0.2-0.3,0.4c-0.5,0.5-1.3,0.4-2.5,0.3
	c-1.6,0-2.2,0.2-2.3,0c-0.1-0.2,0.5-0.8,1.2-0.9c0.6-0.1,0.8,0.2,1.8,0.2c0.7,0,1.1,0,1.4-0.3c0.5-0.6-0.4-1.7,0.1-2.1
	C579.7,212.9,580,212.9,580.2,213L580.2,213L580.2,213z"/>
<path class="st13" d="M589.1,199.2c0.4,0,0.7,0,0.9,0c0.6,0,0.9,0,1,0c0.4,0,0.7-0.1,0.8,0c0,0.1,0,0.1,0,0.4c0,0.5,0.1,0.6,0,0.9
	c0,0.1-0.1,0.2-0.3,0.5c-0.4,0.5-0.6,0.8-0.8,0.8c-0.2,0-0.3-0.4-0.3-0.6c0-0.4,0.5-0.6,0.4-0.8c-0.1-0.2-0.7-0.1-1.3-0.5
	C589.3,199.6,589.2,199.4,589.1,199.2L589.1,199.2L589.1,199.2z"/>
<line class="st15" x1="81.7" y1="111" x2="225.8" y2="111"/>
<line class="st11" x1="212.5" y1="160.2" x2="107.6" y2="160.2"/>
<line class="st16" x1="412.6" y1="128.3" x2="569.3" y2="128.3"/>
<line class="st17" x1="250.7" y1="211.3" x2="97.9" y2="211.3"/>
</svg>
