<?xml version="1.0" encoding="UTF-8"?><svg id="Layer_1" xmlns="http://www.w3.org/2000/svg" width="215.75mm" height="81.37mm" viewBox="0 0 611.57 230.65"><defs><style>.cls-1{letter-spacing:-.04em;}.cls-2{letter-spacing:-.05em;}.cls-3{letter-spacing:-.02em;}.cls-4{letter-spacing:0em;}.cls-5{letter-spacing:-.02em;}.cls-6{letter-spacing:-.02em;}.cls-7{letter-spacing:0em;}.cls-8{letter-spacing:-.02em;}.cls-9{letter-spacing:-.01em;}.cls-10{letter-spacing:0em;}.cls-11,.cls-12,.cls-13,.cls-14,.cls-15,.cls-16{font-family:Campton-BoldDEMO, Campton;font-size:10px;font-weight:700;}.cls-11,.cls-17{fill:#46b2b0;}.cls-12,.cls-18{fill:#c6e6e4;}.cls-13,.cls-19{fill:#8bccc9;}.cls-14,.cls-20{fill:#009995;}.cls-15,.cls-21{fill:#007f7a;}.cls-16,.cls-22{fill:#00403d;}.cls-23{letter-spacing:0em;}.cls-24{letter-spacing:-.03em;}.cls-25{letter-spacing:0em;}.cls-26{letter-spacing:0em;}.cls-27{letter-spacing:0em;}.cls-28{letter-spacing:-.01em;}.cls-29{letter-spacing:-.04em;}.cls-30{letter-spacing:0em;}.cls-31{stroke:#007f7b;}.cls-31,.cls-32,.cls-33,.cls-34,.cls-35,.cls-36{fill:none;stroke-miterlimit:10;}.cls-32{stroke:#009995;}.cls-33{stroke:#02403d;}.cls-34{stroke:#8bccc9;}.cls-35{stroke:#44b2b0;}.cls-36{stroke:#c6e6e4;}.cls-37{letter-spacing:0em;}.cls-38{letter-spacing:0em;}.cls-39{letter-spacing:-.08em;}.cls-40{letter-spacing:-.08em;}.cls-41{letter-spacing:-.07em;}.cls-17,.cls-42,.cls-43,.cls-18,.cls-19,.cls-20,.cls-44,.cls-22,.cls-21{stroke-width:0px;}.cls-42{fill:#049995;}.cls-43{fill:#c6e3e3;}.cls-44{fill:#fff;}.cls-45{letter-spacing:0em;}.cls-46{letter-spacing:-.11em;}.cls-47{letter-spacing:-.11em;}</style></defs><line class="cls-32" x1="361.87" y1="210.61" x2="554.89" y2="210.61"/><path class="cls-22" d="m189.71,105.91l81.31,4c2.76-16.2,17.24-28.15,34.06-27.32,10.93.54,20.34,6.35,25.92,14.85l67.36-45.42c-19.41-28.97-51.79-48.72-89.29-50.56-61.65-3.03-114.27,43.42-119.36,104.46Z"/><path class="cls-17" d="m275.21,132.4l-71.06,39.42c11.04,19.42,27.64,35.35,47.74,45.54l39.06-71.42c-6.62-2.72-12.12-7.51-15.74-13.54Z"/><path class="cls-18" d="m270.57,113.86c.05-.98.15-1.94.28-2.89l-81.23-4c-.07.96-.13,1.93-.18,2.89-.37,7.49,0,14.85,1.03,22.01l80.12-14.44c-.07-1.18-.08-2.37-.02-3.58Z"/><path class="cls-19" d="m270.68,118.5l-80.06,14.43c2.08,13.56,6.57,26.36,13.02,37.96l71.05-39.41c-2.18-3.92-3.59-8.31-4.01-12.98Z"/><path class="cls-20" d="m301.84,148.36c-3.47-.17-6.79-.88-9.89-2.03l-39.1,71.5c13.63,6.75,28.84,10.88,45,11.67,34.29,1.69,65.79-11.94,87.87-34.87l-55.69-59.71c-6.32,8.62-16.71,14.01-28.19,13.45Z"/><path class="cls-21" d="m336.35,117.09c-.31,6.3-2.37,12.09-5.69,16.94l55.79,59.83c18.05-19.09,29.64-44.48,31.03-72.78,1.23-25.09-5.73-48.68-18.54-68.18l-67.37,45.43c3.33,5.44,5.11,11.91,4.78,18.76Z"/><path class="cls-22" d="m508.73,17.68c-.76.08-.95,1.44-2.08,3.12-.42.63-.77,1.01-.66,1.49.07.3.25.34.45.66.44.72.05,1.41.09,2.39.02.38.1,1.26.66,1.96.71.89,1.72.86,1.73,1.26,0,.3-.65.34-1.67.94-.74.43-1.96,1.04-1.91,1.71.03.36.41.6.29.8-.1.17-.41.04-.66.24-.22.18-.23.47-.27.69-.13.76-.62.97-.85,1.48-.62,1.38,1.29,3.46.91,3.76-.11.08-.26-.08-.59,0-.42.09-.69.44-.79.59-.64.87-.33,1.82-.41,3.84-.07,1.65-.18,2,.14,2.55.25.43.78,1.04,1.34.99.38-.03.44-.33.76-.32.48.01.6.67,1.42,1.49.47.47.85.85,1.34.85.64,0,.78-.63,1.37-.6.62.02.74.73,1.41.92.27.08.74.11,1.98-.74,1.01-.69,2.13-1.45,3.02-2.96.71-1.21.13-.97,1.17-3.55.17-.43.61-1.49.24-1.81-.16-.14-.45-.11-.46-.19-.01-.12.48-.18.78-.37.82-.51.13-1.97.65-3.53.54-1.61,1.72-1.41,2.01-2.91.19-1.02-.12-2.36-.96-2.95-.51-.36-.84-.18-1.28-.59-.22-.21-.62-.71-.57-2.21.06-2,.8-2.23.8-3.57,0-1.64-1.07-3.22-2.07-4.06-.79-.66-1.57-.9-2.59-2.1-.32-.37-.37-.5-.64-.67-1.33-.89-3.6-.09-3.69.61-.03.23.17.47.03.66-.11.16-.34.16-.44.17Z"/><path class="cls-22" d="m513.69,16.06c.19-.15.14-.61-.04-.92-.12-.2-.36-.43-1.09-.6,0,0-2.01-.47-3.82.71-.06.04-.19.13-.29.3-.27.48-.04,1.21.2,1.24.12.01.19-.16.35-.36.49-.6,1.26-.75,1.67-.82.85-.16,1.58.05,1.86.14.65.2.96.46,1.16.31Z"/><path class="cls-22" d="m513.79,16.82c.14-.08.13-.49-.05-.77-.13-.2-.34-.33-1.24-.52-.8-.16-1.19-.24-1.49-.21-.34.04-.81.29-1.77.8-.51.27-.72.4-.78.65-.08.33.13.73.31.73.14,0,.2-.26.36-.5.37-.56,1.04-.71,1.63-.84.47-.11,1.43-.32,2.24.15.43.25.64.6.79.51Z"/><path class="cls-19" d="m513,17.22c.26-.08.56.86,1.58,1.87.97.96,1.35.76,1.89,1.46.79,1.03.68,2.39.6,3.36-.16,1.87-.85,2.27-.56,3.66.08.37.24,1.08.82,1.65.48.47.76.36,1.3.84.52.47,1.13,1.35.91,2.07-.15.49-.52.38-1.05,1.03-.66.79-.39,1.31-1.04,2.26-.16.23-.82,1.21-1.28,1.09-.61-.16-.2-2.11-.63-5.13-.43-3.03-1.12-3.08-1.09-5.29.03-2.28.77-2.61.29-3.93-.5-1.35-1.55-1.74-1.86-3.47-.11-.65-.11-1.42.11-1.49Z"/><path class="cls-19" d="m505.34,39.03c-.07-.07-.58-.52-1.06-.36-.27.09-.41.33-.51.53-.45.9-.28,1.71-.33,3.15-.05,1.48-.28,1.97.13,2.52.23.31.64.72.93.63.21-.07.22-.35.41-.38.31-.04.5.67.84.65.2-.01.39-.29.44-.54.09-.44-.26-.75-.76-1.5-.59-.87-.88-1.31-.91-1.82-.01-.22.15-.72.46-1.71.07-.21.3-.94.37-1.16Z"/><polygon class="cls-19" points="486.84 15.46 483.5 9.22 483.41 6.97 495.27 6.52 495.34 8.38 499.71 14.97 500.98 48.49 488.94 50.99 486.84 15.46"/><polygon class="cls-22" points="480.48 15.71 483.5 9.22 486.84 15.46 488.94 50.99 482.35 48.15 480.48 15.71"/><rect class="cls-22" x="486.84" y="15.22" width="12.88" height=".16" transform="translate(-.23 18.71) rotate(-2.17)"/><rect class="cls-22" x="483.49" y="8.77" width="11.87" height=".06" transform="translate(.33 28.76) rotate(-3.37)"/><path class="cls-22" d="m489.45,8.81c.28.15-.36,1.03.02,2.01.38.99,1.65,1.72,2.75,1.61,1.15-.12,1.88-1.17,2.13-.95.15.13-.04.58-.17.9-.07.16-.32.79-.83,1.19-1.25,1-3.26.09-3.5-.02-.49-.22-1.36-.62-1.74-1.56-.26-.65-.16-1.24-.12-1.42.23-1.08,1.2-1.91,1.48-1.76Z"/><path class="cls-19" d="m494.51,11.19c-.33,1.1-1.81,1.6-2.9,1.53-1.62-.1-3.33-1.53-3.11-2.89.2-1.26,2-2.13,3.48-1.84,1.54.3,2.92,1.9,2.54,3.2Z"/><line class="cls-33" x1="476.08" y1="33.26" x2="382.8" y2="34.4"/><text class="cls-16" transform="translate(392.14 28.76)"><tspan x="0" y="0">Embal</tspan><tspan class="cls-4" x="30.43" y="0">l</tspan><tspan class="cls-23" x="33.13" y="0">a</tspan><tspan class="cls-25" x="39.37" y="0">g</tspan><tspan x="45.62" y="0">e 3</tspan><tspan class="cls-47" x="59.7" y="0">9</tspan><tspan class="cls-40" x="64.88" y="0">,</tspan><tspan x="66.45" y="0">9%</tspan></text><text class="cls-15" transform="translate(435.56 123.96)"><tspan x="0" y="0">Hus</tspan><tspan class="cls-37" x="18.61" y="0">h</tspan><tspan class="cls-25" x="24.62" y="0">ol</tspan><tspan x="33.22" y="0">dni</tspan><tspan class="cls-28" x="48.31" y="0">n</tspan><tspan class="cls-27" x="54.26" y="0">g</tspan><tspan class="cls-30" x="60.48" y="0">s</tspan><tspan x="65.62" y="0">a</tspan><tspan class="cls-38" x="71.86" y="0">r</tspan><tspan x="76.03" y="0">tik</tspan><tspan class="cls-4" x="89.5" y="0">l</tspan><tspan class="cls-10" x="92.2" y="0">e</tspan><tspan class="cls-6" x="97.84" y="0">r</tspan><tspan x="101.73" y="0"> </tspan><tspan class="cls-4" x="104.3" y="0">2</tspan><tspan x="109.99" y="0">2</tspan><tspan class="cls-5" x="115.71" y="0">,</tspan><tspan class="cls-41" x="117.85" y="0">4</tspan><tspan x="123.71" y="0">%</tspan></text><text class="cls-14" transform="translate(403.94 204.16)"><tspan class="cls-24" x="0" y="0">B</tspan><tspan class="cls-3" x="6.67" y="0">y</tspan><tspan x="12.85" y="0">gni</tspan><tspan class="cls-28" x="27.98" y="0">n</tspan><tspan x="33.93" y="0">g </tspan><tspan class="cls-10" x="42.78" y="0">o</tspan><tspan x="48.62" y="0">g </tspan><tspan class="cls-1" x="57.47" y="0">k</tspan><tspan class="cls-10" x="63.09" y="0">o</tspan><tspan class="cls-7" x="68.93" y="0">nstru</tspan><tspan class="cls-26" x="95.06" y="0">k</tspan><tspan x="100.97" y="0">t</tspan><tspan class="cls-25" x="105.67" y="0">i</tspan><tspan class="cls-10" x="108.43" y="0">o</tspan><tspan x="114.27" y="0">n </tspan><tspan class="cls-2" x="122.9" y="0">1</tspan><tspan class="cls-46" x="127.75" y="0">9</tspan><tspan x="132.93" y="0">,7%</tspan></text><path class="cls-17" d="m46.96,201.2s-5.78,5.61-5.86,7.05c-.08,1.44-.25,9.57-.25,9.57h1.84s-.07.07.16-1.25c.23-1.32,1.42-2.34,2.11-2.73s1.84-.82,2.37-.79c.53.03,1.55.03,2.01.2.46.16,1.94.63,2.34,1.22s1.15,1.15,1.42,2.14c.26.99.16,1.45.16,1.45h24.98s.03-2.83,1.38-3.72c1.35-.89,1.71-1.55,3.49-1.51,1.78.03,4.25,1.15,4.67,2.76.43,1.61.59,1.68.63,2.47.03.79,2.05-.08,2.05-.08,0,0,.86-7.24-.27-7.84-1.13-.6-3.65-.87-3.65-.87l-11.96-2.39s-8.06-5.5-9.16-5.66-18.46,0-18.46,0Z"/><ellipse class="cls-17" cx="47.74" cy="217.68" rx="4.02" ry="3.86"/><ellipse class="cls-17" cx="83.34" cy="217.68" rx="4.02" ry="3.86"/><path class="cls-18" d="m48.62,214.62c-.01-.1-.68-.2-1.43-.04-.43.09-1.62.35-2.27,1.46-.61,1.04-.34,2.11-.27,2.39.08.32.36,1.42,1.43,2,1.04.57,2.1.22,2.54.08.42-.14,1.08-.44,1.04-.62-.04-.17-1.09.27-2.35-.08-.4-.11-.92-.25-1.3-.73-.46-.58-.62-1.55-.23-2.17.39-.61,1.27-.78,1.22-1.22-.01-.11-.07-.12-.06-.21.02-.5,1.7-.72,1.68-.88Z"/><path class="cls-18" d="m84.07,214.67c-.01-.1-.68-.2-1.43-.04-.43.09-1.62.35-2.27,1.46-.61,1.04-.34,2.11-.27,2.39.08.32.36,1.42,1.43,2,1.04.57,2.1.22,2.54.08.42-.14,1.08-.44,1.04-.62-.04-.17-1.09.27-2.35-.08-.4-.11-.92-.25-1.3-.73-.46-.58-.62-1.55-.23-2.17.39-.61,1.27-.78,1.22-1.22-.01-.11-.07-.12-.06-.21.02-.5,1.7-.72,1.68-.88Z"/><polygon class="cls-18" points="42.61 207.38 47.1 202.25 63.47 202.25 66.66 207.38 42.61 207.38"/><polygon class="cls-18" points="64.6 202.25 67.85 207.27 72.94 207.27 64.93 202.16 64.6 202.18 64.6 202.25"/><path class="cls-34" d="m94.64,172.52l-10.72,2.19c-1.58.32-3.13-.7-3.45-2.28l-5.28-25.83c-.32-1.58.7-3.13,2.28-3.45l10.72-2.19c1.58-.32,3.13.7,3.45,2.28l5.28,25.83c.32,1.58-.7,3.13-2.28,3.45h0Z"/><path class="cls-19" d="m77.7,144.01l10.75-2.2c.95-.19,1.88.47,2.09,1.48l5.35,26.17c.21,1.01-.39,1.99-1.34,2.18l-10.75,2.2c-.95.19-1.88-.47-2.09-1.48l-5.35-26.17c-.21-1.01.39-1.99,1.34-2.18Z"/><text class="cls-12" transform="translate(82.32 104.45)"><tspan x="0" y="0">Lan</tspan><tspan class="cls-10" x="18.15" y="0">b</tspan><tspan x="24.3" y="0">rug 3,3%</tspan></text><text class="cls-13" transform="translate(108.23 153.95)"><tspan x="0" y="0">E</tspan><tspan class="cls-4" x="6.1" y="0">le</tspan><tspan class="cls-26" x="14.5" y="0">k</tspan><tspan class="cls-23" x="20.41" y="0">t</tspan><tspan class="cls-9" x="25.11" y="0">r</tspan><tspan class="cls-10" x="29.06" y="0">o</tspan><tspan class="cls-7" x="34.9" y="0">nik </tspan><tspan class="cls-8" x="52.3" y="0">5</tspan><tspan x="58.21" y="0">,</tspan><tspan class="cls-29" x="60.55" y="0">8</tspan><tspan x="66.41" y="0">%</tspan></text><text class="cls-11" transform="translate(97.9 206.48)"><tspan x="0" y="0">Bili</tspan><tspan class="cls-45" x="15.25" y="0">n</tspan><tspan x="21.26" y="0">dustri 8</tspan><tspan class="cls-39" x="59.16" y="0">,</tspan><tspan x="60.73" y="0">9%</tspan></text><polygon class="cls-21" points="593.34 105.48 577.1 115.88 577.1 137.27 610.07 137.27 610.07 114.89 593.34 105.48"/><polygon class="cls-19" points="575.6 116.31 592.4 104.92 593.74 104.92 611.57 114.6 611.57 117.34 593.37 106.52 575.6 118.38 575.6 116.31"/><rect class="cls-19" x="575.53" y="137.27" width="35.95" height="3.4"/><polygon class="cls-19" points="602.93 109.91 602.93 107.04 605.28 107.04 605.28 111.65 602.93 109.91"/><path class="cls-20" d="m578.08,136.02c-1.01-1.09-.13-2.3,0-6.31.14-4.41-.83-5.68,0-9.39.31-1.39.5-2.2,1.16-3.07,1.12-1.48,2.04-1.1,5.32-3.32.99-.67,2.04-1.27,2.99-1.99.89-.68,1.42-1.17,1.74-1,.54.28.1,2.07.08,2.16-.7,2.85-2.93,3.49-5.4,6.73-.77,1.01-1.69,2.22-2.33,4.07-.25.73-1.41,4.13-.17,7.89.85,2.56,2.17,3.37,1.7,4.26-.63,1.18-3.79,1.39-5.1-.03Z"/><path class="cls-20" d="m608.88,125.76c.12.02.36.21.27,6.71-.03,2.47-.08,3.16-.63,3.63-1,.84-2.23-.24-5.35-.27-3.03-.03-4.64.97-5.08.27-.35-.55.26-1.79,1.18-2.45,1.66-1.19,3.28.26,5.17-.36,3.4-1.13,3.66-7.65,4.44-7.53Z"/><rect class="cls-44" x="599.37" y="118.38" width="6.34" height="6.34"/><ellipse class="cls-43" cx="48.35" cy="112.03" rx="8.11" ry="8.81"/><path class="cls-43" d="m75.92,118.53c-1.83,2.59-5.24,3.08-7.63,1.09-1.39-1.16-2.12-2.92-2.13-4.69,0-1.26.37-2.53,1.13-3.6,1.83-2.59,5.24-3.08,7.63-1.09,2.38,1.99,2.83,5.7,1,8.29h0Z"/><path class="cls-43" d="m41.92,106.68l-1.67-1.08s2.68-4.85,6.65-4.85,6.57.18,8.27,2.47c1.7,2.29,2.51,3.67,2.84,5.8.32,2.13.41,5.13.41,5.13h-2.18"/><path class="cls-43" d="m64.41,114.93s.16-4.31,1.38-5.37,2.43-1.85,3.97-2.11,3.16,0,3.16,0l-.57,1.57-6.18,5.91"/><path class="cls-43" d="m74.25,109.76s3.37-4.86,1.59-5.92c-1.78-1.06-4.13-2.2-7.18-2.47-3.04-.27-7.2,0-7.2,0l.51,6.69.41,6.08h2.03"/><path class="cls-43" d="m61.21,98.06s1.23.23,1.33,1.11c.21,1.78-1.07,2.2-1.07,2.2"/><path class="cls-43" d="m64.11,101.25v-6.07l.72-.36s-.17-2.74.33-3.21c.85-.8,1.57-.78,1.57-.78v.86s-.44.07-.56.14c-.09.05-.5.16-.55,1-.08,1.28-.07,1.89-.07,1.89l.75.21.03,6.32"/><polyline class="cls-43" points="58.41 114.15 62.38 114.15 61.97 108.07 57.81 108.07 61.97 108.07 60.68 91.15 61.24 89.74 48.76 89.74 49.33 90.97 48.35 99.08 44.04 99.08 44.04 101.59"/><path class="cls-43" d="m49.71,90.03s.21-1.33,1.02-1.44c1.64-.23,2.02,1.17,2.02,1.17"/><polygon class="cls-42" points="50.53 91.47 49.71 99.72 52.79 99.72 52.75 91.47 50.53 91.47"/><polygon class="cls-42" points="54.71 91.47 59.49 91.47 60.39 104.45 57.55 104.45 54.71 100.75 54.71 91.47"/><path class="cls-42" d="m75.48,112.86c-.09.38-.75-.23-1.28-.53-1.03-.58-1.78-.5-2.59-.47-1.1.05-2.23,1.6-2.32,1.77-.84,1.6.26,3.74-.08,3.84-.31.09-1.16-1.16-1.19-2.58-.03-1.99,1.58-3.23,1.7-3.32,1.46-1.08,3.03-.65,3.39-.55,1.25.34,2.5,1.33,2.38,1.84h0Z"/><path class="cls-42" d="m43.19,116.26c-.13.29-1.68-2.79-.77-5.59.1-.31.73-2.16,2.46-3.15,2.88-1.65,7.14-.1,6.51.53-.34.34-1.71-.56-3.94-.12-2.59.51-2.64,1.68-3.61,2.97-1.32,1.75-.31,4.61-.66,5.35Z"/><path class="cls-42" d="m569.66,224.88h3.96c.25,0,.46-.21.46-.46v-25.55c0-.25.21-.46.46-.46h17.07c.33,0,.55-.33.42-.63l-.94-2.28c-.07-.17-.24-.28-.42-.28h-16.24c-.21,0-.39-.13-.44-.33l-1.73-6.11c-.09-.32-.48-.44-.74-.22l-1.91,1.63c-.1.08-.15.2-.16.32l-.22,4.28c-.01.24-.21.43-.46.43h-3.38c-.19,0-.36-.12-.43-.3l-.9-2.41c-.07-.18-.24-.3-.43-.3h-2.79c-.25,0-.46.21-.46.46v7.92c0,.25.21.46.46.46h3.4c.25,0,.46-.21.46-.47v-1.13c0-.26.22-.47.48-.46l3.78.15c.25.01.44.21.44.46l-.18,24.81c0,.25.2.46.46.46h0Z"/><path class="cls-42" d="m573.47,200.29h6.7c.33,0,.6.27.6.6v15.13c0,.33-.27.6-.6.6h-6.7"/><polyline class="cls-42" points="564.6 193.97 572.05 188.08 588.12 195.22 586.58 195.22 572.34 189.5 565.07 195.22"/><path class="cls-42" d="m589.2,204.57c.34.23.8.03.96-.21.14-.22,0-.41.15-.57.16-.17.53-.18.7-.02.27.26.02.96-.3,1.38-.1.13-.49.65-1.19.7-.8.06-1.31-.57-1.4-.68-.12-.14-.59-.7-.42-1.32.13-.49.61-.77.74-.85.4-.23.71-.21.72-.34.02-.16-.46-.21-.93-.6-.54-.44-.72-1.05-.76-1.25-.13-.54-.04-1,.02-1.34.02-.12-.03-.48.13-.49,1.91-.11,2.84.02,4.42.02.27,0,.35,1.06.15,1.59-.17.45-.51.77-.93,1.17-.54.51-.8.55-1.02,1-.16.33-.17.25-.38.4-.33.24-.64.27-.83.49-.17.2-.14.69.19.91h0Z"/><path class="cls-43" d="m578.97,201.97c.09-.03.07-.17-.03-.17h-2.02c-.42,0-.85-.01-1.27-.01-.38,0-.72-.09-.72.39l.02,8.96c0,.11.17.12.18,0l.71-6.44c.04-.34.08-.69.26-.98.13-.21.33-.37.54-.51.72-.52,1.51-.94,2.34-1.25Z"/><path class="cls-43" d="m563.77,193.19c0-.12-.07-.26-.17-.35-.2-.15-.5-.05-.69,0-.97.25-1.52-.35-1.9-.06-.27.21-.16.67-.09,1.44.15,1.54.33,3.47-.09,4.95-.06.22-.22.71.03,1.07.13.19.36.3.75.37.97.19,1.35-.33,2.16-.09.12.03.31.1.37.03.07-.09-.06-.35-.2-.49-.49-.49-1.35.15-1.87-.2-.39-.27-.21-.84-.23-2.5-.03-2.05-.34-2.42.06-2.93.59-.77,1.86-.73,1.87-1.24h0Z"/><path class="cls-43" d="m580.16,212.96c.19.11.14.33.21,1.39.04.64.08.89-.07,1.21-.01.02-.12.24-.32.43-.53.49-1.3.35-2.5.32-1.63-.03-2.25.19-2.32-.04-.08-.24.51-.78,1.18-.93.6-.13.81.16,1.75.16.66,0,1.12,0,1.36-.3.47-.58-.4-1.68.07-2.14.17-.17.47-.21.64-.11h0Z"/><path class="cls-43" d="m589.1,199.24c.39,0,.71,0,.93,0,.6,0,.91,0,.97,0,.43-.04.66-.12.76,0,.05.07.02.13,0,.35-.04.49.08.6,0,.89-.03.13-.12.25-.3.49-.38.52-.62.83-.82.79-.17-.04-.3-.36-.27-.62.04-.45.5-.6.43-.82-.08-.25-.74-.07-1.28-.49-.24-.19-.37-.42-.43-.6h0Z"/><line class="cls-36" x1="81.72" y1="111" x2="225.82" y2="111"/><line class="cls-34" x1="212.52" y1="160.15" x2="107.63" y2="160.15"/><line class="cls-31" x1="412.63" y1="128.32" x2="569.27" y2="128.32"/><line class="cls-35" x1="250.68" y1="211.33" x2="97.9" y2="211.33"/></svg>