<?xml version="1.0" encoding="UTF-8"?><svg id="Layer_1" xmlns="http://www.w3.org/2000/svg" width="195.33mm" height="90.54mm" viewBox="0 0 553.68 256.64"><defs><style>.cls-1{font-size:50px;}.cls-1,.cls-2{fill:#367b79;}.cls-1,.cls-2,.cls-3{font-family:Campton-BoldDEMO, Campton;font-weight:700;}.cls-4{letter-spacing:-.02em;}.cls-5{letter-spacing:0em;}.cls-2{font-size:10px;}.cls-6{letter-spacing:-.03em;}.cls-7{letter-spacing:0em;}.cls-8{letter-spacing:-.02em;}.cls-3{fill:#eaf4f3;font-size:100px;}.cls-9{letter-spacing:0em;}.cls-10{letter-spacing:-.04em;}.cls-11{fill:#76aeae;}.cls-11,.cls-12,.cls-13{stroke-width:0px;}.cls-12{fill:#d1e4e2;}.cls-13{fill:#b3ddf1;}.cls-14{letter-spacing:0em;}</style></defs><text class="cls-3" transform="translate(143.21 84)"><tspan class="cls-9" x="0" y="0">2</tspan><tspan class="cls-8" x="56.5" y="0">0</tspan><tspan x="125.8" y="0">40</tspan></text><polygon class="cls-12" points="185.39 98.66 171.65 80.41 170.27 73.28 207.89 65.99 209.03 71.89 226.21 90.76 246.79 197.08 209.61 210.99 185.39 98.66"/><polygon class="cls-11" points="165.24 102.6 171.65 80.41 185.39 98.66 209.61 210.99 187.18 205.16 165.24 102.6"/><path class="cls-12" d="m280.97,110.47c-.37,2.95-1.01,5.81-2.48,8.01-1.94,2.91-4.67,4.32-6.02,7.74-1.45,3.66-1.76,7.65-2.35,11.51-1.08,7.11-3.17,14.04-4.03,21.17-1.6,13.26.62,27.01-2.34,40.12-.62,2.77-2.24,5.6-4.95,6.45-2.33.73-4.88-.19-6.86-1.61-1.86-1.33-3.43-3.14-4.16-5.3-.73-2.16-.55-4.69.75-6.56.94-1.35,2.37-2.28,3.36-3.59,1.7-2.23,1.91-5.21,2.18-8,1.52-15.95,7.58-31.45,12.15-46.72.78-2.6,1.57-5.29,1.31-7.99-.26-2.74-1.57-5.25-2.64-7.79-2.73-6.49-.37-11.87,1.43-18.24,1.85-6.56,1.78-13.51,3.2-20.17.13-.62.29-1.27.7-1.76.41-.49,1.15-.76,1.7-.44.76.43.69,1.54.44,2.38-.47,1.57-1.18,3.07-1.62,4.65-.77,2.75-.69,5.65-1.05,8.48-.5,3.99-1.86,7.82-2.44,11.8-.14.99-.15,2.2.69,2.75.15.1.33.17.51.15.43-.06.6-.58.67-1,1.53-8.45,3.05-16.9,4.58-25.34.15-.81.31-1.65.84-2.28s1.54-.92,2.18-.4c.49.4.58,1.13.52,1.76-.16,1.81-1.11,3.44-1.73,5.14-1.52,4.19-1.02,8.85-2.07,13.19-.55,2.28-1.53,4.43-2.06,6.71-.14.58-.24,1.21-.04,1.77s.83,1.02,1.4.82c.46-.15.71-.64.9-1.09,1.67-3.99,2.11-8.38,2.9-12.63.51-2.74,1.18-5.45,1.59-8.2.21-1.45.35-2.92.37-4.39,0-.86-.1-2.48.98-2.85.33-.11.73-.02,1,.19,1.6,1.25-1.18,9.36-1.5,10.98-1.1,5.47-2.19,10.94-3.29,16.41-.17.86-.22,1.98.57,2.36.58.27,1.44-.47,1.64-.64,1.72-1.47,1.76-3.91,2.04-6.45.44-3.97.88-2.91,1.45-7.38.61-4.75.98-12.72,2.52-14.14.16-.15.62-.58.96-.44.3.12.33.64.39.91.31,1.49-.24,3.17-.52,4.63-.36,1.87-.71,3.74-1.05,5.61-.66,3.66-1.27,7.32-1.84,11-.4,2.62-.5,5.73-.87,8.75Z"/><path class="cls-11" d="m273.86,123.8c.83-.76,2.5-1.9,2.33-3.24,0-.08-.1-.73-.62-1.09-.88-.6-1.83.41-3.45.33-1.88-.09-2.92-1.57-3.26-1.27-.2.17-.06.87,1.4,3.17,0,0,0,0,0,0,1.55,2.57.24,5.96-.13,6.95-2.75,7.42-5.14,22.76-5.27,23.63-.03.21,0,.05-.85,10.04-.38,4.56-1,11.8-1.9,20.41-1.25,12.01-1.73,13.83-3.3,16.06-1.74,2.47-4.29,4.64-3.58,6.06.5,1,2.41,1.23,3.82.86.66-.17,3.1-.97,5.3-7.12,1.82-5.1,1.93-9.55,1.89-13.41-.08-6.86-.65-10.98-.91-14.32-1.24-15.76,3.41-23.2,5.89-39.23.58-3.74.75-6.07,2.65-7.83Z"/><path class="cls-12" d="m310.24,81.46c4.83,1.14,6.91,7.99,7.86,11.14,2.33,7.65.6,14.66-.8,18.53-3.34,9.22-7.59,8.26-12.32,17.05-2.19,4.06-2.04,5.68-5.41,31.19-2.41,18.19-2.46,17.17-2.48,19.02-.14,10.51,1.82,16.93-1.57,26.21-2.48,6.81-5.03,7.44-5.65,7.56-3.42.65-7.42-3.33-9.01-7.11-2.42-5.76.84-10.85,4.81-20.83,9.89-24.88,9.5-43.11,12.76-55,.07-.26.29-1.04.25-2.07-.12-3.61-3.22-6.12-4.13-7-5.1-4.9-4.34-18.88,1.11-28.02,2.4-4.03,8.67-12.06,14.57-10.67Z"/><path class="cls-11" d="m301.92,127.14c1.28,2.77.26,5.46-.69,8.9-1.36,4.95-1.87,10.11-2.54,15.21-1.49,11.44-2.47,22.65-2.96,28.59-.46,5.66-1.8,11.23-2.26,16.88,0,0-.87,10.68-4.26,11.78-.08.03-.27.08-.53.18-.25.1-.91.37-1.94,1.14-.61.46-.92.69-.92.83-.02.7,2.25,1.83,4.04,1.51.81-.15,2.73-.8,4.75-6.13,2.07-5.45,2.1-10.15,2.12-13.17.06-7,.2-13.67.26-16.16.14-5.38.83-10.68,2.2-21.29,1.46-11.27,2.49-15.97,2.83-17.44,1.91-8.5,1.88-9.71,2.99-11.14.78-1.01,4.99-6.09,7.62-9.5.33-.43,1.04-1.37.73-1.94-.39-.72-2.25-.61-3.61-.18-3.13.98-3.14,3.45-5.38,3.86-2.63.49-4.58-2.56-5.73-1.76-.95.67-.25,3.22-.04,3.96.84,3.02,2.39,3.9,3.3,5.87Z"/><path class="cls-12" d="m345.61,131.29l1.12-2.76s.33-1.15,1.26-.87,29.5,10,29.5,10c0,0,1.1.26.85,1.45s-.66,3.69-.66,3.69"/><rect class="cls-12" x="342.52" y="136.57" width="37.64" height="2.02" rx="1.01" ry="1.01" transform="translate(68.65 -115.07) rotate(19.96)"/><rect class="cls-12" x="341.29" y="137.94" width="39.28" height="2.41" rx="1.2" ry="1.2" transform="translate(69.16 -114.83) rotate(19.96)"/><path class="cls-12" d="m344.05,131.27l-3.82,15.64-.82-.3-7.9,28.58.78,1.33-2.58,9.17s-.6,1.26.48,2.05,7.27,4.66,11.51,5.96c4.24,1.3,10.97,2.79,11.41,2.55s1.17-1.17,1.68-2.13,3.75-8.06,3.75-8.06l.9-.11,13.1-27.23-.53-.27,6.85-14.52-34.81-12.66Z"/><path class="cls-11" d="m348.62,185.46c.05.27.37,1.93-.5,3.38-.94,1.57-2.83,2.12-4.99,2.72-2.97.82-4.44.55-4.5.94-.13.85,7.01,1.39,10.95,3.22.53.25,2.36,1.12,3.74.39.54-.29.74-.67,1.94-3.13,1.24-2.54,1.94-3.77,2.14-4.44.16-.54.43-1.05.63-1.58.19-.5.32-.87.65-1.02.3-.14.54.01.75.01,1.03,0,1.85-3.35,2.2-4.58.19-.68.1-.21,2.82-5.86,1.21-2.51,3.09-6.48,5.99-12.78,1.9-2.93,2.19-3.89,1.96-4.09-.08-.07-.36-.17-.4-.41-.03-.15.05-.28.07-.31.36-.61.42-2.16,3.04-7.15.85-1.63,1.73-2.48,1.82-3.62.01-.17.04-.75.39-.94.3-.17.56.1.96-.05.35-.13.68-.54.67-.92,0-.52-.7-.71-.66-1.24.02-.34.31-.43.26-.67-.08-.39-.81-.3-1.18-.67-.76-.78,1.01-2.64.4-4.14-.36-.88-1.36-1.22-3.26-1.86-1.34-.45-2.01-.68-3.58-.84-5.28-.56-13.44-4.59-13.94-3.68-.66,1.21,14.38,6.77,15.11,16.4,0,.1.09.29.04.53-.58,3.13-16.67,6.7-27.36.89-1.31-.71-3.52-2.27-4.95-1.43-.96.56-1.05,1.87-1.95,7.13-.57,3.32-.46,2.4-.72,4.05-1.21,7.75-.7,9.8-2.61,12.31-1.29,1.7-2.12,1.53-2.15,2.37-.14,3.58,14.97,4.68,16.2,11.08Z"/><path class="cls-13" d="m526.84,252.86c-341.83.09-482.11.26-491.67.49-3.74.09-7.48.07-11.22.13-14.92.25-19.61.64-19.85-.45-.24-1.08,4.26-3.01,13.25-6.81,5.35-2.27,8.48-3.59,11.36-4.54,17.29-5.73,25.02,2.14,35.97-3.79,7-3.79,4.23-7.23,13.25-14.39,9.76-7.75,13.71-4.29,26.88-11.36,14.17-7.6,12.33-13.06,28.06-20.76,4.28-2.1,7.82-3.48,12.79-7.19,2.9-2.16,4.36-4.04,5.41-5.09,2.84-2.86,6.19-3.89,10.89-5.27,16.02-4.7,35.75-2.47,46.43-2.37.09,0,.35,0,.69,0,0,0,4.54.07,9.12.53,8.58.87,17.74,3.44,28.05,3.2,5.65-.14,3.46-.92,14.75-2.22,12.36-1.42,18.53-2.12,26.09-.91,5.19.83,8.81,2.14,16.81,2.61,1.38.08,3.87.2,7.56.12,5.65-.11,14.57-.67,26.43-2.91,0,0,7.87-3.04,18.15-2.94,8.02.08,12.9,2.5,20.46,5.3,26.79,9.93,45.97,10.39,52.01,18.25,2.78,3.62,4.74,7.84,10.65,12.64,6.21,5.05,11.7,6.53,16.24,8.35,13.32,5.35,17.55,13.27,27.25,21.29,8.42,6.96,21.96,14.82,44.2,18.09Z"/><rect class="cls-11" x="185.06" y="94.71" width="41.57" height=".52" transform="translate(-14.3 40.87) rotate(-10.96)"/><rect class="cls-11" x="171.19" y="76.05" width="38.33" height=".18" transform="translate(-11.76 41.78) rotate(-12.15)"/><path class="cls-11" d="m190.43,76.16c.97.35-.65,3.45,1.04,6.39,1.7,2.96,6.12,4.69,9.56,3.78,3.62-.95,5.43-4.65,6.32-4.09.54.34.17,1.87-.09,2.94-.13.54-.65,2.67-2.06,4.22-3.48,3.81-10.37,1.88-11.19,1.65-1.68-.47-4.65-1.3-6.33-4.11-1.17-1.95-1.13-3.86-1.1-4.46.2-3.56,2.87-6.69,3.85-6.34Z"/><path class="cls-12" d="m207.85,80.18c-.1,3.7-4.31,6.51-7.77,7.2-5.13,1.02-11.67-1.99-12.12-6.42-.41-4.09,4.46-8.31,9.32-8.64,5.05-.34,10.7,3.49,10.58,7.86Z"/><text class="cls-1" transform="translate(154.7 244.84)"><tspan x="0" y="0">8</tspan><tspan class="cls-4" x="31.15" y="0">0</tspan><tspan x="66.05" y="0">%</tspan></text><text class="cls-2" transform="translate(285.83 244.84)"><tspan x="0" y="0">EN</tspan><tspan class="cls-5" x="13.55" y="0">G</tspan><tspan x="21.55" y="0">ANG</tspan><tspan class="cls-14" x="44.72" y="0">S</tspan><tspan class="cls-5" x="51.43" y="0">P</tspan><tspan x="57.75" y="0">L</tspan><tspan class="cls-10" x="63.6" y="0">A</tspan><tspan class="cls-6" x="70.79" y="0">S</tspan><tspan class="cls-7" x="77.28" y="0">T</tspan><tspan x="83.69" y="0">IK</tspan></text></svg>