<?xml version="1.0" encoding="utf-8"?>
<!-- Generator: Adobe Illustrator 28.0.0, SVG Export Plug-In . SVG Version: 6.00 Build 0)  -->
<svg version="1.1" id="Layer_1" xmlns="http://www.w3.org/2000/svg" xmlns:xlink="http://www.w3.org/1999/xlink" x="0px" y="0px"
	 viewBox="0 0 553.7 256.6" style="enable-background:new 0 0 553.7 256.6;" xml:space="preserve">
<style type="text/css">
	.st0{fill:#EAF4F3;}
	.st1{font-family:'Rubik-Bold';}
	.st2{font-size:100px;}
	.st3{letter-spacing:-2;}
	.st4{fill:#D1E4E2;}
	.st5{fill:#76AEAE;}
	.st6{fill:#B3DDF1;}
	.st7{fill:#367B79;}
	.st8{font-size:50px;}
	.st9{letter-spacing:-1;}
	.st10{font-size:10px;}
</style>
<text transform="matrix(1 0 0 1 148.213 84.0035)" class="st0 st1 st2">2</text>
<text transform="matrix(1 0 0 1 206.7141 84.0035)" class="st0 st1 st2 st3">0</text>
<text transform="matrix(1 0 0 1 272.0052 85.0022)" class="st0 st1 st2">40</text>
<polygon class="st4" points="185.4,98.7 171.7,80.4 170.3,73.3 207.9,66 209,71.9 226.2,90.8 246.8,197.1 209.6,211 "/>
<polygon class="st5" points="165.2,102.6 171.7,80.4 185.4,98.7 209.6,211 187.2,205.2 "/>
<path class="st4" d="M281,110.5c-0.4,3-1,5.8-2.5,8c-1.9,2.9-4.7,4.3-6,7.7c-1.5,3.7-1.8,7.7-2.4,11.5c-1.1,7.1-3.2,14-4,21.2
	c-1.6,13.3,0.6,27-2.3,40.1c-0.6,2.8-2.2,5.6-5,6.5c-2.3,0.7-4.9-0.2-6.9-1.6c-1.9-1.3-3.4-3.1-4.2-5.3c-0.7-2.2-0.6-4.7,0.8-6.6
	c0.9-1.4,2.4-2.3,3.4-3.6c1.7-2.2,1.9-5.2,2.2-8c1.5-16,7.6-31.5,12.2-46.7c0.8-2.6,1.6-5.3,1.3-8c-0.3-2.7-1.6-5.3-2.6-7.8
	c-2.7-6.5-0.4-11.9,1.4-18.2c1.9-6.6,1.8-13.5,3.2-20.2c0.1-0.6,0.3-1.3,0.7-1.8c0.4-0.5,1.1-0.8,1.7-0.4c0.8,0.4,0.7,1.5,0.4,2.4
	c-0.5,1.6-1.2,3.1-1.6,4.7c-0.8,2.8-0.7,5.7-1.1,8.5c-0.5,4-1.9,7.8-2.4,11.8c-0.1,1-0.2,2.2,0.7,2.8c0.1,0.1,0.3,0.2,0.5,0.2
	c0.4-0.1,0.6-0.6,0.7-1c1.5-8.5,3.1-16.9,4.6-25.3c0.1-0.8,0.3-1.7,0.8-2.3c0.5-0.6,1.5-0.9,2.2-0.4c0.5,0.4,0.6,1.1,0.5,1.8
	c-0.2,1.8-1.1,3.4-1.7,5.1c-1.5,4.2-1,8.9-2.1,13.2c-0.6,2.3-1.5,4.4-2.1,6.7c-0.1,0.6-0.2,1.2,0,1.8c0.2,0.6,0.8,1,1.4,0.8
	c0.5-0.2,0.7-0.6,0.9-1.1c1.7-4,2.1-8.4,2.9-12.6c0.5-2.7,1.2-5.5,1.6-8.2c0.2-1.5,0.4-2.9,0.4-4.4c0-0.9-0.1-2.5,1-2.9
	c0.3-0.1,0.7,0,1,0.2c1.6,1.3-1.2,9.4-1.5,11c-1.1,5.5-2.2,10.9-3.3,16.4c-0.2,0.9-0.2,2,0.6,2.4c0.6,0.3,1.4-0.5,1.6-0.6
	c1.7-1.5,1.8-3.9,2-6.5c0.4-4,0.9-2.9,1.5-7.4c0.6-4.8,1-12.7,2.5-14.1c0.2-0.2,0.6-0.6,1-0.4c0.3,0.1,0.3,0.6,0.4,0.9
	c0.3,1.5-0.2,3.2-0.5,4.6c-0.4,1.9-0.7,3.7-1,5.6c-0.7,3.7-1.3,7.3-1.8,11C281.5,104.4,281.4,107.5,281,110.5L281,110.5z"/>
<path class="st5" d="M273.9,123.8c0.8-0.8,2.5-1.9,2.3-3.2c0-0.1-0.1-0.7-0.6-1.1c-0.9-0.6-1.8,0.4-3.5,0.3
	c-1.9-0.1-2.9-1.6-3.3-1.3c-0.2,0.2-0.1,0.9,1.4,3.2l0,0c1.6,2.6,0.2,6-0.1,7c-2.8,7.4-5.1,22.8-5.3,23.6c0,0.2,0,0.1-0.9,10
	c-0.4,4.6-1,11.8-1.9,20.4c-1.3,12-1.7,13.8-3.3,16.1c-1.7,2.5-4.3,4.6-3.6,6.1c0.5,1,2.4,1.2,3.8,0.9c0.7-0.2,3.1-1,5.3-7.1
	c1.8-5.1,1.9-9.6,1.9-13.4c-0.1-6.9-0.7-11-0.9-14.3c-1.2-15.8,3.4-23.2,5.9-39.2C271.8,127.9,272,125.6,273.9,123.8L273.9,123.8z"
	/>
<path class="st4" d="M310.2,81.5c4.8,1.1,6.9,8,7.9,11.1c2.3,7.7,0.6,14.7-0.8,18.5c-3.3,9.2-7.6,8.3-12.3,17.1
	c-2.2,4.1-2,5.7-5.4,31.2c-2.4,18.2-2.5,17.2-2.5,19c-0.1,10.5,1.8,16.9-1.6,26.2c-2.5,6.8-5,7.4-5.7,7.6c-3.4,0.7-7.4-3.3-9-7.1
	c-2.4-5.8,0.8-10.9,4.8-20.8c9.9-24.9,9.5-43.1,12.8-55c0.1-0.3,0.3-1,0.2-2.1c-0.1-3.6-3.2-6.1-4.1-7c-5.1-4.9-4.3-18.9,1.1-28
	C298.1,88.1,304.3,80.1,310.2,81.5L310.2,81.5z"/>
<path class="st5" d="M301.9,127.1c1.3,2.8,0.3,5.5-0.7,8.9c-1.4,5-1.9,10.1-2.5,15.2c-1.5,11.4-2.5,22.7-3,28.6
	c-0.5,5.7-1.8,11.2-2.3,16.9c0,0-0.9,10.7-4.3,11.8c-0.1,0-0.3,0.1-0.5,0.2c-0.2,0.1-0.9,0.4-1.9,1.1c-0.6,0.5-0.9,0.7-0.9,0.8
	c0,0.7,2.3,1.8,4,1.5c0.8-0.1,2.7-0.8,4.8-6.1c2.1-5.5,2.1-10.2,2.1-13.2c0.1-7,0.2-13.7,0.3-16.2c0.1-5.4,0.8-10.7,2.2-21.3
	c1.5-11.3,2.5-16,2.8-17.4c1.9-8.5,1.9-9.7,3-11.1c0.8-1,5-6.1,7.6-9.5c0.3-0.4,1-1.4,0.7-1.9c-0.4-0.7-2.3-0.6-3.6-0.2
	c-3.1,1-3.1,3.5-5.4,3.9c-2.6,0.5-4.6-2.6-5.7-1.8c-1,0.7-0.3,3.2,0,4C299.4,124.3,301,125.2,301.9,127.1L301.9,127.1z"/>
<path class="st4" d="M345.6,131.3l1.1-2.8c0,0,0.3-1.2,1.3-0.9c0.9,0.3,29.5,10,29.5,10s1.1,0.3,0.9,1.5s-0.7,3.7-0.7,3.7"/>
<path class="st4" d="M344.9,130.6l33.5,12.2c0.5,0.2,0.8,0.8,0.6,1.3v0c-0.2,0.5-0.8,0.8-1.3,0.6l-33.5-12.2
	c-0.5-0.2-0.8-0.8-0.6-1.3v0C343.8,130.6,344.4,130.4,344.9,130.6z"/>
<path class="st4" d="M344,131.7l34.7,12.6c0.6,0.2,0.9,0.9,0.7,1.5l0,0c-0.2,0.6-0.9,0.9-1.5,0.7L343.2,134
	c-0.6-0.2-0.9-0.9-0.7-1.5l0,0C342.7,131.8,343.4,131.5,344,131.7z"/>
<path class="st4" d="M344.1,131.3l-3.8,15.6l-0.8-0.3l-7.9,28.6l0.8,1.3l-2.6,9.2c0,0-0.6,1.3,0.5,2.1s7.3,4.7,11.5,6
	c4.2,1.3,11,2.8,11.4,2.6c0.4-0.2,1.2-1.2,1.7-2.1c0.5-1,3.8-8.1,3.8-8.1l0.9-0.1l13.1-27.2l-0.5-0.3l6.9-14.5L344.1,131.3
	L344.1,131.3z"/>
<path class="st5" d="M348.6,185.5c0,0.3,0.4,1.9-0.5,3.4c-0.9,1.6-2.8,2.1-5,2.7c-3,0.8-4.4,0.6-4.5,0.9c-0.1,0.9,7,1.4,11,3.2
	c0.5,0.2,2.4,1.1,3.7,0.4c0.5-0.3,0.7-0.7,1.9-3.1c1.2-2.5,1.9-3.8,2.1-4.4c0.2-0.5,0.4-1.1,0.6-1.6c0.2-0.5,0.3-0.9,0.6-1
	c0.3-0.1,0.5,0,0.8,0c1,0,1.9-3.4,2.2-4.6c0.2-0.7,0.1-0.2,2.8-5.9c1.2-2.5,3.1-6.5,6-12.8c1.9-2.9,2.2-3.9,2-4.1
	c-0.1-0.1-0.4-0.2-0.4-0.4c0-0.2,0-0.3,0.1-0.3c0.4-0.6,0.4-2.2,3-7.2c0.9-1.6,1.7-2.5,1.8-3.6c0-0.2,0-0.8,0.4-0.9
	c0.3-0.2,0.6,0.1,1-0.1c0.4-0.1,0.7-0.5,0.7-0.9c0-0.5-0.7-0.7-0.7-1.2c0-0.3,0.3-0.4,0.3-0.7c-0.1-0.4-0.8-0.3-1.2-0.7
	c-0.8-0.8,1-2.6,0.4-4.1c-0.4-0.9-1.4-1.2-3.3-1.9c-1.3-0.5-2-0.7-3.6-0.8c-5.3-0.6-13.4-4.6-13.9-3.7c-0.7,1.2,14.4,6.8,15.1,16.4
	c0,0.1,0.1,0.3,0,0.5c-0.6,3.1-16.7,6.7-27.4,0.9c-1.3-0.7-3.5-2.3-5-1.4c-1,0.6-1,1.9-2,7.1c-0.6,3.3-0.5,2.4-0.7,4.1
	c-1.2,7.8-0.7,9.8-2.6,12.3c-1.3,1.7-2.1,1.5-2.2,2.4C332.3,178,347.4,179.1,348.6,185.5L348.6,185.5z"/>
<path class="st6" d="M526.9,252.9C185,253,44.7,253.1,35.2,253.4c-3.7,0.1-7.5,0.1-11.2,0.1C9,253.7,4.3,254.1,4.1,253
	c-0.2-1.1,4.3-3,13.3-6.8c5.4-2.3,8.5-3.6,11.4-4.5c17.3-5.7,25,2.1,36-3.8c7-3.8,4.2-7.2,13.3-14.4c9.8-7.8,13.7-4.3,26.9-11.4
	c14.2-7.6,12.3-13.1,28.1-20.8c4.3-2.1,7.8-3.5,12.8-7.2c2.9-2.2,4.4-4,5.4-5.1c2.8-2.9,6.2-3.9,10.9-5.3c16-4.7,35.8-2.5,46.4-2.4
	c0.1,0,0.4,0,0.7,0c0,0,4.5,0.1,9.1,0.5c8.6,0.9,17.7,3.4,28.1,3.2c5.7-0.1,3.5-0.9,14.8-2.2c12.4-1.4,18.5-2.1,26.1-0.9
	c5.2,0.8,8.8,2.1,16.8,2.6c1.4,0.1,3.9,0.2,7.6,0.1c5.7-0.1,14.6-0.7,26.4-2.9c0,0,7.9-3,18.2-2.9c8,0.1,12.9,2.5,20.5,5.3
	c26.8,9.9,46,10.4,52,18.3c2.8,3.6,4.7,7.8,10.7,12.6c6.2,5.1,11.7,6.5,16.2,8.4c13.3,5.4,17.6,13.3,27.3,21.3
	C491.1,241.7,504.6,249.6,526.9,252.9L526.9,252.9z"/>
<rect x="185.1" y="94.7" transform="matrix(0.9818 -0.1901 0.1901 0.9818 -14.3024 40.8694)" class="st5" width="41.6" height="0.5"/>
<rect x="171.2" y="76.1" transform="matrix(0.9776 -0.2105 0.2105 0.9776 -11.7641 41.7713)" class="st5" width="38.3" height="0.2"/>
<path class="st5" d="M190.4,76.2c1,0.4-0.7,3.5,1,6.4c1.7,3,6.1,4.7,9.6,3.8c3.6-1,5.4-4.7,6.3-4.1c0.5,0.3,0.2,1.9-0.1,2.9
	c-0.1,0.5-0.7,2.7-2.1,4.2c-3.5,3.8-10.4,1.9-11.2,1.7c-1.7-0.5-4.7-1.3-6.3-4.1c-1.2-2-1.1-3.9-1.1-4.5
	C186.8,78.9,189.5,75.8,190.4,76.2L190.4,76.2z"/>
<path class="st4" d="M207.9,80.2c-0.1,3.7-4.3,6.5-7.8,7.2c-5.1,1-11.7-2-12.1-6.4c-0.4-4.1,4.5-8.3,9.3-8.6
	C202.3,72,208,75.8,207.9,80.2L207.9,80.2z"/>
<text transform="matrix(1 0 0 1 154.7032 244.8468)" class="st7 st1 st8">8</text>
<text transform="matrix(1 0 0 1 185.8538 244.8468)" class="st7 st1 st8 st9">0</text>
<text transform="matrix(1 0 0 1 220.7545 244.8468)" class="st7 st1 st8">%</text>
<text transform="matrix(1 0 0 1 271.5972 244.8465)" class="st7 st1 st10">EN</text>
<text transform="matrix(1 0 0 1 285.1475 244.8465)" class="st7 st1 st10">G</text>
<text transform="matrix(1 0 0 1 293.1476 244.8465)" class="st7 st1 st10">ANG</text>
<text transform="matrix(1 0 0 1 314.9622 244.8465)" class="st7 st1 st10">S</text>
<text transform="matrix(1 0 0 1 322.0282 244.8465)" class="st7 st1 st10">P</text>
<text transform="matrix(1 0 0 1 328.3484 244.8465)" class="st7 st1 st10">L</text>
<text transform="matrix(1 0 0 1 334.1985 244.8465)" class="st7 st1 st10">A</text>
<text transform="matrix(1 0 0 1 341.3886 244.8465)" class="st7 st1 st10">S</text>
<text transform="matrix(1 0 0 1 347.8788 244.8465)" class="st7 st1 st10">T</text>
<text transform="matrix(1 0 0 1 354.2889 244.8465)" class="st7 st1 st10">IK</text>
</svg>
