<?xml version="1.0" encoding="UTF-8"?><svg id="Layer_1" xmlns="http://www.w3.org/2000/svg" width="571.58" height="285.68" viewBox="0 0 571.58 285.68"><defs><style>.cls-1{opacity:.55;}.cls-2{opacity:.5;}.cls-3,.cls-4,.cls-5,.cls-6,.cls-7,.cls-8,.cls-9{stroke-width:0px;}.cls-4{fill:#094157;}.cls-5{fill:#0a8ba9;}.cls-6{fill:#106683;}.cls-7{fill:#c6e6e4;}.cls-8{fill:#e1f2f1;}.cls-9{fill:#003a4c;}</style></defs><rect class="cls-4" x="0" y="238.2" width="571.58" height="47.48"/><path class="cls-5" d="m571.58,237H0V.3c25.97,5.75,65.4,12.63,113.69,13.42C191.32,14.98,207.45-.85,284.76.04c67.85.77,76.4,13.21,145.53,14.57,59.9,1.18,108.97-7.07,141.28-14.3v236.69Z"/><rect class="cls-9" y="236.89" width="571.58" height="2.62"/><path class="cls-6" d="m145.91,37.82c-.05-.49-.44-.83-.52-.9-.8-.73-.88-2.87-.95-3.55-.28-2.61-2.7-4.95-3.3-5.53-2.02-1.95-2.63-.84-8.01-3.5-2.49-1.23-3.78-2.18-5.71-1.86-.27.04-2.24.39-2.62,1.58-.05.16-.05.27.19,2.41.1.92.16,1.36-.13,1.66-.22.23-.62.33-.95.23-.67-.22-.55-1.15-1.2-2.15-.48-.74-1.61-1.84-2.75-1.58-.9.21-1.55,1.22-1.6,2.07-.02.41.11.41.15.88.13,1.51-1.23,2.2-.96,3.25.11.43.49.89.95.99.9.19,1.34-1.22,2.92-1.63,1.01-.26,2.17-.03,2.31.41.11.35-.48.61-.97,1.49-.03.06-.67,1.21-.56,2.16.23,2.02,3.77,3.03,3.58,3.55-.11.3-1.29.13-1.3.26-.01.13,1.19.12,1.94.93.36.38.32.64.52.95.75,1.16,3.02.4,6.49.6,2.74.15,2.55.69,4.14.47,1-.14,2.95-.62,4.59-.9.7-.12,1.11-.16,1.58,0,.43.14.69.38.88.26.19-.13.15-.54.12-.94-.04-.47-.14-.57-.06-.69.19-.3.84.03,1.14-.32.16-.19.13-.46.12-.58Z"/><path class="cls-6" d="m314.68,217.13c.05-.49.44-.83.52-.9.8-.73.88-2.87.95-3.55.28-2.61,2.7-4.95,3.3-5.53,2.02-1.95,2.63-.84,8.01-3.5,2.49-1.23,3.78-2.18,5.71-1.86.27.04,2.24.39,2.62,1.58.05.16.05.27-.19,2.41-.1.92-.16,1.36.13,1.66.22.23.62.33.95.23.67-.22.55-1.15,1.2-2.15.48-.74,1.61-1.84,2.75-1.58.9.21,1.55,1.22,1.6,2.07.02.41-.11.41-.15.88-.13,1.51,1.23,2.2.96,3.25-.11.43-.49.89-.95.99-.9.19-1.34-1.22-2.92-1.63-1.01-.26-2.17-.03-2.31.41-.11.35.48.61.97,1.49.03.06.67,1.21.56,2.16-.23,2.02-3.77,3.03-3.58,3.55.11.3,1.29.13,1.3.26.01.13-1.19.12-1.94.93-.36.38-.32.64-.52.95-.75,1.16-3.02.4-6.49.6-2.74.15-2.55.69-4.14.47-1-.14-2.95-.62-4.59-.9-.7-.12-1.11-.16-1.58,0-.43.14-.69.38-.88.26-.19-.13-.15-.54-.12-.94.04-.47.14-.57.06-.69-.19-.3-.84.03-1.14-.32-.16-.19-.13-.46-.12-.58Z"/><path class="cls-6" d="m320.86,193.55c.06-.3.36-.52.42-.57.62-.48.78-1.79.86-2.21.32-1.61,2.21-3.15,2.68-3.53,1.58-1.28,1.98-.63,6.06-2.5,1.89-.87,2.88-1.5,4.29-1.4.19.01,1.63.14,1.86.84.03.09.03.16-.25,1.48-.12.57-.18.84.02,1.01.15.13.44.17.69.1.5-.16.46-.73.98-1.37.39-.47,1.27-1.2,2.1-1.09.65.09,1.09.67,1.08,1.19,0,.25-.1.26-.15.54-.16.93.81,1.29.56,1.94-.1.27-.4.57-.74.65-.67.16-.93-.69-2.08-.87-.73-.12-1.6.08-1.72.35-.1.22.32.35.65.87.02.03.44.71.31,1.3-.26,1.24-2.92,2.02-2.79,2.34.07.18.94.02.95.1,0,.08-.88.13-1.47.65-.28.25-.26.4-.43.6-.6.74-2.24.38-4.8.66-2.02.22-1.91.54-3.07.48-.73-.04-2.14-.24-3.34-.34-.51-.04-.81-.05-1.16.07-.32.11-.53.26-.66.2-.13-.07-.09-.33-.04-.57.05-.29.13-.35.07-.43-.13-.17-.62.06-.83-.14-.11-.11-.08-.27-.06-.35Z"/><g class="cls-1"><path class="cls-8" d="m54.14,177.18c1.31-1.72,2.73-3.35,3.94-5.14,1.23-1.83,1.69-2.74,2.89-3.17.91-.33,1.46-.09,2.28-.68.87-.63.63-1.18,1.59-2.07.97-.89,1.71-.78,1.93-1.48.19-.58-.14-1.26-.47-1.67-.83-1.04-2.26-.55-4.71-.94-1.04-.16-3.22-.51-5.35-1.86-1.17-.74-2.46-1.88-3.82-1.55-.28.07-.47.18-.8.14-.97-.11-1.87-1.32-1.91-2.46-.03-.75.34-.76.41-1.59.1-1.27-.64-2.71-1.74-3.2-.67-.3-.88.02-1.42-.26-1.37-.72-1.78-3.8-.62-4.87.53-.49,1.24-.41,1.67-1.16.25-.43.2-.78.25-1.13.18-1.49,1.85-1.64,3.53-3.55,1.49-1.69,1.4-2.95,2.81-3.41.43-.14.81-.15,1.09-.14.07.14.22.34.24.6.07.72-.83,1.47-.88,2.03-.05.46.14.42.25,1.54.03.25.08.76.06,1.13-.07,1.42-1.26,2.49-1.54,2.74-1.2,1.08-2.61,1.3-3.08,1.36-1.93.27-2.94-.51-3.78.22-.39.35-.5.82-.61,1.28-.2.89-.14,2.32.68,2.87.63.42,1.1-.07,1.85.39.78.48.79,1.33,1.2,1.34.37.01.56-.7,1.04-1.63,1.01-1.95,2.51-3.34,3.46-4.2.64-.59.71-.56.99-.91.24-.3.93-1.23,1.15-3.42.05-.54.41-4.71-.63-5.39-.18-.3-2.72-1.57-4.92-.74-1.69.64-2.25,2.16-3.74,2.04-.32-.02-.93-.14-1.61.15-.44.19-.6.42-.88.61-.93.63-2.22.18-2.7.08-1.42-.3-3.46.7-8.57,6.01-3.18,3.31-2.56,3.1-4.48,4.96-5.13,4.99-9.84,6.75-10.03,10.05-.02.33-.02,1.11.05,1.96.14,1.77.48,2.71.8,4.13.5,2.21.15,1.98.73,5.42.39,2.33.59,3.5.99,4.2.79,1.42,1.75,1.97,1.69,3.23-.04.74-.4,1.28-.07,1.84.24.39.57.38,1.12.67,1.1.59,1.13,1.37,2.26,2.56.54.56.98.87,1.81,1.43.22.15,2.39,1.59,4.23,2.03,3.21.76,6.58-1.32,10.97-4.03.92-.56,1.88-1.22,3.45-1.77,1.9-.67,2.48-.41,3.69-1.03.8-.4,1.15-.82,3.24-3.57Zm4.84-9.27c-.78-.23-1.82-.92-1.79-1.69.02-.62.72-1.01,2.12-1.79.92-.52,1.67-.94,2.77-1.15,1.45-.27,3.13-.11,3.22.32.07.35-1,.49-2,1.72-.65.8-.45,1.06-1,1.64-.74.77-2.07,1.33-3.32.96Z"/><path class="cls-7" d="m52.92,171.14c-.51.3-.59.72-1.55,4.12-.7,2.48-.92,3.18-1.61,3.83-.63.59-1.21.72-2.24,1.07-.17.06-1.94.9-5.49,2.59-4.63,2.2-4.65,2.35-5.57,2.48-1.96.27-4.88,0-5.38-1.42-.28-.81.24-1.9.97-2.47,1.08-.85,2.13-.18,4.64-.39,1.25-.11,4.08-.35,4.62-1.74.52-1.33-1.52-2.57-.95-4.04.45-1.16,2.18-1.54,2.79-1.67,2.15-.47,2.92.61,4.22-.06.98-.51,1.42-1.58,2.05-3.13.26-.64.59-1.44.7-2.56.08-.79.34-3.37-1.2-4.91-.94-.93-1.63-.57-2.49-1.57-1.09-1.27-1.18-3.24-.71-3.47.39-.19,1,.91,3.4,2.81,1.02.81,1.54,1.22,2.12,1.42,1.7.6,2.82-.1,3.42.59.39.46,0,.88.03,2.37.04,1.98.78,3.61,1.02,4.13.64,1.37,1.23,1.86,1.02,2.19-.39.58-2.42-.96-3.8-.16Z"/><path class="cls-7" d="m46.28,140.13c-.53.25-1.06.45-1.73.46-1.01.01-1.39-.44-2.18-.49-.51-.03-1.23.09-2.74,1.34-1.31,1.1-1.86,1.92-3.37,3.84-1.95,2.47-2.93,3.71-3.59,4.2-1.36,1.03-2.35,1.28-2.76,2.46-.3.85-.23,2,.33,2.33.56.33,1.18-.4,2.98-1.04,1.98-.7,2.28-.19,3.28-.78,1.98-1.16,1.68-3.7,2.7-3.81.91-.09,1.24,1.89,3.62,4.24.73.72,2.63,2.6,3.72,2.07.55-.27.85-1.14.73-1.87-.24-1.44-2.01-1.37-3.18-3.29-.1-.16-1.25-2.11-.48-3.41.41-.7,1.36-1.17,1.53-1.25.66-.33.84-.21,1.24-.5.71-.52.58-1.25,1.01-2.05.61-1.12,1.4-.7,2.76-1.9,1.57-1.38,1.24-2.58,2.9-3.53.61-.35,1.22-.52,1.19-.62-.04-.13-1.12-.05-2.08.22-2.3.63-3.01,2.03-5.89,3.36Z"/><path class="cls-7" d="m24.19,156.06c-.35-.31-1.96.55-2.9,1.89-1.06,1.51-1.01,3.26-.97,5.01.02.98.16,1.66.35,2.61.22,1.14.41,2.09.73,2.11.44.03.9-1.72.94-1.87.64-2.51-.39-3.08.22-5.04.27-.86.58-1.13,1.34-3.24.37-1.03.43-1.34.29-1.46Z"/></g><g class="cls-1"><path class="cls-8" d="m538.84,72.76c1.75-1.76,3.63-3.4,5.29-5.26,1.69-1.89,2.34-2.87,3.79-3.18,1.09-.23,1.69.12,2.71-.43,1.09-.59.9-1.25,2.14-2.12,1.25-.87,2.07-.63,2.43-1.39.31-.64.03-1.46-.28-1.98-.79-1.31-2.5-.97-5.23-1.79-1.16-.35-3.6-1.08-5.82-2.95-1.22-1.03-2.52-2.53-4.13-2.35-.33.04-.56.13-.93.04-1.09-.28-1.93-1.79-1.8-3.1.09-.86.51-.82.71-1.75.31-1.43-.31-3.19-1.49-3.92-.72-.44-1.01-.11-1.58-.51-1.45-1.04-1.45-4.61.04-5.65.68-.48,1.48-.28,2.09-1.07.35-.45.35-.86.46-1.26.44-1.67,2.36-1.59,4.57-3.51,1.96-1.69,2.05-3.15,3.73-3.46.51-.1.95-.05,1.27.01.06.17.2.42.19.72-.03.83-1.17,1.55-1.32,2.18-.12.52.09.5.05,1.8,0,.29-.03.88-.1,1.3-.29,1.61-1.82,2.64-2.18,2.89-1.54,1.05-3.18,1.08-3.72,1.08-2.24.01-3.28-1.04-4.35-.33-.5.34-.7.85-.89,1.37-.37.99-.52,2.63.34,3.38.65.57,1.26.08,2.05.73.82.67.7,1.64,1.16,1.71.42.07.75-.71,1.44-1.7,1.45-2.07,3.38-3.42,4.59-4.27.82-.57.89-.53,1.27-.89.32-.3,1.25-1.26,1.84-3.73.14-.6,1.19-5.31.11-6.25-.16-.36-2.86-2.21-5.51-1.6-2.02.47-2.9,2.12-4.59,1.76-.36-.08-1.04-.3-1.86-.07-.53.15-.75.39-1.1.56-1.15.57-2.56-.13-3.09-.32-1.57-.56-4.06.27-10.7,5.54-4.14,3.28-3.39,3.14-5.87,4.97-6.62,4.9-12.27,6.19-12.99,9.93-.07.37-.19,1.26-.24,2.24-.11,2.04.13,3.17.27,4.83.23,2.6-.14,2.28,0,6.29.09,2.72.14,4.08.48,4.95.69,1.74,1.7,2.52,1.43,3.95-.16.84-.66,1.4-.36,2.08.21.48.59.52,1.17.94,1.17.85,1.08,1.74,2.18,3.27.52.73.99,1.14,1.85,1.91.23.2,2.48,2.19,4.51,2.96,3.55,1.36,7.71-.5,13.14-2.91,1.13-.5,2.33-1.1,4.21-1.49,2.27-.47,2.89-.09,4.37-.61.97-.34,1.44-.76,4.24-3.57Zm6.95-9.84c-.86-.39-1.94-1.33-1.79-2.2.12-.7.98-1.04,2.7-1.72,1.13-.45,2.05-.81,3.34-.88,1.7-.09,3.59.35,3.62.85.02.41-1.22.4-2.54,1.65-.86.82-.67,1.14-1.4,1.72-.96.76-2.56,1.2-3.93.58Z"/><path class="cls-7" d="m538.37,65.67c-.63.26-.78.73-2.41,4.46-1.18,2.72-1.54,3.48-2.43,4.12-.81.58-1.49.63-2.72.88-.21.04-2.36.73-6.66,2.11-5.62,1.8-5.67,1.97-6.74,1.98-2.28.01-5.57-.74-5.92-2.45-.2-.96.56-2.13,1.49-2.67,1.36-.8,2.46.12,5.36.26,1.45.07,4.7.23,5.53-1.27.8-1.44-1.34-3.17-.46-4.76.7-1.26,2.72-1.42,3.44-1.48,2.53-.21,3.24,1.15,4.83.58,1.2-.43,1.86-1.59,2.81-3.26.39-.69.89-1.56,1.19-2.81.21-.89.91-3.8-.62-5.79-.93-1.21-1.77-.9-2.6-2.18-1.05-1.62-.85-3.88-.27-4.07.48-.16,1,1.19,3.45,3.73,1.04,1.08,1.57,1.62,2.2,1.95,1.85.95,3.24.31,3.81,1.2.38.58-.13,1-.33,2.71-.26,2.27.33,4.24.53,4.87.51,1.66,1.12,2.32.82,2.65-.54.6-2.62-1.47-4.32-.76Z"/><path class="cls-7" d="m535.56,29.27c-.64.2-1.28.35-2.05.26-1.16-.14-1.51-.71-2.41-.89-.57-.12-1.42-.09-3.33,1.11-1.67,1.05-2.41,1.9-4.44,3.86-2.61,2.52-3.91,3.78-4.74,4.25-1.71.96-2.88,1.1-3.53,2.38-.47.92-.57,2.25.02,2.71.59.46,1.41-.27,3.56-.72,2.36-.5,2.64.13,3.86-.38,2.44-1.02,2.48-3.97,3.67-3.93,1.05.03,1.13,2.35,3.48,5.4.72.93,2.6,3.37,3.92,2.94.67-.22,1.15-1.17,1.12-2.02-.06-1.69-2.08-1.88-3.12-4.25-.09-.2-1.1-2.6-.02-3.97.58-.73,1.73-1.12,1.94-1.2.81-.27.99-.11,1.49-.38.89-.49.85-1.34,1.47-2.19.86-1.19,1.7-.59,3.44-1.74,2-1.33,1.81-2.75,3.85-3.58.75-.3,1.47-.4,1.46-.52-.02-.16-1.27-.23-2.41-.07-2.72.37-3.74,1.85-7.23,2.93Z"/><path class="cls-7" d="m507.91,44.05c-.36-.4-2.32.33-3.6,1.71-1.44,1.56-1.66,3.56-1.88,5.57-.12,1.13-.07,1.92,0,3.03.08,1.33.15,2.44.51,2.52.5.11,1.29-1.82,1.36-1.98,1.12-2.76.03-3.58,1.02-5.72.44-.94.84-1.2,2.03-3.49.58-1.12.7-1.46.56-1.62Z"/></g><g class="cls-2"><path class="cls-7" d="m60.13,24.2c-.72-.47-1.02-1.15-1.17-1.44-1.03-1.98-3.55-1.36-8.31-3.55-1.84-.85-2.61-1.47-3.98-1.3-.62.08-.67.23-2.66,1.07-2.56,1.07-2.93,1.01-3.64,1.63-.93.82-.82,1.4-1.62,2.68-1.57,2.51-2.98,1.88-4.14,3.73-.83,1.32-.82,3.7-.81,8.46,0,.67.02,1.89-.73,2.99-.46.68-.73.61-1.01,1.19-.37.77-.06,1.25.35,3.7.26,1.53.22,1.85.58,2.14.44.36.84.16,2.09.53.91.26.78.39,1.4.53.11.03,2.23.5,3.29-.56.18-.18.39-.46.83-.74.27-.17.58-.36.91-.3.35.07.48.38.67.57.67.63,2.55.19,3.61-.73,1.5-1.31,1.11-3.67.93-4.84-.21-1.38-.72-2.39-1.03-3-.63-1.21-1.32-2.02-2.53-3.41-1.5-1.74-2.33-2.39-2.32-3.56,0-.1.01-.63.32-1.18.55-.98,1.81-1.65,2.65-1.34.59.22.78.84,1.08,1.46,1.04,2.11,3.23,3.67,4.99,4.1.42.1,1.9-.17,4.87-.72,1.75-.32,3.1-.64,3.77-1.35.06-.06.27-.29.62-.43.52-.2,1.3-.18,1.61.24.26.35,0,.74.27.94.2.14.39-.04,1.02.02.39.04.36.11.6.11.6-.02.75-.49,1.15-.43.4.06.37.53.82.63.35.07.5-.19.99-.11.32.05.38.18.54.15.42-.05.61-1.03.76-1.74.61-2.75,1.31-3.43.8-4.24-.12-.19-.4-.53-.85-.71-.5-.2-1.04-.12-1.18-.1-.38.06-.4.15-.58.1-.45-.12-.37-.75-.85-.97-.35-.16-.55.12-.92-.06-.37-.18-.39-.56-.61-.56-.23,0-.24.43-.57.68-.51.39-1.46.09-2.04-.29Z"/><path class="cls-8" d="m45.23,27.34c.65.72.61,1.36.9,2.09.68,1.71,2.7,2.7,4.04,2.99,2.17.47,4.78-.42,6.23-1.55.46-.35,1.16-1.01,2.19-1.05.8-.03,1.37.33,1.55.1.18-.24-.14-.98-.7-1.35-1.08-.71-2.2.59-4.39.6-.19,0-2.98-.02-3.99-1.64-.95-1.53.48-3.21-.45-4.14-.74-.74-2.34-.37-3.69-.05-2.13.5-2.85,1.36-3.89.95-.95-.38-.92-1.33-1.6-1.4-1.23-.11-2.96,2.85-2.24,3.79.45.58,1.91.48,2.84.15.58-.21.7-.42,1.2-.45,1.05-.06,1.86.8,1.99.95Z"/><path class="cls-8" d="m45.47,38.1c.52.07.7,2.26.41,4.04-.18,1.11-.35,2.06-1.14,2.54-.6.36-1.55.47-2.28.1-.59-.3-.85-.81-1.29-.73-.39.08-.51.52-.73.47-.23-.06-.42-.66-.21-.98.31-.46,1.15.08,2.02-.31.62-.28.74-.8,1.55-2.43.9-1.82,1.36-2.74,1.66-2.69Z"/></g><g class="cls-2"><path class="cls-7" d="m170.54,165.74c.08.86-.26,1.51-.4,1.81-.9,2.04,1.16,3.62,2.43,8.7.49,1.97.49,2.96,1.47,3.92.45.44.6.38,2.5,1.41,2.44,1.32,2.62,1.66,3.55,1.82,1.22.22,1.6-.23,3.11-.41,2.94-.35,3.33,1.15,5.5.9,1.55-.18,3.4-1.67,7.11-4.66.52-.42,1.46-1.19,2.79-1.3.82-.07.93.19,1.55.04.84-.2,1.01-.74,2.66-2.59,1.03-1.16,1.31-1.33,1.31-1.8,0-.57-.4-.76-.9-1.96-.36-.87-.18-.85-.46-1.43-.05-.1-1.01-2.05-2.5-2.22-.25-.03-.6-.01-1.1-.18-.3-.1-.65-.23-.8-.52-.16-.32,0-.61.02-.88.08-.92-1.45-2.11-2.82-2.36-1.96-.35-3.55,1.43-4.36,2.3-.95,1.03-1.42,2.05-1.7,2.69-.55,1.25-.75,2.3-1.08,4.1-.41,2.26-.41,3.32-1.32,4.04-.08.06-.5.38-1.12.49-1.11.19-2.42-.38-2.7-1.23-.2-.6.17-1.13.46-1.76,1-2.13.84-4.81.08-6.45-.18-.39-1.32-1.37-3.61-3.35-1.35-1.16-2.43-2.02-3.42-2.1-.08,0-.4-.03-.72-.22-.49-.28-.95-.9-.82-1.4.11-.43.58-.47.56-.8-.01-.25-.28-.28-.62-.81-.21-.33-.14-.35-.29-.54-.39-.46-.85-.28-1.05-.63-.2-.35.19-.62-.03-1.03-.16-.32-.46-.27-.71-.7-.16-.28-.1-.4-.22-.52-.31-.3-1.19.17-1.83.49-2.53,1.24-3.5,1.12-3.8,2.03-.07.21-.16.64-.02,1.1.16.52.56.89.66.98.28.26.37.22.44.39.19.42-.36.76-.22,1.27.1.38.44.35.53.76.09.4-.19.66-.05.82.15.18.49-.08.89.02.62.15.98,1.08,1.05,1.78Z"/><path class="cls-8" d="m182.32,175.4c.15-.96.68-1.33,1.07-2.01.91-1.6.42-3.79-.19-5.02-.99-1.98-3.32-3.46-5.1-3.89-.56-.14-1.52-.27-2.19-1.06-.52-.61-.6-1.28-.89-1.27-.29.01-.68.72-.61,1.39.13,1.28,1.83,1.35,3.21,3.05.12.15,1.85,2.34,1.21,4.14-.6,1.7-2.8,1.63-2.95,2.94-.11,1.04,1.18,2.06,2.27,2.91,1.72,1.35,2.85,1.37,3.17,2.44.3.98-.47,1.55-.09,2.12.68,1.03,4.08.53,4.36-.62.18-.71-.82-1.79-1.66-2.31-.53-.33-.77-.29-1.1-.65-.71-.78-.54-1.95-.51-2.15Z"/><path class="cls-8" d="m190.57,168.49c-.27-.45,1.32-1.96,2.89-2.85.98-.55,1.82-1.01,2.69-.7.66.24,1.34.92,1.51,1.71.14.65-.1,1.17.24,1.46.3.26.73.07.82.27.1.22-.25.74-.64.78-.55.05-.66-.95-1.51-1.38-.6-.31-1.08-.08-2.87.31-1.99.44-2.98.65-3.14.39Z"/></g><g class="cls-2"><path class="cls-7" d="m381.29,92.52c-.48.8.7,1.97,1.51,4.28.3.86.41,1.48.96,1.72.35.15.51,0,.97.05,1.02.1,1.39.98,2.38,1.65.38.26,1.29.82,2.37.79,1.37-.04,2.08-1.03,2.47-.76.3.21-.14.88-.31,2.29-.12,1.03-.42,2.65.26,3.09.37.24.88.04.99.3.09.22-.26.42-.25.82.01.34.28.56.47.76.64.68.49,1.3.81,1.89.88,1.6,4.28,1.26,4.3,1.85,0,.16-.26.19-.44.57-.23.47-.07.98,0,1.19.37,1.25,1.52,1.64,3.41,3.19,1.55,1.27,1.81,1.62,2.56,1.72.6.08,1.57,0,1.93-.57.25-.39,0-.67.24-.98.36-.45,1.08-.09,2.47-.29.8-.11,1.44-.2,1.79-.68.46-.62-.04-1.21.41-1.77.47-.58,1.24-.19,1.91-.69.27-.2.64-.64.72-2.46.07-1.48.14-3.12-.67-5.07-.66-1.57-.84-.84-2.58-3.71-.29-.48-.99-1.67-1.58-1.55-.26.05-.43.36-.52.3-.12-.07.17-.6.21-1.02.1-1.17-1.81-1.55-2.94-3.19-1.17-1.69-.11-2.69-1.35-4.06-.84-.93-2.36-1.6-3.55-1.22-.72.23-.79.68-1.5.8-.36.06-1.14.08-2.56-1.05-1.89-1.51-1.57-2.39-2.87-3.37-1.58-1.2-3.89-1.3-5.43-.95-1.21.28-2.01.86-3.92.98-.59.04-.75,0-1.11.13-1.83.64-2.7,3.42-2.09,4.01.2.19.58.17.67.45.07.22-.1.44-.16.55Z"/><path class="cls-7" d="m383.32,86.55c0-.3-.49-.58-.92-.62-.28-.03-.68.04-1.37.61,0,0-1.91,1.6-2.08,4.21,0,.09-.02.28.08.5.26.61,1.15.91,1.34.71.1-.1-.02-.29-.09-.6-.23-.92.19-1.76.42-2.22.46-.93,1.2-1.49,1.48-1.7.66-.49,1.15-.59,1.14-.9Z"/><path class="cls-7" d="m384.13,87c.03-.19-.38-.49-.78-.51-.28-.02-.57.09-1.4.82-.74.65-1.1.98-1.29,1.29-.21.35-.31,1-.51,2.29-.11.69-.13.99.06,1.22.26.31.8.4.93.23.1-.13-.1-.38-.22-.72-.27-.76.07-1.52.37-2.19.24-.53.72-1.61,1.78-2.05.56-.23,1.04-.19,1.08-.39Z"/><path class="cls-8" d="m383.95,88.07c.11-.32,1.24.08,2.96-.17,1.63-.24,1.71-.76,2.79-.77,1.57-.02,2.81,1.08,3.68,1.86,1.7,1.51,1.57,2.47,3.14,3.2.41.19,1.22.56,2.19.41.81-.12.9-.47,1.76-.64.83-.16,2.13-.11,2.67.63.36.5,0,.78.23,1.76.29,1.21.98,1.33,1.44,2.65.11.32.57,1.68.13,2.03-.6.47-2.19-1.34-5.42-3.12-3.24-1.79-3.8-1.16-5.91-2.79-2.18-1.69-1.96-2.64-3.59-3.13-1.66-.5-2.81.23-4.71-.73-.71-.36-1.45-.92-1.36-1.19Z"/><path class="cls-8" d="m399.47,111.32c-.12.02-.93.18-1.13.76-.11.32.02.64.14.88.54,1.09,1.45,1.51,2.8,2.61,1.39,1.13,1.7,1.7,2.54,1.71.47,0,1.16-.09,1.28-.44.09-.26-.18-.47-.07-.67.18-.33,1.02,0,1.24-.33.14-.2,0-.59-.21-.82-.37-.41-.91-.3-2.01-.36-1.27-.07-1.91-.1-2.42-.44-.22-.15-.59-.66-1.31-1.69-.15-.22-.69-.97-.85-1.21Z"/></g><g class="cls-2"><path class="cls-7" d="m149.1,217.43c.28-.59-.63-1.33-1.37-2.88-.27-.58-.4-1.01-.8-1.14-.25-.08-.36.04-.68.04-.72,0-1.05-.58-1.78-.98-.29-.15-.96-.48-1.71-.38-.96.13-1.38.87-1.67.71-.23-.13.04-.62.05-1.63,0-.73.1-1.88-.41-2.14-.27-.14-.62.03-.71-.14-.08-.15.15-.31.11-.59-.03-.24-.24-.37-.38-.5-.5-.43-.44-.87-.71-1.27-.73-1.06-3.09-.57-3.14-.98-.01-.11.17-.15.27-.43.12-.35-.02-.69-.08-.84-.35-.85-1.18-1.04-2.62-1.98-1.18-.77-1.38-1-1.92-1.02-.42,0-1.1.11-1.31.54-.15.29.05.47-.1.7-.22.34-.75.15-1.71.38-.55.14-.99.24-1.2.6-.28.46.11.85-.16,1.27-.29.44-.86.23-1.29.63-.17.16-.4.49-.33,1.77.06,1.04.13,2.19.84,3.5.57,1.05.65.52,2.08,2.41.24.31.82,1.1,1.22.97.18-.06.27-.28.34-.25.09.04-.08.43-.07.73.02.82,1.38.95,2.29,2.02.94,1.1.27,1.87,1.24,2.74.66.59,1.77.94,2.57.59.49-.21.5-.53.99-.67.25-.07.79-.14,1.87.55,1.43.92,1.27,1.56,2.25,2.15,1.19.72,2.82.63,3.86.27.83-.28,1.35-.75,2.67-.97.41-.07.53-.05.77-.17,1.24-.58,1.64-2.59,1.17-2.96-.15-.12-.42-.08-.5-.27-.07-.15.04-.32.07-.39Z"/><path class="cls-7" d="m148.11,221.75c.03.21.38.37.69.37.2,0,.47-.08.91-.53,0,0,1.22-1.26,1.15-3.09,0-.06-.01-.2-.09-.34-.23-.41-.87-.56-.99-.4-.06.08.03.2.11.41.22.62,0,1.25-.13,1.58-.26.69-.73,1.13-.91,1.3-.43.39-.76.5-.73.71Z"/><path class="cls-7" d="m147.51,221.5c0,.14.3.31.58.3.2,0,.39-.1.92-.68.47-.51.7-.76.81-1,.12-.26.15-.72.19-1.64.02-.49.02-.7-.13-.85-.2-.2-.59-.22-.67-.1-.06.1.1.26.21.48.25.51.06,1.07-.1,1.56-.13.39-.39,1.18-1.09,1.57-.37.2-.72.21-.72.35Z"/><path class="cls-8" d="m147.56,220.74c-.05.23-.87.03-2.06.34-1.12.29-1.14.65-1.89.74-1.1.13-2.04-.55-2.71-1.03-1.3-.93-1.28-1.62-2.43-2.01-.3-.1-.89-.3-1.56-.13-.56.14-.59.4-1.18.58-.57.17-1.48.23-1.91-.24-.29-.32-.05-.55-.29-1.22-.29-.83-.78-.86-1.2-1.75-.1-.22-.52-1.13-.24-1.41.38-.37,1.63.77,4.02,1.79,2.4,1.02,2.74.53,4.34,1.52,1.65,1.02,1.57,1.71,2.74,1.93,1.2.23,1.94-.37,3.35.17.52.2,1.08.54,1.04.73Z"/><path class="cls-8" d="m135.01,205.61c.08-.02.64-.2.73-.62.05-.23-.06-.45-.16-.61-.46-.72-1.12-.95-2.15-1.62-1.06-.69-1.31-1.07-1.9-1.01-.33.03-.81.15-.87.4-.04.19.16.31.1.46-.1.24-.71.07-.84.32-.08.15.04.41.21.56.29.26.66.14,1.43.1.89-.05,1.34-.07,1.73.13.16.09.46.42,1.04,1.09.12.14.55.63.69.78Z"/></g><path class="cls-6" d="m325.24,39.45c1.54.31,3.29-.24,3.69-.34.71-.19,1.11-.1,7.55,2.49,3.05,1.23,4.69,1.9,4.72,2.92.02.46-.3.92-.32.94-.39.56-.91.54-2.16,1.16-.83.42-.69.47-1.11.61-.98.32-1.27-.14-2.38,0-1.28.16-1.38.82-2.44.72-.67-.06-.86-.35-1.45-.23-.22.05-.27.11-1.25.6-.52.26-.78.39-.91.43-.4.1-.78.06-1.53-.03-.35-.04-.51-.08-.57-.2-.11-.22.23-.45.14-.65-.1-.23-.58-.06-1.79-.14-.24-.02-.47-.04-.77.06-.32.1-.52.28-.63.37-.65.55-1.37.83-1.93,1.05-.6.24-.98.38-1.39.23-.4-.15-.62-.48-.65-.54-.38-.61-.01-1.12-.37-1.45-.26-.24-.7-.17-.85-.14-.38.06-.62.27-.91.51-.77.64-1.16.97-1.28,1.05-1.06.73-2.56.64-2.73.26-.06-.14.1-.24.11-.63.02-.36-.1-.63-.17-.8-.29-.67-.69-.64-1.02-1.34-.18-.38-.09-.45-.26-.63-.11-.12-.31-.25-1.59-.28-.97-.02-1.26.04-1.53.17-.27.13-.44.28-.51.34-.68.59-1.76,1.08-3.33,1.79-2.14.97-3.4,1.54-3.67,1.19-.04-.05-.11-.19.23-.88.95-1.93,2.29-2.4,2.3-3.61,0-.4-.14-.72-.2-.85-.33-.72-.9-.88-1.45-1.36-.84-.75-1.4-2.03-1.08-2.44.32-.42,1.59.07,2.81.54,1.95.75,2.22,1.23,3.5,1.65,1.74.57,3.3.36,3.98.26,2.49-.37,3.01-1.53,5.03-1.42.3.02,1.4.1,1.51-.23.04-.12-.08-.21-.12-.41-.09-.46.34-.8.57-1.18.65-1.07-.34-2.28.26-2.84.23-.21.54-.19.83-.18.94.04,1.66.77,2.63,1.78.64.66.9,1.07,1.6,1.4.16.08.45.2.88.28Z"/><path class="cls-6" d="m46.78,214.27c-.9.38-2.04.26-2.29.24-.46-.03-.69.08-4.3,2.45-1.71,1.12-2.62,1.74-2.52,2.36.05.28.3.52.31.54.31.29.62.21,1.46.44.56.15.48.2.75.24.63.08.76-.24,1.45-.29.8-.06.94.33,1.57.14.4-.12.48-.32.86-.32.14,0,.18.03.84.21.35.1.53.14.61.15.26.01.48-.06.93-.21.21-.07.3-.11.32-.19.04-.15-.19-.25-.17-.38.03-.15.35-.11,1.07-.31.14-.04.28-.08.48-.06.21.02.35.11.43.15.46.25.94.34,1.31.4.4.07.64.11.88-.03.23-.14.32-.37.33-.41.16-.42-.13-.69.05-.93.13-.18.4-.19.5-.19.24,0,.41.09.62.2.55.3.82.45.91.48.74.31,1.64.08,1.7-.18.02-.09-.09-.14-.15-.37-.05-.22-.02-.4,0-.51.1-.44.34-.47.46-.94.07-.26,0-.28.08-.41.05-.09.15-.19.94-.37.59-.13.77-.13.96-.08.18.04.3.12.35.15.49.28,1.21.44,2.25.68,1.43.33,2.26.52,2.38.28.02-.04.04-.13-.25-.51-.82-1.06-1.69-1.18-1.85-1.92-.05-.25,0-.46.02-.54.11-.48.44-.64.72-1.01.42-.56.6-1.41.36-1.62-.25-.22-.96.24-1.65.67-1.1.7-1.21,1.02-1.93,1.43-.99.56-1.97.62-2.4.64-1.57.08-2.02-.56-3.24-.25-.18.05-.84.23-.95.05-.04-.07.02-.13.02-.26,0-.29-.3-.45-.49-.65-.53-.57-.07-1.44-.51-1.7-.16-.1-.36-.05-.53,0-.57.14-.92.67-1.39,1.41-.31.48-.42.76-.8,1.05-.09.07-.25.18-.5.28Z"/><g class="cls-2"><path class="cls-8" d="m301.24,97.21c-3.28,2.73-4.93,4.1-5.75,4.85-7.73,7.02-9.74,6.7-11.88,10.57-.79,1.43-1.17,2.64-2.67,4.89-.84,1.26-1.6,2.18-2.37,3.94-.87,1.99-.84,2.98-.62,3.71.26.84.78,1.32,1.2,1.76,3.46,3.52,3.89,6.89,6.22,7.37.99.21,1.71.22,1.71.22,1.23.03,1.74-.25,1.95.02.38.48-1.03,1.55-.73,2.77.17.67.65.56,1.72,1.8.98,1.13,1.17,1.9,1.65,1.86.47-.04.6-.82,1.41-.99.26-.05.47-.02.53,0,3.04.41,8.35-2.6,8.35-2.6,6.52-3.7,11.57-8.95,12.09-9.5,2.68-2.82,2.97-3.72,5.28-5.42,2.78-2.05,4.31-2.18,5.39-4.13,1.49-2.68.49-5.82.32-6.37-.86-2.7-2.37-3.11-5.92-6.91-4.46-4.79-3.78-5.97-6.89-7.95-.81-.51-4.96-3.16-8.51-1.7-.56.23-.85.46-2.49,1.82Zm-18.22,25.31c.7-.2,1.66.98,3.37,3.32,2.01,2.75,2.39,3.48,2.16,4.27-.16.56-.63,1.15-1.08,1.14-.48,0-.71-.69-1.37-1.8-.2-.33-1.21-2.01-2.6-3.44-.97-1-1.81-1.55-1.68-2.22.04-.22.21-.55.48-.82.27-.28.58-.41.72-.45Z"/><path class="cls-7" d="m295.84,138.75c2.5-.7,4.35-1.69,5.62-2.41,2.62-1.5,4.41-2.87,6.32-4.35,2.71-2.09,4.07-3.14,5.11-4.51,1.6-2.1,1.26-2.72,2.8-4.21,1.45-1.4,2.14-1.22,4.75-3.08,2.04-1.46,3.06-2.19,3.47-3.17,1.16-2.74-1-6.71-3.87-8.6-1.92-1.26-4.89-2.06-5.9-.96-.6.65-.04,1.48-.1,4.66-.04,2.18-.06,3.27-.61,4.05-.91,1.27-2.04.83-4.49,2.51-1.07.74-1.76,1.21-2.32,2.07-1.22,1.88-.29,3.19-1.03,6.11-.32,1.25-.76,2.99-2.16,4.25-1.82,1.64-4.47,1.74-6.98,1.83-2.58.1-3.61-.34-4.85.55-.15.11-1.73,1.28-1.57,3.03.14,1.48,1.42,2.29,1.5,2.34.66.4,1.65.64,4.3-.1Z"/></g><path class="cls-3" d="m247.57,227.37s.26,2.37.31,4.72c0,.45,0,.78,0,.87.01,5.1,1.09,25.67-.78,25.94-.79.11-1.48-3.45-2.92-3.39-1.4.06-1.85,3.48-2.64,3.46-1.65-.04-2.79-14.84-2.72-17.49.4-15-1.49-29.35-2.75-29.42-1.23-.07-3.38,14.85-4.47,25.86-.6,6.12.11,20.03-2.76,20.79-1.2.32-2.54,0-2.54,0s-1.2-.28-2.26-1.13c-2.87-2.29-1.05-23.28-.66-28.33.91-11.66,1.47-17.48,1.25-21.51-.04-.77-.2-3.22.2-6.45.38-3.02,1.01-4.85,1.37-6.37.64-2.68.99-6.68-.52-12.2-.2,1.05-.6,2.59-.92,4.5-.49,3-1.21,5.97-2.17,8.86-.78,2.34-1.31,3.42-1.74,4.93-.07.23-.25.98-.44,1.91-.97,4.91-.54,9.04-.99,9.09-.35.04-.84-2.53-1.12-2.49-.35.06.36,4.4-.32,4.59-.35.1-1.09-1-1.49-2.13-.97-2.77.23-5.44.95-7.29,1.64-4.24.05-2.46,2.72-12.84,1.16-4.53,2.5-8.89.64-10.49-.44-.38-.97-.53-1.27-1.19-.55-1.22.42-2.51,1.27-4.45,1.41-3.21.39-3.41,1.6-5.8.61-1.21,2.18-3.89,4.96-5.13.83-.37,3.45-.8,4.48-1.94.4-.45.61-.97.61-.97,0-.52.2-.87.22-1.61.02-1.14.03-1.75-.34-1.97-.24-.14-.41.02-.86-.02-.79-.07-1.34-.66-1.43-.75-.61-.67-.21-1.19-.73-3.01-.27-.97-.44-1.02-.37-1.42.13-.72.74-.92,1.16-1.93.21-.49.17-.87.28-1.09.32-.68,1.74-3.7,4.77-4.11,1.04-.14,2.44.67,5.23,2.19,1.14.62,1.41.86,1.63,1.2.54.83.55,1.95.56,4.2,0,.31,0,.47,0,.56-.14,1.73-1.33,3.04-1.71,3.45-.47.51-.85.78-1.14,1.41-.16.34-.32.86-.33.91-.12.39-.18.59-.2.85-.03.4.04.69.12,1.05.14.59.21.89.44,1.13.28.29.58.29,1.17.44.29.08.24.08,1.67.66,3.14,1.27,3.32,1.16,3.85,1.56,1.04.79,1.25,1.5,2.26,3.26,2.74,4.74,5.06,6.15,4.39,7.92-.22.57-.48.49-.86,1.11-1.29,2.13.52,5.28,1.82,8.03,2.22,4.65.72,3.35,3.86,10.96,1.19,2.9,2.39,5.53,2.94,9.5.27,1.99.36,4.01-.48,4.4-.61.28-1.56-.37-2.09-.93-1.62-1.69-1.06-4.18-1.13-6.43-.09-2.86-1.15-3.81-3.85-9.23-4.76-9.56-5.38-14.48-6.49-14.3-1.31.21-1.69,7.53-1.05,12.28.09.67.36,2.51,1.06,7.48.18,1.26.31,2.23.32,2.29.29,2.08.66,7.7.44,25.46Z"/><path class="cls-3" d="m223.1,252.94c-1.14.02-1.72.2-2.02.63-.54.77.03,1.99.25,2.47.79,1.71,2.69,3.29,4.93,3.32.61,0,1.77.03,2.62-.81.96-.94,1.08-2.57.55-3.67-.98-2.06-4.11-1.99-6.33-1.94Z"/><path class="cls-3" d="m247.62,252.63c1.25.03,1.88.22,2.22.69.59.84-.03,2.17-.28,2.7-.87,1.87-2.94,3.6-5.4,3.64-.66,0-1.93.03-2.86-.88-1.05-1.03-1.18-2.82-.61-4.02,1.08-2.25,4.5-2.18,6.93-2.13Z"/><path class="cls-3" d="m277.13,206.68c.03-.38-.11-.67-.12-.73-.48-2.74,1.88-5.62,4.67-5.68,2.78-.06,5.27,2.73,4.9,5.48,0,.07-.1.44.02.89.07.25.15.33.2.47.33.84-1.03,2.23-1.16,2.36-.52.52-.86.66-1.09,1.24-.08.19-.2.51-.11.81.2.63,1.22.82,1.6.91,1.56.36,2.63,1.45,4.04,2.88,0,0,1.84,1.87,2.85,5.28.21.7.16,1.12.08,1.42-.09.31-.2.41-.34.77-.21.53-.22,1-.22,1.42-.02,5.32-.02,7.98.36,9.62.07.3.37,1.54.29,3.14-.05,1.08-.25,1.71-.67,2.22-.21.25-1.44,1.36-1.69.47-.08-.29.64-.49.76-1.1.11-.52-.28-1.08-.47-1.06-.11.01-.11.21-.37.37-.09.06-.23.15-.33.1-.2-.1-.12-.75.03-1.23.13-.42.32-.71.33-.73.54-.84.22-2.83.03-4.39-.02-.14-.18-1.91-.5-5.45-.01-.12-.07-.75-.4-1.48-.19-.42-.41-.89-.6-.88-.52.05-.61,3.64-.64,4.83-.06,2.37.04,4.07.08,5.07.25,5.81-.38,6.19-.08,12.15.05,1,.14,2.43.17,4.56.05,3.38-.12,2.83-.03,4.69.15,3.03.62,4.55-.35,5.65-.4.45-.97.74-1.01.76-.74.37-1.71.52-2.26.3-.74-.3-1.02-1.43-1.11-6.22-.06-3.19-.91-6.35-.79-9.53,0-.14-.01-.53-.24-.81-.28-.35-.84-.24-.87-.23-.52.08-.86.63-1.77,2.99-.96,2.5-1.11,3.25-1.13,4.07-.01.54.03.91.08,1.35.5,4.57.73,6.86-.1,7.42-.73.49-2.03-.02-2.11-.05,0,0-.55-.22-1-.67-1.49-1.47-1.54-4.94-1.93-8.92-.15-1.56-.22-2.51-.23-3.9-.03-2.76.21-5.52.73-8.22.2-1.05.18-2.21-.1-3.66-.16-.83-.37-1.38-.47-1.66-.68-2,.26-3.79.59-8.58.07-1.02,1.01-5.36.09-6.08-.52-.41-1.51-.25-2.89-.03-1.13.18-1.8.45-2.13.1-.31-.33.1-.76-.2-1.2-.26-.37-.77-.34-3.12-.5-.52-.04-.78-.06-.83-.07-1.23-.22-1.94-1.15-3.21-2.7-2.07-2.54-3.1-3.81-3.54-4.18-.82-.7-1.43-1.1-1.38-1.5.1-.87,1.38-.7,1.87-.36.44.3.75.76,1.07,1.19.75,1.01,1.62,1.94,2.58,2.76.76.65,1.61,1.24,2.59,1.46.7.16,1.43.13,2.15.08,3.37-.21,6.73-.62,10.06-1.22.84-.15,1.88-.53,1.92-1.39.02-.5-.83-.54-1.77-1.63-.6-.7-1.33-1.92-1-2.62.05-.11.18-.32.21-.64Z"/><path class="cls-3" d="m275.31,257.95c-.72.02-1.09.13-1.29.4-.34.49.02,1.26.16,1.57.5,1.09,1.71,2.09,3.13,2.11.39,0,1.12.02,1.66-.51.61-.6.69-1.63.35-2.33-.63-1.31-2.61-1.26-4.02-1.23Z"/><path class="cls-3" d="m288.56,258.21c.72.02,1.09.13,1.29.4.34.49-.02,1.26-.16,1.57-.5,1.09-1.71,2.09-3.13,2.11-.39,0-1.12.02-1.66-.51-.61-.6-.69-1.63-.35-2.33.63-1.31,2.61-1.26,4.02-1.23Z"/><path class="cls-3" d="m237.6,145.5c-.7-.24-1.57-.54-2.57-.39-1.19.19-1.99.93-2.32,1.24-1.13,1.05-1.26,2.1-2.06,2.15-.1,0-.04-.01-.92-.3-1.29-.42-1.6-.53-1.99-.43-.06.02-.61.17-.66.5-.03.2.14.39.24.49.86.86,2.06,1.34,2.06,1.34,1.06.42,1.54.58,1.92.73.51.2,1.02.44,3.08,1.71,1.74,1.08,1.78,1.23,3.18,2.01,2,1.11,3.08,1.7,3.81,1.27.17-.1.45-.34.77-2.13.38-2.16.57-3.24.23-4.2-.6-1.69-2.13-2.61-3.28-3.29-.62-.37-1.14-.58-1.48-.7Z"/></svg>