<?xml version="1.0" encoding="utf-8"?>
<!-- Generator: Adobe Illustrator 28.0.0, SVG Export Plug-In . SVG Version: 6.00 Build 0)  -->
<svg version="1.1" id="Layer_1" xmlns="http://www.w3.org/2000/svg" xmlns:xlink="http://www.w3.org/1999/xlink" x="0px" y="0px"
	 viewBox="0 0 571.6 285.7" style="enable-background:new 0 0 571.6 285.7;" xml:space="preserve">
<style type="text/css">
	.st0{fill:#094157;}
	.st1{fill:#0A8BA9;}
	.st2{fill:#003A4C;}
	.st3{fill:#106683;}
	.st4{opacity:0.55;}
	.st5{fill:#E1F2F1;}
	.st6{fill:#C6E6E4;}
	.st7{opacity:0.5;}
</style>
<rect y="238.2" class="st0" width="571.6" height="47.5"/>
<path class="st1" d="M571.6,237H0V0.3C26,6,65.4,12.9,113.7,13.7C191.3,15,207.4-0.9,284.8,0c67.9,0.8,76.4,13.2,145.5,14.6
	c59.9,1.2,109-7.1,141.3-14.3V237L571.6,237z"/>
<rect y="236.9" class="st2" width="571.6" height="2.6"/>
<path class="st3" d="M145.9,37.8c-0.1-0.5-0.4-0.8-0.5-0.9c-0.8-0.7-0.9-2.9-0.9-3.5c-0.3-2.6-2.7-5-3.3-5.5c-2-2-2.6-0.8-8-3.5
	c-2.5-1.2-3.8-2.2-5.7-1.9c-0.3,0-2.2,0.4-2.6,1.6c-0.1,0.2-0.1,0.3,0.2,2.4c0.1,0.9,0.2,1.4-0.1,1.7c-0.2,0.2-0.6,0.3-0.9,0.2
	c-0.7-0.2-0.6-1.1-1.2-2.1c-0.5-0.7-1.6-1.8-2.8-1.6c-0.9,0.2-1.6,1.2-1.6,2.1c0,0.4,0.1,0.4,0.2,0.9c0.1,1.5-1.2,2.2-1,3.2
	c0.1,0.4,0.5,0.9,0.9,1c0.9,0.2,1.3-1.2,2.9-1.6c1-0.3,2.2,0,2.3,0.4c0.1,0.4-0.5,0.6-1,1.5c0,0.1-0.7,1.2-0.6,2.2
	c0.2,2,3.8,3,3.6,3.5c-0.1,0.3-1.3,0.1-1.3,0.3c0,0.1,1.2,0.1,1.9,0.9c0.4,0.4,0.3,0.6,0.5,1c0.8,1.2,3,0.4,6.5,0.6
	c2.7,0.2,2.6,0.7,4.1,0.5c1-0.1,2.9-0.6,4.6-0.9c0.7-0.1,1.1-0.2,1.6,0c0.4,0.1,0.7,0.4,0.9,0.3c0.2-0.1,0.1-0.5,0.1-0.9
	c0-0.5-0.1-0.6-0.1-0.7c0.2-0.3,0.8,0,1.1-0.3C146,38.2,146,38,145.9,37.8L145.9,37.8z"/>
<path class="st3" d="M306.7,212.1c0-0.5,0.4-0.8,0.5-0.9c0.8-0.7,0.9-2.9,1-3.6c0.3-2.6,2.7-4.9,3.3-5.5c2-1.9,2.6-0.8,8-3.5
	c2.5-1.2,3.8-2.2,5.7-1.9c0.3,0,2.2,0.4,2.6,1.6c0,0.2,0,0.3-0.2,2.4c-0.1,0.9-0.2,1.4,0.1,1.7c0.2,0.2,0.6,0.3,1,0.2
	c0.7-0.2,0.5-1.1,1.2-2.1c0.5-0.7,1.6-1.8,2.8-1.6c0.9,0.2,1.5,1.2,1.6,2.1c0,0.4-0.1,0.4-0.1,0.9c-0.1,1.5,1.2,2.2,1,3.2
	c-0.1,0.4-0.5,0.9-1,1c-0.9,0.2-1.3-1.2-2.9-1.6c-1-0.3-2.2,0-2.3,0.4c-0.1,0.4,0.5,0.6,1,1.5c0,0.1,0.7,1.2,0.6,2.2
	c-0.2,2-3.8,3-3.6,3.6c0.1,0.3,1.3,0.1,1.3,0.3c0,0.1-1.2,0.1-1.9,0.9c-0.4,0.4-0.3,0.6-0.5,0.9c-0.8,1.2-3,0.4-6.5,0.6
	c-2.7,0.1-2.5,0.7-4.1,0.5c-1-0.1-3-0.6-4.6-0.9c-0.7-0.1-1.1-0.2-1.6,0c-0.4,0.1-0.7,0.4-0.9,0.3c-0.2-0.1-0.1-0.5-0.1-0.9
	c0-0.5,0.1-0.6,0.1-0.7c-0.2-0.3-0.8,0-1.1-0.3C306.6,212.5,306.6,212.3,306.7,212.1L306.7,212.1z"/>
<path class="st3" d="M312.9,188.5c0.1-0.3,0.4-0.5,0.4-0.6c0.6-0.5,0.8-1.8,0.9-2.2c0.3-1.6,2.2-3.1,2.7-3.5c1.6-1.3,2-0.6,6.1-2.5
	c1.9-0.9,2.9-1.5,4.3-1.4c0.2,0,1.6,0.1,1.9,0.8c0,0.1,0,0.2-0.2,1.5c-0.1,0.6-0.2,0.8,0,1c0.1,0.1,0.4,0.2,0.7,0.1
	c0.5-0.2,0.5-0.7,1-1.4c0.4-0.5,1.3-1.2,2.1-1.1c0.6,0.1,1.1,0.7,1.1,1.2c0,0.2-0.1,0.3-0.1,0.5c-0.2,0.9,0.8,1.3,0.6,1.9
	c-0.1,0.3-0.4,0.6-0.7,0.6c-0.7,0.2-0.9-0.7-2.1-0.9c-0.7-0.1-1.6,0.1-1.7,0.4c-0.1,0.2,0.3,0.4,0.6,0.9c0,0,0.4,0.7,0.3,1.3
	c-0.3,1.2-2.9,2-2.8,2.3c0.1,0.2,0.9,0,1,0.1c0,0.1-0.9,0.1-1.5,0.6c-0.3,0.2-0.3,0.4-0.4,0.6c-0.6,0.7-2.2,0.4-4.8,0.7
	c-2,0.2-1.9,0.5-3.1,0.5c-0.7,0-2.1-0.2-3.3-0.3c-0.5,0-0.8-0.1-1.2,0.1c-0.3,0.1-0.5,0.3-0.7,0.2c-0.1-0.1-0.1-0.3,0-0.6
	c0-0.3,0.1-0.4,0.1-0.4c-0.1-0.2-0.6,0.1-0.8-0.1C312.8,188.8,312.8,188.6,312.9,188.5L312.9,188.5z"/>
<g class="st4">
	<path class="st5" d="M54.1,177.2c1.3-1.7,2.7-3.4,3.9-5.1c1.2-1.8,1.7-2.7,2.9-3.2c0.9-0.3,1.5-0.1,2.3-0.7
		c0.9-0.6,0.6-1.2,1.6-2.1c1-0.9,1.7-0.8,1.9-1.5c0.2-0.6-0.1-1.3-0.5-1.7c-0.8-1-2.3-0.6-4.7-0.9c-1-0.2-3.2-0.5-5.3-1.9
		c-1.2-0.7-2.5-1.9-3.8-1.6c-0.3,0.1-0.5,0.2-0.8,0.1c-1-0.1-1.9-1.3-1.9-2.5c0-0.8,0.3-0.8,0.4-1.6c0.1-1.3-0.6-2.7-1.7-3.2
		c-0.7-0.3-0.9,0-1.4-0.3c-1.4-0.7-1.8-3.8-0.6-4.9c0.5-0.5,1.2-0.4,1.7-1.2c0.2-0.4,0.2-0.8,0.2-1.1c0.2-1.5,1.8-1.6,3.5-3.6
		c1.5-1.7,1.4-2.9,2.8-3.4c0.4-0.1,0.8-0.1,1.1-0.1c0.1,0.1,0.2,0.3,0.2,0.6c0.1,0.7-0.8,1.5-0.9,2c0,0.5,0.1,0.4,0.2,1.5
		c0,0.2,0.1,0.8,0.1,1.1c-0.1,1.4-1.3,2.5-1.5,2.7c-1.2,1.1-2.6,1.3-3.1,1.4c-1.9,0.3-2.9-0.5-3.8,0.2c-0.4,0.4-0.5,0.8-0.6,1.3
		c-0.2,0.9-0.1,2.3,0.7,2.9c0.6,0.4,1.1-0.1,1.8,0.4c0.8,0.5,0.8,1.3,1.2,1.3s0.6-0.7,1-1.6c1-1.9,2.5-3.3,3.5-4.2
		c0.6-0.6,0.7-0.6,1-0.9c0.2-0.3,0.9-1.2,1.2-3.4c0-0.5,0.4-4.7-0.6-5.4c-0.2-0.3-2.7-1.6-4.9-0.7c-1.7,0.6-2.2,2.2-3.7,2
		c-0.3,0-0.9-0.1-1.6,0.1c-0.4,0.2-0.6,0.4-0.9,0.6c-0.9,0.6-2.2,0.2-2.7,0.1c-1.4-0.3-3.5,0.7-8.6,6c-3.2,3.3-2.6,3.1-4.5,5
		c-5.1,5-9.8,6.8-10,10.1c0,0.3,0,1.1,0,2c0.1,1.8,0.5,2.7,0.8,4.1c0.5,2.2,0.1,2,0.7,5.4c0.4,2.3,0.6,3.5,1,4.2
		c0.8,1.4,1.8,2,1.7,3.2c0,0.7-0.4,1.3-0.1,1.8c0.2,0.4,0.6,0.4,1.1,0.7c1.1,0.6,1.1,1.4,2.3,2.6c0.5,0.6,1,0.9,1.8,1.4
		c0.2,0.1,2.4,1.6,4.2,2c3.2,0.8,6.6-1.3,11-4c0.9-0.6,1.9-1.2,3.5-1.8c1.9-0.7,2.5-0.4,3.7-1C51.7,180.3,52,179.9,54.1,177.2
		L54.1,177.2z M59,167.9c-0.8-0.2-1.8-0.9-1.8-1.7c0-0.6,0.7-1,2.1-1.8c0.9-0.5,1.7-0.9,2.8-1.1c1.5-0.3,3.1-0.1,3.2,0.3
		c0.1,0.4-1,0.5-2,1.7c-0.7,0.8-0.5,1.1-1,1.6C61.6,167.7,60.2,168.3,59,167.9L59,167.9z"/>
	<path class="st6" d="M52.9,171.1c-0.5,0.3-0.6,0.7-1.5,4.1c-0.7,2.5-0.9,3.2-1.6,3.8c-0.6,0.6-1.2,0.7-2.2,1.1
		c-0.2,0.1-1.9,0.9-5.5,2.6c-4.6,2.2-4.7,2.4-5.6,2.5c-2,0.3-4.9,0-5.4-1.4c-0.3-0.8,0.2-1.9,1-2.5c1.1-0.9,2.1-0.2,4.6-0.4
		c1.2-0.1,4.1-0.4,4.6-1.7s-1.5-2.6-1-4c0.5-1.2,2.2-1.5,2.8-1.7c2.2-0.5,2.9,0.6,4.2-0.1c1-0.5,1.4-1.6,2-3.1
		c0.3-0.6,0.6-1.4,0.7-2.6c0.1-0.8,0.3-3.4-1.2-4.9c-0.9-0.9-1.6-0.6-2.5-1.6c-1.1-1.3-1.2-3.2-0.7-3.5c0.4-0.2,1,0.9,3.4,2.8
		c1,0.8,1.5,1.2,2.1,1.4c1.7,0.6,2.8-0.1,3.4,0.6c0.4,0.5,0,0.9,0,2.4c0,2,0.8,3.6,1,4.1c0.6,1.4,1.2,1.9,1,2.2
		C56.3,171.9,54.3,170.3,52.9,171.1L52.9,171.1z"/>
	<path class="st6" d="M46.3,140.1c-0.5,0.2-1.1,0.4-1.7,0.5c-1,0-1.4-0.4-2.2-0.5c-0.5,0-1.2,0.1-2.7,1.3c-1.3,1.1-1.9,1.9-3.4,3.8
		c-2,2.5-2.9,3.7-3.6,4.2c-1.4,1-2.4,1.3-2.8,2.5c-0.3,0.9-0.2,2,0.3,2.3s1.2-0.4,3-1c2-0.7,2.3-0.2,3.3-0.8c2-1.2,1.7-3.7,2.7-3.8
		c0.9-0.1,1.2,1.9,3.6,4.2c0.7,0.7,2.6,2.6,3.7,2.1c0.5-0.3,0.8-1.1,0.7-1.9c-0.2-1.4-2-1.4-3.2-3.3c-0.1-0.2-1.2-2.1-0.5-3.4
		c0.4-0.7,1.4-1.2,1.5-1.2c0.7-0.3,0.8-0.2,1.2-0.5c0.7-0.5,0.6-1.2,1-2.1c0.6-1.1,1.4-0.7,2.8-1.9c1.6-1.4,1.2-2.6,2.9-3.5
		c0.6-0.4,1.2-0.5,1.2-0.6s-1.1-0.1-2.1,0.2C49.9,137.4,49.1,138.8,46.3,140.1L46.3,140.1z"/>
	<path class="st6" d="M24.2,156.1c-0.4-0.3-2,0.6-2.9,1.9c-1.1,1.5-1,3.3-1,5c0,1,0.2,1.7,0.4,2.6c0.2,1.1,0.4,2.1,0.7,2.1
		c0.4,0,0.9-1.7,0.9-1.9c0.6-2.5-0.4-3.1,0.2-5c0.3-0.9,0.6-1.1,1.3-3.2C24.3,156.5,24.3,156.2,24.2,156.1L24.2,156.1z"/>
</g>
<g class="st4">
	<path class="st5" d="M544.5,66.2c1.4-2.1,2.9-4.1,4.1-6.2c1.3-2.2,1.7-3.3,3.1-3.9c1-0.4,1.7-0.2,2.6-1c0.9-0.8,0.6-1.4,1.7-2.5
		c1-1.1,1.9-1,2.1-1.9c0.2-0.7-0.3-1.4-0.7-1.9c-1-1.1-2.6-0.4-5.5-0.7c-1.2-0.1-3.7-0.3-6.3-1.7c-1.4-0.8-3-2-4.5-1.5
		c-0.3,0.1-0.5,0.2-0.9,0.2c-1.1-0.1-2.3-1.4-2.4-2.7c-0.1-0.9,0.3-0.9,0.3-1.9c0-1.5-1-3.1-2.3-3.5c-0.8-0.3-1,0.1-1.7-0.2
		c-1.6-0.7-2.4-4.2-1.1-5.5c0.6-0.6,1.4-0.6,1.8-1.5c0.3-0.5,0.2-0.9,0.2-1.3c0.1-1.7,2-2,3.8-4.4c1.6-2.1,1.4-3.5,2.9-4.2
		c0.5-0.2,0.9-0.2,1.2-0.3c0.1,0.2,0.3,0.4,0.3,0.7c0.1,0.8-0.8,1.8-0.8,2.4c0,0.5,0.2,0.5,0.4,1.8c0.1,0.3,0.2,0.9,0.2,1.3
		c0,1.6-1.2,3-1.5,3.3c-1.3,1.3-2.9,1.7-3.4,1.8c-2.2,0.5-3.4-0.3-4.3,0.6c-0.4,0.4-0.5,1-0.6,1.5c-0.2,1,0,2.7,1,3.2
		c0.8,0.4,1.2-0.2,2.2,0.3c0.9,0.5,1,1.5,1.5,1.4c0.4,0,0.6-0.8,1.1-2c1-2.3,2.6-4,3.6-5.1c0.7-0.7,0.8-0.7,1.1-1.1s1-1.5,1-4
		c0-0.6,0.1-5.4-1.2-6.1c-0.2-0.3-3.3-1.6-5.7-0.4c-1.9,0.9-2.4,2.7-4.1,2.7c-0.4,0-1.1-0.1-1.8,0.3c-0.5,0.3-0.7,0.5-1,0.8
		c-1,0.8-2.5,0.4-3.1,0.3c-1.7-0.2-3.9,1.1-9.3,7.6c-3.4,4.1-2.7,3.8-4.7,6.1c-5.5,6.2-10.7,8.6-10.7,12.4c0,0.4,0.1,1.3,0.2,2.2
		c0.3,2,0.8,3.1,1.3,4.7c0.8,2.5,0.3,2.3,1.3,6.2c0.6,2.6,1,4,1.5,4.7c1,1.6,2.2,2.1,2.2,3.6c0,0.9-0.4,1.5,0.1,2.1
		c0.3,0.4,0.7,0.4,1.3,0.7c1.3,0.6,1.4,1.5,2.8,2.8c0.7,0.6,1.2,0.9,2.2,1.5c0.3,0.1,2.9,1.6,5,2c3.8,0.6,7.4-2.1,12.3-5.5
		c1-0.7,2.1-1.6,3.8-2.3c2.1-0.9,2.8-0.7,4.2-1.5C542,70,542.4,69.5,544.5,66.2L544.5,66.2z M549.3,55.1c-0.9-0.2-2.2-0.9-2.2-1.8
		c0-0.7,0.7-1.2,2.3-2.2c1-0.7,1.8-1.2,3.1-1.5c1.6-0.4,3.6-0.4,3.7,0.1c0.1,0.4-1.1,0.6-2.1,2.1c-0.7,1-0.4,1.3-1,2
		C552.3,54.7,550.8,55.5,549.3,55.1L549.3,55.1z"/>
	<path class="st6" d="M542.6,59.4c-0.6,0.4-0.6,0.9-1.4,4.9c-0.6,2.9-0.8,3.7-1.5,4.5c-0.7,0.7-1.3,0.9-2.5,1.4
		c-0.2,0.1-2.2,1.2-6.1,3.4c-5.1,2.9-5.1,3.1-6.2,3.3c-2.2,0.5-5.6,0.4-6.3-1.2c-0.4-0.9,0.1-2.2,0.9-2.9c1.2-1.1,2.4-0.4,5.3-0.8
		c1.4-0.2,4.6-0.7,5.2-2.4c0.5-1.6-2-2.8-1.4-4.6c0.4-1.4,2.4-1.9,3.1-2.2c2.4-0.7,3.4,0.5,4.8-0.4c1.1-0.7,1.5-1.9,2.1-3.8
		c0.2-0.8,0.6-1.7,0.6-3c0-0.9,0.1-3.9-1.8-5.5c-1.2-1-1.9-0.5-3-1.6c-1.4-1.4-1.6-3.6-1.1-3.9c0.4-0.3,1.2,1,4.1,2.9
		c1.2,0.8,1.9,1.3,2.6,1.5c2,0.6,3.2-0.4,4,0.4c0.5,0.5,0.1,1,0.2,2.7c0.2,2.3,1.2,4.1,1.5,4.7c0.8,1.5,1.6,2,1.3,2.4
		C546.6,59.9,544.1,58.3,542.6,59.4L542.6,59.4z"/>
	<path class="st6" d="M532.4,24.3c-0.6,0.3-1.2,0.6-2,0.7c-1.2,0.1-1.6-0.4-2.5-0.4c-0.6,0-1.4,0.2-3,1.8c-1.4,1.4-2,2.4-3.6,4.7
		c-2,3-3.1,4.5-3.8,5.1c-1.5,1.3-2.6,1.7-3,3.1c-0.3,1-0.1,2.3,0.6,2.6c0.7,0.3,1.3-0.6,3.3-1.4c2.2-1,2.6-0.4,3.7-1.2
		c2.2-1.5,1.6-4.4,2.8-4.6c1-0.2,1.6,2.1,4.5,4.6c0.9,0.8,3.2,2.8,4.4,2.1c0.6-0.4,0.9-1.4,0.7-2.2c-0.4-1.6-2.4-1.4-3.9-3.5
		c-0.1-0.2-1.6-2.3-0.8-3.9c0.4-0.8,1.5-1.5,1.7-1.6c0.7-0.4,0.9-0.3,1.4-0.7c0.8-0.7,0.6-1.5,1-2.4c0.6-1.3,1.5-0.9,3-2.4
		c1.7-1.7,1.2-3.1,3-4.3c0.7-0.4,1.4-0.7,1.3-0.8c-0.1-0.2-1.3,0-2.4,0.4C536.3,20.9,535.6,22.5,532.4,24.3L532.4,24.3z"/>
	<path class="st6" d="M508.4,44.4c-0.4-0.3-2.2,0.8-3.2,2.4c-1.1,1.8-0.9,3.8-0.7,5.8c0.1,1.1,0.3,1.9,0.6,3c0.4,1.3,0.6,2.4,1,2.4
		c0.5,0,0.9-2,0.9-2.2c0.5-2.9-0.7-3.5-0.2-5.8c0.2-1,0.6-1.3,1.3-3.8C508.5,44.9,508.6,44.6,508.4,44.4L508.4,44.4z"/>
</g>
<g class="st7">
	<path class="st6" d="M60.1,24.2c-0.7-0.5-1-1.1-1.2-1.4c-1-2-3.5-1.4-8.3-3.5c-1.8-0.9-2.6-1.5-4-1.3c-0.5,0-0.6,0.1-2.6,1
		c-2.6,1.1-2.9,1-3.6,1.6c-0.9,0.8-0.8,1.4-1.6,2.7c-1.6,2.5-3,1.9-4.1,3.7c-0.8,1.3-0.8,3.7-0.8,8.5c0,0.7,0,1.9-0.7,3
		c-0.5,0.7-0.7,0.6-1,1.2c-0.4,0.8-0.1,1.2,0.3,3.7c0.3,1.5,0.2,1.8,0.6,2.1c0.4,0.4,0.8,0.2,2.1,0.5c0.9,0.3,0.8,0.4,1.4,0.5
		c0.1,0,2.2,0.5,3.3-0.6c0.2-0.2,0.4-0.5,0.8-0.7c0.3-0.2,0.6-0.4,0.9-0.3c0.3,0.1,0.5,0.4,0.7,0.6c0.7,0.6,2.5,0.2,3.6-0.7
		c1.5-1.3,1.1-3.7,0.9-4.8c-0.2-1.4-0.7-2.4-1-3c-0.6-1.2-1.3-2-2.5-3.4C41.8,31.9,41,31.2,41,30c0-0.1,0-0.6,0.3-1.2
		c0.5-1,1.8-1.6,2.7-1.3c0.6,0.2,0.8,0.8,1.1,1.5c1,2.1,3.2,3.7,5,4.1c0.4,0.1,1.9-0.2,4.9-0.7c1.8-0.3,3.1-0.6,3.8-1.4
		c0.1-0.1,0.3-0.3,0.6-0.4c0.5-0.2,1.3-0.2,1.6,0.2c0.3,0.4,0,0.7,0.3,0.9c0.2,0.1,0.4,0,1,0c0.4,0,0.4,0.1,0.6,0.1
		c0.6,0,0.8-0.5,1.2-0.4s0.4,0.5,0.8,0.6c0.3,0.1,0.5-0.2,1-0.1c0.3,0,0.4,0.2,0.5,0.2c0.4,0,0.6-1,0.8-1.7c0.6-2.8,1.3-3.4,0.8-4.2
		c-0.1-0.2-0.4-0.5-0.8-0.7c-0.5-0.2-1-0.1-1.2-0.1c-0.4,0.1-0.4,0.1-0.6,0.1c-0.4-0.1-0.4-0.8-0.8-1c-0.3-0.2-0.5,0.1-0.9-0.1
		s-0.4-0.6-0.6-0.6c-0.2,0-0.2,0.4-0.6,0.7C61.6,24.9,60.7,24.6,60.1,24.2L60.1,24.2z"/>
	<path class="st5" d="M45.2,27.3c0.7,0.7,0.6,1.4,0.9,2.1c0.7,1.7,2.7,2.7,4,3c2.2,0.5,4.8-0.4,6.2-1.5c0.5-0.4,1.2-1,2.2-1
		c0.8,0,1.4,0.3,1.5,0.1c0.2-0.2-0.1-1-0.7-1.4c-1.1-0.7-2.2,0.6-4.4,0.6c-0.2,0-3,0-4-1.6c-1-1.5,0.5-3.2-0.5-4.1
		c-0.7-0.7-2.3-0.4-3.7,0c-2.1,0.5-2.8,1.4-3.9,1c-1-0.4-0.9-1.3-1.6-1.4C40,23,38.2,26,39,26.9c0.5,0.6,1.9,0.5,2.8,0.1
		c0.6-0.2,0.7-0.4,1.2-0.5C44.3,26.3,45.1,27.2,45.2,27.3L45.2,27.3z"/>
	<path class="st5" d="M45.5,38.1c0.5,0.1,0.7,2.3,0.4,4c-0.2,1.1-0.3,2.1-1.1,2.5c-0.6,0.4-1.5,0.5-2.3,0.1
		c-0.6-0.3-0.8-0.8-1.3-0.7c-0.4,0.1-0.5,0.5-0.7,0.5c-0.2-0.1-0.4-0.7-0.2-1c0.3-0.5,1.2,0.1,2-0.3c0.6-0.3,0.7-0.8,1.5-2.4
		C44.7,39,45.2,38.1,45.5,38.1L45.5,38.1z"/>
</g>
<g class="st7">
	<path class="st6" d="M170.5,165.7c0.1,0.9-0.3,1.5-0.4,1.8c-0.9,2,1.2,3.6,2.4,8.7c0.5,2,0.5,3,1.5,3.9c0.4,0.4,0.6,0.4,2.5,1.4
		c2.4,1.3,2.6,1.7,3.6,1.8c1.2,0.2,1.6-0.2,3.1-0.4c2.9-0.4,3.3,1.1,5.5,0.9c1.6-0.2,3.4-1.7,7.1-4.7c0.5-0.4,1.5-1.2,2.8-1.3
		c0.8-0.1,0.9,0.2,1.6,0c0.8-0.2,1-0.7,2.7-2.6c1-1.2,1.3-1.3,1.3-1.8c0-0.6-0.4-0.8-0.9-2c-0.4-0.9-0.2-0.9-0.5-1.4
		c-0.1-0.1-1-2.1-2.5-2.2c-0.2,0-0.6,0-1.1-0.2c-0.3-0.1-0.6-0.2-0.8-0.5s0-0.6,0-0.9c0.1-0.9-1.4-2.1-2.8-2.4
		c-2-0.4-3.6,1.4-4.4,2.3c-0.9,1-1.4,2.1-1.7,2.7c-0.6,1.2-0.8,2.3-1.1,4.1c-0.4,2.3-0.4,3.3-1.3,4c-0.1,0.1-0.5,0.4-1.1,0.5
		c-1.1,0.2-2.4-0.4-2.7-1.2c-0.2-0.6,0.2-1.1,0.5-1.8c1-2.1,0.8-4.8,0.1-6.4c-0.2-0.4-1.3-1.4-3.6-3.4c-1.4-1.2-2.4-2-3.4-2.1
		c-0.1,0-0.4,0-0.7-0.2c-0.5-0.3-0.9-0.9-0.8-1.4c0.1-0.4,0.6-0.5,0.6-0.8c0-0.2-0.3-0.3-0.6-0.8c-0.2-0.3-0.1-0.4-0.3-0.5
		c-0.4-0.5-0.9-0.3-1.1-0.6s0.2-0.6,0-1c-0.2-0.3-0.5-0.3-0.7-0.7c-0.2-0.3-0.1-0.4-0.2-0.5c-0.3-0.3-1.2,0.2-1.8,0.5
		c-2.5,1.2-3.5,1.1-3.8,2c-0.1,0.2-0.2,0.6,0,1.1s0.6,0.9,0.7,1c0.3,0.3,0.4,0.2,0.4,0.4c0.2,0.4-0.4,0.8-0.2,1.3
		c0.1,0.4,0.4,0.4,0.5,0.8c0.1,0.4-0.2,0.7-0.1,0.8c0.1,0.2,0.5-0.1,0.9,0C170.1,164.1,170.5,165.1,170.5,165.7L170.5,165.7z"/>
	<path class="st5" d="M182.3,175.4c0.1-1,0.7-1.3,1.1-2c0.9-1.6,0.4-3.8-0.2-5c-1-2-3.3-3.5-5.1-3.9c-0.6-0.1-1.5-0.3-2.2-1.1
		c-0.5-0.6-0.6-1.3-0.9-1.3s-0.7,0.7-0.6,1.4c0.1,1.3,1.8,1.4,3.2,3.1c0.1,0.1,1.9,2.3,1.2,4.1c-0.6,1.7-2.8,1.6-2.9,2.9
		c-0.1,1,1.2,2.1,2.3,2.9c1.7,1.4,2.9,1.4,3.2,2.4s-0.5,1.6-0.1,2.1c0.7,1,4.1,0.5,4.4-0.6c0.2-0.7-0.8-1.8-1.7-2.3
		c-0.5-0.3-0.8-0.3-1.1-0.6C182.1,176.8,182.3,175.6,182.3,175.4L182.3,175.4z"/>
	<path class="st5" d="M190.6,168.5c-0.3-0.4,1.3-2,2.9-2.9c1-0.6,1.8-1,2.7-0.7c0.7,0.2,1.3,0.9,1.5,1.7c0.1,0.6-0.1,1.2,0.2,1.5
		s0.7,0.1,0.8,0.3s-0.2,0.7-0.6,0.8c-0.6,0.1-0.7-0.9-1.5-1.4c-0.6-0.3-1.1-0.1-2.9,0.3C191.7,168.5,190.7,168.7,190.6,168.5
		L190.6,168.5z"/>
</g>
<g class="st7">
	<path class="st6" d="M381.3,92.5c-0.5,0.8,0.7,2,1.5,4.3c0.3,0.9,0.4,1.5,1,1.7c0.4,0.2,0.5,0,1,0.1c1,0.1,1.4,1,2.4,1.7
		c0.4,0.3,1.3,0.8,2.4,0.8c1.4,0,2.1-1,2.5-0.8c0.3,0.2-0.1,0.9-0.3,2.3c-0.1,1-0.4,2.7,0.3,3.1c0.4,0.2,0.9,0,1,0.3
		c0.1,0.2-0.3,0.4-0.2,0.8c0,0.3,0.3,0.6,0.5,0.8c0.6,0.7,0.5,1.3,0.8,1.9c0.9,1.6,4.3,1.3,4.3,1.8c0,0.2-0.3,0.2-0.4,0.6
		c-0.2,0.5-0.1,1,0,1.2c0.4,1.2,1.5,1.6,3.4,3.2c1.5,1.3,1.8,1.6,2.6,1.7c0.6,0.1,1.6,0,1.9-0.6c0.2-0.4,0-0.7,0.2-1
		c0.4-0.4,1.1-0.1,2.5-0.3c0.8-0.1,1.4-0.2,1.8-0.7c0.5-0.6,0-1.2,0.4-1.8c0.5-0.6,1.2-0.2,1.9-0.7c0.3-0.2,0.6-0.6,0.7-2.5
		c0.1-1.5,0.1-3.1-0.7-5.1c-0.7-1.6-0.8-0.8-2.6-3.7c-0.3-0.5-1-1.7-1.6-1.6c-0.3,0.1-0.4,0.4-0.5,0.3s0.2-0.6,0.2-1
		c0.1-1.2-1.8-1.6-2.9-3.2c-1.2-1.7-0.1-2.7-1.4-4.1c-0.8-0.9-2.4-1.6-3.5-1.2c-0.7,0.2-0.8,0.7-1.5,0.8c-0.4,0.1-1.1,0.1-2.6-1.1
		c-1.9-1.5-1.6-2.4-2.9-3.4c-1.6-1.2-3.9-1.3-5.4-0.9c-1.2,0.3-2,0.9-3.9,1c-0.6,0-0.8,0-1.1,0.1c-1.8,0.6-2.7,3.4-2.1,4
		c0.2,0.2,0.6,0.2,0.7,0.4C381.5,92.2,381.3,92.4,381.3,92.5L381.3,92.5z"/>
	<path class="st6" d="M383.3,86.5c0-0.3-0.5-0.6-0.9-0.6c-0.3,0-0.7,0-1.4,0.6c0,0-1.9,1.6-2.1,4.2c0,0.1,0,0.3,0.1,0.5
		c0.3,0.6,1.1,0.9,1.3,0.7c0.1-0.1,0-0.3-0.1-0.6c-0.2-0.9,0.2-1.8,0.4-2.2c0.5-0.9,1.2-1.5,1.5-1.7
		C382.8,86.9,383.3,86.8,383.3,86.5L383.3,86.5z"/>
	<path class="st6" d="M384.1,87c0-0.2-0.4-0.5-0.8-0.5c-0.3,0-0.6,0.1-1.4,0.8c-0.7,0.7-1.1,1-1.3,1.3c-0.2,0.3-0.3,1-0.5,2.3
		c-0.1,0.7-0.1,1,0.1,1.2c0.3,0.3,0.8,0.4,0.9,0.2c0.1-0.1-0.1-0.4-0.2-0.7c-0.3-0.8,0.1-1.5,0.4-2.2c0.2-0.5,0.7-1.6,1.8-2.1
		C383.6,87.1,384.1,87.2,384.1,87L384.1,87z"/>
	<path class="st5" d="M384,88.1c0.1-0.3,1.2,0.1,3-0.2c1.6-0.2,1.7-0.8,2.8-0.8c1.6,0,2.8,1.1,3.7,1.9c1.7,1.5,1.6,2.5,3.1,3.2
		c0.4,0.2,1.2,0.6,2.2,0.4c0.8-0.1,0.9-0.5,1.8-0.6c0.8-0.2,2.1-0.1,2.7,0.6c0.4,0.5,0,0.8,0.2,1.8c0.3,1.2,1,1.3,1.4,2.7
		c0.1,0.3,0.6,1.7,0.1,2c-0.6,0.5-2.2-1.3-5.4-3.1c-3.2-1.8-3.8-1.2-5.9-2.8c-2.2-1.7-2-2.6-3.6-3.1c-1.7-0.5-2.8,0.2-4.7-0.7
		C384.6,88.9,383.9,88.3,384,88.1L384,88.1z"/>
	<path class="st5" d="M399.5,111.3c-0.1,0-0.9,0.2-1.1,0.8c-0.1,0.3,0,0.6,0.1,0.9c0.5,1.1,1.5,1.5,2.8,2.6c1.4,1.1,1.7,1.7,2.5,1.7
		c0.5,0,1.2-0.1,1.3-0.4c0.1-0.3-0.2-0.5-0.1-0.7c0.2-0.3,1,0,1.2-0.3c0.1-0.2,0-0.6-0.2-0.8c-0.4-0.4-0.9-0.3-2-0.4
		c-1.3-0.1-1.9-0.1-2.4-0.4c-0.2-0.2-0.6-0.7-1.3-1.7C400.2,112.3,399.6,111.6,399.5,111.3L399.5,111.3z"/>
</g>
<g class="st7">
	<path class="st6" d="M149.1,217.4c0.3-0.6-0.6-1.3-1.4-2.9c-0.3-0.6-0.4-1-0.8-1.1c-0.2-0.1-0.4,0-0.7,0c-0.7,0-1.1-0.6-1.8-1
		c-0.3-0.1-1-0.5-1.7-0.4c-1,0.1-1.4,0.9-1.7,0.7c-0.2-0.1,0-0.6,0.1-1.6c0-0.7,0.1-1.9-0.4-2.1c-0.3-0.1-0.6,0-0.7-0.1
		c-0.1-0.1,0.1-0.3,0.1-0.6c0-0.2-0.2-0.4-0.4-0.5c-0.5-0.4-0.4-0.9-0.7-1.3c-0.7-1.1-3.1-0.6-3.1-1c0-0.1,0.2-0.1,0.3-0.4
		c0.1-0.4,0-0.7-0.1-0.8c-0.4-0.9-1.2-1-2.6-2c-1.2-0.8-1.4-1-1.9-1c-0.4,0-1.1,0.1-1.3,0.5c-0.1,0.3,0.1,0.5-0.1,0.7
		c-0.2,0.3-0.8,0.1-1.7,0.4c-0.6,0.1-1,0.2-1.2,0.6c-0.3,0.5,0.1,0.9-0.2,1.3c-0.3,0.4-0.9,0.2-1.3,0.6c-0.2,0.2-0.4,0.5-0.3,1.8
		c0.1,1,0.1,2.2,0.8,3.5c0.6,1.1,0.7,0.5,2.1,2.4c0.2,0.3,0.8,1.1,1.2,1c0.2-0.1,0.3-0.3,0.3-0.2c0.1,0-0.1,0.4-0.1,0.7
		c0,0.8,1.4,0.9,2.3,2c0.9,1.1,0.3,1.9,1.2,2.7c0.7,0.6,1.8,0.9,2.6,0.6c0.5-0.2,0.5-0.5,1-0.7c0.2-0.1,0.8-0.1,1.9,0.6
		c1.4,0.9,1.3,1.6,2.2,2.1c1.2,0.7,2.8,0.6,3.9,0.3c0.8-0.3,1.4-0.8,2.7-1c0.4-0.1,0.5-0.1,0.8-0.2c1.2-0.6,1.6-2.6,1.2-3
		c-0.1-0.1-0.4-0.1-0.5-0.3C149,217.7,149.1,217.5,149.1,217.4L149.1,217.4z"/>
	<path class="st6" d="M148.1,221.7c0,0.2,0.4,0.4,0.7,0.4c0.2,0,0.5-0.1,0.9-0.5c0,0,1.2-1.3,1.1-3.1c0-0.1,0-0.2-0.1-0.3
		c-0.2-0.4-0.9-0.6-1-0.4c-0.1,0.1,0,0.2,0.1,0.4c0.2,0.6,0,1.2-0.1,1.6c-0.3,0.7-0.7,1.1-0.9,1.3
		C148.4,221.4,148.1,221.6,148.1,221.7L148.1,221.7z"/>
	<path class="st6" d="M147.5,221.5c0,0.1,0.3,0.3,0.6,0.3c0.2,0,0.4-0.1,0.9-0.7c0.5-0.5,0.7-0.8,0.8-1c0.1-0.3,0.1-0.7,0.2-1.6
		c0-0.5,0-0.7-0.1-0.9c-0.2-0.2-0.6-0.2-0.7-0.1c-0.1,0.1,0.1,0.3,0.2,0.5c0.2,0.5,0.1,1.1-0.1,1.6c-0.1,0.4-0.4,1.2-1.1,1.6
		C147.9,221.3,147.5,221.3,147.5,221.5L147.5,221.5z"/>
	<path class="st5" d="M147.6,220.7c-0.1,0.2-0.9,0-2.1,0.3c-1.1,0.3-1.1,0.6-1.9,0.7c-1.1,0.1-2-0.6-2.7-1c-1.3-0.9-1.3-1.6-2.4-2
		c-0.3-0.1-0.9-0.3-1.6-0.1c-0.6,0.1-0.6,0.4-1.2,0.6c-0.6,0.2-1.5,0.2-1.9-0.2c-0.3-0.3-0.1-0.6-0.3-1.2c-0.3-0.8-0.8-0.9-1.2-1.8
		c-0.1-0.2-0.5-1.1-0.2-1.4c0.4-0.4,1.6,0.8,4,1.8s2.7,0.5,4.3,1.5s1.6,1.7,2.7,1.9c1.2,0.2,1.9-0.4,3.4,0.2
		C147.1,220.2,147.6,220.6,147.6,220.7L147.6,220.7z"/>
	<path class="st5" d="M135,205.6c0.1,0,0.6-0.2,0.7-0.6c0.1-0.2-0.1-0.4-0.2-0.6c-0.5-0.7-1.1-0.9-2.1-1.6c-1.1-0.7-1.3-1.1-1.9-1
		c-0.3,0-0.8,0.1-0.9,0.4c0,0.2,0.2,0.3,0.1,0.5c-0.1,0.2-0.7,0.1-0.8,0.3c-0.1,0.1,0,0.4,0.2,0.6c0.3,0.3,0.7,0.1,1.4,0.1
		c0.9-0.1,1.3-0.1,1.7,0.1c0.2,0.1,0.5,0.4,1,1.1C134.4,205,134.9,205.4,135,205.6L135,205.6z"/>
</g>
<path class="st3" d="M282.2,39.4c1.5,0.3,3.3-0.2,3.7-0.3c0.7-0.2,1.1-0.1,7.5,2.5c3,1.2,4.7,1.9,4.7,2.9c0,0.5-0.3,0.9-0.3,0.9
	c-0.4,0.6-0.9,0.5-2.2,1.2c-0.8,0.4-0.7,0.5-1.1,0.6c-1,0.3-1.3-0.1-2.4,0c-1.3,0.2-1.4,0.8-2.4,0.7c-0.7-0.1-0.9-0.3-1.5-0.2
	c-0.2,0-0.3,0.1-1.2,0.6c-0.5,0.3-0.8,0.4-0.9,0.4c-0.4,0.1-0.8,0.1-1.5,0c-0.4,0-0.5-0.1-0.6-0.2c-0.1-0.2,0.2-0.5,0.1-0.7
	s-0.6-0.1-1.8-0.1c-0.2,0-0.5,0-0.8,0.1s-0.5,0.3-0.6,0.4c-0.6,0.5-1.4,0.8-1.9,1c-0.6,0.2-1,0.4-1.4,0.2s-0.6-0.5-0.6-0.5
	c-0.4-0.6,0-1.1-0.4-1.5c-0.3-0.2-0.7-0.2-0.9-0.1c-0.4,0.1-0.6,0.3-0.9,0.5c-0.8,0.6-1.2,1-1.3,1c-1.1,0.7-2.6,0.6-2.7,0.3
	c-0.1-0.1,0.1-0.2,0.1-0.6c0-0.4-0.1-0.6-0.2-0.8c-0.3-0.7-0.7-0.6-1-1.3c-0.2-0.4-0.1-0.5-0.3-0.6c-0.1-0.1-0.3-0.2-1.6-0.3
	c-1,0-1.3,0-1.5,0.2c-0.3,0.1-0.4,0.3-0.5,0.3c-0.7,0.6-1.8,1.1-3.3,1.8c-2.1,1-3.4,1.5-3.7,1.2c0,0-0.1-0.2,0.2-0.9
	c1-1.9,2.3-2.4,2.3-3.6c0-0.4-0.1-0.7-0.2-0.8c-0.3-0.7-0.9-0.9-1.5-1.4c-0.8-0.8-1.4-2-1.1-2.4s1.6,0.1,2.8,0.5
	c2,0.8,2.2,1.2,3.5,1.7c1.7,0.6,3.3,0.4,4,0.3c2.5-0.4,3-1.5,5-1.4c0.3,0,1.4,0.1,1.5-0.2c0-0.1-0.1-0.2-0.1-0.4
	c-0.1-0.5,0.3-0.8,0.6-1.2c0.6-1.1-0.3-2.3,0.3-2.8c0.2-0.2,0.5-0.2,0.8-0.2c0.9,0,1.7,0.8,2.6,1.8c0.6,0.7,0.9,1.1,1.6,1.4
	C281.5,39.2,281.8,39.4,282.2,39.4L282.2,39.4z"/>
<path class="st3" d="M46.8,214.3c-0.9,0.4-2,0.3-2.3,0.2c-0.5,0-0.7,0.1-4.3,2.4c-1.7,1.1-2.6,1.7-2.5,2.4c0,0.3,0.3,0.5,0.3,0.5
	c0.3,0.3,0.6,0.2,1.5,0.4c0.6,0.1,0.5,0.2,0.8,0.2c0.6,0.1,0.8-0.2,1.5-0.3c0.8-0.1,0.9,0.3,1.6,0.1c0.4-0.1,0.5-0.3,0.9-0.3
	c0.1,0,0.2,0,0.8,0.2c0.3,0.1,0.5,0.1,0.6,0.1c0.3,0,0.5-0.1,0.9-0.2c0.2-0.1,0.3-0.1,0.3-0.2c0-0.1-0.2-0.2-0.2-0.4
	c0-0.1,0.3-0.1,1.1-0.3c0.1,0,0.3-0.1,0.5-0.1s0.3,0.1,0.4,0.1c0.5,0.2,0.9,0.3,1.3,0.4c0.4,0.1,0.6,0.1,0.9,0
	c0.2-0.1,0.3-0.4,0.3-0.4c0.2-0.4-0.1-0.7,0-0.9s0.4-0.2,0.5-0.2c0.2,0,0.4,0.1,0.6,0.2c0.5,0.3,0.8,0.4,0.9,0.5
	c0.7,0.3,1.6,0.1,1.7-0.2c0-0.1-0.1-0.1-0.2-0.4c0-0.2,0-0.4,0-0.5c0.1-0.4,0.3-0.5,0.5-0.9c0.1-0.3,0-0.3,0.1-0.4
	c0-0.1,0.2-0.2,0.9-0.4c0.6-0.1,0.8-0.1,1-0.1s0.3,0.1,0.3,0.1c0.5,0.3,1.2,0.4,2.2,0.7c1.4,0.3,2.3,0.5,2.4,0.3c0,0,0-0.1-0.2-0.5
	c-0.8-1.1-1.7-1.2-1.8-1.9c0-0.2,0-0.5,0-0.5c0.1-0.5,0.4-0.6,0.7-1c0.4-0.6,0.6-1.4,0.4-1.6c-0.2-0.2-1,0.2-1.7,0.7
	c-1.1,0.7-1.2,1-1.9,1.4c-1,0.6-2,0.6-2.4,0.6c-1.6,0.1-2-0.6-3.2-0.2c-0.2,0.1-0.8,0.2-1,0.1c0-0.1,0-0.1,0-0.3
	c0-0.3-0.3-0.4-0.5-0.6c-0.5-0.6-0.1-1.4-0.5-1.7c-0.2-0.1-0.4-0.1-0.5,0c-0.6,0.1-0.9,0.7-1.4,1.4c-0.3,0.5-0.4,0.8-0.8,1.1
	C47.2,214.1,47,214.2,46.8,214.3L46.8,214.3z"/>
<g class="st7">
	<path class="st5" d="M301.2,97.2c-3.3,2.7-4.9,4.1-5.8,4.8c-7.7,7-9.7,6.7-11.9,10.6c-0.8,1.4-1.2,2.6-2.7,4.9
		c-0.8,1.3-1.6,2.2-2.4,3.9c-0.9,2-0.8,3-0.6,3.7c0.3,0.8,0.8,1.3,1.2,1.8c3.5,3.5,3.9,6.9,6.2,7.4c1,0.2,1.7,0.2,1.7,0.2
		c1.2,0,1.7-0.2,2,0c0.4,0.5-1,1.6-0.7,2.8c0.2,0.7,0.6,0.6,1.7,1.8c1,1.1,1.2,1.9,1.6,1.9c0.5,0,0.6-0.8,1.4-1c0.3-0.1,0.5,0,0.5,0
		c3,0.4,8.4-2.6,8.4-2.6c6.5-3.7,11.6-8.9,12.1-9.5c2.7-2.8,3-3.7,5.3-5.4c2.8-2.1,4.3-2.2,5.4-4.1c1.5-2.7,0.5-5.8,0.3-6.4
		c-0.9-2.7-2.4-3.1-5.9-6.9c-4.5-4.8-3.8-6-6.9-7.9c-0.8-0.5-5-3.2-8.5-1.7C303.2,95.6,302.9,95.9,301.2,97.2L301.2,97.2z
		 M283,122.5c0.7-0.2,1.7,1,3.4,3.3c2,2.8,2.4,3.5,2.2,4.3c-0.2,0.6-0.6,1.1-1.1,1.1s-0.7-0.7-1.4-1.8c-0.2-0.3-1.2-2-2.6-3.4
		c-1-1-1.8-1.6-1.7-2.2c0-0.2,0.2-0.6,0.5-0.8C282.6,122.7,282.9,122.6,283,122.5L283,122.5z"/>
	<path class="st6" d="M295.8,138.7c2.5-0.7,4.4-1.7,5.6-2.4c2.6-1.5,4.4-2.9,6.3-4.4c2.7-2.1,4.1-3.1,5.1-4.5
		c1.6-2.1,1.3-2.7,2.8-4.2c1.5-1.4,2.1-1.2,4.8-3.1c2-1.5,3.1-2.2,3.5-3.2c1.2-2.7-1-6.7-3.9-8.6c-1.9-1.3-4.9-2.1-5.9-1
		c-0.6,0.7,0,1.5-0.1,4.7c0,2.2-0.1,3.3-0.6,4.1c-0.9,1.3-2,0.8-4.5,2.5c-1.1,0.7-1.8,1.2-2.3,2.1c-1.2,1.9-0.3,3.2-1,6.1
		c-0.3,1.2-0.8,3-2.2,4.2c-1.8,1.6-4.5,1.7-7,1.8c-2.6,0.1-3.6-0.3-4.9,0.6c-0.1,0.1-1.7,1.3-1.6,3c0.1,1.5,1.4,2.3,1.5,2.3
		C292.2,139.3,293.2,139.5,295.8,138.7L295.8,138.7z"/>
</g>
<path d="M247.6,227.4c0,0,0.3,2.4,0.3,4.7c0,0.4,0,0.8,0,0.9c0,5.1,1.1,25.7-0.8,25.9c-0.8,0.1-1.5-3.5-2.9-3.4s-1.9,3.5-2.6,3.5
	c-1.6,0-2.8-14.8-2.7-17.5c0.4-15-1.5-29.4-2.8-29.4c-1.2-0.1-3.4,14.9-4.5,25.9c-0.6,6.1,0.1,20-2.8,20.8c-1.2,0.3-2.5,0-2.5,0
	s-1.2-0.3-2.3-1.1c-2.9-2.3-1.1-23.3-0.7-28.3c0.9-11.7,1.5-17.5,1.2-21.5c0-0.8-0.2-3.2,0.2-6.4c0.4-3,1-4.9,1.4-6.4
	c0.6-2.7,1-6.7-0.5-12.2c-0.2,1.1-0.6,2.6-0.9,4.5c-0.5,3-1.2,6-2.2,8.9c-0.8,2.3-1.3,3.4-1.7,4.9c-0.1,0.5-0.3,1.1-0.4,1.9
	c-0.4,2.5-0.4,6.1-0.6,8.3c0,0.3-0.1,1-0.5,1.3c-0.1,0-0.2,0.2-0.4,0.1c-0.2-0.1-0.2-0.3-0.2-0.7c-0.1-1.1,0.1-1.4-0.1-1.9
	c-0.1-0.3-0.4-0.5-0.6-0.5c-0.3,0.1-0.4,0.9-0.4,1.5c0.1,1.5,1.1,2.3,0.7,2.9c0,0-0.1,0.2-0.3,0.2c-0.6,0.1-1.2-1.3-1.5-2.1
	c-1-2.8,0.2-5.4,0.9-7.3c1.6-4.2,0.1-2.5,2.7-12.8c1.2-4.5,2.5-8.9,0.6-10.5c-0.4-0.4-1-0.5-1.3-1.2c-0.6-1.2,0.4-2.5,1.3-4.4
	c1.4-3.2,0.4-3.4,1.6-5.8c0.6-1.2,2.2-3.9,5-5.1c0.8-0.4,3.4-0.8,4.5-1.9c0.4-0.4,0.6-1,0.6-1c0-0.5,0.2-0.9,0.2-1.6
	c0-1.1,0-1.8-0.3-2c-0.2-0.1-0.4,0-0.9,0c-0.8-0.1-1.3-0.7-1.4-0.8c-0.6-0.7-0.2-1.2-0.7-3c-0.3-1-0.4-1-0.4-1.4
	c0.1-0.7,0.7-0.9,1.2-1.9c0.2-0.5,0.2-0.9,0.3-1.1c0.3-0.7,1.7-3.7,4.8-4.1c1-0.1,2.4,0.7,5.2,2.2c1.1,0.6,1.4,0.9,1.6,1.2
	c0.5,0.8,0.6,1.9,0.6,4.2c0,0.3,0,0.5,0,0.6c-0.1,1.7-1.3,3-1.7,3.4c-0.5,0.5-0.9,0.8-1.1,1.4c-0.2,0.3-0.3,0.9-0.3,0.9
	c-0.1,0.4-0.2,0.6-0.2,0.9c0,0.4,0,0.7,0.1,1.1c0.1,0.6,0.2,0.9,0.4,1.1c0.3,0.3,0.6,0.3,1.2,0.4c0.3,0.1,0.2,0.1,1.7,0.7
	c3.1,1.3,3.3,1.2,3.9,1.6c1,0.8,1.2,1.5,2.3,3.3c2.7,4.7,5.1,6.1,4.4,7.9c-0.2,0.6-0.5,0.5-0.9,1.1c-1.3,2.1,0.5,5.3,1.8,8
	c2.2,4.6,0.7,3.4,3.9,11c1.2,2.9,2.4,5.5,2.9,9.5c0.3,2,0.4,4-0.5,4.4c-0.6,0.3-1.6-0.4-2.1-0.9c-1.6-1.7-1.1-4.2-1.1-6.4
	c-0.1-2.9-1.1-3.8-3.9-9.2c-4.8-9.6-5.4-14.5-6.5-14.3c-1.3,0.2-1.7,7.5-1.1,12.3c0.1,0.7,0.4,2.5,1.1,7.5c0.2,1.3,0.3,2.2,0.3,2.3
	C247.4,204,247.8,209.6,247.6,227.4z"/>
<path d="M223.1,252.9c-1.1,0-1.7,0.2-2,0.6c-0.5,0.8,0,2,0.2,2.5c0.8,1.7,2.7,3.3,4.9,3.3c0.6,0,1.8,0,2.6-0.8
	c1-0.9,1.1-2.6,0.6-3.7C228.4,252.8,225.3,252.9,223.1,252.9L223.1,252.9z"/>
<path d="M247.6,252.6c1.2,0,1.9,0.2,2.2,0.7c0.6,0.8,0,2.2-0.3,2.7c-0.9,1.9-2.9,3.6-5.4,3.6c-0.7,0-1.9,0-2.9-0.9
	c-1.1-1-1.2-2.8-0.6-4C241.8,252.5,245.2,252.6,247.6,252.6L247.6,252.6z"/>
<path d="M277.1,206.7c0-0.4-0.1-0.7-0.1-0.7c-0.5-2.7,1.9-5.6,4.7-5.7c2.8-0.1,5.3,2.7,4.9,5.5c0,0.1-0.1,0.4,0,0.9
	c0.1,0.2,0.1,0.3,0.2,0.5c0.3,0.8-1,2.2-1.2,2.4c-0.5,0.5-0.9,0.7-1.1,1.2c-0.1,0.2-0.2,0.5-0.1,0.8c0.2,0.6,1.2,0.8,1.6,0.9
	c1.6,0.4,2.6,1.4,4,2.9c0,0,1.8,1.9,2.9,5.3c0.2,0.7,0.2,1.1,0.1,1.4c-0.1,0.3-0.2,0.4-0.3,0.8c-0.2,0.5-0.2,1-0.2,1.4
	c0,5.3,0,8,0.4,9.6c0.1,0.3,0.4,1.5,0.3,3.1c0,1.1-0.2,1.7-0.7,2.2c-0.2,0.2-1.4,1.4-1.7,0.5c-0.1-0.3,0.6-0.5,0.8-1.1
	c0.1-0.5-0.3-1.1-0.5-1.1c-0.1,0-0.1,0.2-0.4,0.4c-0.1,0.1-0.2,0.1-0.3,0.1c-0.2-0.1-0.1-0.8,0-1.2s0.3-0.7,0.3-0.7
	c0.5-0.8,0.2-2.8,0-4.4c0-0.1-0.2-1.9-0.5-5.4c0-0.1-0.1-0.8-0.4-1.5c-0.2-0.4-0.4-0.9-0.6-0.9c-0.5,0.1-0.6,3.6-0.6,4.8
	c-0.1,2.4,0,4.1,0.1,5.1c0.2,5.8-0.4,6.2-0.1,12.1c0,1,0.1,2.4,0.2,4.6c0,3.4-0.1,2.8,0,4.7c0.1,3,0.6,4.6-0.4,5.7
	c-0.4,0.5-1,0.7-1,0.8c-0.7,0.4-1.7,0.5-2.3,0.3c-0.7-0.3-1-1.4-1.1-6.2c-0.1-3.2-0.9-6.4-0.8-9.5c0-0.1,0-0.5-0.2-0.8
	c-0.3-0.4-0.8-0.2-0.9-0.2c-0.5,0.1-0.9,0.6-1.8,3c-1,2.5-1.1,3.2-1.1,4.1c0,0.5,0,0.9,0.1,1.4c0.5,4.6,0.7,6.9-0.1,7.4
	c-0.7,0.5-2,0-2.1,0c0,0-0.5-0.2-1-0.7c-1.5-1.5-1.5-4.9-1.9-8.9c-0.1-1.6-0.2-2.5-0.2-3.9c0-2.8,0.2-5.5,0.7-8.2
	c0.2-1.1,0.2-2.2-0.1-3.7c-0.2-0.8-0.4-1.4-0.5-1.7c-0.7-2,0.3-3.8,0.6-8.6c0.1-1,1-5.4,0.1-6.1c-0.5-0.4-1.5-0.2-2.9,0
	c-1.1,0.2-1.8,0.4-2.1,0.1c-0.3-0.3,0.1-0.8-0.2-1.2c-0.3-0.4-0.8-0.3-3.1-0.5c-0.5,0-0.8-0.1-0.8-0.1c-1.2-0.2-1.9-1.1-3.2-2.7
	c-2.1-2.5-3.1-3.8-3.5-4.2c-0.8-0.7-1.4-1.1-1.4-1.5c0.1-0.9,1.4-0.7,1.9-0.4c0.4,0.3,0.8,0.8,1.1,1.2c0.8,1,1.6,1.9,2.6,2.8
	c0.8,0.6,1.6,1.2,2.6,1.5c0.7,0.2,1.4,0.1,2.1,0.1c3.4-0.2,6.7-0.6,10.1-1.2c0.8-0.1,1.9-0.5,1.9-1.4c0-0.5-0.8-0.5-1.8-1.6
	c-0.6-0.7-1.3-1.9-1-2.6C277,207.2,277.1,207,277.1,206.7L277.1,206.7z"/>
<path d="M275.3,258c-0.7,0-1.1,0.1-1.3,0.4c-0.3,0.5,0,1.3,0.2,1.6c0.5,1.1,1.7,2.1,3.1,2.1c0.4,0,1.1,0,1.7-0.5
	c0.6-0.6,0.7-1.6,0.4-2.3C278.7,257.9,276.7,257.9,275.3,258L275.3,258z"/>
<path d="M288.6,258.2c0.7,0,1.1,0.1,1.3,0.4c0.3,0.5,0,1.3-0.2,1.6c-0.5,1.1-1.7,2.1-3.1,2.1c-0.4,0-1.1,0-1.7-0.5
	c-0.6-0.6-0.7-1.6-0.4-2.3C285.2,258.1,287.2,258.2,288.6,258.2L288.6,258.2z"/>
<path d="M237.6,145c-1.3-0.3-2.4,0-2.6,0.1c-0.5,0.1-1.5,0.4-2.3,1.2c-1.1,1.1-1.3,2.1-2.1,2.1c-0.1,0,0,0-0.2-0.1
	c0,0-0.2-0.1-0.7-0.2c-0.2-0.1-0.6-0.2-2-0.5c-0.1,0-0.3-0.1-0.6,0.1c-0.3,0.2-0.4,0.5-0.4,0.5c0.1,0.1,0.2,0.3,0.5,0.5
	c0.6,0.5,0.8,0.5,2.1,1.3c0.5,0.3,0.7,0.5,1.2,0.6c0.3,0.1,0.5,0.1,0.7,0.1c0.5,0.2,1,0.4,3.1,1.7c1.7,1.1,1.8,1.2,3.2,2
	c1.7,1,2.3,0.5,3.8,1.3c0.7,0.4,0.9,0.6,1.1,0.5c0.6-0.2,0.6-1.6,0.6-2.6c0-1.1,0-2.5-0.7-4.2c-0.5-1.1-1.1-2.6-2.6-3.6
	C239.5,145.7,238.7,145.2,237.6,145z"/>
</svg>
