<?xml version="1.0" encoding="utf-8"?>
<!-- Generator: Adobe Illustrator 28.0.0, SVG Export Plug-In . SVG Version: 6.00 Build 0)  -->
<svg version="1.1" id="Layer_1" xmlns="http://www.w3.org/2000/svg" xmlns:xlink="http://www.w3.org/1999/xlink" x="0px" y="0px"
	 viewBox="0 0 263.2 256.6" style="enable-background:new 0 0 263.2 256.6;" xml:space="preserve">
<style type="text/css">
	.st0{fill:#E8F4F3;}
	.st1{font-family:'Campton-BoldDEMO';}
	.st2{font-size:100px;}
	.st3{letter-spacing:-2;}
	.st4{fill:#CDE4E3;}
	.st5{fill:#64B0AF;}
	.st6{fill:#A7DFF3;}
	.st7{fill:#007D7A;}
	.st8{font-size:50px;}
	.st9{letter-spacing:-1;}
	.st10{font-size:10px;}
</style>
<text transform="matrix(1 0 0 1 0 84.0049)" class="st0 st1 st2">2</text>
<text transform="matrix(1 0 0 1 56.4993 84.0049)" class="st0 st1 st2 st3">0</text>
<text transform="matrix(1 0 0 1 125.7985 84.0049)" class="st0 st1 st2">40</text>
<g>
	<polygon class="st4" points="42.2,98.7 28.4,80.4 27.1,73.3 64.7,66 65.8,71.9 83,90.8 103.6,197.1 66.4,211 	"/>
	<polygon class="st5" points="22,102.6 28.4,80.4 42.2,98.7 66.4,211 44,205.2 	"/>
	<path class="st4" d="M137.8,110.5c-0.4,2.9-1,5.8-2.5,8c-1.9,2.9-4.7,4.3-6,7.7c-1.4,3.7-1.8,7.6-2.3,11.5c-1.1,7.1-3.2,14-4,21.2
		c-1.6,13.3,0.6,27-2.3,40.1c-0.6,2.8-2.2,5.6-4.9,6.4c-2.3,0.7-4.9-0.2-6.9-1.6c-1.9-1.3-3.4-3.1-4.2-5.3c-0.7-2.2-0.5-4.7,0.7-6.6
		c0.9-1.3,2.4-2.3,3.4-3.6c1.7-2.2,1.9-5.2,2.2-8c1.5-15.9,7.6-31.4,12.1-46.7c0.8-2.6,1.6-5.3,1.3-8c-0.3-2.7-1.6-5.2-2.6-7.8
		c-2.7-6.5-0.4-11.9,1.4-18.2c1.8-6.6,1.8-13.5,3.2-20.2c0.1-0.6,0.3-1.3,0.7-1.8c0.4-0.5,1.1-0.8,1.7-0.4c0.8,0.4,0.7,1.5,0.4,2.4
		c-0.5,1.6-1.2,3.1-1.6,4.6c-0.8,2.7-0.7,5.6-1,8.5c-0.5,4-1.9,7.8-2.4,11.8c-0.1,1-0.2,2.2,0.7,2.7c0.2,0.1,0.3,0.2,0.5,0.1
		c0.4-0.1,0.6-0.6,0.7-1c1.5-8.4,3-16.9,4.6-25.3c0.1-0.8,0.3-1.6,0.8-2.3c0.5-0.6,1.5-0.9,2.2-0.4c0.5,0.4,0.6,1.1,0.5,1.8
		c-0.2,1.8-1.1,3.4-1.7,5.1c-1.5,4.2-1,8.8-2.1,13.2c-0.5,2.3-1.5,4.4-2.1,6.7c-0.1,0.6-0.2,1.2,0,1.8c0.2,0.6,0.8,1,1.4,0.8
		c0.5-0.2,0.7-0.6,0.9-1.1c1.7-4,2.1-8.4,2.9-12.6c0.5-2.7,1.2-5.4,1.6-8.2c0.2-1.4,0.3-2.9,0.4-4.4c0-0.9-0.1-2.5,1-2.8
		c0.3-0.1,0.7,0,1,0.2c1.6,1.2-1.2,9.4-1.5,11c-1.1,5.5-2.2,10.9-3.3,16.4c-0.2,0.9-0.2,2,0.6,2.4c0.6,0.3,1.4-0.5,1.6-0.6
		c1.7-1.5,1.8-3.9,2-6.4c0.4-4,0.9-2.9,1.4-7.4c0.6-4.7,1-12.7,2.5-14.1c0.2-0.2,0.6-0.6,1-0.4c0.3,0.1,0.3,0.6,0.4,0.9
		c0.3,1.5-0.2,3.2-0.5,4.6c-0.4,1.9-0.7,3.7-1,5.6c-0.7,3.7-1.3,7.3-1.8,11C138.2,104.4,138.1,107.5,137.8,110.5L137.8,110.5z"/>
	<path class="st5" d="M130.6,123.8c0.8-0.8,2.5-1.9,2.3-3.2c0-0.1-0.1-0.7-0.6-1.1c-0.9-0.6-1.8,0.4-3.4,0.3
		c-1.9-0.1-2.9-1.6-3.3-1.3c-0.2,0.2-0.1,0.9,1.4,3.2l0,0c1.5,2.6,0.2,6-0.1,6.9c-2.7,7.4-5.1,22.8-5.3,23.6c0,0.2,0,0.1-0.8,10
		c-0.4,4.6-1,11.8-1.9,20.4c-1.2,12-1.7,13.8-3.3,16.1c-1.7,2.5-4.3,4.6-3.6,6.1c0.5,1,2.4,1.2,3.8,0.9c0.7-0.2,3.1-1,5.3-7.1
		c1.8-5.1,1.9-9.5,1.9-13.4c-0.1-6.9-0.6-11-0.9-14.3c-1.2-15.8,3.4-23.2,5.9-39.2C128.6,127.9,128.7,125.6,130.6,123.8L130.6,123.8
		z"/>
	<path class="st4" d="M167,81.5c4.8,1.1,6.9,8,7.9,11.1c2.3,7.6,0.6,14.7-0.8,18.5c-3.3,9.2-7.6,8.3-12.3,17
		c-2.2,4.1-2,5.7-5.4,31.2c-2.4,18.2-2.5,17.2-2.5,19c-0.1,10.5,1.8,16.9-1.6,26.2c-2.5,6.8-5,7.4-5.6,7.6c-3.4,0.6-7.4-3.3-9-7.1
		c-2.4-5.8,0.8-10.8,4.8-20.8c9.9-24.9,9.5-43.1,12.8-55c0.1-0.3,0.3-1,0.2-2.1c-0.1-3.6-3.2-6.1-4.1-7c-5.1-4.9-4.3-18.9,1.1-28
		C154.8,88.1,161.1,80.1,167,81.5L167,81.5z"/>
	<path class="st5" d="M158.7,127.1c1.3,2.8,0.3,5.5-0.7,8.9c-1.4,4.9-1.9,10.1-2.5,15.2c-1.5,11.4-2.5,22.6-3,28.6
		c-0.5,5.7-1.8,11.2-2.3,16.9c0,0-0.9,10.7-4.3,11.8c-0.1,0-0.3,0.1-0.5,0.2c-0.2,0.1-0.9,0.4-1.9,1.1c-0.6,0.5-0.9,0.7-0.9,0.8
		c0,0.7,2.2,1.8,4,1.5c0.8-0.1,2.7-0.8,4.7-6.1c2.1-5.4,2.1-10.1,2.1-13.2c0.1-7,0.2-13.7,0.3-16.2c0.1-5.4,0.8-10.7,2.2-21.3
		c1.5-11.3,2.5-16,2.8-17.4c1.9-8.5,1.9-9.7,3-11.1c0.8-1,5-6.1,7.6-9.5c0.3-0.4,1-1.4,0.7-1.9c-0.4-0.7-2.2-0.6-3.6-0.2
		c-3.1,1-3.1,3.4-5.4,3.9c-2.6,0.5-4.6-2.6-5.7-1.8c-0.9,0.7-0.2,3.2,0,4C156.2,124.3,157.8,125.2,158.7,127.1L158.7,127.1z"/>
	<path class="st4" d="M202.4,131.3l1.1-2.8c0,0,0.3-1.1,1.3-0.9c0.9,0.3,29.5,10,29.5,10s1.1,0.3,0.8,1.4c-0.2,1.2-0.7,3.7-0.7,3.7"
		/>
	<path class="st4" d="M201.7,130.6l33.5,12.2c0.5,0.2,0.8,0.8,0.6,1.3v0c-0.2,0.5-0.8,0.8-1.3,0.6L201,132.5
		c-0.5-0.2-0.8-0.8-0.6-1.3v0C200.6,130.6,201.2,130.4,201.7,130.6z"/>
	<path class="st4" d="M200.8,131.7l34.7,12.6c0.6,0.2,0.9,0.9,0.7,1.5l0,0c-0.2,0.6-0.9,0.9-1.5,0.7L200,134
		c-0.6-0.2-0.9-0.9-0.7-1.5l0,0C199.5,131.8,200.2,131.5,200.8,131.7z"/>
	<path class="st4" d="M200.8,131.3l-3.8,15.6l-0.8-0.3l-7.9,28.6l0.8,1.3l-2.6,9.2c0,0-0.6,1.3,0.5,2c1.1,0.8,7.3,4.7,11.5,6
		c4.2,1.3,11,2.8,11.4,2.5c0.4-0.2,1.2-1.2,1.7-2.1s3.7-8.1,3.7-8.1l0.9-0.1l13.1-27.2l-0.5-0.3l6.8-14.5L200.8,131.3L200.8,131.3z"
		/>
	<path class="st5" d="M205.4,185.5c0.1,0.3,0.4,1.9-0.5,3.4c-0.9,1.6-2.8,2.1-5,2.7c-3,0.8-4.4,0.5-4.5,0.9c-0.1,0.8,7,1.4,10.9,3.2
		c0.5,0.2,2.4,1.1,3.7,0.4c0.5-0.3,0.7-0.7,1.9-3.1c1.2-2.5,1.9-3.8,2.1-4.4c0.2-0.5,0.4-1,0.6-1.6c0.2-0.5,0.3-0.9,0.6-1
		c0.3-0.1,0.5,0,0.7,0c1,0,1.8-3.3,2.2-4.6c0.2-0.7,0.1-0.2,2.8-5.9c1.2-2.5,3.1-6.5,6-12.8c1.9-2.9,2.2-3.9,2-4.1
		c-0.1-0.1-0.4-0.2-0.4-0.4c0-0.1,0.1-0.3,0.1-0.3c0.4-0.6,0.4-2.2,3-7.1c0.8-1.6,1.7-2.5,1.8-3.6c0-0.2,0-0.7,0.4-0.9
		c0.3-0.2,0.6,0.1,1-0.1c0.3-0.1,0.7-0.5,0.7-0.9c0-0.5-0.7-0.7-0.7-1.2c0-0.3,0.3-0.4,0.3-0.7c-0.1-0.4-0.8-0.3-1.2-0.7
		c-0.8-0.8,1-2.6,0.4-4.1c-0.4-0.9-1.4-1.2-3.3-1.9c-1.3-0.4-2-0.7-3.6-0.8c-5.3-0.6-13.4-4.6-13.9-3.7c-0.7,1.2,14.4,6.8,15.1,16.4
		c0,0.1,0.1,0.3,0,0.5c-0.6,3.1-16.7,6.7-27.4,0.9c-1.3-0.7-3.5-2.3-4.9-1.4c-1,0.6-1,1.9-1.9,7.1c-0.6,3.3-0.5,2.4-0.7,4
		c-1.2,7.7-0.7,9.8-2.6,12.3c-1.3,1.7-2.1,1.5-2.1,2.4C189,178,204.2,179.1,205.4,185.5L205.4,185.5z"/>
	
		<rect x="41.9" y="94.7" transform="matrix(0.9818 -0.1901 0.1901 0.9818 -16.9143 13.6412)" class="st5" width="41.6" height="0.5"/>
	<rect x="28" y="76.1" transform="matrix(0.9776 -0.2105 0.2105 0.9776 -14.9714 11.6261)" class="st5" width="38.3" height="0.2"/>
	<path class="st5" d="M47.2,76.2c1,0.3-0.6,3.4,1,6.4c1.7,3,6.1,4.7,9.6,3.8c3.6-0.9,5.4-4.6,6.3-4.1c0.5,0.3,0.2,1.9-0.1,2.9
		c-0.1,0.5-0.6,2.7-2.1,4.2c-3.5,3.8-10.4,1.9-11.2,1.6c-1.7-0.5-4.6-1.3-6.3-4.1c-1.2-1.9-1.1-3.9-1.1-4.5
		C43.6,78.9,46.2,75.8,47.2,76.2L47.2,76.2z"/>
	<path class="st4" d="M64.6,80.2c-0.1,3.7-4.3,6.5-7.8,7.2c-5.1,1-11.7-2-12.1-6.4c-0.4-4.1,4.5-8.3,9.3-8.6
		C59.1,72,64.8,75.8,64.6,80.2L64.6,80.2z"/>
</g>
<path class="st6" d="M258.4,254.1H2.7v-82.6c4.2,1.2,11.4,3,21.1,3.4c16.9,0.7,23.3-3.5,42.1-3.4c14.9,0.1,15.1,2.8,30.9,3
	c17.1,0.2,18.9-2.9,35.6-3c18.8,0,21.1,3.9,38.6,3.6c16.3-0.3,17.8-3.8,33.2-3.6c12.8,0.2,16.1,2.7,29.1,2.8
	c10.5,0.1,19.2-1.4,25.1-2.8L258.4,254.1L258.4,254.1z"/>
<text transform="matrix(1 0 0 1 11.4799 244.843)" class="st7 st1 st8">8</text>
<text transform="matrix(1 0 0 1 42.6295 244.843)" class="st7 st1 st8 st9">0</text>
<text transform="matrix(1 0 0 1 77.5291 244.843)" class="st7 st1 st8">%</text>
<text transform="matrix(1 0 0 1 142.6083 244.843)" class="st7 st1 st10">EN</text>
<text transform="matrix(1 0 0 1 156.1581 244.843)" class="st7 st1 st10">G</text>
<text transform="matrix(1 0 0 1 164.158 244.843)" class="st7 st1 st10">ANG</text>
<text transform="matrix(1 0 0 1 187.3277 244.843)" class="st7 st1 st10">S</text>
<text transform="matrix(1 0 0 1 194.0376 244.843)" class="st7 st1 st10">P</text>
<text transform="matrix(1 0 0 1 200.3576 244.843)" class="st7 st1 st10">L</text>
<text transform="matrix(1 0 0 1 206.2075 244.843)" class="st7 st1 st10">A</text>
<text transform="matrix(1 0 0 1 213.3974 244.843)" class="st7 st1 st10">S</text>
<text transform="matrix(1 0 0 1 219.8873 244.843)" class="st7 st1 st10">T</text>
<text transform="matrix(1 0 0 1 226.2973 244.843)" class="st7 st1 st10">IK</text>
</svg>
