<?xml version="1.0" encoding="UTF-8"?><svg id="Layer_1" xmlns="http://www.w3.org/2000/svg" width="90.66mm" height="42.06mm" viewBox="0 0 257 119.22"><defs><style>.cls-1{letter-spacing:-.03em;}.cls-2{fill:#e8f4f3;font-family:Campton-BoldDEMO, Campton;font-size:15px;font-weight:700;}.cls-3{letter-spacing:0em;}.cls-4{letter-spacing:0em;}.cls-5{letter-spacing:-.07em;}.cls-6{fill:#46b2b0;}.cls-6,.cls-7,.cls-8,.cls-9,.cls-10,.cls-11,.cls-12,.cls-13,.cls-14,.cls-15,.cls-16,.cls-17,.cls-18{stroke-width:0px;}.cls-7{fill:#82d0d4;}.cls-8{fill:#99d095;}.cls-9{fill:#a7dff3;}.cls-10{fill:#c6e6e4;}.cls-11{fill:#8bccc9;}.cls-12{fill:#009995;}.cls-13{fill:#e4f3f3;}.cls-14{fill:#00403d;}.cls-15{fill:#00af4c;}.cls-16{fill:#004c4a;}.cls-17{fill:#66bf72;}.cls-18{fill:#007f7a;}</style></defs><path class="cls-9" d="m121.86,119.04H0V.43c1.99,1.77,5.43,4.28,10.03,4.84C18.09,6.24,21.16.17,30.12.43c7.08.2,7.2,4.05,14.71,4.28,8.14.24,9.03-4.24,16.98-4.28,8.95-.04,10.05,5.63,18.39,5.12,7.76-.47,8.49-5.49,15.84-5.12,6.09.3,7.66,3.84,13.86,3.99,5,.12,9.15-2.06,11.96-3.99v118.61Z"/><path class="cls-10" d="m11.74,116.35c.98-1.46,1.46-2.18,1.7-2.58,2.23-3.66,3.05-3.76,3.45-5.54.15-.65.15-1.18.48-2.23.19-.59.38-1.05.47-1.82.11-.88-.02-1.27-.19-1.53-.2-.3-.46-.43-.68-.55-1.77-.98-2.33-2.26-3.3-2.18-.41.03-.7.11-.7.11-.49.13-.65.3-.77.22-.21-.14.23-.73-.04-1.17-.14-.24-.32-.15-.88-.51-.52-.33-.68-.61-.86-.54-.18.07-.14.39-.44.55-.1.05-.18.06-.21.06-1.24.19-2.98,1.99-2.98,1.99-2.13,2.21-3.51,4.86-3.65,5.14-.73,1.42-.74,1.81-1.45,2.74-.86,1.13-1.44,1.36-1.64,2.25-.28,1.23.48,2.35.61,2.54.65.96,1.29.95,3.13,2.03,2.31,1.37,2.18,1.91,3.63,2.33.38.11,2.32.67,3.54-.32.19-.16.28-.28.77-1Zm4.23-12.07c-.25.16-.76-.19-1.71-.92-1.11-.85-1.34-1.09-1.35-1.43,0-.24.11-.52.29-.57.19-.05.36.19.75.55.12.11.71.65,1.42,1.05.5.28.89.4.92.68,0,.09-.02.24-.09.38-.08.14-.18.23-.23.26Z"/><path class="cls-11" d="m37.78,104.1c-.6-.75-1.15-1.54-1.8-2.25-.66-.73-1-1.02-1.06-1.59-.04-.43.12-.64-.05-1.06-.18-.44-.44-.4-.72-.91-.28-.52-.15-.82-.43-.99-.23-.15-.56-.07-.77.02-.54.25-.48.92-.91,1.93-.18.43-.57,1.34-1.38,2.11-.45.42-1.08.86-1.08,1.48,0,.13.03.22-.03.36-.15.41-.77.67-1.27.56-.33-.07-.29-.23-.64-.35-.54-.18-1.24-.02-1.57.41-.2.26-.08.38-.26.58-.46.51-1.83.36-2.17-.26-.16-.28-.05-.58-.32-.85-.16-.15-.32-.17-.46-.23-.62-.24-.51-.97-1.15-1.91-.57-.82-1.12-.92-1.17-1.58-.01-.2.02-.37.06-.49.07-.02.17-.06.29-.04.32.05.55.51.78.6.19.07.2-.01.69.06.11.02.34.05.5.1.6.18.94.81,1.02.96.34.64.28,1.27.26,1.48-.09.86-.54,1.22-.31,1.66.11.21.3.3.49.4.36.18.99.31,1.31.02.25-.23.09-.48.37-.76.29-.29.66-.2.71-.37.05-.16-.24-.32-.59-.62-.74-.65-1.17-1.44-1.44-1.95-.19-.34-.17-.36-.29-.53-.1-.14-.43-.54-1.35-.87-.23-.08-1.99-.68-2.39-.31-.15.04-.97,1-.85,2.05.09.8.69,1.2.48,1.84-.04.14-.16.39-.11.71.04.21.12.31.17.45.17.47-.16.98-.26,1.17-.28.58-.07,1.57,1.67,4.35,1.09,1.73,1.06,1.44,1.66,2.47,1.6,2.75,1.86,4.98,3.26,5.41.14.04.48.13.85.19.78.13,1.22.09,1.87.1,1.01.02.87.15,2.42.27,1.05.08,1.57.12,1.92.03.7-.19,1.04-.55,1.58-.38.32.1.51.31.79.23.19-.06.22-.21.41-.41.37-.41.71-.34,1.35-.7.3-.17.48-.33.81-.63.09-.08.95-.86,1.33-1.61.67-1.31.14-2.98-.56-5.17-.15-.46-.32-.94-.39-1.68-.08-.89.09-1.11-.05-1.7-.09-.39-.23-.59-1.19-1.78Zm-3.48-3.09c-.19.31-.59.69-.92.59-.26-.08-.36-.42-.55-1.11-.12-.46-.23-.82-.2-1.32.04-.65.29-1.37.48-1.35.16,0,.1.49.53,1.05.28.37.41.31.6.61.25.4.35,1.04.06,1.54Z"/><path class="cls-14" d="m116.94,109.78c-.22-.31-.84-.06-1.82-.14-.37-.03-.61-.09-.79.07-.11.1-.08.19-.17.35-.2.36-.59.35-1,.61-.16.1-.51.34-.68.74-.21.51.04.94-.12,1.03-.13.08-.3-.2-.79-.49-.36-.21-.91-.59-1.18-.41-.15.1-.16.32-.27.31-.1,0-.11-.16-.26-.22-.13-.05-.25.01-.36.05-.35.13-.56-.03-.83,0-.73.06-1.16,1.37-1.38,1.28-.06-.03-.03-.13-.14-.25-.14-.16-.35-.19-.44-.2-.52-.07-.85.29-1.73.74-.72.36-.89.4-1.05.66-.13.21-.26.58-.1.81.1.16.25.11.32.25.11.21-.14.41-.3.96-.09.31-.16.56-.04.77.15.27.45.18.58.44.14.27-.13.49-.06.82.03.13.13.34.79.67.53.27,1.13.56,1.98.58.69.01.44-.17,1.79-.34.22-.03.78-.09.83-.33.02-.1-.06-.22-.03-.24.05-.03.19.16.34.24.41.23.87-.41,1.66-.56.81-.16,1.01.4,1.71.16.48-.16.97-.61,1.03-1.11.03-.3-.12-.4-.05-.68.04-.14.15-.43.81-.77.86-.45,1.14-.19,1.71-.51.7-.39,1.11-1.22,1.24-1.84.1-.49.01-.88.28-1.6.08-.22.12-.28.14-.43.06-.78-.82-1.55-1.14-1.42-.1.04-.16.18-.27.17-.09,0-.15-.11-.18-.15Z"/><path class="cls-14" d="m119.33,111.08c.11.05.29-.08.38-.24.06-.1.1-.26,0-.6,0,0-.28-.97-1.21-1.45-.03-.02-.1-.05-.2-.05-.27,0-.52.27-.48.38.02.05.11.04.24.06.37.07.62.36.75.52.27.32.35.68.38.82.07.32.03.52.14.57Z"/><path class="cls-14" d="m118.76,111.47c.07.04.24-.06.32-.2.05-.1.06-.22-.08-.65-.12-.38-.18-.57-.27-.69-.1-.13-.32-.28-.76-.56-.24-.15-.34-.21-.46-.18-.16.04-.28.23-.24.31.03.06.16.02.3.03.32.02.55.27.75.49.16.17.48.53.47.99,0,.24-.1.42-.03.46Z"/><path class="cls-12" d="m107.34,106.37c0-.18-.14-.24-.12-.49.02-.22.16-.46.35-.5.19-.03.27.17.51.29.45.21.71-.26,1.46-.29.69-.02,1.18.35,1.51.07.06-.05.13-.14.23-.13.18,0,.32.28.41.45.1.19.07.22.15.33.03.04.21.3.47.34.34.05.45-.34.93-.4.08,0,.35-.04.52.11.16.15.13.37.15.66,0,.09.1,1.31.77,1.73.21.13.4.14.44.3.05.19-.17.29-.2.6-.04.33.19.44.12.62-.09.24-.51.1-1.1.39-.18.09-.58.28-.81.69-.17.3-.08.44-.27.61-.23.2-.62.25-.9.11-.14-.07-.12-.13-.25-.17-.24-.07-.47.08-.8.29-.15.1-.2.15-.24.22-.08.16.03.26-.03.37-.1.18-.44.01-.89.18-.29.11-.26.22-.58.31-.15.04-.39.11-.64.02-.2-.08-.2-.18-.39-.22-.21-.05-.29.08-.5.08-.35,0-.63-.35-.82-.59-.2-.25-.16-.3-.39-.67-.44-.71-.67-.7-.69-1.02-.03-.44.42-.54.39-1.04-.02-.38-.29-.52-.2-.78.1-.27.43-.23.51-.46.11-.33-.47-.57-.42-.92.07-.5,1.26-.58,1.29-1.07Z"/><path class="cls-10" d="m110.23,111.07c-.11,0-.52,0-.88-.3-.39-.32-.46-.77-.47-.91-.07-.72.49-1.22.65-1.37.18-.16.71-.64,1.37-.51.55.11.84.57.96.74.13.2.4.62.28,1.15-.13.57-.62.84-.71.89"/><path class="cls-13" d="m109.58,109.25c-.06.06-.24.28-.27.59-.04.53.4.9.49.97.11.09.49.41.98.32.53-.09.92-.61.96-1.13,0-.05.03-.6-.38-.95-.52-.45-1.38-.24-1.78.2Z"/><path class="cls-7" d="m57.1,109.28c-.02.13-.3.19-.32.19-.34.06-.59-.14-.93-.29-.72-.31-1.67-.33-1.95,0-.04.05-.12.17-.29.28-.15.09-.28.12-.33.13-.42.09-.62.47-1.35.91-.49.3-.71.31-.82.57-.06.15-.06.29-.2.42-.15.13-.33.13-.46.15-.48.05-.57.38-1.24.77-.68.4-.87.22-1.03.48-.32.53.37,1.51.73,2.03.37.53.57.66.95,1.11,1.41,1.63,1.48,3,2.18,3,.17,0,.39-.17.83-.51.46-.36.63-.6,1.16-1.13.07-.07.45-.44.85-.77.95-.79,1.22-.7,2-1.37.48-.41.86-.75,1.09-1.33.13-.33.35-.86.22-1.48-.09-.42-.31-.7-.15-1.02.07-.15.22-.31.34-.29.09.02.11.15.2.15.07,0,.15-.07.17-.14.03-.1-.04-.15-.03-.25.02-.13.18-.17.38-.29.12-.07.36-.22.43-.41.09-.22-.05-.46-.29-.89-.25-.42-.45-.77-.74-.78-.13,0-.27.05-.37.09-.08.03-.22.09-.36.2-.15.12-.18.21-.29.22-.03,0-.12,0-.19-.05-.04-.03-.05-.05-.09-.06-.07-.02-.17.04-.19.11-.03.09.09.15.08.24Z"/><path class="cls-16" d="m9.04,108.63c-.13.32-.37.48-.47.56-.69.55-.25,1.48-.72,3.49-.18.78-.36,1.12-.19,1.64.08.23.14.24.62.94.62.9.62,1.05.91,1.28.39.3.6.21,1.16.42,1.09.41.96,1,1.76,1.31.57.22,1.49.03,3.33-.35.26-.05.73-.15,1.21.05.3.12.29.23.54.3.33.08.49-.08,1.4-.43.57-.22.7-.23.78-.39.1-.2,0-.34.04-.85.03-.37.09-.33.1-.58,0-.04.02-.9-.47-1.23-.08-.06-.21-.11-.35-.26-.09-.09-.19-.2-.19-.33,0-.14.11-.21.17-.3.19-.31-.13-1-.56-1.34-.62-.48-1.5-.14-1.94.02-.52.19-.87.46-1.08.63-.42.34-.68.67-1.12,1.24-.55.72-.74,1.09-1.19,1.18-.04,0-.24.04-.48-.03-.42-.13-.78-.57-.72-.92.04-.25.26-.37.48-.53.73-.57,1.16-1.53,1.19-2.25,0-.17-.22-.72-.66-1.82-.26-.65-.49-1.15-.82-1.35-.03-.02-.13-.08-.21-.21-.12-.19-.17-.49-.03-.64.12-.13.29-.06.34-.18.04-.09-.05-.15-.07-.4-.02-.15.02-.15,0-.24-.05-.23-.25-.25-.26-.41,0-.16.18-.18.18-.37,0-.14-.11-.18-.12-.37,0-.13.04-.16.02-.22-.05-.16-.45-.15-.73-.16-1.11-.02-1.43-.24-1.7.02-.06.06-.17.2-.21.38-.04.21.03.41.05.46.05.14.09.14.08.21-.01.18-.26.2-.31.4-.03.15.09.2.05.36-.04.16-.19.2-.17.28.02.09.19.06.31.17.19.16.15.56.05.81Z"/><path class="cls-14" d="m26.68,96.84c-.34-.16-.76.36-1.65.79-.33.16-.58.23-.65.46-.05.14.02.2.02.39,0,.41-.33.6-.56,1.02-.09.16-.27.55-.21.98.08.55.5.79.41.96-.07.13-.36-.02-.93-.03-.42,0-1.08-.05-1.23.24-.08.16.02.36-.08.41-.08.05-.18-.09-.34-.06-.14.02-.21.14-.28.22-.24.29-.5.25-.72.41-.6.42-.32,1.77-.56,1.8-.07,0-.09-.1-.25-.15-.2-.07-.4.01-.48.05-.48.2-.59.68-1.13,1.5-.44.67-.57.79-.58,1.1,0,.24.07.63.31.75.17.08.27-.03.4.06.2.12.08.43.22.98.08.32.14.57.35.69.27.16.48-.07.73.09.25.16.13.49.36.74.09.1.28.23,1.02.19.6-.04,1.26-.08,2-.49.6-.33.3-.37,1.38-1.19.18-.14.63-.47.56-.7-.03-.1-.16-.16-.14-.2.02-.05.25.04.42.04.47,0,.55-.79,1.15-1.31.63-.54,1.07-.16,1.57-.71.34-.38.54-1.02.34-1.47-.12-.28-.31-.29-.39-.57-.04-.14-.08-.45.31-1.07.52-.82.89-.73,1.23-1.29.41-.68.36-1.62.15-2.22-.16-.47-.43-.77-.56-1.53-.04-.23-.03-.3-.1-.44-.33-.71-1.49-.94-1.7-.67-.07.09-.04.24-.15.29-.08.04-.18-.02-.23-.04Z"/><path class="cls-14" d="m29.41,96.77c.12-.02.21-.22.21-.39,0-.12-.04-.27-.3-.52,0,0-.72-.7-1.77-.66-.03,0-.11,0-.2.05-.23.13-.32.5-.23.57.05.03.12-.02.24-.06.36-.13.71,0,.91.07.39.15.65.42.74.52.22.25.29.43.41.42Z"/><path class="cls-14" d="m29.1,97.4c.08,0,.18-.17.17-.34,0-.11-.06-.23-.39-.53-.29-.27-.44-.4-.57-.46-.15-.07-.41-.08-.94-.11-.28-.01-.4-.01-.49.08-.11.12-.13.34-.05.38.06.04.15-.06.28-.12.29-.14.61-.04.89.05.22.07.68.22.9.62.12.21.12.41.2.41Z"/><path class="cls-12" d="m34.21,101.22c0-.18-.14-.24-.12-.49.02-.22.16-.46.35-.5.19-.03.27.17.51.29.45.21.71-.26,1.46-.29.69-.02,1.18.35,1.51.07.06-.05.13-.14.23-.13.18,0,.32.28.41.45.1.19.07.22.15.33.03.04.21.3.47.34.34.05.45-.34.93-.4.08,0,.35-.04.52.11.16.15.13.37.15.66,0,.09.1,1.31.77,1.73.21.13.4.14.44.3.05.19-.17.29-.2.6-.04.33.19.44.12.62-.09.24-.51.1-1.1.39-.18.09-.58.28-.81.69-.17.3-.08.44-.27.61-.23.2-.62.25-.9.11-.14-.07-.12-.13-.25-.17-.24-.07-.47.08-.8.29-.15.1-.2.15-.24.22-.08.16.03.26-.03.37-.1.18-.44.01-.89.18-.29.11-.26.22-.58.31-.15.04-.39.11-.64.02-.2-.08-.2-.18-.39-.22-.21-.05-.29.08-.5.08-.35,0-.63-.35-.82-.59-.2-.25-.16-.3-.39-.67-.44-.71-.67-.7-.69-1.02-.03-.44.42-.54.39-1.04-.02-.38-.29-.52-.2-.78.1-.27.43-.23.51-.46.11-.33-.47-.57-.42-.92.07-.5,1.26-.58,1.29-1.07Z"/><path class="cls-10" d="m37.1,105.92c-.11,0-.52,0-.88-.3-.39-.32-.46-.77-.47-.91-.07-.72.49-1.22.65-1.37.18-.16.71-.64,1.37-.51.55.11.84.57.96.74.13.2.4.62.28,1.15-.13.57-.62.84-.71.89"/><path class="cls-13" d="m36.45,104.1c-.06.06-.24.28-.27.59-.04.53.4.9.49.97.11.09.49.41.98.32.53-.09.92-.61.96-1.13,0-.05.03-.6-.38-.95-.52-.45-1.38-.24-1.78.2Z"/><path class="cls-10" d="m54.53,113.58c-.27-1.73-.41-2.6-.5-3.04-.85-4.2-.32-4.84-1.24-6.4-.34-.58-.69-.97-1.16-1.97-.27-.56-.43-1.02-.89-1.66-.52-.72-.87-.92-1.18-.99-.35-.08-.63,0-.87.06-1.96.48-3.24-.07-3.9.65-.28.3-.44.56-.44.56-.27.43-.28.67-.42.69-.25.04-.33-.69-.82-.84-.27-.08-.33.11-.99.23-.6.11-.92.01-1,.19-.08.17.16.38.05.7-.04.1-.09.17-.11.19-.78.99-.83,3.49-.83,3.49-.06,3.07.73,5.95.81,6.25.43,1.53.69,1.83.8,3,.14,1.41-.13,1.97.33,2.77.63,1.09,1.95,1.39,2.18,1.45,1.13.26,1.59-.18,3.68-.64,2.62-.57,2.9-.08,4.24-.76.35-.18,2.15-1.09,2.38-2.64.04-.25.02-.4-.12-1.26Zm-5.1-11.73c-.08.29-.69.38-1.88.49-1.39.13-1.73.11-1.96-.13-.16-.17-.27-.46-.17-.62.1-.17.39-.1.92-.1.16,0,.96,0,1.76-.19.56-.13.93-.31,1.13-.13.07.06.15.19.19.34.04.15.02.29,0,.35Z"/><path class="cls-6" d="m77.33,105.19c-.6-.75-1.15-1.54-1.8-2.25-.66-.73-1-1.02-1.06-1.59-.04-.43.12-.64-.05-1.06-.18-.44-.44-.4-.72-.91-.28-.52-.15-.82-.43-.99-.23-.15-.56-.07-.77.02-.54.25-.48.92-.91,1.93-.18.43-.57,1.34-1.38,2.11-.45.42-1.08.86-1.08,1.48,0,.13.03.22-.03.36-.15.41-.77.67-1.27.56-.33-.07-.29-.23-.64-.35-.54-.18-1.24-.02-1.57.41-.2.26-.08.38-.26.58-.46.51-1.83.36-2.17-.26-.16-.28-.05-.58-.32-.85-.16-.15-.32-.17-.46-.23-.62-.24-.51-.97-1.15-1.91-.57-.82-1.12-.92-1.17-1.58-.01-.2.02-.37.06-.49.07-.02.17-.06.29-.04.32.05.55.51.78.6.19.07.2-.01.69.06.11.02.34.05.5.1.6.18.94.81,1.02.96.34.64.28,1.27.26,1.48-.09.86-.54,1.22-.31,1.66.11.21.3.3.49.4.36.18.99.31,1.31.02.25-.23.09-.48.37-.76.29-.29.66-.2.71-.37.05-.16-.24-.32-.59-.62-.74-.65-1.17-1.44-1.44-1.95-.19-.34-.17-.36-.29-.53-.1-.14-.43-.54-1.35-.87-.23-.08-1.99-.68-2.39-.31-.15.04-.97,1-.85,2.05.09.8.69,1.2.48,1.84-.04.14-.16.39-.11.71.04.21.12.31.17.45.17.47-.16.98-.26,1.17-.28.58-.07,1.57,1.67,4.35,1.09,1.73,1.06,1.44,1.66,2.47,1.6,2.75,1.86,4.98,3.26,5.41.14.04.48.13.85.19.78.13,1.22.09,1.87.1,1.01.02.87.15,2.42.27,1.05.08,1.57.12,1.92.03.7-.19,1.04-.55,1.58-.38.32.1.51.31.79.23.19-.06.22-.21.41-.41.37-.41.71-.34,1.35-.7.3-.17.48-.33.81-.63.09-.08.95-.86,1.33-1.61.67-1.31.14-2.98-.56-5.17-.15-.46-.32-.94-.39-1.68-.08-.89.09-1.11-.05-1.7-.09-.39-.23-.59-1.19-1.78Zm-3.48-3.09c-.19.31-.59.69-.92.59-.26-.08-.36-.42-.55-1.11-.12-.46-.23-.82-.2-1.32.04-.65.29-1.37.48-1.35.16,0,.1.49.53,1.05.28.37.41.31.6.61.25.4.35,1.04.06,1.54Z"/><path class="cls-10" d="m93.86,104.46c-1.72.34-2.58.51-3.02.61-4.16,1.01-4.82.49-6.36,1.47-.57.36-.94.72-1.92,1.23-.55.29-1.01.47-1.63.95-.7.54-.89.91-.95,1.21-.07.35.02.63.09.87.55,1.95.05,3.25.79,3.88.31.27.57.42.57.42.44.25.67.25.7.39.04.25-.68.36-.81.85-.07.27.12.33.26.98.13.6.05.91.23.99.18.08.38-.18.7-.08.11.03.17.09.19.1,1.01.75,3.51.71,3.51.71,3.07-.05,5.92-.94,6.22-1.04,1.52-.49,1.8-.75,2.96-.91,1.4-.19,1.98.06,2.75-.42,1.06-.67,1.32-2,1.37-2.23.22-1.14-.24-1.58-.77-3.65-.66-2.6-.19-2.89-.91-4.21-.19-.34-1.16-2.11-2.73-2.29-.25-.03-.4,0-1.25.17Zm-11.53,5.52c.29.07.4.68.56,1.86.18,1.39.18,1.72-.06,1.96-.17.17-.45.29-.61.2-.17-.1-.12-.39-.14-.92,0-.16-.04-.96-.26-1.75-.15-.55-.35-.91-.17-1.13.06-.07.18-.16.33-.2.15-.05.29-.03.35-.02Z"/><path class="cls-16" d="m93.24,108.1c-.02.34-.2.57-.28.68-.49.73.21,1.48.36,3.54.06.8,0,1.18.31,1.62.15.2.21.19.88.71.86.68.91.82,1.26.94.46.17.64.02,1.24.05,1.16.06,1.22.67,2.07.72.61.03,1.43-.42,3.07-1.33.23-.13.65-.37,1.17-.32.32.03.35.14.6.12.34-.02.44-.22,1.21-.83.48-.38.6-.43.63-.61.04-.22-.1-.32-.22-.82-.08-.36-.01-.34-.08-.58-.01-.04-.25-.86-.82-1.03-.1-.03-.23-.05-.41-.15-.11-.06-.24-.13-.28-.26-.04-.13.04-.24.07-.34.09-.35-.42-.92-.94-1.11-.74-.27-1.48.32-1.85.6-.44.33-.69.7-.84.93-.3.45-.44.84-.69,1.52-.31.85-.38,1.26-.78,1.48-.04.02-.22.12-.47.11-.44,0-.91-.31-.97-.66-.04-.25.14-.43.3-.65.53-.76.65-1.81.46-2.5-.04-.16-.42-.62-1.18-1.54-.45-.54-.81-.95-1.19-1.04-.03,0-.15-.04-.27-.13-.17-.14-.31-.41-.22-.6.07-.16.26-.14.27-.27.01-.1-.09-.13-.19-.36-.06-.14-.03-.15-.08-.23-.12-.2-.31-.16-.37-.31-.06-.15.11-.23.06-.4-.04-.14-.16-.14-.23-.32-.04-.12-.01-.16-.05-.21-.1-.14-.47-.01-.74.07-1.07.31-1.43.2-1.61.53-.04.08-.11.24-.08.43.03.21.16.38.19.43.09.12.13.11.14.18.04.18-.19.27-.17.48.01.15.15.17.15.33,0,.16-.12.24-.08.32.04.08.2,0,.34.07.23.1.31.49.29.76Z"/><path class="cls-11" d="m102.36,104.28c.16-.7.37-1.39.49-2.1.12-.72.14-1.06.44-1.36.23-.22.43-.23.6-.52.18-.31.03-.44.2-.85.17-.4.41-.47.38-.71-.02-.2-.22-.36-.37-.44-.39-.2-.76.14-1.56.36-.34.09-1.05.29-1.88.17-.46-.07-1.01-.23-1.37.05-.08.06-.12.12-.22.15-.31.1-.75-.14-.92-.48-.11-.22,0-.28-.09-.54-.14-.4-.57-.74-.97-.73-.24,0-.26.13-.47.12-.51-.03-1.06-.91-.86-1.39.09-.22.32-.3.35-.58.02-.16-.05-.27-.08-.38-.15-.48.34-.75.58-1.56.22-.72.02-1.09.38-1.42.11-.1.23-.16.31-.19.04.03.11.07.16.15.12.21-.05.56.01.74.05.15.1.11.29.43.04.07.13.22.17.34.17.44-.04.93-.09,1.04-.22.49-.61.75-.75.84-.55.35-.96.25-1.12.59-.07.16-.04.32,0,.47.06.3.27.72.6.78.25.04.32-.17.62-.14.3.04.42.29.55.24.11-.05.08-.29.09-.64.04-.73.31-1.36.47-1.75.11-.27.14-.27.18-.41.03-.12.11-.5-.12-1.2-.06-.17-.52-1.49-.93-1.55-.09-.07-1.04-.1-1.6.45-.42.42-.39.96-.86,1.13-.1.04-.3.08-.47.27-.11.12-.12.21-.18.31-.19.32-.65.36-.81.39-.47.1-.95.69-1.78,3-.51,1.44-.35,1.29-.68,2.12-.87,2.22-2.06,3.4-1.67,4.42.04.1.15.34.28.59.29.52.52.76.81,1.14.45.6.32.58.96,1.54.44.65.66.98.88,1.14.43.32.8.36.96.75.09.23.05.44.23.57.12.09.22.04.43.05.42.03.53.26,1.04.47.24.1.42.13.75.18.09.01.94.16,1.56.04,1.08-.21,1.82-1.3,2.78-2.73.2-.3.4-.63.8-1.01.48-.46.69-.46.98-.82.19-.23.24-.41.49-1.53Zm.2-3.48c-.27.04-.68-.03-.78-.27-.08-.19.08-.41.4-.84.21-.28.38-.51.68-.73.4-.28.94-.46,1.02-.35.07.1-.24.29-.37.79-.09.33.01.38-.08.64-.12.33-.45.69-.88.74Z"/><path class="cls-14" d="m89.17,97.01c-.3-.22-.82.21-1.77.46-.36.09-.61.11-.73.33-.07.13-.02.2-.05.39-.08.41-.44.53-.74.9-.12.14-.37.49-.4.92-.03.55.34.87.22,1.02-.1.11-.35-.09-.91-.2-.41-.08-1.05-.26-1.25,0-.11.14-.05.35-.16.39-.09.03-.16-.12-.32-.13-.14,0-.24.09-.32.16-.29.23-.54.15-.79.26-.67.3-.66,1.68-.89,1.66-.07,0-.07-.11-.21-.2-.18-.11-.39-.06-.48-.05-.51.11-.71.55-1.4,1.26-.56.58-.71.67-.78.97-.05.24-.05.63.16.8.15.11.27.02.38.13.17.16,0,.44.03,1,.02.33.03.58.21.74.23.21.49.03.7.23.22.21.03.51.21.79.07.12.23.28.96.38.59.08,1.25.17,2.06-.09.65-.21.36-.31,1.58-.91.2-.1.71-.34.68-.58-.01-.11-.13-.18-.1-.22.03-.05.23.09.4.12.47.08.69-.67,1.38-1.07.72-.41,1.08.05,1.68-.4.4-.31.72-.89.61-1.38-.07-.3-.25-.34-.27-.63-.01-.15,0-.46.51-.99.67-.71,1.01-.55,1.45-1.04.54-.59.66-1.52.57-2.15-.07-.5-.27-.84-.26-1.61,0-.24.03-.3-.01-.45-.19-.76-1.28-1.2-1.54-.98-.08.07-.09.23-.2.25-.09.02-.17-.05-.21-.08Z"/><path class="cls-14" d="m91.86,97.47c.12,0,.25-.18.28-.35.02-.11,0-.27-.2-.57,0,0-.58-.82-1.62-.98-.03,0-.11-.02-.2.01-.25.08-.41.43-.33.51.04.04.12,0,.24-.02.38-.06.7.14.88.25.36.22.56.53.63.65.17.28.2.48.32.49Z"/><path class="cls-14" d="m91.44,98.02c.08.02.21-.13.23-.3.02-.11-.02-.23-.28-.59-.24-.32-.35-.48-.47-.56-.13-.1-.39-.16-.9-.28-.27-.07-.39-.09-.49-.02-.13.09-.19.31-.13.37.05.05.16-.03.29-.07.31-.08.61.08.87.22.2.11.62.35.76.78.07.23.04.43.12.45Z"/><path class="cls-16" d="m52.28,98.7c-.13.32-.37.48-.47.56-.69.55-.25,1.48-.72,3.49-.18.78-.36,1.12-.19,1.64.08.23.14.24.62.94.62.9.62,1.05.91,1.28.39.3.6.21,1.16.42,1.09.41.96,1,1.76,1.31.57.22,1.49.03,3.33-.35.26-.05.73-.15,1.21.05.3.12.29.23.54.3.33.08.49-.08,1.4-.43.57-.22.7-.23.78-.39.1-.2,0-.34.04-.85.03-.37.09-.33.1-.58,0-.04.02-.9-.47-1.23-.08-.06-.21-.11-.35-.26-.09-.09-.19-.2-.19-.33,0-.14.11-.21.17-.3.19-.31-.13-1-.56-1.34-.62-.48-1.5-.14-1.94.02-.52.19-.87.46-1.08.63-.42.34-.68.67-1.12,1.24-.55.72-.74,1.09-1.19,1.18-.04,0-.24.04-.48-.03-.42-.13-.78-.57-.72-.92.04-.25.26-.37.48-.53.73-.57,1.16-1.53,1.19-2.25,0-.17-.22-.72-.66-1.82-.26-.65-.49-1.15-.82-1.35-.03-.02-.13-.08-.21-.21-.12-.19-.17-.49-.03-.64.12-.13.29-.06.34-.18.04-.09-.05-.15-.07-.4-.02-.15.02-.15,0-.24-.05-.23-.25-.25-.26-.41,0-.16.18-.18.18-.37,0-.14-.11-.18-.12-.37,0-.13.04-.16.02-.22-.05-.16-.45-.15-.73-.16-1.11-.02-1.43-.24-1.7.02-.06.06-.17.2-.21.38-.04.21.03.41.05.46.05.14.09.14.08.21-.01.18-.26.2-.31.4-.03.15.09.2.05.36-.04.16-.19.2-.17.28.02.09.19.06.31.17.19.16.15.56.05.81Z"/><path class="cls-16" d="m67.5,113.06c-.17-.21-.2-.44-.22-.54-.14-.69-.92-.73-2.13-1.82-.47-.42-.64-.68-1.05-.75-.19-.03-.21,0-.85.07-.83.09-.93.03-1.18.15-.33.16-.35.34-.68.65-.65.6-1.01.29-1.49.73-.34.32-.53,1.03-.9,2.45-.05.2-.14.56-.45.83-.19.16-.26.11-.38.26-.17.2-.11.37-.19,1.13-.05.48-.08.57,0,.69.1.15.23.13.56.35.24.16.19.19.36.29.03.02.61.35,1,.14.07-.04.15-.1.3-.15.09-.03.2-.06.29,0,.1.05.11.16.15.23.14.25.72.29,1.1.11.54-.25.61-.99.65-1.36.05-.43-.02-.78-.06-.99-.09-.42-.23-.72-.46-1.25-.3-.66-.49-.93-.39-1.27,0-.03.05-.19.19-.32.24-.24.65-.33.87-.16.16.12.16.32.2.53.13.72.65,1.39,1.12,1.68.11.07.56.12,1.47.23.53.06.95.09,1.2-.06.02-.01.1-.06.21-.07.17-.01.39.07.45.22.05.13-.06.22,0,.3.05.06.12.02.3.1.11.05.1.07.17.09.17.05.25-.08.37-.02.11.05.06.19.19.26.1.05.16,0,.3.06.09.04.1.09.14.1.13.02.26-.25.36-.45.39-.76.65-.9.56-1.19-.02-.07-.07-.19-.19-.29-.13-.11-.29-.13-.33-.14-.12-.02-.13,0-.17-.02-.12-.08-.05-.26-.17-.37-.09-.08-.17-.01-.26-.1-.09-.09-.07-.2-.13-.22-.07-.02-.1.11-.22.15-.18.07-.43-.11-.57-.27Z"/><path class="cls-11" d="m6.17,101.75c.68.24,1.34.52,2.03.72.71.2,1.04.25,1.3.59.2.25.18.45.45.65.29.21.44.08.82.29.38.22.42.46.67.46.2,0,.38-.17.48-.32.24-.37-.06-.77-.19-1.59-.06-.35-.17-1.07.04-1.89.12-.45.34-.97.1-1.37-.05-.08-.1-.13-.13-.24-.06-.32.22-.73.58-.86.23-.09.28.03.55-.03.41-.1.79-.48.83-.88.03-.24-.1-.28-.06-.48.09-.51,1.02-.95,1.48-.7.21.12.26.35.54.41.16.03.27-.02.38-.04.49-.1.71.42,1.49.75.69.3,1.08.14,1.37.54.09.12.13.24.16.33-.04.04-.08.1-.17.14-.22.1-.55-.11-.73-.07-.15.03-.12.09-.46.24-.08.03-.23.1-.35.14-.46.12-.92-.14-1.03-.21-.47-.27-.68-.69-.75-.83-.28-.58-.14-.98-.46-1.17-.15-.09-.31-.07-.47-.06-.3.03-.75.19-.84.51-.07.24.14.34.07.63-.07.3-.34.39-.3.52.03.12.28.11.62.16.72.12,1.31.45,1.69.66.25.14.25.17.39.22.12.05.49.17,1.2.01.18-.04,1.53-.35,1.64-.75.08-.09.22-1.02-.27-1.64-.38-.47-.91-.49-1.03-.98-.03-.1-.05-.31-.21-.49-.11-.12-.2-.15-.28-.22-.29-.23-.29-.68-.3-.85-.05-.48-.58-1.02-2.78-2.09-1.37-.67-1.24-.49-2.03-.91-2.11-1.11-3.15-2.42-4.21-2.14-.11.03-.35.11-.62.22-.55.23-.81.43-1.23.68-.65.39-.61.25-1.64.79-.7.36-1.05.55-1.23.74-.37.4-.44.76-.85.87-.24.06-.45,0-.59.17-.1.11-.06.22-.1.42-.07.41-.32.5-.58.98-.12.23-.17.4-.26.72-.02.09-.26.92-.21,1.55.09,1.1,1.1,1.95,2.4,3.06.27.23.58.47.92.91.41.53.39.74.71,1.06.21.21.38.28,1.46.66Zm3.43.58c0-.27.1-.67.35-.74.2-.06.39.13.79.49.26.24.47.43.65.76.24.43.36.98.23,1.05-.1.06-.26-.27-.75-.46-.32-.12-.38-.03-.62-.15-.32-.15-.63-.52-.64-.95Z"/><path class="cls-14" d="m22.88,91.54c.25-.28-.12-.83-.26-1.81-.05-.36-.05-.62-.24-.76-.12-.09-.2-.04-.38-.09-.39-.12-.47-.5-.81-.84-.13-.13-.44-.43-.87-.5-.55-.09-.9.24-1.04.11-.1-.11.13-.34.3-.88.13-.4.37-1.01.14-1.24-.13-.12-.34-.09-.37-.2-.02-.09.14-.15.16-.3.02-.14-.07-.25-.13-.34-.2-.32-.09-.55-.17-.81-.22-.7-1.59-.84-1.55-1.07.01-.07.12-.05.22-.19.13-.17.11-.38.1-.47-.05-.52-.47-.77-1.1-1.53-.51-.62-.59-.78-.88-.88-.23-.08-.62-.12-.81.08-.13.14-.05.26-.17.37-.18.15-.43-.05-1-.08-.33-.02-.58-.03-.76.13-.23.21-.08.48-.3.67-.23.19-.51-.02-.81.12-.12.06-.3.2-.48.91-.14.58-.3,1.22-.13,2.06.14.67.27.4.73,1.67.08.21.26.74.5.74.11,0,.2-.11.23-.08.04.04-.12.22-.16.39-.13.45.59.76.91,1.49.33.76-.17,1.07.22,1.71.26.43.81.82,1.31.76.3-.03.36-.21.66-.2.15,0,.46.06.93.62.63.75.43,1.07.87,1.56.53.6,1.44.82,2.07.8.5-.01.86-.18,1.62-.08.23.03.3.06.45.04.77-.11,1.34-1.14,1.14-1.42-.06-.09-.21-.11-.23-.23-.01-.09.07-.17.11-.2Z"/><path class="cls-14" d="m22.13,94.16c-.02.12.15.27.31.32.11.03.27.04.59-.14,0,0,.88-.48,1.15-1.5,0-.03.03-.11,0-.2-.06-.26-.38-.45-.47-.39-.05.03-.02.12,0,.24.02.38-.22.68-.34.84-.26.33-.59.49-.72.55-.3.14-.5.15-.52.26Z"/><path class="cls-14" d="m21.62,93.69c-.03.07.11.22.27.26.11.03.23.01.62-.22.34-.2.51-.3.61-.41.11-.12.2-.37.38-.87.1-.27.13-.38.07-.49-.08-.14-.29-.22-.35-.17-.05.04.01.16.03.3.05.32-.15.6-.32.84-.14.19-.41.58-.86.67-.24.05-.43,0-.46.07Z"/><path class="cls-9" d="m257,118.63h-121.86V.02c1.99,1.77,5.43,4.28,10.03,4.84,8.05.97,11.13-5.1,20.09-4.84,7.08.2,7.2,4.05,14.71,4.28,8.14.24,9.03-4.24,16.98-4.28,8.95-.04,10.05,5.63,18.39,5.12,7.76-.47,8.49-5.49,15.84-5.12,6.09.3,7.66,3.84,13.86,3.99,5,.12,9.15-2.06,11.96-3.99v118.61Z"/><path class="cls-10" d="m150.39,112.71c-.27-1.73-.41-2.6-.5-3.04-.85-4.2-.32-4.84-1.24-6.4-.34-.58-.69-.97-1.16-1.97-.27-.56-.43-1.02-.89-1.66-.52-.72-.87-.92-1.18-.99-.35-.08-.63,0-.87.06-1.96.48-3.24-.07-3.9.65-.28.3-.44.56-.44.56-.27.43-.28.67-.42.69-.25.04-.33-.69-.82-.84-.27-.08-.33.11-.99.23-.6.11-.92.01-1,.19-.08.17.16.38.05.7-.04.1-.09.17-.11.19-.78.99-.83,3.49-.83,3.49-.06,3.07.73,5.95.81,6.25.43,1.53.69,1.83.8,3,.14,1.41-.13,1.97.33,2.77.63,1.09,1.95,1.39,2.18,1.45,1.13.26,1.59-.18,3.68-.64,2.62-.57,2.9-.08,4.24-.76.35-.18,2.15-1.09,2.38-2.64.04-.25.02-.4-.12-1.26Zm-5.1-11.73c-.08.29-.69.38-1.88.49-1.39.13-1.73.11-1.96-.13-.16-.17-.27-.46-.17-.62.1-.17.39-.1.92-.1.16,0,.96,0,1.76-.19.56-.13.93-.31,1.13-.13.07.06.15.19.19.34.04.15.02.29,0,.35Z"/><path class="cls-6" d="m173.19,104.32c-.6-.75-1.15-1.54-1.8-2.25-.66-.73-1-1.02-1.06-1.59-.04-.43.12-.64-.05-1.06-.18-.44-.44-.4-.72-.91-.28-.52-.15-.82-.43-.99-.23-.15-.56-.07-.77.02-.54.25-.48.92-.91,1.93-.18.43-.57,1.34-1.38,2.11-.45.42-1.08.86-1.08,1.48,0,.13.03.22-.03.36-.15.41-.77.67-1.27.56-.33-.07-.29-.23-.64-.35-.54-.18-1.24-.02-1.57.41-.2.26-.08.38-.26.58-.46.51-1.83.36-2.17-.26-.16-.28-.05-.58-.32-.85-.16-.15-.32-.17-.46-.23-.62-.24-.51-.97-1.15-1.91-.57-.82-1.12-.92-1.17-1.58-.01-.2.02-.37.06-.49.07-.02.17-.06.29-.04.32.05.55.51.78.6.19.07.2-.01.69.06.11.02.34.05.5.1.6.18.94.81,1.02.96.34.64.28,1.27.26,1.48-.09.86-.54,1.22-.31,1.66.11.21.3.3.49.4.36.18.99.31,1.31.02.25-.23.09-.48.37-.76.29-.29.66-.2.71-.37.05-.16-.24-.32-.59-.62-.74-.65-1.17-1.44-1.44-1.95-.19-.34-.17-.36-.29-.53-.1-.14-.43-.54-1.35-.87-.23-.08-1.99-.68-2.39-.31-.15.04-.97,1-.85,2.05.09.8.69,1.2.48,1.84-.04.14-.16.39-.11.71.04.21.12.31.17.45.17.47-.16.98-.26,1.17-.28.58-.07,1.57,1.67,4.35,1.09,1.73,1.06,1.44,1.66,2.47,1.6,2.75,1.86,4.98,3.26,5.41.14.04.48.13.85.19.78.13,1.22.09,1.87.1,1.01.02.87.15,2.42.27,1.05.08,1.57.12,1.92.03.7-.19,1.04-.55,1.58-.38.32.1.51.31.79.23.19-.06.22-.21.41-.41.37-.41.71-.34,1.35-.7.3-.17.48-.33.81-.63.09-.08.95-.86,1.33-1.61.67-1.31.14-2.98-.56-5.17-.15-.46-.32-.94-.39-1.68-.08-.89.09-1.11-.05-1.7-.09-.39-.23-.59-1.19-1.78Zm-3.48-3.09c-.19.31-.59.69-.92.59-.26-.08-.36-.42-.55-1.11-.12-.46-.23-.82-.2-1.32.04-.65.29-1.37.48-1.35.16,0,.1.49.53,1.05.28.37.41.31.6.61.25.4.35,1.04.06,1.54Z"/><path class="cls-12" d="m240.45,111.17c0-.18-.14-.24-.12-.49.02-.22.16-.46.35-.5.19-.03.27.17.51.29.45.21.71-.26,1.46-.29.69-.02,1.18.35,1.51.07.06-.05.13-.14.23-.13.18,0,.32.28.41.45.1.19.07.22.15.33.03.04.21.3.47.34.34.05.45-.34.93-.4.08,0,.35-.04.52.11.16.15.13.37.15.66,0,.09.1,1.31.77,1.73.21.13.4.14.44.3.05.19-.17.29-.2.6-.04.33.19.44.12.62-.09.24-.51.1-1.1.39-.18.09-.58.28-.81.69-.17.3-.08.44-.27.61-.23.2-.62.25-.9.11-.14-.07-.12-.13-.25-.17-.24-.07-.47.08-.8.29-.15.1-.2.15-.24.22-.08.16.03.26-.03.37-.1.18-.44.01-.89.18-.29.11-.26.22-.58.31-.15.04-.39.11-.64.02-.2-.08-.2-.18-.39-.22-.21-.05-.29.08-.5.08-.35,0-.63-.35-.82-.59-.2-.25-.16-.3-.39-.67-.44-.71-.67-.7-.69-1.02-.03-.44.42-.54.39-1.04-.02-.38-.29-.52-.2-.78.1-.27.43-.23.51-.46.11-.33-.47-.57-.42-.92.07-.5,1.26-.58,1.29-1.07Z"/><path class="cls-10" d="m243.34,115.87c-.11,0-.52,0-.88-.3-.39-.32-.46-.77-.47-.91-.07-.72.49-1.22.65-1.37.18-.16.71-.64,1.37-.51.55.11.84.57.96.74.13.2.4.62.28,1.15-.13.57-.62.84-.71.89"/><path class="cls-13" d="m242.69,114.05c-.06.06-.24.28-.27.59-.04.53.4.9.49.97.11.09.49.41.98.32.53-.09.92-.61.96-1.13,0-.05.03-.6-.38-.95-.52-.45-1.38-.24-1.78.2Z"/><path class="cls-11" d="m147.84,108.37c-.13.32-.37.48-.47.56-.69.55-.25,1.48-.72,3.49-.18.78-.36,1.12-.19,1.64.08.23.14.24.62.94.62.9.62,1.05.91,1.28.39.3.6.21,1.16.42,1.09.41.96,1,1.76,1.31.57.22,1.49.03,3.33-.35.26-.05.73-.15,1.21.05.3.12.29.23.54.3.33.08.49-.08,1.4-.43.57-.22.7-.23.78-.39.1-.2,0-.34.04-.85.03-.37.09-.33.1-.58,0-.04.02-.9-.47-1.23-.08-.06-.21-.11-.35-.26-.09-.09-.19-.2-.19-.33,0-.14.11-.21.17-.3.19-.31-.13-1-.56-1.34-.62-.48-1.5-.14-1.94.02-.52.19-.87.46-1.08.63-.42.34-.68.67-1.12,1.24-.55.72-.74,1.09-1.19,1.18-.04,0-.24.04-.48-.03-.42-.13-.78-.57-.72-.92.04-.25.26-.37.48-.53.73-.57,1.16-1.53,1.19-2.25,0-.17-.22-.72-.66-1.82-.26-.65-.49-1.15-.82-1.35-.03-.02-.13-.08-.21-.21-.12-.19-.17-.49-.03-.64.12-.13.29-.06.34-.18.04-.09-.05-.15-.07-.4-.02-.15.02-.15,0-.24-.05-.23-.25-.25-.26-.41,0-.16.18-.18.18-.37,0-.14-.11-.18-.12-.37,0-.13.04-.16.02-.22-.05-.16-.45-.15-.73-.16-1.11-.02-1.43-.24-1.7.02-.06.06-.17.2-.21.38-.04.21.03.41.05.46.05.14.09.14.08.21-.01.18-.26.2-.31.4-.03.15.09.2.05.36-.04.16-.19.2-.17.28.02.09.19.06.31.17.19.16.15.56.05.81Z"/><path class="cls-12" d="m169.62,101.44c0-.18-.14-.24-.12-.49.02-.22.16-.46.35-.5.19-.03.27.17.51.29.45.21.71-.26,1.46-.29.69-.02,1.18.35,1.51.07.06-.05.13-.14.23-.13.18,0,.32.28.41.45.1.19.07.22.15.33.03.04.21.3.47.34.34.05.45-.34.93-.4.08,0,.35-.04.52.11.16.15.13.37.15.66,0,.09.1,1.31.77,1.73.21.13.4.14.44.3.05.19-.17.29-.2.6-.04.33.19.44.12.62-.09.24-.51.1-1.1.39-.18.09-.58.28-.81.69-.17.3-.08.44-.27.61-.23.2-.62.25-.9.11-.14-.07-.12-.13-.25-.17-.24-.07-.47.08-.8.29-.15.1-.2.15-.24.22-.08.16.03.26-.03.37-.1.18-.44.01-.89.18-.29.11-.26.22-.58.31-.15.04-.39.11-.64.02-.2-.08-.2-.18-.39-.22-.21-.05-.29.08-.5.08-.35,0-.63-.35-.82-.59-.2-.25-.16-.3-.39-.67-.44-.71-.67-.7-.69-1.02-.03-.44.42-.54.39-1.04-.02-.38-.29-.52-.2-.78.1-.27.43-.23.51-.46.11-.33-.47-.57-.42-.92.07-.5,1.26-.58,1.29-1.07Z"/><path class="cls-10" d="m172.51,106.15c-.11,0-.52,0-.88-.3-.39-.32-.46-.77-.47-.91-.07-.72.49-1.22.65-1.37.18-.16.71-.64,1.37-.51.55.11.84.57.96.74.13.2.4.62.28,1.15-.13.57-.62.84-.71.89"/><path class="cls-13" d="m171.86,104.32c-.06.06-.24.28-.27.59-.04.53.4.9.49.97.11.09.49.41.98.32.53-.09.92-.61.96-1.13,0-.05.03-.6-.38-.95-.52-.45-1.38-.24-1.78.2Z"/><path class="cls-10" d="m237.06,106.72c-1.35-1.11-2.03-1.67-2.4-1.95-3.42-2.58-3.44-3.41-5.17-3.98-.64-.21-1.15-.27-2.17-.7-.57-.24-1-.48-1.77-.65-.87-.2-1.27-.11-1.54.04-.32.17-.47.41-.62.62-1.15,1.66-2.48,2.1-2.49,3.07,0,.41.04.71.04.71.08.5.23.68.14.79-.16.19-.7-.3-1.17-.08-.26.12-.18.3-.59.83-.38.48-.68.62-.62.81.05.19.38.18.51.49.04.1.04.19.04.21.07,1.26,1.69,3.16,1.69,3.16,1.99,2.34,4.49,3.97,4.76,4.14,1.34.86,1.72.91,2.59,1.71,1.04.96,1.21,1.57,2.08,1.86,1.19.4,2.38-.25,2.59-.36,1.02-.55,1.07-1.19,2.33-2.91,1.59-2.17,2.11-1.98,2.67-3.38.15-.37.89-2.24.03-3.56-.14-.21-.25-.31-.92-.86Zm-11.59-5.4c.13.27-.27.74-1.08,1.61-.96,1.02-1.22,1.23-1.55,1.2-.24-.02-.51-.16-.54-.35-.03-.2.22-.34.62-.69.12-.1.72-.64,1.19-1.31.33-.47.49-.85.76-.85.09,0,.24.04.37.13.13.09.21.2.24.25Z"/><path class="cls-6" d="m250.17,102.41c-.38-.47-.73-.97-1.13-1.42-.41-.46-.63-.65-.67-1-.03-.27.07-.41-.03-.67-.11-.28-.28-.25-.46-.57-.18-.33-.1-.52-.27-.63-.15-.09-.35-.05-.49.01-.34.16-.3.58-.57,1.22-.12.27-.36.84-.87,1.33-.28.27-.68.54-.68.94,0,.08.02.14-.02.23-.1.26-.49.42-.8.35-.21-.04-.19-.15-.41-.22-.34-.11-.78-.01-.99.26-.13.16-.05.24-.17.37-.29.32-1.16.23-1.37-.16-.1-.18-.03-.37-.2-.53-.1-.1-.2-.11-.29-.14-.39-.15-.32-.62-.73-1.2-.36-.52-.71-.58-.74-1,0-.13.01-.23.04-.31.04,0,.11-.04.18-.03.2.03.34.32.49.38.12.04.12,0,.44.04.07,0,.21.03.31.06.38.11.59.51.64.6.21.4.18.8.16.93-.06.54-.34.77-.2,1.04.07.13.19.19.31.25.23.12.62.2.83,0,.16-.14.05-.3.23-.48.18-.18.42-.13.45-.24.03-.1-.15-.2-.37-.39-.46-.41-.74-.91-.91-1.23-.12-.21-.1-.23-.18-.33-.06-.09-.27-.34-.85-.55-.14-.05-1.26-.43-1.51-.19-.09.03-.61.63-.54,1.29.06.5.43.76.3,1.16-.03.09-.1.24-.07.45.02.13.07.19.11.28.11.29-.1.62-.16.74-.18.37-.04.99,1.06,2.74.69,1.09.67.91,1.05,1.56,1.01,1.74,1.17,3.14,2.06,3.42.09.03.3.08.54.12.49.08.77.05,1.18.06.64.01.55.09,1.52.17.66.05.99.08,1.21.02.44-.12.66-.34,1-.24.2.06.32.2.5.14.12-.04.14-.13.26-.26.24-.26.45-.21.85-.44.19-.11.3-.21.51-.4.06-.05.6-.54.84-1.01.42-.82.09-1.88-.35-3.26-.09-.29-.2-.6-.25-1.06-.05-.56.06-.7-.03-1.08-.06-.24-.15-.37-.75-1.12Zm-2.2-1.95c-.12.2-.37.43-.58.37-.17-.05-.23-.27-.34-.7-.08-.29-.14-.52-.12-.83.02-.41.18-.86.3-.86.1,0,.06.31.33.66.17.23.26.19.38.38.16.25.22.65.04.97Z"/><path class="cls-14" d="m253.7,103.76c-.34-.16-.76.36-1.65.79-.33.16-.58.23-.65.46-.05.14.02.2.02.39,0,.41-.33.6-.56,1.02-.09.16-.27.55-.21.98.08.55.5.79.41.96-.07.13-.36-.02-.93-.03-.42,0-1.08-.05-1.23.24-.08.16.02.36-.08.41-.08.05-.18-.09-.34-.06-.14.02-.21.14-.28.22-.24.29-.5.25-.72.41-.6.42-.32,1.77-.56,1.8-.07,0-.09-.1-.25-.15-.2-.07-.4.01-.48.05-.48.2-.59.68-1.13,1.5-.44.67-.57.79-.58,1.1,0,.24.07.63.31.75.17.08.27-.03.4.06.2.12.08.43.22.98.08.32.14.57.35.69.27.16.48-.07.73.09.25.16.13.49.36.74.09.1.28.23,1.02.19.6-.04,1.26-.08,2-.49.6-.33.3-.37,1.38-1.19.18-.14.63-.47.56-.7-.03-.1-.16-.16-.14-.2.02-.05.25.04.42.04.47,0,.55-.79,1.15-1.31.63-.54,1.07-.16,1.57-.71.34-.38.54-1.02.34-1.47-.12-.28-.31-.29-.39-.57-.04-.14-.08-.45.31-1.07.52-.82.89-.73,1.23-1.29.41-.68.36-1.62.15-2.22-.16-.47-.43-.77-.56-1.53-.04-.23-.03-.3-.1-.44-.33-.71-1.49-.94-1.7-.67-.07.09-.04.24-.15.29-.08.04-.18-.02-.23-.04Z"/><path class="cls-14" d="m256.42,103.7c.12-.02.21-.22.21-.39,0-.12-.04-.27-.3-.52,0,0-.72-.7-1.77-.66-.03,0-.11,0-.2.05-.23.13-.32.5-.23.57.05.03.12-.02.24-.06.36-.13.71,0,.91.07.39.15.65.42.74.52.22.25.29.43.41.42Z"/><path class="cls-14" d="m256.12,104.32c.08,0,.18-.17.17-.34,0-.11-.06-.23-.39-.53-.29-.27-.44-.4-.57-.46-.15-.07-.41-.08-.94-.11-.28-.01-.4-.01-.49.08-.11.12-.13.34-.05.38.06.04.15-.06.28-.12.29-.14.61-.04.89.05.22.07.68.22.9.62.12.21.12.41.2.41Z"/><path class="cls-11" d="m240.45,106.02c-.33-.07-.54-.28-.64-.36-.66-.58-1.5.01-3.56-.1-.8-.04-1.17-.16-1.65.1-.22.12-.21.18-.82.78-.78.76-.93.79-1.1,1.12-.22.44-.1.63-.21,1.22-.21,1.15-.82,1.12-.98,1.96-.11.6.23,1.48.92,3.22.1.24.28.69.16,1.2-.07.31-.18.33-.2.58-.02.34.16.47.66,1.3.31.52.35.65.52.7.21.07.33-.06.84-.11.37-.03.34.03.59,0,.04,0,.89-.14,1.13-.68.04-.09.08-.22.2-.39.07-.1.16-.22.29-.24.14-.03.23.07.33.11.34.14.96-.3,1.22-.79.36-.7-.12-1.5-.36-1.91-.28-.48-.61-.77-.81-.95-.41-.35-.78-.55-1.42-.88-.8-.42-1.2-.54-1.37-.97-.01-.04-.09-.23-.05-.48.06-.44.43-.87.78-.87.25,0,.41.2.61.38.69.62,1.71.88,2.42.78.17-.02.67-.34,1.68-.97.6-.37,1.04-.68,1.19-1.04.01-.03.06-.15.17-.25.16-.15.45-.25.62-.14.15.09.11.27.24.3.09.02.14-.07.38-.14.15-.04.15-.01.24-.05.22-.09.2-.29.36-.32.15-.04.21.14.39.11.14-.02.16-.14.35-.18.12-.03.16,0,.22-.02.15-.08.07-.47.03-.75-.17-1.1-.01-1.45-.32-1.67-.07-.05-.22-.14-.41-.14-.21,0-.4.11-.45.13-.13.08-.13.11-.2.12-.18.02-.24-.22-.45-.23-.15,0-.18.12-.35.11-.16-.01-.22-.15-.3-.12-.08.03-.03.19-.11.33-.13.22-.52.24-.79.19Z"/><path class="cls-12" d="m149.82,95.64c.11-.13.03-.28.21-.46.15-.16.41-.27.58-.18.17.09.11.3.23.54.23.44.72.22,1.34.66.56.4.72.99,1.16.97.08,0,.19-.03.26.04.14.12.08.42.05.61-.04.21-.08.22-.08.36,0,.05-.01.37.17.55.24.24.56,0,.98.25.07.04.3.18.34.4.04.22-.12.37-.28.61-.05.08-.72,1.1-.44,1.84.09.23.23.35.17.51-.07.18-.31.13-.53.35-.23.24-.11.46-.28.57-.22.13-.47-.23-1.11-.36-.2-.04-.64-.13-1.06.06-.32.14-.33.3-.58.32-.3.02-.65-.18-.78-.46-.07-.14-.02-.18-.1-.28-.14-.2-.42-.23-.81-.26-.18-.02-.25,0-.32.03-.16.08-.14.22-.25.27-.19.08-.35-.26-.81-.4-.3-.09-.34.01-.65-.11-.15-.06-.38-.15-.52-.37-.11-.18-.05-.27-.17-.41-.14-.17-.28-.12-.44-.24-.28-.21-.29-.66-.3-.97,0-.32.05-.34.1-.77.09-.83-.11-.97.07-1.23.24-.36.66-.17.95-.59.22-.31.09-.59.32-.73.24-.15.48.08.69-.06.28-.19-.03-.74.23-.99.36-.35,1.36.31,1.67-.06Z"/><path class="cls-10" d="m149.25,101.13c-.09-.07-.41-.31-.52-.77-.12-.5.11-.89.18-1.01.38-.61,1.13-.67,1.35-.69.24-.02.95-.08,1.4.43.37.42.32.96.31,1.17-.02.24-.06.74-.48,1.08-.45.37-1.01.29-1.1.27"/><path class="cls-13" d="m149.84,99.29c-.08.02-.36.07-.57.3-.36.39-.23.96-.2,1.07.03.14.14.62.59.85.48.25,1.1.08,1.45-.32.04-.04.39-.46.28-.99-.14-.67-.95-1.03-1.54-.93Z"/><path class="cls-11" d="m149.85,90.05c-.39-1.71-.59-2.56-.71-3-1.15-4.13-.66-4.8-1.68-6.3-.38-.55-.75-.92-1.3-1.88-.31-.54-.5-.99-1-1.59-.57-.68-.94-.86-1.24-.91-.35-.06-.63.04-.87.12-1.93.62-3.24.15-3.85.92-.26.32-.4.59-.4.59-.24.45-.23.68-.37.71-.24.05-.38-.66-.88-.78-.28-.06-.33.13-.97.3-.59.15-.91.08-.98.26-.07.18.19.37.1.7-.03.11-.08.17-.1.2-.71,1.04-.59,3.54-.59,3.54.15,3.07,1.14,5.89,1.25,6.18.54,1.5.81,1.77,1.01,2.93.24,1.4,0,1.98.52,2.74.71,1.04,2.04,1.25,2.27,1.29,1.15.18,1.58-.29,3.62-.89,2.58-.75,2.88-.28,4.18-1.06.34-.2,2.07-1.23,2.19-2.8.02-.25-.01-.4-.21-1.25Zm-5.91-11.34c-.06.29-.66.43-1.84.62-1.38.23-1.71.23-1.96,0-.17-.16-.3-.44-.22-.61.09-.18.38-.13.91-.17.16-.01.96-.07,1.74-.32.55-.17.9-.38,1.12-.21.07.06.16.18.21.33.05.15.04.29.03.35Z"/><path class="cls-6" d="m162.87,94.61c-.01-.61.01-1.21-.03-1.82-.05-.62-.11-.9.08-1.2.14-.23.31-.28.38-.55.08-.29-.07-.37-.01-.73.06-.37.24-.47.17-.66-.06-.16-.25-.25-.4-.29-.36-.08-.59.27-1.2.62-.26.15-.8.45-1.5.53-.39.04-.87.02-1.11.33-.05.07-.07.12-.15.17-.23.15-.64.04-.85-.21-.14-.16-.06-.23-.19-.42-.2-.3-.61-.48-.94-.4-.2.05-.19.16-.36.19-.43.08-1.05-.52-.99-.96.03-.2.2-.31.17-.55-.02-.14-.09-.21-.14-.29-.22-.36.12-.68.16-1.4.03-.63-.21-.89.02-1.24.07-.11.15-.18.22-.22.04.02.11.04.16.09.14.15.08.47.16.6.07.11.1.07.33.29.05.05.15.15.21.24.23.32.16.77.14.87-.08.45-.35.74-.44.84-.38.4-.74.4-.79.71-.03.15.03.27.09.39.11.23.37.54.65.51.21-.02.23-.21.47-.24.26-.03.41.15.5.08.08-.06,0-.25-.06-.54-.12-.61-.03-1.17.03-1.53.04-.24.06-.25.06-.37,0-.11,0-.43-.34-.95-.08-.13-.73-1.11-1.08-1.07-.09-.03-.87.13-1.21.7-.26.43-.12.87-.47,1.1-.07.05-.23.13-.33.32-.06.12-.06.2-.09.29-.09.3-.45.43-.58.49-.36.18-.64.76-.83,2.82-.12,1.28-.02,1.13-.12,1.87-.26,1.99-.98,3.2-.45,3.96.05.08.19.25.35.42.34.36.58.51.9.77.5.4.38.41,1.11,1.06.49.44.74.67.95.75.42.17.73.13.94.42.12.17.14.35.31.41.12.04.19-.02.36-.05.35-.06.49.1.94.17.22.03.37.02.65,0,.07,0,.8-.07,1.28-.29.84-.4,1.22-1.44,1.71-2.8.1-.28.2-.6.45-.99.3-.48.47-.52.63-.87.1-.23.11-.38.09-1.35Zm-.56-2.88c-.21.09-.56.12-.69-.06-.1-.14-.02-.35.15-.77.11-.28.2-.5.41-.74.27-.31.67-.57.76-.49.08.07-.14.28-.14.73,0,.29.09.31.07.54-.03.3-.22.65-.56.79Z"/><path class="cls-10" d="m191.47,106.31c-1.65-.58-2.48-.87-2.92-1.01-4.1-1.25-4.4-2.02-6.22-1.96-.67.02-1.18.14-2.28.09-.62-.03-1.11-.11-1.88,0-.88.11-1.23.33-1.44.56-.24.27-.3.55-.37.79-.51,1.96-1.61,2.82-1.29,3.74.13.39.28.65.28.65.25.44.45.56.4.69-.09.24-.76-.04-1.13.33-.2.2-.06.35-.27.98-.19.58-.42.81-.31.97.11.16.42.04.64.29.07.08.1.16.11.19.49,1.16,2.67,2.39,2.67,2.39,2.67,1.52,5.58,2.19,5.89,2.26,1.55.35,1.93.26,3.02.72,1.31.55,1.67,1.06,2.59,1.03,1.26-.04,2.15-1.05,2.31-1.23.77-.87.6-1.49,1.19-3.53.75-2.58,1.31-2.58,1.35-4.09.01-.39.07-2.41-1.19-3.35-.2-.15-.34-.2-1.16-.49Zm-12.74-1.1c.22.2,0,.79-.46,1.89-.55,1.29-.72,1.57-1.05,1.66-.23.06-.54.02-.63-.14-.1-.17.09-.39.35-.86.07-.14.45-.85.67-1.64.15-.55.17-.96.43-1.06.09-.03.24-.04.39,0,.15.04.27.12.31.16Z"/><path class="cls-12" d="m192.14,111.39c0-.18-.14-.24-.12-.49.02-.22.16-.46.35-.5.19-.03.27.17.51.29.45.21.71-.26,1.46-.29.69-.02,1.18.35,1.51.07.06-.05.13-.14.23-.13.18,0,.32.28.41.45.1.19.07.22.15.33.03.04.21.3.47.34.34.05.45-.34.93-.4.08,0,.35-.04.52.11.16.15.13.37.15.66,0,.09.1,1.31.77,1.73.21.13.4.14.44.3.05.19-.17.29-.2.6-.04.33.19.44.12.62-.09.24-.51.1-1.1.39-.18.09-.58.28-.81.69-.17.3-.08.44-.27.61-.23.2-.62.25-.9.11-.14-.07-.12-.13-.25-.17-.24-.07-.47.08-.8.29-.15.1-.2.15-.24.22-.08.16.03.26-.03.37-.1.18-.44.01-.89.18-.29.11-.26.22-.58.31-.15.04-.39.11-.64.02-.2-.08-.2-.18-.39-.22-.21-.05-.29.08-.5.08-.35,0-.63-.35-.82-.59-.2-.25-.16-.3-.39-.67-.44-.71-.67-.7-.69-1.02-.03-.44.42-.54.39-1.04-.02-.38-.29-.52-.2-.78.1-.27.43-.23.51-.46.11-.33-.47-.57-.42-.92.07-.5,1.26-.58,1.29-1.07Z"/><path class="cls-10" d="m195.04,116.09c-.11,0-.52,0-.88-.3-.39-.32-.46-.77-.47-.91-.07-.72.49-1.22.65-1.37.18-.16.71-.64,1.37-.51.55.11.84.57.96.74.13.2.4.62.28,1.15-.13.57-.62.84-.71.89"/><path class="cls-13" d="m194.38,114.27c-.06.06-.24.28-.27.59-.04.53.4.9.49.97.11.09.49.41.98.32.53-.09.92-.61.96-1.13,0-.05.03-.6-.38-.95-.52-.45-1.38-.24-1.78.2Z"/><path class="cls-11" d="m196.95,110.28c-.02.34-.2.57-.28.68-.49.73.21,1.48.36,3.54.06.8,0,1.18.31,1.62.15.2.21.19.88.71.86.68.91.82,1.26.94.46.17.64.02,1.24.05,1.16.06,1.22.67,2.07.72.61.03,1.43-.42,3.07-1.33.23-.13.65-.37,1.17-.32.32.03.35.14.6.12.34-.02.44-.22,1.21-.83.48-.38.6-.43.63-.61.04-.22-.1-.32-.22-.82-.08-.36-.01-.34-.08-.58-.01-.04-.25-.86-.82-1.03-.1-.03-.23-.05-.41-.15-.11-.06-.24-.13-.28-.26-.04-.13.04-.24.07-.34.09-.35-.42-.92-.94-1.11-.74-.27-1.48.32-1.85.6-.44.33-.69.7-.84.93-.3.45-.44.84-.69,1.52-.31.85-.38,1.26-.78,1.48-.04.02-.22.12-.47.11-.44,0-.91-.31-.97-.66-.04-.25.14-.43.3-.65.53-.76.65-1.81.46-2.5-.04-.16-.42-.62-1.18-1.54-.45-.54-.81-.95-1.19-1.04-.03,0-.15-.04-.27-.13-.17-.14-.31-.41-.22-.6.07-.16.26-.14.27-.27.01-.1-.09-.13-.19-.36-.06-.14-.03-.15-.08-.23-.12-.2-.31-.16-.37-.31-.06-.15.11-.23.06-.4-.04-.14-.16-.14-.23-.32-.04-.12-.01-.16-.05-.21-.1-.14-.47-.01-.74.07-1.07.31-1.43.2-1.61.53-.04.08-.11.24-.08.43.03.21.16.38.19.43.09.12.13.11.14.18.04.18-.19.27-.17.48.01.15.15.17.15.33,0,.16-.12.24-.08.32.04.08.2,0,.34.07.23.1.31.49.29.76Z"/><path class="cls-7" d="m251.91,93.45c.07.11-.11.34-.12.35-.22.27-.54.29-.89.4-.75.23-1.48.85-1.47,1.28,0,.06.02.21-.04.4-.05.17-.14.27-.17.31-.26.35-.16.77-.42,1.57-.18.55-.33.7-.24.97.05.15.15.26.13.44-.02.2-.16.32-.25.41-.33.36-.18.66-.43,1.39-.26.75-.51.74-.46,1.03.11.61,1.27.9,1.89,1.06.62.16.86.13,1.45.21,2.14.31,3.09,1.29,3.62.84.13-.11.18-.38.29-.93.11-.58.08-.87.14-1.61,0-.1.05-.62.14-1.14.2-1.22.46-1.33.61-2.35.09-.63.16-1.12-.04-1.72-.11-.34-.3-.88-.81-1.26-.34-.26-.69-.33-.79-.67-.04-.16-.04-.38.06-.44.08-.04.18.04.25-.02.06-.05.07-.15.04-.22-.04-.1-.13-.09-.18-.17-.07-.11.03-.24.09-.46.04-.14.12-.4.06-.6-.08-.23-.34-.32-.8-.48-.47-.16-.84-.29-1.07-.1-.1.08-.17.22-.22.31-.04.08-.11.21-.14.39-.03.19,0,.28-.08.35-.02.02-.09.07-.18.09-.05,0-.07,0-.1.01-.07.03-.11.14-.08.21.04.09.17.05.22.13Z"/><path class="cls-16" d="m242.2,91.85c-.02.27-.17.46-.22.55-.4.59.17,1.2.29,2.87.05.65,0,.96.25,1.31.12.16.17.15.71.58.7.55.73.66,1.02.77.37.13.52.01,1,.04.94.05.99.54,1.68.58.5.03,1.16-.34,2.49-1.08.19-.1.53-.3.95-.26.26.02.28.11.49.1.27-.02.36-.18.98-.67.39-.31.48-.35.51-.49.03-.18-.08-.26-.17-.66-.07-.29-.01-.28-.07-.47,0-.03-.21-.7-.66-.84-.08-.02-.19-.04-.34-.12-.09-.05-.19-.11-.22-.21-.03-.11.03-.19.06-.28.07-.28-.34-.74-.76-.9-.6-.22-1.2.26-1.5.49-.36.27-.56.57-.68.75-.24.36-.36.68-.56,1.23-.25.69-.31,1.02-.64,1.2-.03.02-.18.09-.38.09-.36,0-.74-.25-.78-.54-.03-.2.12-.35.24-.53.43-.62.53-1.47.38-2.03-.04-.13-.34-.5-.95-1.25-.36-.44-.66-.77-.96-.85-.03,0-.12-.03-.22-.11-.14-.11-.25-.34-.18-.49.06-.13.21-.12.22-.22,0-.08-.07-.1-.15-.29-.05-.11-.02-.12-.06-.18-.1-.16-.25-.13-.3-.25-.05-.12.09-.18.05-.33-.03-.11-.13-.11-.18-.26-.04-.1,0-.13-.04-.17-.08-.11-.38-.01-.6.05-.86.25-1.16.16-1.31.43-.03.06-.09.19-.07.35.02.17.13.31.15.35.07.1.1.09.12.15.04.14-.15.22-.14.39.01.12.12.13.13.27,0,.13-.1.2-.06.26.04.06.16,0,.28.05.19.08.25.39.23.62Z"/><path class="cls-18" d="m256.19,84.4c-.01-.61.01-1.21-.03-1.82-.05-.62-.11-.9.08-1.2.14-.23.31-.28.38-.55.08-.29-.07-.37-.01-.73.06-.37.24-.47.17-.66-.06-.16-.25-.25-.4-.29-.36-.08-.59.27-1.2.62-.26.15-.8.45-1.5.53-.39.04-.87.02-1.11.33-.05.07-.07.12-.15.17-.23.15-.64.04-.85-.21-.14-.16-.06-.23-.19-.42-.2-.3-.61-.48-.94-.4-.2.05-.19.16-.36.19-.43.08-1.05-.52-.99-.96.03-.2.2-.31.17-.55-.02-.14-.09-.21-.14-.29-.22-.36.12-.68.16-1.4.03-.63-.21-.89.02-1.24.07-.11.15-.18.22-.22.04.02.11.04.16.09.14.15.08.47.16.6.07.11.1.07.33.29.05.05.15.15.21.24.23.32.16.77.14.87-.08.45-.35.74-.44.84-.38.4-.74.4-.79.71-.03.15.03.27.09.39.11.23.37.54.65.51.21-.02.23-.21.47-.24.26-.03.41.15.5.08.08-.06,0-.25-.06-.54-.12-.61-.03-1.17.03-1.53.04-.24.06-.25.06-.37,0-.11,0-.43-.34-.95-.08-.13-.73-1.11-1.08-1.07-.09-.03-.87.13-1.21.7-.26.43-.12.87-.47,1.1-.07.05-.23.13-.33.32-.06.12-.06.2-.09.29-.09.3-.45.43-.58.49-.36.18-.64.76-.83,2.82-.12,1.28-.02,1.13-.12,1.87-.26,1.99-.98,3.2-.45,3.96.05.08.19.25.35.42.34.36.58.51.9.77.5.4.38.41,1.11,1.06.49.44.74.67.95.75.42.17.73.13.94.42.12.17.14.35.31.41.12.04.19-.02.36-.05.35-.06.49.1.94.17.22.03.37.02.65,0,.07,0,.8-.07,1.28-.29.84-.4,1.22-1.44,1.71-2.8.1-.28.2-.6.45-.99.3-.48.47-.52.63-.87.1-.23.11-.38.09-1.35Zm-.56-2.88c-.21.09-.56.12-.69-.06-.1-.14-.02-.35.15-.77.11-.28.2-.5.41-.74.27-.31.67-.57.76-.49.08.07-.14.28-.14.73,0,.29.09.31.07.54-.03.3-.22.65-.56.79Z"/><path class="cls-12" d="m203.47,102.64c.18,0,.23-.15.49-.14.22.01.47.14.51.33.04.18-.16.27-.26.52-.19.46.29.69.35,1.45.05.69-.3,1.19,0,1.51.05.06.14.12.14.23,0,.18-.27.33-.44.43-.19.11-.22.08-.33.17-.04.03-.29.23-.31.49-.03.34.36.43.44.91.01.08.06.34-.09.52-.14.17-.36.15-.65.18-.09.01-1.31.16-1.7.85-.12.22-.12.41-.28.46-.18.06-.3-.16-.61-.18-.33-.02-.43.21-.61.15-.25-.08-.12-.51-.44-1.08-.1-.18-.31-.57-.73-.77-.31-.15-.44-.06-.62-.24-.21-.22-.28-.61-.15-.89.07-.15.12-.13.15-.25.06-.24-.1-.47-.32-.79-.1-.15-.16-.2-.23-.23-.17-.07-.26.04-.37-.02-.18-.09-.03-.43-.21-.88-.12-.29-.23-.25-.33-.57-.05-.15-.13-.39-.05-.64.07-.2.17-.21.21-.4.04-.22-.09-.29-.1-.5-.02-.35.32-.65.55-.85.24-.21.29-.18.65-.42.69-.47.67-.7.99-.74.44-.05.56.4,1.06.35.38-.04.51-.31.77-.23.27.08.25.42.49.49.33.09.55-.49.91-.46.5.05.64,1.24,1.13,1.24Z"/><path class="cls-10" d="m198.9,105.75c0-.11-.02-.52.26-.89.31-.41.75-.49.89-.51.72-.1,1.24.43,1.4.58.17.17.67.68.57,1.34-.08.55-.53.87-.7.99-.19.14-.6.43-1.14.33-.58-.11-.87-.59-.92-.67"/><path class="cls-13" d="m200.69,105.01c-.07-.05-.29-.23-.6-.24-.53-.02-.88.44-.95.54-.08.11-.38.51-.28,1,.12.53.65.89,1.17.9.05,0,.6,0,.94-.42.42-.54.18-1.39-.28-1.77Z"/><path class="cls-18" d="m210.9,99.06c1.05-1.4,1.58-2.1,1.84-2.48,2.42-3.53,3.25-3.59,3.74-5.34.18-.64.22-1.17.6-2.2.22-.58.43-1.02.57-1.79.16-.88.05-1.27-.11-1.54-.18-.31-.43-.45-.65-.59-1.71-1.08-2.21-2.38-3.18-2.35-.41.01-.7.07-.7.07-.5.11-.67.27-.78.18-.2-.15.26-.72.03-1.17-.13-.25-.31-.16-.85-.55-.5-.36-.65-.65-.83-.59-.18.06-.16.38-.47.53-.1.05-.19.05-.21.05-1.25.12-3.08,1.83-3.08,1.83-2.25,2.09-3.77,4.66-3.93,4.94-.8,1.38-.83,1.76-1.59,2.66-.92,1.08-1.51,1.28-1.76,2.16-.34,1.21.35,2.37.48,2.57.6,1,1.24,1.02,3.01,2.2,2.23,1.49,2.07,2.02,3.5,2.52.37.13,2.28.79,3.55-.13.2-.14.3-.26.82-.96Zm4.87-11.82c-.26.14-.75-.23-1.66-1.01-1.06-.91-1.28-1.16-1.27-1.5.01-.24.14-.52.32-.56.19-.04.35.21.72.59.11.11.67.69,1.36,1.13.48.31.87.45.88.73,0,.09-.03.24-.11.37-.08.14-.19.22-.24.25Z"/><path class="cls-6" d="m215.79,111.96c.45-.4.94-.77,1.37-1.2.44-.43.62-.66.97-.71.27-.04.41.06.67-.06.28-.13.24-.29.55-.48.32-.19.51-.12.61-.3.09-.15.03-.36-.04-.49-.17-.33-.59-.28-1.24-.52-.28-.1-.86-.32-1.37-.81-.28-.27-.57-.66-.97-.64-.08,0-.14.02-.23,0-.26-.08-.44-.47-.39-.78.03-.21.14-.19.2-.42.1-.34-.02-.78-.3-.98-.17-.12-.24-.04-.38-.15-.34-.28-.28-1.14.1-1.37.17-.11.36-.04.53-.23.09-.1.1-.2.13-.3.13-.4.6-.35,1.17-.78.5-.38.55-.73.96-.78.13-.02.23,0,.31.02.01.04.04.11.03.18-.02.2-.31.36-.36.51-.04.12.01.12-.02.44,0,.07-.02.21-.05.32-.1.39-.48.61-.58.67-.39.23-.79.21-.92.2-.55-.03-.78-.3-1.05-.15-.13.07-.18.2-.24.32-.11.23-.17.63.03.83.15.15.31.04.49.21.19.18.14.41.26.44.1.02.19-.16.38-.39.39-.48.88-.78,1.19-.97.21-.13.23-.11.32-.2.08-.07.33-.29.51-.88.04-.14.37-1.27.13-1.52-.03-.09-.66-.58-1.31-.48-.5.08-.74.47-1.14.35-.09-.02-.25-.09-.45-.05-.13.03-.19.08-.28.12-.29.12-.62-.07-.75-.13-.37-.16-.99,0-2.69,1.18-1.06.73-.88.71-1.51,1.12-1.69,1.09-3.08,1.31-3.32,2.21-.02.09-.07.3-.09.54-.06.49-.02.77-.01,1.18.01.64-.07.55-.1,1.53-.02.66-.03,1,.04,1.21.14.43.37.64.29.98-.05.2-.18.33-.12.5.04.12.14.14.27.25.27.22.23.44.48.83.12.18.22.29.42.49.05.05.57.57,1.05.79.84.39,1.89,0,3.24-.5.28-.1.59-.23,1.05-.3.56-.08.7.02,1.07-.08.24-.07.36-.16,1.09-.8Zm1.85-2.28c-.2-.11-.45-.35-.4-.56.04-.17.26-.24.68-.38.28-.09.51-.17.83-.16.41,0,.87.14.87.27,0,.1-.3.08-.64.36-.22.18-.18.27-.37.4-.25.17-.64.25-.97.08Z"/><path class="cls-14" d="m217.93,116.18c.14-.35-.4-.74-.86-1.61-.17-.33-.25-.57-.49-.63-.15-.04-.2.03-.39.04-.41.02-.61-.3-1.05-.51-.17-.08-.56-.25-.99-.17-.54.1-.77.54-.94.45-.13-.07,0-.36-.02-.93-.01-.42,0-1.08-.29-1.22-.16-.07-.35.04-.41-.06-.05-.08.08-.18.05-.34-.02-.14-.15-.21-.23-.27-.3-.23-.27-.49-.44-.71-.45-.59-1.78-.24-1.82-.48-.01-.07.09-.09.14-.25.06-.2-.03-.4-.07-.48-.22-.48-.7-.56-1.55-1.06-.69-.41-.82-.54-1.13-.53-.24,0-.62.09-.74.35-.08.17.04.27-.04.4-.11.2-.42.1-.97.26-.31.09-.56.17-.67.38-.15.27.09.48-.06.73-.15.26-.48.15-.72.39-.1.1-.22.29-.14,1.02.06.59.13,1.25.58,1.98.36.59.39.28,1.25,1.32.14.17.5.61.72.52.1-.04.15-.17.19-.15.05.02-.03.25-.02.42.03.47.82.51,1.37,1.09.57.6.21,1.07.78,1.53.39.32,1.04.49,1.49.27.27-.13.27-.32.55-.41.14-.05.45-.1,1.08.27.84.49.77.86,1.35,1.17.7.38,1.63.28,2.22.05.47-.18.75-.46,1.5-.63.23-.05.3-.05.44-.12.69-.36.87-1.53.59-1.72-.09-.06-.24-.03-.29-.14-.04-.08.01-.18.03-.23Z"/><path class="cls-14" d="m218.12,118.9c.02.12.23.2.4.19.12,0,.27-.06.51-.33,0,0,.66-.75.58-1.8,0-.03-.01-.11-.06-.19-.14-.23-.51-.3-.58-.2-.03.05.03.12.07.23.15.35.03.71-.03.91-.13.4-.39.66-.49.77-.23.23-.42.31-.4.43Z"/><path class="cls-14" d="m217.48,118.62c0,.08.18.17.34.16.11,0,.22-.07.51-.41.25-.3.38-.46.44-.59.06-.15.06-.42.07-.94,0-.28,0-.4-.1-.48-.12-.11-.34-.11-.39-.04-.03.06.06.14.13.27.15.29.06.61-.01.89-.06.23-.19.69-.58.93-.21.13-.4.14-.4.22Z"/><path class="cls-11" d="m206.89,102.42c.05-.34.25-.55.33-.65.55-.69-.08-1.5-.06-3.56,0-.8.11-1.18-.17-1.64-.13-.21-.19-.2-.81-.79-.8-.75-.83-.89-1.17-1.05-.44-.2-.64-.07-1.23-.15-1.16-.16-1.16-.77-2.01-.89-.61-.09-1.46.3-3.18,1.07-.24.11-.68.31-1.2.22-.32-.06-.33-.16-.59-.17-.34,0-.46.18-1.27.72-.51.34-.63.38-.68.55-.06.22.08.33.15.84.05.37-.01.34.03.59,0,.04.18.88.73,1.1.09.04.23.07.4.18.11.07.22.15.25.28.03.14-.06.23-.1.33-.12.34.34.95.84,1.18.71.33,1.5-.19,1.89-.44.47-.3.75-.64.91-.85.34-.42.51-.8.82-1.46.38-.82.49-1.22.91-1.41.04-.02.23-.1.48-.07.44.04.88.39.91.74.02.25-.18.42-.35.62-.59.71-.8,1.75-.67,2.45.03.17.37.66,1.04,1.64.4.58.73,1.01,1.09,1.14.03.01.15.05.25.16.16.16.27.44.17.62-.09.15-.27.12-.29.25-.02.1.08.13.16.37.05.15.02.15.06.23.1.21.29.19.34.34.04.15-.13.22-.09.4.03.14.15.15.2.34.03.12,0,.16.03.22.09.14.47.05.75,0,1.09-.22,1.45-.08,1.65-.39.05-.07.13-.23.12-.42,0-.21-.12-.39-.15-.44-.08-.13-.12-.12-.13-.19-.03-.18.21-.25.21-.46,0-.15-.13-.18-.13-.34,0-.16.14-.23.1-.31-.04-.08-.2-.02-.34-.09-.22-.12-.27-.51-.22-.78Z"/><path class="cls-7" d="m227.41,114.35c-.11.08-.35-.09-.36-.1-.28-.21-.31-.52-.44-.87-.27-.73-.91-1.44-1.35-1.41-.06,0-.21.03-.4-.02-.17-.05-.28-.13-.32-.15-.36-.24-.77-.12-1.59-.35-.55-.15-.71-.3-.98-.2-.15.06-.25.16-.44.15-.2-.01-.32-.15-.42-.23-.37-.31-.66-.15-1.41-.37-.76-.22-.76-.48-1.05-.42-.6.13-.84,1.31-.97,1.93-.13.63-.09.87-.15,1.46-.21,2.15-1.15,3.14-.68,3.65.12.12.39.16.94.25.58.09.87.04,1.62.06.1,0,.62.02,1.15.09,1.23.15,1.35.4,2.37.51.63.06,1.13.11,1.71-.12.33-.13.87-.34,1.22-.86.24-.35.3-.71.64-.82.16-.05.38-.05.44.04.05.08-.03.18.03.25.05.06.15.06.22.03.1-.04.08-.14.16-.19.11-.07.24.02.47.07.14.04.41.11.6.03.23-.09.3-.35.44-.82.14-.47.25-.85.05-1.08-.09-.1-.23-.16-.32-.21-.08-.04-.21-.1-.4-.12-.19-.02-.28.01-.36-.06-.02-.02-.08-.09-.09-.18,0-.05,0-.07-.01-.1-.04-.06-.14-.1-.21-.07-.09.04-.04.17-.12.23Z"/><path class="cls-18" d="m232.6,102.63c.6-.04,1.21-.04,1.81-.11.61-.08.89-.15,1.21.03.24.13.29.29.57.36.29.07.37-.08.73-.04.37.04.48.22.67.14.16-.07.24-.26.27-.41.07-.37-.3-.58-.67-1.17-.16-.25-.49-.78-.59-1.48-.06-.38-.06-.87-.38-1.1-.07-.05-.12-.07-.18-.14-.16-.23-.07-.64.17-.86.15-.14.23-.07.41-.21.29-.21.46-.64.36-.96-.06-.2-.17-.18-.21-.35-.1-.42.48-1.08.92-1.03.2.02.32.19.55.14.14-.03.2-.1.29-.16.35-.24.69.09,1.4.09.63,0,.88-.25,1.24-.04.11.06.18.14.23.21-.02.04-.03.11-.08.16-.14.15-.46.1-.59.19-.11.07-.06.11-.28.34-.05.05-.15.16-.23.22-.31.25-.76.19-.86.18-.45-.06-.76-.31-.86-.4-.41-.36-.43-.72-.74-.76-.15-.02-.27.04-.38.11-.23.12-.52.4-.48.67.03.21.22.22.26.46.04.25-.13.41-.06.5.07.08.25,0,.54-.08.6-.15,1.17-.08,1.53-.04.24.03.25.05.38.04.11,0,.43-.03.94-.39.12-.09,1.07-.78,1.02-1.13.03-.09-.17-.86-.75-1.18-.45-.24-.87-.08-1.12-.42-.05-.07-.14-.22-.33-.31-.12-.06-.2-.05-.29-.07-.3-.08-.45-.44-.51-.56-.2-.36-.79-.6-2.85-.71-1.29-.06-1.13.03-1.88-.03-2-.17-3.25-.84-3.98-.27-.07.06-.24.2-.41.37-.35.36-.49.6-.73.93-.38.51-.39.4-1.01,1.15-.42.51-.63.77-.71.98-.15.43-.09.73-.37.95-.16.13-.35.15-.4.32-.04.12.02.19.06.36.08.34-.08.49-.13.95-.02.22,0,.37.03.65,0,.07.1.8.35,1.27.43.82,1.49,1.15,2.88,1.58.29.09.61.17,1.01.4.49.28.54.45.9.59.23.09.39.09,1.35.03Zm2.86-.69c-.09-.21-.14-.56.03-.69.13-.11.35-.03.77.12.28.1.51.18.75.38.33.26.6.64.53.74-.06.08-.29-.12-.73-.11-.29.01-.31.1-.53.09-.3-.01-.66-.19-.81-.53Z"/><path class="cls-10" d="m166.71,98.07c1.41-1.04,2.11-1.56,2.47-1.85,3.33-2.69,4.15-2.51,5.12-4.05.36-.57.54-1.05,1.21-1.94.38-.5.71-.86,1.06-1.56.4-.79.41-1.2.34-1.5-.09-.35-.29-.56-.45-.75-1.33-1.52-1.43-2.91-2.37-3.17-.4-.11-.7-.13-.7-.13-.5-.04-.72.06-.8-.05-.15-.2.46-.61.36-1.12-.05-.28-.25-.25-.66-.78-.37-.49-.43-.81-.63-.8-.19,0-.26.32-.6.37-.11.02-.19,0-.22,0-1.23-.24-3.48.87-3.48.87-2.76,1.36-4.95,3.39-5.18,3.6-1.16,1.09-1.3,1.45-2.29,2.09-1.19.77-1.81.79-2.31,1.56-.68,1.06-.34,2.37-.28,2.6.29,1.13.9,1.33,2.26,2.97,1.71,2.07,1.41,2.53,2.63,3.42.32.23,1.96,1.41,3.44.9.23-.08.36-.17,1.06-.69Zm8.06-9.93c-.29.06-.66-.44-1.3-1.44-.76-1.17-.9-1.48-.78-1.8.08-.23.28-.46.47-.44.2.02.27.3.52.77.07.14.45.85.98,1.47.38.43.71.68.63.95-.02.09-.1.22-.22.32-.12.11-.25.16-.3.17Z"/><path class="cls-6" d="m197.43,91.52c-.45-.85-.84-1.73-1.33-2.55-.5-.84-.79-1.2-.74-1.76.04-.43.24-.61.15-1.05-.09-.47-.36-.48-.53-1.03-.18-.56,0-.84-.23-1.06-.2-.19-.54-.18-.76-.12-.57.14-.65.81-1.26,1.72-.26.39-.81,1.2-1.76,1.81-.52.33-1.22.64-1.34,1.25-.03.13-.02.22-.09.35-.23.37-.88.51-1.35.31-.31-.13-.24-.28-.56-.46-.49-.28-1.21-.25-1.62.1-.25.21-.16.36-.37.52-.55.42-1.87,0-2.08-.66-.1-.31.07-.58-.15-.89-.13-.18-.28-.23-.41-.31-.57-.35-.32-1.05-.77-2.09-.4-.92-.93-1.12-.85-1.77.02-.2.09-.36.15-.47.07,0,.18-.02.29.01.3.11.44.61.65.74.18.1.2.02.67.19.1.04.32.11.47.19.56.29.77.97.82,1.13.21.69.03,1.3-.03,1.5-.25.83-.76,1.09-.62,1.57.07.22.24.36.4.48.32.25.91.5,1.29.27.29-.17.18-.46.5-.67.34-.22.68-.07.77-.23.07-.15-.18-.36-.46-.73-.6-.77-.87-1.64-1.05-2.19-.12-.37-.09-.39-.18-.57-.07-.15-.32-.61-1.16-1.11-.21-.12-1.82-1.05-2.29-.76-.15.02-1.14.8-1.22,1.85-.06.8.45,1.31.12,1.89-.07.12-.23.35-.24.68,0,.21.06.32.08.47.08.49-.34.93-.47,1.1-.39.51-.37,1.53.81,4.58.74,1.9.77,1.61,1.16,2.74,1.05,3.01.87,5.24,2.17,5.93.13.07.44.22.8.35.74.28,1.18.32,1.81.45.99.21.83.31,2.32.73,1.01.28,1.52.42,1.88.39.72-.05,1.12-.34,1.62-.07.29.15.44.4.73.37.2-.02.26-.16.48-.32.45-.33.77-.2,1.46-.43.33-.11.53-.23.92-.46.1-.06,1.09-.66,1.61-1.32.91-1.15.7-2.9.44-5.18-.06-.48-.14-.99-.07-1.72.09-.89.3-1.08.28-1.68-.01-.4-.11-.62-.83-1.98Zm-2.83-3.7c-.24.27-.71.56-1.02.41-.24-.13-.27-.48-.32-1.19-.04-.47-.06-.85.06-1.33.16-.64.54-1.29.73-1.24.15.04,0,.5.32,1.13.2.41.34.38.47.71.17.44.15,1.08-.24,1.52Z"/><path class="cls-7" d="m185.72,92.67c.04.13-.2.3-.21.31-.29.2-.6.12-.97.13-.78.01-1.65.4-1.77.82-.02.06-.04.21-.15.37-.1.15-.21.23-.25.25-.34.26-.37.69-.84,1.39-.32.47-.51.58-.5.86,0,.16.07.29,0,.46-.08.18-.24.26-.35.32-.42.25-.36.58-.81,1.22-.45.65-.7.57-.73.86-.07.61.97,1.22,1.52,1.54.56.32.79.36,1.33.61,1.97.89,2.6,2.1,3.24,1.81.15-.07.28-.32.54-.81.27-.52.32-.81.58-1.51.04-.1.22-.58.45-1.06.54-1.12.82-1.15,1.24-2.09.26-.58.47-1.04.44-1.66-.02-.35-.04-.93-.42-1.43-.26-.34-.57-.51-.57-.87,0-.16.07-.38.18-.4.09-.02.16.09.25.05.07-.03.11-.12.1-.2-.01-.11-.1-.12-.13-.21-.03-.12.09-.23.22-.42.08-.12.23-.35.22-.56,0-.24-.24-.4-.64-.68-.4-.28-.73-.51-1-.4-.12.05-.23.16-.3.24-.06.06-.16.17-.24.34-.09.18-.08.27-.17.32-.03.01-.11.05-.2.03-.05,0-.07-.03-.1-.02-.07.01-.14.1-.13.18.01.1.15.1.17.19Z"/><path class="cls-16" d="m222.44,105.84c-.06-.33.07-.6.11-.72.3-.83-.55-1.39-1.18-3.36-.24-.76-.27-1.15-.68-1.5-.19-.16-.25-.13-1.02-.49-.99-.46-1.07-.58-1.44-.62-.49-.05-.63.13-1.21.24-1.15.21-1.34-.37-2.18-.21-.6.11-1.29.74-2.68,2.01-.19.18-.54.51-1.07.58-.32.05-.37-.05-.61.02-.32.1-.38.32-.98,1.09-.38.48-.48.56-.47.74.01.22.17.29.4.75.16.33.09.33.22.55.02.04.45.78,1.04.81.1,0,.24,0,.44.04.12.03.26.07.33.19.07.12.02.24.01.35,0,.36.62.79,1.17.86.78.09,1.36-.65,1.66-1.02.35-.43.5-.84.6-1.1.19-.5.23-.92.32-1.64.11-.9.08-1.32.42-1.62.03-.03.19-.16.43-.22.43-.1.96.09,1.09.42.09.23-.04.45-.14.7-.34.86-.21,1.91.13,2.54.08.15.56.51,1.5,1.22.56.42,1.01.73,1.4.74.03,0,.16,0,.29.07.2.1.4.33.36.53-.03.17-.22.2-.2.33.01.1.12.1.27.3.09.12.06.14.13.2.16.17.34.09.43.22.09.13-.06.25.04.41.07.12.19.1.3.26.07.11.05.16.1.2.13.11.46-.1.71-.24.96-.55,1.35-.53,1.44-.89.02-.09.05-.26-.02-.43-.08-.2-.24-.34-.28-.37-.12-.1-.15-.08-.18-.14-.08-.16.12-.31.06-.5-.05-.15-.18-.13-.23-.29-.05-.16.06-.26,0-.33-.06-.07-.19.04-.35.02-.25-.04-.41-.4-.46-.67Z"/><path class="cls-16" d="m171.76,90.66c-.18.29-.45.4-.56.46-.78.41-.53,1.4-1.37,3.28-.33.73-.57,1.03-.5,1.57.03.24.09.26.43,1.04.43,1,.41,1.15.65,1.43.33.37.55.32,1.06.63.99.61.75,1.17,1.48,1.62.52.32,1.46.31,3.34.29.26,0,.74-.01,1.18.28.27.18.24.29.47.39.31.14.49.02,1.46-.15.6-.11.73-.09.84-.24.14-.18.06-.33.2-.82.1-.36.15-.31.21-.55,0-.04.19-.88-.23-1.3-.07-.07-.18-.15-.3-.33-.07-.11-.15-.23-.12-.36.03-.14.15-.19.22-.27.25-.26.07-1.01-.3-1.42-.52-.59-1.45-.43-1.91-.35-.55.09-.94.29-1.18.42-.48.25-.79.53-1.33,1.01-.68.6-.94.93-1.39.93-.04,0-.25,0-.47-.12-.39-.21-.65-.71-.54-1.04.08-.23.33-.31.57-.43.83-.42,1.44-1.28,1.6-1.98.04-.16-.07-.75-.3-1.92-.13-.69-.26-1.22-.55-1.48-.02-.02-.12-.1-.17-.24-.08-.21-.07-.51.09-.63.14-.1.29,0,.37-.11.06-.08-.02-.15,0-.4.01-.15.04-.14.04-.24,0-.24-.19-.29-.17-.45.02-.16.21-.15.24-.33.03-.14-.07-.2-.05-.39.02-.13.07-.15.06-.21-.02-.17-.41-.24-.69-.29-1.09-.23-1.36-.51-1.67-.3-.07.05-.21.16-.28.34-.08.2-.04.41-.04.47.02.15.06.16.04.23-.04.18-.3.15-.38.34-.06.14.05.22-.02.36-.07.15-.22.16-.22.24,0,.09.17.09.27.22.15.2.04.57-.11.81Z"/><path class="cls-12" d="m194.47,88.01c.04-.17-.1-.26-.02-.5.06-.21.25-.42.44-.42.19,0,.23.22.44.38.4.3.74-.12,1.49,0,.68.11,1.09.57,1.47.35.07-.04.15-.11.25-.08.18.04.26.34.32.52.06.21.03.23.09.36.02.04.15.34.4.42.32.11.5-.25.99-.21.08,0,.35.03.48.21.13.18.06.39.02.67-.01.09-.15,1.31.43,1.85.18.17.37.21.38.38.01.19-.22.25-.31.55-.1.32.11.47,0,.63-.14.22-.52,0-1.16.17-.2.05-.63.17-.92.53-.22.27-.16.42-.38.55-.26.16-.66.13-.9-.06-.13-.1-.09-.15-.21-.21-.22-.12-.48-.01-.84.13-.17.07-.23.11-.27.17-.11.15-.03.26-.1.36-.13.16-.43-.07-.9,0-.31.05-.3.16-.63.19-.16.01-.41.04-.63-.1-.18-.11-.16-.22-.34-.29-.2-.09-.3.02-.5-.02-.35-.06-.56-.46-.7-.73-.15-.28-.1-.33-.25-.74-.29-.78-.53-.82-.49-1.13.06-.43.52-.45.59-.95.05-.38-.18-.56-.04-.8.15-.25.47-.14.59-.36.17-.3-.35-.65-.23-.99.16-.47,1.35-.33,1.47-.8Z"/><path class="cls-10" d="m196.41,93.18c-.11-.02-.51-.1-.81-.46-.33-.39-.3-.85-.29-.99.07-.72.71-1.11.9-1.22.21-.13.82-.5,1.44-.24.52.21.72.72.8.91.09.22.27.69.05,1.19-.24.54-.77.71-.87.74"/><path class="cls-13" d="m196.12,91.27c-.07.05-.29.22-.38.53-.15.51.22.96.3,1.05.09.11.4.49.91.5.54.01,1.02-.42,1.15-.93.01-.05.14-.59-.19-1.01-.43-.54-1.31-.5-1.79-.14Z"/><path class="cls-7" d="m163.03,82.31c-.13.04-.3-.2-.31-.21-.2-.28-.13-.6-.14-.97-.02-.78-.41-1.65-.83-1.76-.06-.02-.21-.04-.38-.15-.15-.1-.23-.21-.25-.24-.26-.34-.69-.36-1.4-.83-.48-.32-.58-.51-.87-.5-.16,0-.29.07-.46,0-.18-.08-.26-.24-.33-.35-.25-.41-.58-.35-1.22-.8-.65-.45-.57-.7-.87-.73-.62-.07-1.22.98-1.53,1.53-.32.56-.36.79-.6,1.33-.88,1.97-2.09,2.61-1.8,3.25.07.15.32.28.81.53.53.27.81.31,1.52.57.1.04.59.22,1.06.44,1.12.53,1.15.81,2.09,1.23.58.26,1.04.46,1.66.43.35-.02.93-.05,1.43-.43.34-.26.51-.58.86-.57.16,0,.38.07.4.18.02.09-.09.16-.05.25.03.07.12.11.2.1.11-.01.12-.1.21-.13.12-.03.23.09.42.22.12.08.35.23.56.22.24,0,.4-.24.68-.64.28-.4.5-.73.39-1.01-.05-.12-.16-.23-.24-.3-.06-.06-.17-.16-.34-.24-.18-.08-.27-.07-.32-.17-.01-.03-.05-.11-.03-.2,0-.05.03-.07.02-.1-.01-.07-.11-.14-.18-.13-.1.01-.1.15-.19.18Z"/><path class="cls-16" d="m153.7,81.11c-.34.03-.6-.11-.71-.16-.8-.36-1.43.44-3.44.92-.78.18-1.17.18-1.55.56-.17.18-.15.24-.57.98-.53.96-.66,1.02-.73,1.39-.09.48.09.63.15,1.23.12,1.16-.47,1.31-.38,2.16.06.61.64,1.35,1.81,2.82.16.21.46.58.5,1.11.02.32-.08.36-.02.61.07.33.29.4,1.01,1.06.45.41.52.52.7.52.22,0,.3-.15.78-.34.35-.14.34-.07.56-.18.04-.02.81-.39.89-.97.01-.1,0-.24.08-.43.04-.12.09-.25.21-.31.13-.06.24,0,.35.01.36.03.84-.56.94-1.1.15-.77-.55-1.41-.89-1.73-.4-.38-.8-.57-1.05-.68-.49-.22-.9-.3-1.61-.44-.89-.17-1.31-.17-1.59-.54-.03-.03-.15-.2-.19-.44-.07-.44.16-.95.5-1.06.24-.08.45.07.69.19.83.4,1.89.35,2.54.06.15-.07.55-.52,1.34-1.41.46-.53.81-.95.84-1.34,0-.03.01-.16.09-.28.11-.19.36-.37.56-.32.17.05.18.23.31.22.1,0,.11-.11.32-.24.13-.08.14-.05.21-.11.18-.15.11-.33.25-.41.14-.08.24.08.41,0,.13-.06.11-.18.28-.28.11-.06.16-.04.2-.08.12-.12-.06-.47-.19-.72-.48-1-.43-1.38-.78-1.51-.08-.03-.25-.07-.43-.01-.2.06-.35.22-.39.26-.11.11-.09.14-.15.17-.17.07-.3-.14-.5-.09-.15.04-.14.17-.3.21-.16.03-.26-.08-.32-.02-.07.06.03.19-.01.35-.06.24-.43.38-.7.41Z"/><path class="cls-18" d="m138.83,76.47c1.73.26,2.6.39,3.06.44,4.26.45,4.71,1.15,6.48.75.65-.15,1.13-.36,2.23-.52.62-.09,1.11-.11,1.85-.35.84-.28,1.14-.56,1.3-.82.19-.31.19-.6.21-.85.13-2.02,1.05-3.07.56-3.92-.21-.36-.4-.58-.4-.58-.33-.38-.55-.46-.53-.6.04-.25.76-.11,1.05-.53.16-.23,0-.35.08-1.02.08-.61.26-.88.12-1.01-.14-.13-.42.04-.69-.16-.09-.07-.13-.14-.15-.16-.7-1.04-3.07-1.85-3.07-1.85-2.91-.99-5.89-1.1-6.21-1.11-1.59-.05-1.95.11-3.1-.14-1.39-.29-1.84-.72-2.74-.52-1.23.27-1.91,1.44-2.04,1.64-.59,1-.3,1.57-.5,3.7-.25,2.67-.8,2.79-.55,4.28.06.39.39,2.38,1.8,3.07.22.11.37.14,1.24.26Zm12.72-1.33c-.25-.16-.15-.77.1-1.94.29-1.37.41-1.68.72-1.83.22-.1.52-.12.64.02.13.15-.02.4-.18.91-.05.15-.29.92-.34,1.74-.04.57.02.98-.22,1.12-.08.05-.23.09-.38.08-.16,0-.29-.07-.33-.1Z"/><path class="cls-6" d="m240.86,79.49c-.45-.85-.84-1.73-1.33-2.55-.5-.84-.79-1.2-.74-1.76.04-.43.24-.61.15-1.05-.09-.47-.36-.48-.53-1.03-.18-.56,0-.84-.23-1.06-.2-.19-.54-.18-.76-.12-.57.14-.65.81-1.26,1.72-.26.39-.81,1.2-1.76,1.81-.52.33-1.22.64-1.34,1.25-.03.13-.02.22-.09.35-.23.37-.88.51-1.35.31-.31-.13-.24-.28-.56-.46-.49-.28-1.21-.25-1.62.1-.25.21-.16.36-.37.52-.55.42-1.87,0-2.08-.66-.1-.31.07-.58-.15-.89-.13-.18-.28-.23-.41-.31-.57-.35-.32-1.05-.77-2.09-.4-.92-.93-1.12-.85-1.77.02-.2.09-.36.15-.47.07,0,.18-.02.29.01.3.11.44.61.65.74.18.1.2.02.67.19.1.04.32.11.47.19.56.29.77.97.82,1.13.21.69.03,1.3-.03,1.5-.25.83-.76,1.09-.62,1.57.07.22.24.36.4.48.32.25.91.5,1.29.27.29-.17.18-.46.5-.67.34-.22.68-.07.77-.23.07-.15-.18-.36-.46-.73-.6-.77-.87-1.64-1.05-2.19-.12-.37-.09-.39-.18-.57-.07-.15-.32-.61-1.16-1.11-.21-.12-1.82-1.05-2.29-.76-.15.02-1.14.8-1.22,1.85-.06.8.45,1.31.12,1.89-.07.12-.23.35-.24.68,0,.21.06.32.08.47.08.49-.34.93-.47,1.1-.39.51-.37,1.53.81,4.58.74,1.9.77,1.61,1.16,2.74,1.05,3.01.87,5.24,2.17,5.93.13.07.44.22.8.35.74.28,1.18.32,1.81.45.99.21.83.31,2.32.73,1.01.28,1.52.42,1.88.39.72-.05,1.12-.34,1.62-.07.29.15.44.4.73.37.2-.02.26-.16.48-.32.45-.33.77-.2,1.46-.43.33-.11.53-.23.92-.46.1-.06,1.09-.66,1.61-1.32.91-1.15.7-2.9.44-5.18-.06-.48-.14-.99-.07-1.72.09-.89.3-1.08.28-1.68-.01-.4-.11-.62-.83-1.98Zm-2.83-3.7c-.24.27-.71.56-1.02.41-.24-.13-.27-.48-.32-1.19-.04-.47-.06-.85.06-1.33.16-.64.54-1.29.73-1.24.15.04,0,.5.32,1.13.2.41.34.38.47.71.17.44.15,1.08-.24,1.52Z"/><path class="cls-11" d="m216.37,89.18c-.18.29-.45.4-.56.46-.78.41-.53,1.4-1.37,3.28-.33.73-.57,1.03-.5,1.57.03.24.09.26.43,1.04.43,1,.41,1.15.65,1.43.33.37.55.32,1.06.63.99.61.75,1.17,1.48,1.62.52.32,1.46.31,3.34.29.26,0,.74-.01,1.18.28.27.18.24.29.47.39.31.14.49.02,1.46-.15.6-.11.73-.09.84-.24.14-.18.06-.33.2-.82.1-.36.15-.31.21-.55,0-.04.19-.88-.23-1.3-.07-.07-.18-.15-.3-.33-.07-.11-.15-.23-.12-.36.03-.14.15-.19.22-.27.25-.26.07-1.01-.3-1.42-.52-.59-1.45-.43-1.91-.35-.55.09-.94.29-1.18.42-.48.25-.79.53-1.33,1.01-.68.6-.94.93-1.39.93-.04,0-.25,0-.47-.12-.39-.21-.65-.71-.54-1.04.08-.23.33-.31.57-.43.83-.42,1.44-1.28,1.6-1.98.04-.16-.07-.75-.3-1.92-.13-.69-.26-1.22-.55-1.48-.02-.02-.12-.1-.17-.24-.08-.21-.07-.51.09-.63.14-.1.29,0,.37-.11.06-.08-.02-.15,0-.4.01-.15.04-.14.04-.24,0-.24-.19-.29-.17-.45.02-.16.21-.15.24-.33.03-.14-.07-.2-.05-.39.02-.13.07-.15.06-.21-.02-.17-.41-.24-.69-.29-1.09-.23-1.36-.51-1.67-.3-.07.05-.21.16-.28.34-.08.2-.04.41-.04.47.02.15.06.16.04.23-.04.18-.3.15-.38.34-.06.14.05.22-.02.36-.07.15-.22.16-.22.24,0,.09.17.09.27.22.15.2.04.57-.11.81Z"/><path class="cls-14" d="m231.86,81.62c-.3-.22-.82.21-1.77.46-.36.09-.61.11-.73.33-.07.13-.02.2-.05.39-.08.41-.44.53-.74.9-.12.14-.37.49-.4.92-.03.55.34.87.22,1.02-.1.11-.35-.09-.91-.2-.41-.08-1.05-.26-1.25,0-.11.14-.05.35-.16.39-.09.03-.16-.12-.32-.13-.14,0-.24.09-.32.16-.29.23-.54.15-.79.26-.67.3-.66,1.68-.89,1.66-.07,0-.07-.11-.21-.2-.18-.11-.39-.06-.48-.05-.51.11-.71.55-1.4,1.26-.56.58-.71.67-.78.97-.05.24-.05.63.16.8.15.11.27.02.38.13.17.16,0,.44.03,1,.02.33.03.58.21.74.23.21.49.03.7.23.22.21.03.51.21.79.07.12.23.28.96.38.59.08,1.25.17,2.06-.09.65-.21.36-.31,1.58-.91.2-.1.71-.34.68-.58-.01-.11-.13-.18-.1-.22.03-.05.23.09.4.12.47.08.69-.67,1.38-1.07.72-.41,1.08.05,1.68-.4.4-.31.72-.89.61-1.38-.07-.3-.25-.34-.27-.63-.01-.15,0-.46.51-.99.67-.71,1.01-.55,1.45-1.04.54-.59.66-1.52.57-2.15-.07-.5-.27-.84-.26-1.61,0-.24.03-.3-.01-.45-.19-.76-1.28-1.2-1.54-.98-.08.07-.09.23-.2.25-.09.02-.17-.05-.21-.08Z"/><path class="cls-14" d="m234.55,82.08c.12,0,.25-.18.28-.35.02-.11,0-.27-.2-.57,0,0-.58-.82-1.62-.98-.03,0-.11-.02-.2.01-.25.08-.41.43-.33.51.04.04.12,0,.24-.02.38-.06.7.14.88.25.36.22.56.53.63.65.17.28.2.48.32.49Z"/><path class="cls-14" d="m234.14,82.63c.08.02.21-.13.23-.3.02-.11-.02-.23-.28-.59-.24-.32-.35-.48-.47-.56-.13-.1-.39-.16-.9-.28-.27-.07-.39-.09-.49-.02-.13.09-.19.31-.13.37.05.05.16-.03.29-.07.31-.08.61.08.87.22.2.11.62.35.76.78.07.23.04.43.12.45Z"/><path class="cls-15" d="m240.34,81.87c.04-.17-.1-.26-.02-.5.06-.21.25-.42.44-.42.19,0,.23.22.44.38.4.3.74-.12,1.49,0,.68.11,1.09.57,1.47.35.07-.04.15-.11.25-.08.18.04.26.34.32.52.06.21.03.23.09.36.02.04.15.34.4.42.32.11.5-.25.99-.21.08,0,.35.03.48.21.13.18.06.39.02.67-.01.09-.15,1.31.43,1.85.18.17.37.21.38.38.01.19-.22.25-.31.55-.1.32.11.47,0,.63-.14.22-.52,0-1.16.17-.2.05-.63.17-.92.53-.22.27-.16.42-.38.55-.26.16-.66.13-.9-.06-.13-.1-.09-.15-.21-.21-.22-.12-.48-.01-.84.13-.17.07-.23.11-.27.17-.11.15-.03.26-.1.36-.13.16-.43-.07-.9,0-.31.05-.3.16-.63.19-.16.01-.41.04-.63-.1-.18-.11-.16-.22-.34-.29-.2-.09-.3.02-.5-.02-.35-.06-.56-.46-.7-.73-.15-.28-.1-.33-.25-.74-.29-.78-.53-.82-.49-1.13.06-.43.52-.45.59-.95.05-.38-.18-.56-.04-.8.15-.25.47-.14.59-.36.17-.3-.35-.65-.23-.99.16-.47,1.35-.33,1.47-.8Z"/><path class="cls-12" d="m240.34,81.87c.04-.17-.1-.26-.02-.5.06-.21.25-.42.44-.42.19,0,.23.22.44.38.4.3.74-.12,1.49,0,.68.11,1.09.57,1.47.35.07-.04.15-.11.25-.08.18.04.26.34.32.52.06.21.03.23.09.36.02.04.15.34.4.42.32.11.5-.25.99-.21.08,0,.35.03.48.21.13.18.06.39.02.67-.01.09-.15,1.31.43,1.85.18.17.37.21.38.38.01.19-.22.25-.31.55-.1.32.11.47,0,.63-.14.22-.52,0-1.16.17-.2.05-.63.17-.92.53-.22.27-.16.42-.38.55-.26.16-.66.13-.9-.06-.13-.1-.09-.15-.21-.21-.22-.12-.48-.01-.84.13-.17.07-.23.11-.27.17-.11.15-.03.26-.1.36-.13.16-.43-.07-.9,0-.31.05-.3.16-.63.19-.16.01-.41.04-.63-.1-.18-.11-.16-.22-.34-.29-.2-.09-.3.02-.5-.02-.35-.06-.56-.46-.7-.73-.15-.28-.1-.33-.25-.74-.29-.78-.53-.82-.49-1.13.06-.43.52-.45.59-.95.05-.38-.18-.56-.04-.8.15-.25.47-.14.59-.36.17-.3-.35-.65-.23-.99.16-.47,1.35-.33,1.47-.8Z"/><path class="cls-17" d="m242.28,87.04c-.11-.02-.51-.1-.81-.46-.33-.39-.3-.85-.29-.99.07-.72.71-1.11.9-1.22.21-.13.82-.5,1.44-.24.52.21.72.72.8.91.09.22.27.69.05,1.19-.24.54-.77.71-.87.74"/><path class="cls-10" d="m242.28,87.04c-.11-.02-.51-.1-.81-.46-.33-.39-.3-.85-.29-.99.07-.72.71-1.11.9-1.22.21-.13.82-.5,1.44-.24.52.21.72.72.8.91.09.22.27.69.05,1.19-.24.54-.77.71-.87.74"/><path class="cls-8" d="m241.99,85.12c-.07.05-.29.22-.38.53-.15.51.22.96.3,1.05.09.11.4.49.91.5.54.01,1.02-.42,1.15-.93.01-.05.14-.59-.19-1.01-.43-.54-1.31-.5-1.79-.14Z"/><path class="cls-13" d="m241.99,85.12c-.07.05-.29.22-.38.53-.15.51.22.96.3,1.05.09.11.4.49.91.5.54.01,1.02-.42,1.15-.93.01-.05.14-.59-.19-1.01-.43-.54-1.31-.5-1.79-.14Z"/><path class="cls-14" d="m158.84,97.68c-.34-.16-.76.36-1.65.79-.33.16-.58.23-.65.46-.05.14.02.2.02.39,0,.41-.33.6-.56,1.02-.09.16-.27.55-.21.98.08.55.5.79.41.96-.07.13-.36-.02-.93-.03-.42,0-1.08-.05-1.23.24-.08.16.02.36-.08.41-.08.05-.18-.09-.34-.06-.14.02-.21.14-.28.22-.24.29-.5.25-.72.41-.6.42-.32,1.77-.56,1.8-.07,0-.09-.1-.25-.15-.2-.07-.4.01-.48.05-.48.2-.59.68-1.13,1.5-.44.67-.57.79-.58,1.1,0,.24.07.63.31.75.17.08.27-.03.4.06.2.12.08.43.22.98.08.32.14.57.35.69.27.16.48-.07.73.09.25.16.13.49.36.74.09.1.28.23,1.02.19.6-.04,1.26-.08,2-.49.6-.33.3-.37,1.38-1.19.18-.14.63-.47.56-.7-.03-.1-.16-.16-.14-.2.02-.05.25.04.42.04.47,0,.55-.79,1.15-1.31.63-.54,1.07-.16,1.57-.71.34-.38.54-1.02.34-1.47-.12-.28-.31-.29-.39-.57-.04-.14-.08-.45.31-1.07.52-.82.89-.73,1.23-1.29.41-.68.36-1.62.15-2.22-.16-.47-.43-.77-.56-1.53-.04-.23-.03-.3-.1-.44-.33-.71-1.49-.94-1.7-.67-.07.09-.04.24-.15.29-.08.04-.18-.02-.23-.04Z"/><path class="cls-14" d="m161.57,97.61c.12-.02.21-.22.21-.39,0-.12-.04-.27-.3-.52,0,0-.72-.7-1.77-.66-.03,0-.11,0-.2.05-.23.13-.32.5-.23.57.05.03.12-.02.24-.06.36-.13.71,0,.91.07.39.15.65.42.74.52.22.25.29.43.41.42Z"/><path class="cls-14" d="m161.27,98.24c.08,0,.18-.17.17-.34,0-.11-.06-.23-.39-.53-.29-.27-.44-.4-.57-.46-.15-.07-.41-.08-.94-.11-.28-.01-.4-.01-.49.08-.11.12-.13.34-.05.38.06.04.15-.06.28-.12.29-.14.61-.04.89.05.22.07.68.22.9.62.12.21.12.41.2.41Z"/><text class="cls-2" transform="translate(42.63 57.24)"><tspan class="cls-4" x="0" y="0">2</tspan><tspan class="cls-1" x="8.47" y="0">0</tspan><tspan class="cls-3" x="18.84" y="0">1</tspan><tspan class="cls-5" x="26.7" y="0">7</tspan></text><text class="cls-2" transform="translate(177.83 57.02)"><tspan class="cls-4" x="0" y="0">2</tspan><tspan class="cls-1" x="8.47" y="0">0</tspan><tspan class="cls-3" x="18.84" y="0">3</tspan><tspan x="27.41" y="0">0</tspan></text><path class="cls-14" d="m244.33,80.11c.28.25.83-.12,1.81-.27.36-.05.62-.05.76-.25.09-.12.04-.2.09-.38.12-.4.49-.48.84-.81.13-.13.42-.45.49-.88.09-.55-.25-.9-.11-1.04.11-.1.34.12.88.3.4.13,1.02.37,1.24.14.12-.13.09-.35.2-.37.09-.02.15.14.3.16.14.02.24-.07.34-.13.32-.2.55-.09.81-.18.7-.22.83-1.6,1.07-1.56.07.01.06.12.19.22.17.13.38.1.47.1.52-.05.77-.47,1.53-1.1.62-.51.78-.59.88-.88.08-.23.12-.62-.08-.81-.14-.13-.26-.05-.37-.17-.15-.18.05-.43.08-1,.02-.33.03-.58-.13-.76-.21-.23-.48-.08-.67-.3-.19-.23.02-.51-.13-.81-.06-.12-.2-.3-.92-.48-.58-.14-1.22-.3-2.06-.13-.67.14-.4.27-1.67.73-.21.08-.74.26-.74.5,0,.11.11.2.08.23-.04.04-.22-.12-.39-.16-.45-.13-.75.6-1.49.92-.76.33-1.07-.17-1.71.22-.43.26-.81.81-.76,1.31.03.3.21.36.2.66,0,.15-.05.46-.61.93-.74.63-1.07.44-1.56.88-.6.53-.82,1.44-.8,2.07.02.5.18.86.09,1.62-.03.23-.06.3-.04.45.11.77,1.15,1.33,1.43,1.14.09-.06.11-.22.23-.23.09-.01.17.07.2.11Z"/><path class="cls-14" d="m241.71,79.36c-.12-.02-.27.15-.32.31-.03.11-.04.27.14.59,0,0,.49.88,1.5,1.15.03,0,.11.03.2,0,.26-.06.45-.38.39-.48-.03-.05-.12-.02-.24,0-.38.02-.68-.21-.84-.34-.33-.26-.5-.59-.56-.72-.14-.3-.15-.5-.27-.52Z"/><path class="cls-14" d="m242.18,78.86c-.07-.03-.22.11-.26.27-.03.11,0,.23.22.62.2.34.3.51.41.61.12.11.37.2.87.38.27.1.38.13.49.07.14-.08.22-.29.16-.35-.05-.05-.16.01-.3.03-.32.05-.6-.14-.84-.31-.19-.13-.58-.41-.67-.86-.05-.24,0-.43-.07-.46Z"/><path class="cls-18" d="m237.69,75.82c.6-.04,1.21-.04,1.81-.11.61-.08.89-.15,1.21.03.24.13.29.29.57.36.29.07.37-.08.73-.04.37.04.48.22.67.14.16-.07.24-.26.27-.41.07-.37-.3-.58-.67-1.17-.16-.25-.49-.78-.59-1.48-.06-.38-.06-.87-.38-1.1-.07-.05-.12-.07-.18-.14-.16-.23-.07-.64.17-.86.15-.14.23-.07.41-.21.29-.21.46-.64.36-.96-.06-.2-.17-.18-.21-.35-.1-.42.48-1.08.92-1.03.2.02.32.19.55.14.14-.03.2-.1.29-.16.35-.24.69.09,1.4.09.63,0,.88-.25,1.24-.04.11.06.18.14.23.21-.02.04-.03.11-.08.16-.14.15-.46.1-.59.19-.11.07-.06.11-.28.34-.05.05-.15.16-.23.22-.31.25-.76.19-.86.18-.45-.06-.76-.31-.86-.4-.41-.36-.43-.72-.74-.76-.15-.02-.27.04-.38.11-.23.12-.52.4-.48.67.03.21.22.22.26.46.04.25-.13.41-.06.5.07.08.25,0,.54-.08.6-.15,1.17-.08,1.53-.04.24.03.25.05.38.04.11,0,.43-.03.94-.39.12-.09,1.07-.78,1.02-1.13.03-.09-.17-.86-.75-1.18-.45-.24-.87-.08-1.12-.42-.05-.07-.14-.22-.33-.31-.12-.06-.2-.05-.29-.07-.3-.08-.45-.44-.51-.56-.2-.36-.79-.6-2.85-.71-1.29-.06-1.13.03-1.88-.03-2-.17-3.25-.84-3.98-.27-.07.06-.24.2-.41.37-.35.36-.49.6-.73.93-.38.51-.39.4-1.01,1.15-.42.51-.63.77-.71.98-.15.43-.09.73-.37.95-.16.13-.35.15-.4.32-.04.12.02.19.06.36.08.34-.08.49-.13.95-.02.22,0,.37.03.65,0,.07.1.8.35,1.27.43.82,1.49,1.15,2.88,1.58.29.09.61.17,1.01.4.49.28.54.45.9.59.23.09.39.09,1.35.03Zm2.86-.69c-.09-.21-.14-.56.03-.69.13-.11.35-.03.77.12.28.1.51.18.75.38.33.26.6.64.53.74-.06.08-.29-.12-.73-.11-.29.01-.31.1-.53.09-.3-.01-.66-.19-.81-.53Z"/><path class="cls-10" d="m149.65,60.5c-.27-1.73-.41-2.6-.5-3.04-.85-4.2-.32-4.84-1.24-6.4-.34-.58-.69-.97-1.16-1.97-.27-.56-.43-1.02-.89-1.66-.52-.72-.87-.92-1.18-.99-.35-.08-.63,0-.87.06-1.96.48-3.24-.07-3.9.65-.28.3-.44.56-.44.56-.27.43-.28.67-.42.69-.25.04-.33-.69-.82-.84-.27-.08-.33.11-.99.23-.6.11-.92.01-1,.19-.08.17.16.38.05.7-.04.1-.09.17-.11.19-.78.99-.83,3.49-.83,3.49-.06,3.07.73,5.95.81,6.25.43,1.53.69,1.83.8,3,.14,1.41-.13,1.97.33,2.77.63,1.09,1.95,1.39,2.18,1.45,1.13.26,1.59-.18,3.68-.64,2.62-.57,2.9-.08,4.24-.76.35-.18,2.15-1.09,2.38-2.64.04-.25.02-.4-.12-1.26Zm-5.1-11.73c-.08.29-.69.38-1.88.49-1.39.13-1.73.11-1.96-.13-.16-.17-.27-.46-.17-.62.1-.17.39-.1.92-.1.16,0,.96,0,1.76-.19.56-.13.93-.31,1.13-.13.07.06.15.19.19.34.04.15.02.29,0,.35Z"/><path class="cls-14" d="m158.24,62.16c.31-.22.06-.84.13-1.82.03-.37.09-.61-.08-.79-.1-.11-.19-.08-.35-.17-.36-.2-.36-.59-.61-.99-.1-.16-.34-.51-.75-.67-.51-.21-.94.05-1.03-.12-.08-.13.19-.3.48-.8.21-.36.58-.91.4-1.18-.1-.15-.32-.16-.32-.27,0-.1.16-.11.22-.26.05-.13-.01-.25-.05-.36-.13-.35.03-.56,0-.83-.07-.73-1.38-1.16-1.29-1.38.03-.06.13-.03.25-.14.16-.14.19-.35.2-.44.06-.52-.3-.85-.75-1.73-.37-.72-.41-.89-.67-1.05-.21-.12-.58-.25-.81-.1-.16.1-.11.25-.25.32-.2.11-.41-.14-.96-.29-.31-.09-.56-.16-.77-.04-.27.15-.18.45-.44.59-.27.14-.49-.13-.82-.05-.13.03-.34.13-.66.79-.26.54-.56,1.13-.57,1.98-.01.69.18.44.35,1.79.03.22.1.78.33.83.1.02.22-.06.24-.03.03.05-.16.19-.24.34-.23.42.42.87.57,1.65.16.81-.39,1.01-.15,1.72.16.48.62.97,1.11,1.02.3.03.4-.12.68-.05.14.04.43.15.77.8.45.86.2,1.14.52,1.71.39.7,1.23,1.11,1.85,1.23.49.09.88,0,1.6.27.22.08.28.12.43.13.78.06,1.55-.83,1.42-1.15-.04-.1-.19-.16-.17-.27,0-.09.11-.15.15-.18Z"/><path class="cls-14" d="m156.94,64.55c-.05.11.09.29.24.38.1.06.26.1.6,0,0,0,.96-.28,1.45-1.22.02-.03.05-.1.05-.2,0-.27-.28-.52-.38-.48-.05.02-.04.11-.06.24-.06.37-.36.62-.51.75-.32.27-.68.36-.82.39-.32.07-.52.04-.57.15Z"/><path class="cls-14" d="m156.55,63.98c-.04.07.06.24.21.32.1.05.23.06.65-.08.38-.12.57-.18.68-.27.13-.1.28-.32.56-.76.15-.24.21-.34.17-.46-.04-.16-.23-.28-.31-.24-.06.03-.02.16-.03.3-.02.32-.27.55-.49.75-.17.16-.53.48-.99.47-.24,0-.42-.1-.46-.03Z"/><path class="cls-18" d="m180.75,77.84c-1.15-1.33-1.72-1.99-2.03-2.32-2.94-3.12-2.82-3.94-4.42-4.79-.59-.31-1.09-.46-2.02-1.06-.52-.34-.91-.64-1.63-.94-.82-.34-1.23-.32-1.53-.23-.34.11-.54.33-.71.51-1.42,1.44-2.8,1.65-2.98,2.6-.08.41-.08.7-.08.7,0,.51.12.71,0,.8-.19.16-.64-.41-1.14-.28-.27.07-.23.27-.72.72-.46.41-.77.49-.75.69.02.19.34.24.42.57.02.11.01.19,0,.22-.15,1.25,1.13,3.4,1.13,3.4,1.56,2.64,3.75,4.68,3.99,4.89,1.18,1.08,1.55,1.19,2.26,2.12.86,1.13.93,1.75,1.73,2.18,1.11.59,2.39.16,2.61.08,1.1-.37,1.26-1,2.79-2.48,1.93-1.87,2.42-1.59,3.21-2.88.21-.34,1.26-2.06.63-3.5-.1-.23-.2-.35-.76-1.01Zm-10.51-7.28c.09.28-.39.69-1.34,1.41-1.11.84-1.41,1.01-1.73.92-.23-.06-.48-.25-.48-.44,0-.2.28-.3.73-.57.13-.08.82-.51,1.39-1.09.4-.41.62-.75.9-.7.09.02.23.08.34.19.12.11.17.24.19.29Z"/><path class="cls-10" d="m183.63,79.71c1.07,1.38,1.61,2.08,1.91,2.43,2.77,3.27,2.61,4.08,4.17,5.02.57.34,1.07.52,1.97,1.16.5.36.87.69,1.58,1.03.8.38,1.21.39,1.51.31.35-.09.55-.3.74-.47,1.49-1.37,2.88-1.5,3.11-2.44.1-.4.11-.7.11-.7.03-.51-.08-.72.03-.8.2-.15.62.44,1.13.34.28-.06.24-.26.76-.68.48-.38.8-.45.78-.65-.01-.19-.33-.26-.39-.59-.02-.11,0-.19,0-.22.21-1.24-.95-3.46-.95-3.46-1.42-2.72-3.5-4.87-3.72-5.09-1.12-1.14-1.48-1.27-2.15-2.24-.8-1.17-.83-1.8-1.62-2.27-1.08-.65-2.38-.28-2.61-.22-1.12.32-1.31.93-2.91,2.33-2.02,1.76-2.5,1.46-3.35,2.71-.22.32-1.37,1.99-.82,3.46.09.23.18.36.71,1.04Zm10.12,7.82c-.07-.29.42-.67,1.41-1.33,1.16-.78,1.46-.93,1.78-.83.23.07.46.27.45.46-.01.2-.29.28-.76.53-.14.08-.84.47-1.45,1.02-.42.39-.66.72-.93.66-.09-.02-.22-.09-.33-.21-.11-.12-.16-.25-.18-.3Z"/><path class="cls-12" d="m203.92,81.59c.18,0,.23-.15.49-.14.22.01.47.14.51.33.04.18-.16.27-.26.52-.19.46.29.69.35,1.45.05.69-.3,1.19,0,1.51.05.06.14.12.14.23,0,.18-.27.33-.44.43-.19.11-.22.08-.33.17-.04.03-.29.23-.31.49-.03.34.36.43.44.91.01.08.06.34-.09.52-.14.17-.36.15-.65.18-.09.01-1.31.16-1.7.85-.12.22-.12.41-.28.46-.18.06-.3-.16-.61-.18-.33-.02-.43.21-.61.15-.25-.08-.12-.51-.44-1.08-.1-.18-.31-.57-.73-.77-.31-.15-.44-.06-.62-.24-.21-.22-.28-.61-.15-.89.07-.15.12-.13.15-.25.06-.24-.1-.47-.32-.79-.1-.15-.16-.2-.23-.23-.17-.07-.26.04-.37-.02-.18-.09-.03-.43-.21-.88-.12-.29-.23-.25-.33-.57-.05-.15-.13-.39-.05-.64.07-.2.17-.21.21-.4.04-.22-.09-.29-.1-.5-.02-.35.32-.65.55-.85.24-.21.29-.18.65-.42.69-.47.67-.7.99-.74.44-.05.56.4,1.06.35.38-.04.51-.31.77-.23.27.08.25.42.49.49.33.09.55-.49.91-.46.5.05.64,1.24,1.13,1.24Z"/><path class="cls-10" d="m199.35,84.69c0-.11-.02-.52.26-.89.31-.41.75-.49.89-.51.72-.1,1.24.43,1.4.58.17.17.67.68.57,1.34-.08.55-.53.87-.7.99-.19.14-.6.43-1.14.33-.58-.11-.87-.59-.92-.67"/><path class="cls-13" d="m201.14,83.96c-.07-.05-.29-.23-.6-.24-.53-.02-.88.44-.95.54-.08.11-.38.51-.28,1,.12.53.65.89,1.17.9.05,0,.6,0,.94-.42.42-.54.18-1.39-.28-1.77Z"/><path class="cls-14" d="m184.6,82.26c-.3-.22-.82.21-1.77.46-.36.09-.61.11-.73.33-.07.13-.02.2-.05.39-.08.41-.44.53-.74.9-.12.14-.37.49-.4.92-.03.55.34.87.22,1.02-.1.11-.35-.09-.91-.2-.41-.08-1.05-.26-1.25,0-.11.14-.05.35-.16.39-.09.03-.16-.12-.32-.13-.14,0-.24.09-.32.16-.29.23-.54.15-.79.26-.67.3-.66,1.68-.89,1.66-.07,0-.07-.11-.21-.2-.18-.11-.39-.06-.48-.05-.51.11-.71.55-1.4,1.26-.56.58-.71.67-.78.97-.05.24-.05.63.16.8.15.11.27.02.38.13.17.16,0,.44.03,1,.02.33.03.58.21.74.23.21.49.03.7.23.22.21.03.51.21.79.07.12.23.28.96.38.59.08,1.25.17,2.06-.09.65-.21.36-.31,1.58-.91.2-.1.71-.34.68-.58-.01-.11-.13-.18-.1-.22.03-.05.23.09.4.12.47.08.69-.67,1.38-1.07.72-.41,1.08.05,1.68-.4.4-.31.72-.89.61-1.38-.07-.3-.25-.34-.27-.63-.01-.15,0-.46.51-.99.67-.71,1.01-.55,1.45-1.04.54-.59.66-1.52.57-2.15-.07-.5-.27-.84-.26-1.61,0-.24.03-.3-.01-.45-.19-.76-1.28-1.2-1.54-.98-.08.07-.09.23-.2.25-.09.02-.17-.05-.21-.08Z"/><path class="cls-14" d="m187.29,82.72c.12,0,.25-.18.28-.35.02-.11,0-.27-.2-.57,0,0-.58-.82-1.62-.98-.03,0-.11-.02-.2.01-.25.08-.41.43-.33.51.04.04.12,0,.24-.02.38-.06.7.14.88.25.36.22.56.53.63.65.17.28.2.48.32.49Z"/><path class="cls-14" d="m186.88,83.27c.08.02.21-.13.23-.3.02-.11-.02-.23-.28-.59-.24-.32-.35-.48-.47-.56-.13-.1-.39-.16-.9-.28-.27-.07-.39-.09-.49-.02-.13.09-.19.31-.13.37.05.05.16-.03.29-.07.31-.08.61.08.87.22.2.11.62.35.76.78.07.23.04.43.12.45Z"/><path class="cls-7" d="m168.85,66.08c-.11.08-.35-.09-.36-.1-.28-.21-.31-.52-.44-.87-.27-.73-.91-1.44-1.35-1.41-.06,0-.21.03-.4-.02-.17-.05-.28-.13-.32-.15-.36-.24-.77-.12-1.59-.35-.55-.15-.71-.3-.98-.2-.15.06-.25.16-.44.15-.2-.01-.32-.15-.42-.23-.37-.31-.66-.15-1.41-.37-.76-.22-.76-.48-1.05-.42-.6.13-.84,1.31-.97,1.93-.13.63-.09.87-.15,1.46-.21,2.15-1.15,3.14-.68,3.65.12.12.39.16.94.25.58.09.87.04,1.62.06.1,0,.62.02,1.15.09,1.23.15,1.35.4,2.37.51.63.06,1.13.11,1.71-.12.33-.13.87-.34,1.22-.86.24-.35.3-.71.64-.82.16-.05.38-.05.44.04.05.08-.03.18.03.25.05.06.15.06.22.03.1-.04.08-.14.16-.19.11-.07.24.02.47.07.14.04.41.11.6.03.23-.09.3-.35.44-.82.14-.47.25-.85.05-1.08-.09-.1-.23-.16-.32-.21-.08-.04-.21-.1-.4-.12-.19-.02-.28.01-.36-.06-.02-.02-.08-.09-.09-.18,0-.05,0-.07-.01-.1-.04-.06-.14-.1-.21-.07-.09.04-.04.17-.12.23Z"/><path class="cls-12" d="m196.27,73.94c0-.18-.14-.24-.12-.49.02-.22.16-.46.35-.5.19-.03.27.17.51.29.45.21.71-.26,1.46-.29.69-.02,1.18.35,1.51.07.06-.05.13-.14.23-.13.18,0,.32.28.41.45.1.19.07.22.15.33.03.04.21.3.47.34.34.05.45-.34.93-.4.08,0,.35-.04.52.11.16.15.13.37.15.66,0,.09.1,1.31.77,1.73.21.13.4.14.44.3.05.19-.17.29-.2.6-.04.33.19.44.12.62-.09.24-.51.1-1.1.39-.18.09-.58.28-.81.69-.17.3-.08.44-.27.61-.23.2-.62.25-.9.11-.14-.07-.12-.13-.25-.17-.24-.07-.47.08-.8.29-.15.1-.2.15-.24.22-.08.16.03.26-.03.37-.1.18-.44.01-.89.18-.29.11-.26.22-.58.31-.15.04-.39.11-.64.02-.2-.08-.2-.18-.39-.22-.21-.05-.29.08-.5.08-.35,0-.63-.35-.82-.59-.2-.25-.16-.3-.39-.67-.44-.71-.67-.7-.69-1.02-.03-.44.42-.54.39-1.04-.02-.38-.29-.52-.2-.78.1-.27.43-.23.51-.46.11-.33-.47-.57-.42-.92.07-.5,1.26-.58,1.29-1.07Z"/><path class="cls-10" d="m199.16,78.65c-.11,0-.52,0-.88-.3-.39-.32-.46-.77-.47-.91-.07-.72.49-1.22.65-1.37.18-.16.71-.64,1.37-.51.55.11.84.57.96.74.13.2.4.62.28,1.15-.13.57-.62.84-.71.89"/><path class="cls-13" d="m198.51,76.82c-.06.06-.24.28-.27.59-.04.53.4.9.49.97.11.09.49.41.98.32.53-.09.92-.61.96-1.13,0-.05.03-.6-.38-.95-.52-.45-1.38-.24-1.78.2Z"/><path class="cls-11" d="m202.41,70.59c-.02.34-.2.57-.28.68-.49.73.21,1.48.36,3.54.06.8,0,1.18.31,1.62.15.2.21.19.88.71.86.68.91.82,1.26.94.46.17.64.02,1.24.05,1.16.06,1.22.67,2.07.72.61.03,1.43-.42,3.07-1.33.23-.13.65-.37,1.17-.32.32.03.35.14.6.12.34-.02.44-.22,1.21-.83.48-.38.6-.43.63-.61.04-.22-.1-.32-.22-.82-.08-.36-.01-.34-.08-.58-.01-.04-.25-.86-.82-1.03-.1-.03-.23-.05-.41-.15-.11-.06-.24-.13-.28-.26-.04-.13.04-.24.07-.34.09-.35-.42-.92-.94-1.11-.74-.27-1.48.32-1.85.6-.44.33-.69.7-.84.93-.3.45-.44.84-.69,1.52-.31.85-.38,1.26-.78,1.48-.04.02-.22.12-.47.11-.44,0-.91-.31-.97-.66-.04-.25.14-.43.3-.65.53-.76.65-1.81.46-2.5-.04-.16-.42-.62-1.18-1.54-.45-.54-.81-.95-1.19-1.04-.03,0-.15-.04-.27-.13-.17-.14-.31-.41-.22-.6.07-.16.26-.14.27-.27.01-.1-.09-.13-.19-.36-.06-.14-.03-.15-.08-.23-.12-.2-.31-.16-.37-.31-.06-.15.11-.23.06-.4-.04-.14-.16-.14-.23-.32-.04-.12-.01-.16-.05-.21-.1-.14-.47-.01-.74.07-1.07.31-1.43.2-1.61.53-.04.08-.11.24-.08.43.03.21.16.38.19.43.09.12.13.11.14.18.04.18-.19.27-.17.48.01.15.15.17.15.33,0,.16-.12.24-.08.32.04.08.2,0,.34.07.23.1.31.49.29.76Z"/><path class="cls-14" d="m222.21,83.96c.14-.35-.4-.74-.86-1.61-.17-.33-.25-.57-.49-.63-.15-.04-.2.03-.39.04-.41.02-.61-.3-1.05-.51-.17-.08-.56-.25-.99-.17-.54.1-.77.54-.94.45-.13-.07,0-.36-.02-.93-.01-.42,0-1.08-.29-1.22-.16-.07-.35.04-.41-.06-.05-.08.08-.18.05-.34-.02-.14-.15-.21-.23-.27-.3-.23-.27-.49-.44-.71-.45-.59-1.78-.24-1.82-.48-.01-.07.09-.09.14-.25.06-.2-.03-.4-.07-.48-.22-.48-.7-.56-1.55-1.06-.69-.41-.82-.54-1.13-.53-.24,0-.62.09-.74.35-.08.17.04.27-.04.4-.11.2-.42.1-.97.26-.31.09-.56.17-.67.38-.15.27.09.48-.06.73-.15.26-.48.15-.72.39-.1.1-.22.29-.14,1.02.06.59.13,1.25.58,1.98.36.59.39.28,1.25,1.32.14.17.5.61.72.52.1-.04.15-.17.19-.15.05.02-.03.25-.02.42.03.47.82.51,1.37,1.09.57.6.21,1.07.78,1.53.39.32,1.04.49,1.49.27.27-.13.27-.32.55-.41.14-.05.45-.1,1.08.27.84.49.77.86,1.35,1.17.7.38,1.63.28,2.22.05.47-.18.75-.46,1.5-.63.23-.05.3-.05.44-.12.69-.36.87-1.53.59-1.72-.09-.06-.24-.03-.29-.14-.04-.08.01-.18.03-.23Z"/><path class="cls-14" d="m222.39,86.68c.02.12.23.2.4.19.12,0,.27-.06.51-.33,0,0,.66-.75.58-1.8,0-.03-.01-.11-.06-.19-.14-.23-.51-.3-.58-.2-.03.05.03.12.07.23.15.35.03.71-.03.91-.13.4-.39.66-.49.77-.23.23-.42.31-.4.43Z"/><path class="cls-14" d="m221.76,86.41c0,.08.18.17.34.16.11,0,.22-.07.51-.41.25-.3.38-.46.44-.59.06-.15.06-.42.07-.94,0-.28,0-.4-.1-.48-.12-.11-.34-.11-.39-.04-.03.06.06.14.13.27.15.29.06.61-.01.89-.06.23-.19.69-.58.93-.21.13-.4.14-.4.22Z"/><path class="cls-7" d="m222.29,69.02c0,.13-.26.25-.27.26-.32.14-.61,0-.97-.08-.77-.15-1.7.04-1.9.43-.03.06-.08.2-.23.33-.13.12-.25.18-.29.2-.39.18-.5.6-1.12,1.18-.41.4-.62.45-.67.74-.03.16,0,.3-.1.45-.11.16-.29.2-.41.24-.46.16-.47.49-1.04,1.02-.58.53-.8.41-.9.69-.2.59.69,1.4,1.16,1.83.47.44.7.52,1.17.88,1.73,1.29,2.1,2.61,2.78,2.46.17-.04.34-.25.7-.68.37-.45.48-.73.89-1.35.06-.09.34-.52.66-.94.76-.98,1.04-.95,1.66-1.77.38-.51.67-.91.78-1.53.06-.35.15-.92-.11-1.49-.18-.39-.45-.62-.37-.97.04-.16.15-.35.27-.36.09,0,.14.12.23.11.07-.01.13-.1.14-.18.01-.11-.07-.14-.08-.24,0-.13.14-.2.3-.36.1-.1.3-.29.34-.5.04-.24-.15-.44-.48-.8-.33-.36-.6-.65-.9-.6-.13.02-.26.11-.34.17-.07.05-.19.13-.31.28-.12.15-.13.25-.23.27-.03,0-.11.02-.2-.01-.05-.02-.06-.04-.1-.04-.07,0-.16.07-.17.15,0,.1.13.13.13.22Z"/><path class="cls-10" d="m247.61,60.22c-.27-1.73-.41-2.6-.5-3.04-.85-4.2-.32-4.84-1.24-6.4-.34-.58-.69-.97-1.16-1.97-.27-.56-.43-1.02-.89-1.66-.52-.72-.87-.92-1.18-.99-.35-.08-.63,0-.87.06-1.96.48-3.24-.07-3.9.65-.28.3-.44.56-.44.56-.27.43-.28.67-.42.69-.25.04-.33-.69-.82-.84-.27-.08-.33.11-.99.23-.6.11-.92.01-1,.19-.08.17.16.38.05.7-.04.1-.09.17-.11.19-.78.99-.83,3.49-.83,3.49-.06,3.07.73,5.95.81,6.25.43,1.53.69,1.83.8,3,.14,1.41-.13,1.97.33,2.77.63,1.09,1.95,1.39,2.18,1.45,1.13.26,1.59-.18,3.68-.64,2.62-.57,2.9-.08,4.24-.76.35-.18,2.15-1.09,2.38-2.64.04-.25.02-.4-.12-1.26Zm-5.1-11.73c-.08.29-.69.38-1.88.49-1.39.13-1.73.11-1.96-.13-.16-.17-.27-.46-.17-.62.1-.17.39-.1.92-.1.16,0,.96,0,1.76-.19.56-.13.93-.31,1.13-.13.07.06.15.19.19.34.04.15.02.29,0,.35Z"/><path class="cls-12" d="m236.84,58.84c.18,0,.23-.15.49-.14.22.01.47.14.51.33.04.18-.16.27-.26.52-.19.46.29.69.35,1.45.05.69-.3,1.19,0,1.51.05.06.14.12.14.23,0,.18-.27.33-.44.43-.19.11-.22.08-.33.17-.04.03-.29.23-.31.49-.03.34.36.43.44.91.01.08.06.34-.09.52-.14.17-.36.15-.65.18-.09.01-1.31.16-1.7.85-.12.22-.12.41-.28.46-.18.06-.3-.16-.61-.18-.33-.02-.43.21-.61.15-.25-.08-.12-.51-.44-1.08-.1-.18-.31-.57-.73-.77-.31-.15-.44-.06-.62-.24-.21-.22-.28-.61-.15-.89.07-.15.12-.13.15-.25.06-.24-.1-.47-.32-.79-.1-.15-.16-.2-.23-.23-.17-.07-.26.04-.37-.02-.18-.09-.03-.43-.21-.88-.12-.29-.23-.25-.33-.57-.05-.15-.13-.39-.05-.64.07-.2.17-.21.21-.4.04-.22-.09-.29-.1-.5-.02-.35.32-.65.55-.85.24-.21.29-.18.65-.42.69-.47.67-.7.99-.74.44-.05.56.4,1.06.35.38-.04.51-.31.77-.23.27.08.25.42.49.49.33.09.55-.49.91-.46.5.05.64,1.24,1.13,1.24Z"/><path class="cls-10" d="m232.27,61.94c0-.11-.02-.52.26-.89.31-.41.75-.49.89-.51.72-.1,1.24.43,1.4.58.17.17.67.68.57,1.34-.08.55-.53.87-.7.99-.19.14-.6.43-1.14.33-.58-.11-.87-.59-.92-.67"/><path class="cls-13" d="m234.06,61.21c-.07-.05-.29-.23-.6-.24-.53-.02-.88.44-.95.54-.08.11-.38.51-.28,1,.12.53.65.89,1.17.9.05,0,.6,0,.94-.42.42-.54.18-1.39-.28-1.77Z"/><path class="cls-12" d="m249.98,47.01c.18,0,.23-.15.49-.14.22.01.47.14.51.33.04.18-.16.27-.26.52-.19.46.29.69.35,1.45.05.69-.3,1.19,0,1.51.05.06.14.12.14.23,0,.18-.27.33-.44.43-.19.11-.22.08-.33.17-.04.03-.29.23-.31.49-.03.34.36.43.44.91.01.08.06.34-.09.52-.14.17-.36.15-.65.18-.09.01-1.31.16-1.7.85-.12.22-.12.41-.28.46-.18.06-.3-.16-.61-.18-.33-.02-.43.21-.61.15-.25-.08-.12-.51-.44-1.08-.1-.18-.31-.57-.73-.77-.31-.15-.44-.06-.62-.24-.21-.22-.28-.61-.15-.89.07-.15.12-.13.15-.25.06-.24-.1-.47-.32-.79-.1-.15-.16-.2-.23-.23-.17-.07-.26.04-.37-.02-.18-.09-.03-.43-.21-.88-.12-.29-.23-.25-.33-.57-.05-.15-.13-.39-.05-.64.07-.2.17-.21.21-.4.04-.22-.09-.29-.1-.5-.02-.35.32-.65.55-.85.24-.21.29-.18.65-.42.69-.47.67-.7.99-.74.44-.05.56.4,1.06.35.38-.04.51-.31.77-.23.27.08.25.42.49.49.33.09.55-.49.91-.46.5.05.64,1.24,1.13,1.24Z"/><path class="cls-10" d="m245.41,50.11c0-.11-.02-.52.26-.89.31-.41.75-.49.89-.51.72-.1,1.24.43,1.4.58.17.17.67.68.57,1.34-.08.55-.53.87-.7.99-.19.14-.6.43-1.14.33-.58-.11-.87-.59-.92-.67"/><path class="cls-13" d="m247.2,49.38c-.07-.05-.29-.23-.6-.24-.53-.02-.88.44-.95.54-.08.11-.38.51-.28,1,.12.53.65.89,1.17.9.05,0,.6,0,.94-.42.42-.54.18-1.39-.28-1.77Z"/><path class="cls-14" d="m256.72,66.06c.31-.22.06-.84.13-1.82.03-.37.09-.61-.08-.79-.1-.11-.19-.08-.35-.17-.36-.2-.36-.59-.61-.99-.1-.16-.34-.51-.75-.67-.51-.21-.94.05-1.03-.12-.08-.13.19-.3.48-.8.21-.36.58-.91.4-1.18-.1-.15-.32-.16-.32-.27,0-.1.16-.11.22-.26.05-.13-.01-.25-.05-.36-.13-.35.03-.56,0-.83-.07-.73-1.38-1.16-1.29-1.38.03-.06.13-.03.25-.14.16-.14.19-.35.2-.44.06-.52-.3-.85-.75-1.73-.37-.72-.41-.89-.67-1.05-.21-.12-.58-.25-.81-.1-.16.1-.11.25-.25.32-.2.11-.41-.14-.96-.29-.31-.09-.56-.16-.77-.04-.27.15-.18.45-.44.59-.27.14-.49-.13-.82-.05-.13.03-.34.13-.66.79-.26.54-.56,1.13-.57,1.98-.01.69.18.44.35,1.79.03.22.1.78.33.83.1.02.22-.06.24-.03.03.05-.16.19-.24.34-.23.42.42.87.57,1.65.16.81-.39,1.01-.15,1.72.16.48.62.97,1.11,1.02.3.03.4-.12.68-.05.14.04.43.15.77.8.45.86.2,1.14.52,1.71.39.7,1.23,1.11,1.85,1.23.49.09.88,0,1.6.27.22.08.28.12.43.13.78.06,1.55-.83,1.42-1.15-.04-.1-.19-.16-.17-.27,0-.09.11-.15.15-.18Z"/><path class="cls-14" d="m255.42,68.46c-.05.11.09.29.24.38.1.06.26.1.6,0,0,0,.96-.28,1.45-1.22.02-.03.05-.1.05-.2,0-.27-.28-.52-.38-.48-.05.02-.04.11-.06.24-.06.37-.36.62-.51.75-.32.27-.68.36-.82.39-.32.07-.52.04-.57.15Z"/><path class="cls-14" d="m255.03,67.89c-.04.07.06.24.21.32.1.05.23.06.65-.08.38-.12.57-.18.68-.27.13-.1.28-.32.56-.76.15-.24.21-.34.17-.46-.04-.16-.23-.28-.31-.24-.06.03-.02.16-.03.3-.02.32-.27.55-.49.75-.17.16-.53.48-.99.47-.24,0-.42-.1-.46-.03Z"/><path class="cls-7" d="m250.94,58.61c.03.13-.21.29-.23.3-.3.19-.6.09-.97.08-.78-.03-1.67.31-1.81.73-.02.06-.05.21-.17.37-.1.14-.22.21-.26.24-.36.24-.4.67-.91,1.35-.35.46-.54.55-.55.84,0,.16.05.29-.03.46-.09.18-.26.24-.37.3-.43.23-.39.56-.87,1.17-.49.62-.73.53-.78.82-.1.61.9,1.27,1.43,1.62.54.35.77.4,1.3.68,1.92.99,2.49,2.24,3.14,1.98.16-.06.3-.3.58-.78.3-.51.36-.79.66-1.48.04-.1.25-.57.5-1.03.59-1.09.87-1.1,1.35-2.02.29-.56.52-1.01.52-1.64,0-.35,0-.93-.35-1.45-.24-.36-.54-.54-.52-.89.01-.16.09-.37.2-.39.09-.02.15.1.25.07.07-.02.11-.12.11-.2,0-.11-.1-.13-.12-.22-.03-.13.11-.22.24-.41.08-.11.25-.34.25-.54,0-.24-.22-.41-.6-.71-.39-.3-.7-.55-.98-.45-.12.04-.24.15-.31.22-.06.06-.17.16-.26.32-.09.17-.09.26-.19.31-.03.01-.11.04-.2.02-.05-.01-.07-.03-.1-.02-.07,0-.15.1-.14.17,0,.1.14.11.17.2Z"/><path class="cls-6" d="m164.32,74.97c.2-.32-.28-.8-.6-1.73-.12-.35-.16-.6-.38-.7-.14-.06-.21,0-.39-.02-.41-.04-.56-.4-.95-.67-.15-.11-.52-.33-.95-.32-.55.01-.84.41-1,.3-.12-.09.06-.35.13-.92.05-.41.18-1.07-.1-1.25-.15-.1-.36-.02-.4-.12-.04-.09.11-.17.1-.33,0-.14-.11-.23-.19-.31-.26-.27-.19-.53-.32-.77-.35-.65-1.72-.52-1.73-.76,0-.07.11-.08.18-.23.09-.19.03-.4,0-.48-.15-.5-.61-.67-1.37-1.3-.62-.52-.72-.66-1.03-.7-.24-.03-.63,0-.78.23-.1.16,0,.27-.1.39-.15.18-.44.04-1,.11-.32.04-.58.08-.72.27-.19.25.01.49-.17.71-.19.23-.5.07-.77.27-.11.08-.26.26-.3.99-.03.6-.07,1.26.26,2.05.26.64.34.34,1.03,1.5.12.19.4.68.63.63.1-.02.17-.14.21-.12.05.03-.07.24-.09.41-.04.47.72.63,1.18,1.29.47.68.04,1.08.53,1.64.34.38.95.65,1.43.5.29-.09.32-.27.61-.32.15-.02.46-.03,1.03.43.76.61.63.97,1.15,1.37.63.49,1.57.54,2.18.4.49-.11.81-.34,1.58-.39.24-.01.3,0,.45-.05.74-.25,1.1-1.37.85-1.61-.08-.08-.23-.07-.27-.18-.03-.09.04-.18.07-.22Z"/><path class="cls-6" d="m164.07,77.68c0,.12.19.24.37.25.11.01.27-.01.55-.24,0,0,.77-.64.85-1.69,0-.03,0-.11-.03-.2-.1-.25-.46-.37-.54-.29-.04.04,0,.12.04.24.09.37-.08.71-.18.89-.19.38-.49.6-.6.68-.27.19-.46.24-.46.36Z"/><path class="cls-6" d="m163.49,77.31c-.01.08.15.2.31.21.11,0,.23-.03.57-.33.3-.26.45-.39.52-.52.09-.14.13-.4.21-.92.05-.28.06-.4-.02-.49-.1-.13-.32-.16-.37-.1-.04.05.04.15.09.29.11.31-.03.61-.15.88-.1.21-.3.65-.72.82-.22.09-.42.07-.43.16Z"/><path class="cls-18" d="m161.44,55.62c-.3.62-.64,1.21-.9,1.85-.27.65-.35.96-.7,1.17-.26.16-.45.12-.67.36-.23.25-.12.41-.36.74-.25.34-.48.35-.51.58-.02.19.12.38.25.49.32.27.74.03,1.52,0,.33-.01,1.03-.05,1.78.24.41.16.89.43,1.29.24.08-.04.13-.08.24-.09.31-.03.67.29.75.64.06.23-.06.26-.03.52.05.4.37.8.74.89.23.05.27-.06.46,0,.47.14.79,1.07.5,1.47-.13.19-.36.21-.45.47-.05.15-.01.26,0,.37.04.47-.47.63-.87,1.33-.36.62-.25,1.01-.66,1.24-.12.07-.24.1-.33.11-.03-.04-.09-.09-.11-.17-.07-.22.16-.51.15-.69-.01-.15-.07-.12-.18-.46-.02-.08-.07-.23-.09-.35-.07-.44.23-.85.3-.95.31-.41.73-.57.87-.62.58-.21.95-.03,1.16-.31.1-.13.1-.29.11-.44,0-.29-.1-.73-.39-.85-.22-.09-.34.09-.6,0-.27-.1-.33-.36-.46-.34-.12.02-.13.25-.22.57-.19.67-.57,1.2-.81,1.53-.16.22-.18.22-.25.35-.06.11-.21.44-.14,1.14.02.17.17,1.49.54,1.64.07.08.94.32,1.58-.08.48-.3.56-.81,1.04-.87.1-.01.3-.02.49-.15.13-.09.16-.17.24-.25.25-.25.68-.2.83-.2.46,0,1.03-.44,2.28-2.41.78-1.23.6-1.12,1.08-1.83,1.28-1.88,2.63-2.72,2.48-3.76-.02-.1-.06-.35-.14-.61-.16-.54-.32-.81-.51-1.23-.3-.66-.17-.61-.57-1.64-.27-.7-.4-1.05-.57-1.24-.34-.39-.67-.5-.73-.9-.04-.23.04-.42-.1-.57-.1-.11-.2-.08-.39-.14-.38-.11-.44-.36-.86-.65-.2-.14-.36-.21-.65-.33-.08-.03-.84-.34-1.44-.36-1.05-.03-1.96.83-3.16,1.95-.25.23-.51.5-.96.77-.55.33-.74.29-1.08.55-.22.18-.31.33-.78,1.31Zm-.92,3.19c.26.02.63.17.66.41.03.19-.16.36-.55.69-.25.22-.46.4-.79.53-.43.18-.97.23-1.02.11-.04-.1.28-.22.51-.66.15-.29.07-.36.21-.57.18-.29.56-.54.97-.51Z"/><path class="cls-11" d="m147.09,56.16c-.13.32-.37.48-.47.56-.69.55-.25,1.48-.72,3.49-.18.78-.36,1.12-.19,1.64.08.23.14.24.62.94.62.9.62,1.05.91,1.28.39.3.6.21,1.16.42,1.09.41.96,1,1.76,1.31.57.22,1.49.03,3.33-.35.26-.05.73-.15,1.21.05.3.12.29.23.54.3.33.08.49-.08,1.4-.43.57-.22.7-.23.78-.39.1-.2,0-.34.04-.85.03-.37.09-.33.1-.58,0-.04.02-.9-.47-1.23-.08-.06-.21-.11-.35-.26-.09-.09-.19-.2-.19-.33,0-.14.11-.21.17-.3.19-.31-.13-1-.56-1.34-.62-.48-1.5-.14-1.94.02-.52.19-.87.46-1.08.63-.42.34-.68.67-1.12,1.24-.55.72-.74,1.09-1.19,1.18-.04,0-.24.04-.48-.03-.42-.13-.78-.57-.72-.92.04-.25.26-.37.48-.53.73-.57,1.16-1.53,1.19-2.25,0-.17-.22-.72-.66-1.82-.26-.65-.49-1.15-.82-1.35-.03-.02-.13-.08-.21-.21-.12-.19-.17-.49-.03-.64.12-.13.29-.06.34-.18.04-.09-.05-.15-.07-.4-.02-.15.02-.15,0-.24-.05-.23-.25-.25-.26-.41,0-.16.18-.18.18-.37,0-.14-.11-.18-.12-.37,0-.13.04-.16.02-.22-.05-.16-.45-.15-.73-.16-1.11-.02-1.43-.24-1.7.02-.06.06-.17.2-.21.38-.04.21.03.41.05.46.05.14.09.14.08.21-.01.18-.26.2-.31.4-.03.15.09.2.05.36-.04.16-.19.2-.17.28.02.09.19.06.31.17.19.16.15.56.05.81Z"/><path class="cls-7" d="m145.99,43.41c-.11.07-.34-.09-.36-.1-.28-.21-.3-.53-.43-.88-.26-.74-.9-1.44-1.33-1.42-.06,0-.21.03-.4-.03-.17-.05-.28-.13-.32-.15-.36-.25-.77-.13-1.59-.36-.55-.16-.71-.31-.98-.21-.15.05-.25.16-.44.14-.2-.02-.32-.15-.42-.23-.37-.32-.66-.16-1.41-.38-.76-.23-.76-.49-1.05-.43-.61.13-.86,1.3-.99,1.92-.13.63-.1.87-.16,1.45-.23,2.15-1.18,3.13-.71,3.64.11.12.39.17.94.26.58.09.87.05,1.62.08.1,0,.62.03,1.15.1,1.23.16,1.35.42,2.37.53.63.07,1.13.12,1.72-.11.33-.13.87-.33,1.23-.85.25-.35.31-.7.64-.81.16-.05.38-.05.44.05.05.08-.04.18.03.25.05.06.15.06.22.03.1-.04.08-.13.16-.19.11-.07.24.02.47.08.14.04.4.11.6.04.23-.08.31-.35.45-.82.14-.47.26-.85.06-1.08-.08-.1-.23-.17-.32-.21-.08-.04-.21-.1-.4-.12-.19-.03-.28.01-.35-.06-.02-.02-.08-.09-.09-.18,0-.05,0-.07-.01-.1-.03-.06-.14-.1-.21-.07-.09.04-.05.17-.12.22Z"/><path class="cls-7" d="m182.95,60.03c.12.05.1.34.1.36-.03.35-.29.54-.52.83-.49.61-.75,1.52-.5,1.88.04.05.13.17.19.36.05.17.04.3.04.35-.02.43.29.72.53,1.54.16.55.11.76.34.94.12.1.27.13.35.3.09.18.04.35.02.48-.08.48.22.65.42,1.4.2.76-.01.9.19,1.12.43.45,1.56.04,2.15-.17.61-.22.79-.37,1.32-.63,1.95-.93,3.28-.64,3.47-1.32.05-.16-.06-.42-.28-.93-.23-.54-.42-.76-.79-1.42-.05-.09-.31-.55-.52-1.03-.51-1.13-.36-1.36-.8-2.29-.27-.57-.5-1.02-.99-1.4-.28-.21-.74-.56-1.37-.6-.43-.02-.76.11-1.03-.12-.12-.11-.24-.3-.19-.4.04-.08.17-.06.2-.16.02-.07-.03-.16-.09-.21-.09-.06-.16,0-.25-.04-.12-.05-.11-.22-.18-.44-.04-.14-.12-.4-.28-.53-.19-.15-.46-.08-.93.05-.48.13-.86.23-.95.52-.04.12-.02.28-.01.38,0,.09.03.23.1.4.08.18.16.23.13.33,0,.03-.03.11-.1.17-.04.04-.06.03-.08.07-.04.06-.01.18.05.22.08.05.17-.05.26-.01Z"/><path class="cls-6" d="m187.33,74.74c.2-.32-.28-.8-.6-1.73-.12-.35-.16-.6-.38-.7-.14-.06-.21,0-.39-.02-.41-.04-.56-.4-.95-.67-.15-.11-.52-.33-.95-.32-.55.01-.84.41-1,.3-.12-.09.06-.35.13-.92.05-.41.18-1.07-.1-1.25-.15-.1-.36-.02-.4-.12-.04-.09.11-.17.1-.33,0-.14-.11-.23-.19-.31-.26-.27-.19-.53-.32-.77-.35-.65-1.72-.52-1.73-.76,0-.07.11-.08.18-.23.09-.19.03-.4,0-.48-.15-.5-.61-.67-1.37-1.3-.62-.52-.72-.66-1.03-.7-.24-.03-.63,0-.78.23-.1.16,0,.27-.1.39-.15.18-.44.04-1,.11-.32.04-.58.08-.72.27-.19.25.01.49-.17.71-.19.23-.5.07-.77.27-.11.08-.26.26-.3.99-.03.6-.07,1.26.26,2.05.26.64.34.34,1.03,1.5.12.19.4.68.63.63.1-.02.17-.14.21-.12.05.03-.07.24-.09.41-.04.47.72.63,1.18,1.29.47.68.04,1.08.53,1.64.34.38.95.65,1.43.5.29-.09.32-.27.61-.32.15-.02.46-.03,1.03.43.76.61.63.97,1.15,1.37.63.49,1.57.54,2.18.4.49-.11.81-.34,1.58-.39.24-.01.3,0,.45-.05.74-.25,1.1-1.37.85-1.61-.08-.08-.23-.07-.27-.18-.03-.09.04-.18.07-.22Z"/><path class="cls-6" d="m187.08,77.45c0,.12.19.24.37.25.11.01.27-.01.55-.24,0,0,.77-.64.85-1.69,0-.03,0-.11-.03-.2-.1-.25-.46-.37-.54-.29-.04.04,0,.12.04.24.09.37-.08.71-.18.89-.19.38-.49.6-.6.68-.27.19-.46.24-.46.36Z"/><path class="cls-6" d="m186.5,77.08c-.01.08.15.2.31.21.11,0,.23-.03.57-.33.3-.26.45-.39.52-.52.09-.14.13-.4.21-.92.05-.28.06-.4-.02-.49-.1-.13-.32-.16-.37-.1-.04.05.04.15.09.29.11.31-.03.61-.15.88-.1.21-.3.65-.72.82-.22.09-.42.07-.43.16Z"/><path class="cls-11" d="m173.8,53.19c-.34.08-.63-.02-.76-.06-.89-.25-1.41.67-3.41,1.47-.77.31-1.18.36-1.51.82-.15.21-.12.26-.43,1.08-.4,1.06-.52,1.15-.53,1.53-.02.5.19.63.35,1.23.32,1.16-.27,1.41-.04,2.26.17.61.88,1.27,2.32,2.6.2.18.57.52.7,1.05.08.32-.02.38.07.63.13.33.36.36,1.21.92.53.35.62.45.81.42.23-.03.29-.2.75-.47.33-.2.34-.12.55-.27.04-.02.78-.52.76-1.13,0-.1-.03-.24.01-.45.02-.13.05-.27.17-.35.12-.08.25-.03.36-.04.38-.02.78-.7.8-1.27.03-.81-.79-1.35-1.2-1.62-.48-.32-.92-.45-1.2-.53-.54-.15-.98-.17-1.74-.2-.95-.04-1.38.03-1.73-.3-.03-.03-.19-.18-.27-.42-.14-.44.01-.99.34-1.16.23-.12.47,0,.74.09.93.28,2.02.06,2.64-.34.15-.09.48-.61,1.15-1.64.4-.61.68-1.09.65-1.49,0-.03-.01-.16.05-.3.09-.21.31-.43.52-.41.18.02.23.21.36.18.1-.02.1-.13.29-.3.12-.1.14-.08.2-.15.16-.18.06-.36.19-.46.13-.1.26.04.42-.07.12-.08.08-.2.24-.32.1-.08.16-.06.2-.12.1-.14-.14-.47-.31-.71-.66-.95-.66-1.34-1.05-1.41-.09-.02-.27-.03-.45.06-.2.09-.33.27-.36.32-.09.13-.07.16-.13.2-.16.1-.33-.1-.53-.02-.15.06-.12.2-.28.26-.16.06-.28-.04-.34.03-.06.07.06.19.05.36-.03.26-.38.46-.66.52Z"/><path class="cls-18" d="m199.29,71.77c.05-.68.14-1.36.16-2.05.01-.7-.03-1.02.22-1.35.19-.24.37-.28.49-.58.12-.32-.04-.42.06-.83.1-.41.32-.5.26-.73-.05-.19-.26-.31-.41-.36-.4-.13-.7.25-1.41.57-.31.14-.95.42-1.75.43-.44,0-.98-.07-1.28.25-.06.07-.09.13-.19.18-.28.14-.73-.02-.93-.32-.14-.19-.04-.26-.17-.49-.19-.36-.64-.61-1.02-.55-.23.04-.23.16-.42.18-.49.05-1.13-.7-1.01-1.19.06-.22.26-.33.24-.6,0-.16-.08-.24-.13-.34-.21-.43.21-.76.32-1.55.1-.71-.14-1.03.15-1.39.09-.11.19-.18.27-.23.04.02.12.05.17.12.14.18.04.53.12.69.07.13.11.09.34.37.05.06.15.19.21.29.23.39.1.88.07.99-.13.5-.47.8-.58.9-.47.41-.87.37-.97.71-.04.16,0,.3.06.44.1.27.37.64.68.65.24,0,.28-.21.56-.22.29,0,.44.21.55.15.1-.06.03-.28,0-.61-.07-.69.09-1.32.19-1.72.07-.27.09-.27.11-.42.01-.12.03-.49-.29-1.11-.08-.15-.71-1.32-1.1-1.32-.1-.05-.99.05-1.44.66-.34.46-.22.96-.64,1.19-.09.05-.27.12-.4.32-.08.13-.09.22-.13.32-.14.33-.56.43-.7.49-.43.17-.8.79-1.23,3.08-.27,1.43-.14,1.27-.33,2.09-.5,2.22-1.44,3.5-.92,4.41.05.09.19.3.35.51.34.45.6.64.93.96.52.5.38.5,1.13,1.31.51.55.76.83.99.95.46.24.81.22,1.01.57.12.2.12.41.3.5.13.06.22,0,.41-.02.4-.03.54.17,1.04.29.24.06.41.06.73.06.08,0,.91,0,1.47-.19.99-.36,1.52-1.49,2.22-2.97.15-.31.29-.65.61-1.07.39-.51.59-.54.8-.91.14-.25.16-.42.24-1.51Zm-.32-3.3c-.25.07-.64.07-.77-.14-.1-.17.02-.39.25-.84.16-.3.28-.54.54-.79.34-.32.81-.57.91-.47.08.08-.18.3-.23.8-.03.33.07.36.02.61-.06.33-.32.71-.72.83Z"/><path class="cls-11" d="m173.09,71.42c-.18.29-.45.4-.56.46-.78.41-.53,1.4-1.37,3.28-.33.73-.57,1.03-.5,1.57.03.24.09.26.43,1.04.43,1,.41,1.15.65,1.43.33.37.55.32,1.06.63.99.61.75,1.17,1.48,1.62.52.32,1.46.31,3.34.29.26,0,.74-.01,1.18.28.27.18.24.29.47.39.31.14.49.02,1.46-.15.6-.11.73-.09.84-.24.14-.18.06-.33.2-.82.1-.36.15-.31.21-.55,0-.04.19-.88-.23-1.3-.07-.07-.18-.15-.3-.33-.07-.11-.15-.23-.12-.36.03-.14.15-.19.22-.27.25-.26.07-1.01-.3-1.42-.52-.59-1.45-.43-1.91-.35-.55.09-.94.29-1.18.42-.48.25-.79.53-1.33,1.01-.68.6-.94.93-1.39.93-.04,0-.25,0-.47-.12-.39-.21-.65-.71-.54-1.04.08-.23.33-.31.57-.43.83-.42,1.44-1.28,1.6-1.98.04-.16-.07-.75-.3-1.92-.13-.69-.26-1.22-.55-1.48-.02-.02-.12-.1-.17-.24-.08-.21-.07-.51.09-.63.14-.1.29,0,.37-.11.06-.08-.02-.15,0-.4.01-.15.04-.14.04-.24,0-.24-.19-.29-.17-.45.02-.16.21-.15.24-.33.03-.14-.07-.2-.05-.39.02-.13.07-.15.06-.21-.02-.17-.41-.24-.69-.29-1.09-.23-1.36-.51-1.67-.3-.07.05-.21.16-.28.34-.08.2-.04.41-.04.47.02.15.06.16.04.23-.04.18-.3.15-.38.34-.06.14.05.22-.02.36-.07.15-.22.16-.22.24,0,.09.17.09.27.22.15.2.04.57-.11.81Z"/></svg>