<?xml version="1.0" encoding="utf-8"?>
<!-- Generator: Adobe Illustrator 28.0.0, SVG Export Plug-In . SVG Version: 6.00 Build 0)  -->
<svg version="1.1" id="Layer_1" xmlns="http://www.w3.org/2000/svg" xmlns:xlink="http://www.w3.org/1999/xlink" x="0px" y="0px"
	 viewBox="0 0 161.4 154" style="enable-background:new 0 0 161.4 154;" xml:space="preserve">
<style type="text/css">
	.st0{fill:#00403D;}
	.st1{fill:#46B2B0;}
	.st2{fill:#C6E6E4;}
	.st3{fill:#8BCCC9;}
	.st4{fill:#009995;}
	.st5{fill:#007F7A;}
	.st6{fill:#E1F2F1;}
</style>
<g>
	<path class="st0" d="M84.2,0v51.2c10.2,1.2,18.2,9.9,18.2,20.6c0,6.9-3.4,13-8.5,16.8l30.7,41c17.6-13.1,29.1-34,29.1-57.7
		C153.6,33,122.7,1.3,84.2,0L84.2,0z"/>
	<path class="st1" d="M70.2,54.6l-27-43.5C31.3,18.7,21.8,29.6,16,42.6l46.1,22.4C63.6,60.7,66.5,57.1,70.2,54.6z"/>
	<path class="st2" d="M81.7,51.1c0.6,0,1.2,0,1.8,0.1V0c-0.6,0-1.2,0-1.8,0C77,0,72.4,0.5,67.9,1.4l11.5,49.9
		C80.2,51.1,81,51.1,81.7,51.1L81.7,51.1z"/>
	<path class="st3" d="M78.8,51.3L67.3,1.4c-8.4,1.7-16.3,5-23.5,9.3l27,43.5C73.1,52.7,75.9,51.7,78.8,51.3L78.8,51.3z"/>
	<path class="st4" d="M60.9,71.9c0-2.2,0.4-4.3,1-6.3L15.7,43.2c-3.8,8.8-6,18.5-6,28.7c0,21.6,9.6,41,24.6,54.2l35.9-36.8
		C64.7,85.4,60.9,79.1,60.9,71.9L60.9,71.9z"/>
	<path class="st5" d="M81.7,92.6c-4,0-7.7-1.1-10.8-3.1L35,126.4c12.6,10.8,28.9,17.2,46.7,17.2c15.8,0,30.4-5.1,42.3-13.8l-30.7-41
		C90,91.2,86,92.6,81.7,92.6L81.7,92.6z"/>
	<path class="st2" d="M151,57.2c-0.5,0.2-0.2,1.1-0.5,2.3c-0.1,0.5-0.2,0.8-0.1,1.1c0.2,0.2,0.2,0.2,0.5,0.3
		c0.5,0.3,0.4,0.8,0.6,1.4c0.1,0.2,0.4,0.7,0.8,1c0.6,0.4,1.2,0.1,1.3,0.3c0.1,0.2-0.3,0.4-0.8,0.9c-0.3,0.5-0.9,1.1-0.8,1.4
		c0.1,0.2,0.4,0.2,0.4,0.4s-0.2,0.2-0.3,0.3c-0.1,0.2,0,0.3,0,0.5c0.1,0.5-0.2,0.7-0.2,1.1c-0.1,1,1.6,1.7,1.4,2
		c-0.1,0.1-0.2,0-0.4,0.2c-0.2,0.2-0.3,0.5-0.3,0.5c-0.2,0.7,0.2,1.1,0.7,2.3c0.4,1,0.4,1.2,0.7,1.4c0.2,0.2,0.7,0.5,1,0.3
		c0.2-0.1,0.2-0.3,0.4-0.4c0.3-0.1,0.5,0.2,1.2,0.5c0.4,0.2,0.7,0.3,1,0.2c0.4-0.2,0.3-0.5,0.7-0.7c0.4-0.2,0.6,0.2,1.1,0.2
		c0.2,0,0.5-0.1,1-0.9c0.5-0.6,0.9-1.4,1.1-2.4c0.2-0.9-0.2-0.6-0.2-2.3c0-0.3,0-1-0.3-1.1c-0.2-0.1-0.3,0.1-0.3,0
		c-0.1-0.1,0.2-0.2,0.4-0.4c0.4-0.5-0.4-1.2-0.5-2.2c-0.1-1.1,0.7-1.2,0.5-2.2c-0.2-0.7-0.6-1.4-1.2-1.5c-0.4-0.1-0.5,0.1-0.9-0.1
		c-0.2-0.1-0.5-0.3-0.8-1.1c-0.5-1.2-0.1-1.5-0.4-2.3c-0.4-1-1.4-1.7-2.2-1.9c-0.6-0.2-1.1-0.2-2-0.6c-0.3-0.2-0.3-0.2-0.5-0.2
		c-1-0.2-2.1,0.8-2,1.2c0.1,0.2,0.2,0.2,0.2,0.4C151.1,57.1,151,57.2,151,57.2L151,57.2z"/>
	<path class="st2" d="M153.4,55.1c0.1-0.2-0.1-0.4-0.2-0.5c-0.2-0.1-0.3-0.2-0.8-0.1c0,0-1.3,0.2-2,1.3c0,0.1-0.1,0.2-0.1,0.2
		c-0.1,0.4,0.2,0.8,0.4,0.7c0.1,0,0.1-0.2,0.2-0.3c0.2-0.5,0.6-0.8,0.8-0.9c0.5-0.3,0.9-0.3,1.1-0.4
		C153.1,55.1,153.4,55.2,153.4,55.1z"/>
	<path class="st2" d="M153.7,55.5c0.1-0.1-0.1-0.3-0.2-0.5c-0.2-0.1-0.3-0.2-0.8,0c-0.5,0.1-0.8,0.2-0.9,0.2
		c-0.2,0.1-0.4,0.4-0.8,0.9c-0.2,0.3-0.3,0.4-0.3,0.5c0,0.2,0.2,0.4,0.4,0.4c0.1,0,0.1-0.2,0.1-0.4c0.1-0.4,0.5-0.7,0.8-0.9
		c0.2-0.2,0.8-0.5,1.4-0.5C153.4,55.4,153.7,55.6,153.7,55.5L153.7,55.5z"/>
	<path class="st6" d="M153.4,55.9c0.2-0.2,0.5,0.4,1.4,0.8c0.8,0.3,1,0.2,1.4,0.5c0.7,0.5,1,1.2,1.1,1.8c0.4,1.1,0,1.5,0.5,2.3
		c0.2,0.2,0.4,0.6,0.8,0.8c0.4,0.2,0.5,0,1,0.2c0.4,0.2,1,0.5,1,1c0,0.3-0.2,0.4-0.4,0.8c-0.2,0.6,0.1,0.8-0.1,1.6
		c-0.1,0.2-0.2,0.9-0.5,0.9c-0.4,0.1-0.6-1.2-1.6-2.9s-1.4-1.5-1.9-2.9c-0.5-1.4-0.2-1.7-0.8-2.3c-0.6-0.7-1.3-0.7-1.9-1.6
		C153.4,56.5,153.2,56,153.4,55.9L153.4,55.9z"/>
	<path class="st6" d="M153.9,70.4c-0.1,0-0.5-0.2-0.7,0c-0.2,0.2-0.2,0.3-0.2,0.5c-0.1,0.6,0.2,1.1,0.5,1.9c0.3,0.9,0.3,1.2,0.7,1.4
		c0.2,0.2,0.5,0.3,0.7,0.2c0.1-0.1,0.1-0.2,0.2-0.3c0.2-0.1,0.5,0.3,0.7,0.2c0.2-0.1,0.2-0.2,0.2-0.5c-0.1-0.3-0.3-0.4-0.8-0.7
		c-0.5-0.4-0.8-0.5-1-0.8c-0.1-0.2-0.1-0.5-0.2-1.1C154,71.1,154,70.6,153.9,70.4L153.9,70.4z"/>
	<polygon class="st6" points="138.9,54.4 136.8,50.5 136.7,49 144.2,48.8 144.2,49.9 147,54.1 147.8,75.2 140.3,76.8 	"/>
	<polygon class="st2" points="134.9,54.5 136.8,50.5 138.9,54.4 140.3,76.8 136.1,75 	"/>
	
		<rect x="138.9" y="54.2" transform="matrix(0.9993 -3.786394e-02 3.786394e-02 0.9993 -1.9525 5.4523)" class="st2" width="8.1" height="0.1"/>
	
		<rect x="136.8" y="50.2" transform="matrix(0.9983 -5.878197e-02 5.878197e-02 0.9983 -2.7083 8.3471)" class="st2" width="7.5" height="0.1"/>
	<path class="st2" d="M140.6,50.2c0.2,0.1-0.2,0.7,0,1.3c0.2,0.6,1.1,1.1,1.7,1c0.8-0.1,1.2-0.8,1.4-0.6c0.1,0.1,0,0.4-0.1,0.6
		c-0.1,0.1-0.2,0.5-0.5,0.8c-0.8,0.6-2,0.1-2.2,0c-0.3-0.2-0.8-0.4-1.1-1c-0.2-0.4-0.1-0.8-0.1-0.9
		C139.8,50.6,140.4,50.2,140.6,50.2L140.6,50.2z"/>
	<path class="st6" d="M143.7,51.7c-0.2,0.7-1.1,1-1.8,1c-1.1-0.1-2.1-1-2-1.8s1.3-1.4,2.2-1.1C143.1,49.9,144,50.9,143.7,51.7
		L143.7,51.7z"/>
	<path class="st2" d="M86.3,134.4c-0.5,0.2-0.2,1.1-0.5,2.3c-0.1,0.5-0.2,0.8-0.1,1.1c0.2,0.2,0.2,0.2,0.5,0.3
		c0.5,0.3,0.4,0.8,0.6,1.4c0.1,0.2,0.4,0.7,0.8,1c0.6,0.4,1.2,0.1,1.3,0.3c0.1,0.2-0.3,0.4-0.8,0.9c-0.3,0.5-0.9,1.1-0.8,1.4
		c0.1,0.2,0.4,0.2,0.4,0.4s-0.2,0.2-0.3,0.3c-0.1,0.2,0,0.3,0,0.5c0.1,0.5-0.2,0.7-0.2,1.1c-0.1,1,1.6,1.7,1.4,2
		c-0.1,0.1-0.2,0-0.4,0.2c-0.2,0.2-0.3,0.5-0.3,0.5c-0.2,0.7,0.2,1.1,0.7,2.3c0.4,1,0.4,1.2,0.7,1.4c0.2,0.2,0.7,0.5,1,0.3
		c0.2-0.1,0.2-0.3,0.4-0.4c0.3-0.1,0.5,0.2,1.2,0.5c0.4,0.2,0.7,0.3,1,0.2c0.4-0.2,0.3-0.5,0.7-0.7s0.6,0.2,1.1,0.2
		c0.2,0,0.5-0.1,1-0.9c0.5-0.6,0.9-1.4,1.1-2.4c0.2-0.9-0.2-0.6-0.2-2.3c0-0.3,0-1-0.3-1.1c-0.2-0.1-0.3,0.1-0.3,0
		c-0.1-0.1,0.2-0.2,0.4-0.4c0.4-0.5-0.4-1.2-0.5-2.2c-0.1-1.1,0.7-1.2,0.5-2.2c-0.2-0.7-0.6-1.4-1.2-1.5c-0.4-0.1-0.5,0.1-0.9-0.1
		c-0.2-0.1-0.5-0.3-0.8-1.1c-0.5-1.2-0.1-1.5-0.4-2.3c-0.4-1-1.4-1.7-2.2-1.9c-0.6-0.2-1.1-0.2-2-0.6c-0.3-0.2-0.3-0.2-0.5-0.2
		c-1-0.2-2.1,0.8-2,1.2c0.1,0.2,0.2,0.2,0.2,0.4C86.5,134.3,86.4,134.4,86.3,134.4L86.3,134.4z"/>
	<path class="st2" d="M88.9,132.3c0.1-0.2-0.1-0.4-0.2-0.5c-0.2-0.1-0.3-0.2-0.8-0.1c0,0-1.3,0.2-2,1.3c0,0.1-0.1,0.2-0.1,0.2
		c-0.1,0.4,0.2,0.8,0.4,0.7c0.1,0,0.1-0.2,0.2-0.3c0.2-0.5,0.6-0.8,0.8-0.9c0.5-0.3,0.9-0.3,1.1-0.4
		C88.5,132.3,88.7,132.4,88.9,132.3z"/>
	<path class="st2" d="M89.1,132.7c0.1-0.1-0.1-0.3-0.2-0.5c-0.2-0.1-0.3-0.2-0.8,0c-0.5,0.1-0.8,0.2-0.9,0.2
		c-0.2,0.1-0.4,0.4-0.8,0.9c-0.2,0.3-0.3,0.4-0.3,0.5c0,0.2,0.2,0.4,0.4,0.4c0.1,0,0.1-0.2,0.1-0.4c0.1-0.4,0.5-0.7,0.8-0.9
		c0.2-0.2,0.8-0.5,1.4-0.5C88.8,132.6,89,132.8,89.1,132.7L89.1,132.7z"/>
	<path class="st6" d="M88.7,133.2c0.2-0.2,0.5,0.4,1.4,0.8c0.8,0.3,1,0.2,1.4,0.5c0.7,0.5,1,1.2,1.1,1.8c0.4,1.1,0,1.5,0.5,2.3
		c0.2,0.2,0.4,0.6,0.8,0.8c0.4,0.2,0.5,0,1,0.2c0.4,0.2,1,0.5,1,1c0,0.3-0.2,0.4-0.4,0.8c-0.2,0.6,0.1,0.8-0.1,1.6
		c-0.1,0.2-0.2,0.9-0.5,0.9c-0.4,0.1-0.6-1.2-1.6-2.9c-1-1.7-1.4-1.5-1.9-2.9c-0.5-1.4-0.2-1.7-0.8-2.3c-0.6-0.7-1.3-0.7-1.9-1.6
		C88.8,133.7,88.6,133.3,88.7,133.2L88.7,133.2z"/>
	<path class="st6" d="M89.3,147.7c-0.1,0-0.5-0.2-0.7,0c-0.2,0.2-0.2,0.3-0.2,0.5c-0.1,0.6,0.2,1.1,0.5,1.9c0.3,0.9,0.3,1.2,0.7,1.4
		c0.2,0.2,0.5,0.3,0.7,0.2c0.1-0.1,0.1-0.2,0.2-0.3c0.2-0.1,0.5,0.3,0.7,0.2c0.2-0.1,0.2-0.2,0.2-0.5c-0.1-0.3-0.3-0.4-0.8-0.7
		c-0.5-0.4-0.8-0.5-1-0.8c-0.1-0.2-0.1-0.5-0.2-1.1C89.3,148.3,89.3,147.9,89.3,147.7L89.3,147.7z"/>
	<polygon class="st6" points="74.3,131.7 72.2,127.8 72.2,126.3 79.6,126 79.6,127.2 82.4,131.4 83.2,152.5 75.6,154 	"/>
	<polygon class="st2" points="70.3,131.8 72.2,127.8 74.3,131.7 75.6,154 71.5,152.2 	"/>
	
		<rect x="74.3" y="131.5" transform="matrix(0.9993 -3.786394e-02 3.786394e-02 0.9993 -4.9252 3.0606)" class="st2" width="8.1" height="0.1"/>
	
		<rect x="72.2" y="127.5" transform="matrix(0.9983 -5.878197e-02 5.878197e-02 0.9983 -7.3632 4.6817)" class="st2" width="7.5" height="0.1"/>
	<path class="st2" d="M75.9,127.5c0.2,0.1-0.2,0.7,0,1.3c0.2,0.6,1.1,1.1,1.7,1c0.8-0.1,1.2-0.8,1.4-0.6c0.1,0.1,0,0.4-0.1,0.6
		c-0.1,0.1-0.2,0.5-0.5,0.8c-0.8,0.6-2,0.1-2.2,0c-0.3-0.2-0.8-0.4-1.1-1c-0.2-0.4-0.1-0.8-0.1-0.9
		C75.2,127.9,75.8,127.4,75.9,127.5L75.9,127.5z"/>
	<path class="st6" d="M79.1,129c-0.2,0.7-1.1,1-1.8,1c-1.1-0.1-2.1-1-2-1.8s1.3-1.4,2.2-1.1C78.5,127.1,79.4,128.1,79.1,129
		L79.1,129z"/>
	<path class="st2" d="M16,73.7c-0.5,0.2-0.2,1.1-0.5,2.3c-0.1,0.5-0.2,0.8-0.1,1.1c0.2,0.2,0.2,0.2,0.5,0.3c0.5,0.3,0.4,0.8,0.6,1.4
		c0.1,0.2,0.4,0.7,0.8,1c0.6,0.4,1.2,0.1,1.3,0.3c0.1,0.2-0.3,0.4-0.8,0.9c-0.3,0.5-0.9,1.1-0.8,1.4c0.1,0.2,0.4,0.2,0.4,0.4
		s-0.2,0.2-0.3,0.3c-0.1,0.2,0,0.3,0,0.5c0.1,0.5-0.2,0.7-0.2,1.1c-0.1,1,1.6,1.7,1.4,2c-0.1,0.1-0.2,0-0.4,0.2
		c-0.2,0.2-0.3,0.5-0.3,0.5c-0.2,0.7,0.2,1.1,0.7,2.3c0.4,1,0.4,1.2,0.7,1.4c0.2,0.2,0.7,0.5,1,0.3c0.2-0.1,0.2-0.3,0.4-0.4
		c0.3-0.1,0.5,0.2,1.2,0.5c0.4,0.2,0.7,0.3,1,0.2c0.4-0.2,0.3-0.5,0.7-0.7c0.4-0.2,0.6,0.2,1.1,0.2c0.2,0,0.5-0.1,1-0.9
		c0.5-0.6,0.9-1.4,1.1-2.4c0.2-0.9-0.2-0.6-0.2-2.3c0-0.3,0-1-0.3-1.1c-0.2-0.1-0.3,0.1-0.3,0c-0.1-0.1,0.2-0.2,0.4-0.4
		c0.4-0.5-0.4-1.2-0.5-2.2c-0.1-1.1,0.7-1.2,0.5-2.2c-0.2-0.7-0.6-1.4-1.2-1.5C24.6,78,24.4,78.2,24,78c-0.2-0.1-0.5-0.3-0.8-1.1
		c-0.5-1.2-0.1-1.5-0.4-2.3c-0.4-1-1.4-1.7-2.2-1.9c-0.6-0.2-1.1-0.2-2-0.6c-0.3-0.2-0.3-0.2-0.5-0.2c-1-0.2-2.1,0.8-2,1.2
		c0.1,0.2,0.2,0.2,0.2,0.4C16.3,73.6,16.1,73.7,16,73.7L16,73.7z"/>
	<path class="st2" d="M18.6,71.6c0.1-0.2-0.1-0.4-0.2-0.5c-0.2-0.1-0.3-0.2-0.8-0.1c0,0-1.3,0.2-2,1.3c0,0.1-0.1,0.2-0.1,0.2
		c-0.1,0.4,0.2,0.8,0.4,0.7c0.1,0,0.1-0.2,0.2-0.3c0.2-0.5,0.6-0.8,0.8-0.9c0.5-0.3,0.9-0.3,1.1-0.4C18.3,71.6,18.5,71.7,18.6,71.6z
		"/>
	<path class="st2" d="M18.8,72c0.1-0.1-0.1-0.3-0.2-0.5c-0.2-0.1-0.3-0.2-0.8,0c-0.5,0.1-0.8,0.2-0.9,0.2c-0.2,0.1-0.4,0.4-0.8,0.9
		c-0.2,0.3-0.3,0.4-0.3,0.5c0,0.2,0.2,0.4,0.4,0.4c0.1,0,0.1-0.2,0.1-0.4c0.1-0.4,0.5-0.7,0.8-0.9c0.2-0.2,0.8-0.5,1.4-0.5
		C18.5,71.9,18.8,72.1,18.8,72L18.8,72z"/>
	<path class="st6" d="M18.5,72.4c0.2-0.2,0.5,0.4,1.4,0.8c0.8,0.3,1,0.2,1.4,0.5c0.7,0.5,1,1.2,1.1,1.8c0.4,1.1,0,1.5,0.5,2.3
		c0.2,0.2,0.4,0.6,0.8,0.8c0.4,0.2,0.5,0,1,0.2c0.4,0.2,1,0.5,1,1c0,0.3-0.2,0.4-0.4,0.8c-0.2,0.6,0.1,0.8-0.1,1.6
		c-0.1,0.2-0.2,0.9-0.5,0.9c-0.4,0.1-0.6-1.2-1.6-2.9c-1-1.7-1.4-1.5-1.9-2.9c-0.5-1.4-0.2-1.7-0.8-2.3c-0.6-0.7-1.3-0.7-1.9-1.6
		C18.5,73,18.4,72.5,18.5,72.4L18.5,72.4z"/>
	<path class="st6" d="M19.1,86.9c-0.1,0-0.5-0.2-0.7,0c-0.2,0.2-0.2,0.3-0.2,0.5c-0.1,0.6,0.2,1.1,0.5,1.9c0.3,0.9,0.3,1.2,0.7,1.4
		c0.2,0.2,0.5,0.3,0.7,0.2c0.1-0.1,0.1-0.2,0.2-0.3c0.2-0.1,0.5,0.3,0.7,0.2c0.2-0.1,0.2-0.2,0.2-0.5c-0.1-0.3-0.3-0.4-0.8-0.7
		c-0.5-0.4-0.8-0.5-1-0.8c-0.1-0.2-0.1-0.5-0.2-1.1C19.1,87.6,19.1,87.1,19.1,86.9L19.1,86.9z"/>
	<polygon class="st6" points="4.1,70.9 2,67 1.9,65.5 9.3,65.3 9.4,66.4 12.1,70.6 13,91.7 5.3,93.3 	"/>
	<polygon class="st2" points="0,71.1 2,67 4.1,70.9 5.3,93.3 1.2,91.5 	"/>
	
		<rect x="4" y="70.7" transform="matrix(0.9993 -3.786394e-02 3.786394e-02 0.9993 -2.6739 0.3559)" class="st2" width="8.1" height="0.1"/>
	
		<rect x="2" y="66.7" transform="matrix(0.9983 -5.878197e-02 5.878197e-02 0.9983 -3.9155 0.45)" class="st2" width="7.5" height="0.1"/>
	<path class="st2" d="M5.6,66.7c0.2,0.1-0.2,0.7,0,1.3c0.2,0.6,1.1,1.1,1.7,1c0.8-0.1,1.2-0.8,1.4-0.6c0.1,0.1,0,0.4-0.1,0.6
		c-0.1,0.1-0.2,0.5-0.5,0.8c-0.8,0.6-2,0.1-2.2,0c-0.3-0.2-0.8-0.4-1.1-1c-0.2-0.4-0.1-0.8-0.1-0.9C4.9,67.2,5.5,66.7,5.6,66.7
		L5.6,66.7z"/>
	<path class="st6" d="M8.9,68.2c-0.2,0.7-1.1,1-1.8,1c-1.1-0.1-2.1-1-2-1.8c0.2-0.8,1.3-1.4,2.2-1.1C8.2,66.4,9.1,67.4,8.9,68.2
		L8.9,68.2z"/>
	<path class="st2" d="M27.6,16.3c-0.5,0.2-0.4,1.1-0.8,2.3c-0.2,0.5-0.3,0.8-0.2,1c0.1,0.2,0.2,0.2,0.4,0.3c0.4,0.4,0.2,0.8,0.5,1.4
		c0.1,0.2,0.3,0.8,0.8,1.1c0.6,0.5,1.2,0.2,1.3,0.5c0.1,0.2-0.4,0.3-0.8,0.8c-0.4,0.4-1.1,1-0.9,1.4c0.1,0.2,0.4,0.3,0.3,0.5
		c0,0.2-0.2,0.1-0.4,0.2c-0.1,0.2-0.1,0.3-0.1,0.5c0.1,0.5-0.2,0.7-0.3,1.1c-0.2,0.9,1.4,1.9,1.1,2.1c-0.1,0.1-0.2,0-0.4,0.1
		c-0.2,0.2-0.4,0.4-0.4,0.5c-0.2,0.6,0.1,1.1,0.4,2.4c0.2,1,0.2,1.3,0.5,1.5c0.2,0.2,0.7,0.5,1,0.4c0.2-0.1,0.2-0.3,0.4-0.3
		c0.3-0.1,0.5,0.3,1.1,0.7c0.4,0.2,0.7,0.4,1,0.3c0.4-0.1,0.4-0.5,0.8-0.6c0.4-0.1,0.6,0.3,1,0.3c0.2,0,0.5-0.1,1.1-0.8
		c0.5-0.6,1.1-1.2,1.4-2.3c0.2-0.8-0.1-0.6,0.2-2.3c0.1-0.3,0.2-1-0.2-1.1c-0.2-0.1-0.3,0-0.3-0.1c0-0.1,0.3-0.2,0.5-0.4
		c0.5-0.5-0.2-1.2-0.2-2.3c0.1-1.1,0.8-1.1,0.8-2.1c-0.1-0.7-0.5-1.4-1.1-1.7c-0.4-0.2-0.5,0-0.9-0.2C35,21.2,34.6,21,34.4,20
		c-0.3-1.2,0.2-1.5-0.1-2.3c-0.3-1-1.2-1.8-1.9-2.1c-0.6-0.3-1.1-0.3-1.9-0.8c-0.2-0.2-0.3-0.2-0.5-0.3c-1-0.3-2.2,0.5-2.1,1
		c0,0.2,0.2,0.2,0.2,0.4C27.9,16.2,27.7,16.3,27.6,16.3L27.6,16.3z"/>
	<path class="st2" d="M30.4,14.5c0.1-0.2,0-0.4-0.2-0.5c-0.1-0.1-0.3-0.2-0.8-0.2c0,0-1.3,0.1-2.2,1.1c0,0-0.1,0.2-0.2,0.2
		c-0.1,0.3,0.2,0.8,0.3,0.8c0.1,0,0.1-0.2,0.2-0.3c0.2-0.5,0.7-0.7,0.9-0.8c0.5-0.2,1-0.2,1.1-0.2C30.1,14.5,30.3,14.6,30.4,14.5
		L30.4,14.5z"/>
	<path class="st2" d="M30.6,14.9c0.1-0.1,0-0.3-0.2-0.5c-0.1-0.1-0.3-0.2-0.8-0.2c-0.5,0-0.8,0.1-1,0.2c-0.2,0.1-0.5,0.3-1,0.8
		c-0.3,0.2-0.4,0.4-0.4,0.5c0,0.2,0.2,0.5,0.3,0.4c0.1,0,0.1-0.2,0.2-0.4c0.2-0.4,0.5-0.6,0.8-0.8c0.3-0.2,0.8-0.5,1.4-0.3
		C30.4,14.8,30.5,15,30.6,14.9z"/>
	<path class="st6" d="M30.2,15.3c0.2-0.1,0.5,0.5,1.3,0.9c0.8,0.5,1,0.2,1.4,0.6c0.7,0.5,0.8,1.4,0.9,2c0.2,1.1-0.2,1.5,0.2,2.3
		c0.1,0.2,0.3,0.6,0.8,0.9c0.4,0.2,0.5,0.1,0.9,0.3c0.4,0.2,0.9,0.6,0.9,1.1c0,0.3-0.2,0.3-0.5,0.8c-0.3,0.6,0,0.8-0.2,1.5
		c-0.1,0.2-0.3,0.9-0.6,0.9c-0.4,0-0.5-1.3-1.2-3c-0.8-1.8-1.2-1.7-1.5-3c-0.4-1.4,0.1-1.7-0.5-2.4c-0.5-0.8-1.2-0.8-1.7-1.8
		C30.2,15.8,30.1,15.4,30.2,15.3L30.2,15.3z"/>
	<path class="st6" d="M29.1,29.8c-0.1,0-0.5-0.2-0.7-0.1c-0.2,0.1-0.2,0.3-0.2,0.4c-0.2,0.6,0.1,1.1,0.3,2c0.2,0.9,0.2,1.3,0.5,1.5
		c0.2,0.2,0.5,0.3,0.7,0.2c0.2-0.1,0.1-0.2,0.2-0.3c0.2-0.1,0.5,0.3,0.6,0.3c0.2-0.1,0.2-0.2,0.2-0.4c0-0.3-0.3-0.5-0.7-0.8
		c-0.5-0.5-0.8-0.7-0.8-1c-0.1-0.2,0-0.5,0-1.1C29.1,30.4,29.1,30,29.1,29.8L29.1,29.8z"/>
	<polygon class="st6" points="16,12.1 14.4,8 14.5,6.6 21.9,7.2 21.8,8.4 24.1,12.8 22.4,33.8 14.8,34.5 	"/>
	<polygon class="st2" points="12.1,11.8 14.4,8 16,12.1 14.8,34.5 10.8,32.2 	"/>
	
		<rect x="20" y="8.4" transform="matrix(7.776092e-02 -0.997 0.997 7.776092e-02 6.0395 31.5211)" class="st2" width="0.1" height="8.1"/>
	
		<rect x="18.1" y="4.5" transform="matrix(5.703969e-02 -0.9984 0.9984 5.703969e-02 8.9331 25.818)" class="st2" width="0.1" height="7.5"/>
	<path class="st2" d="M18.2,8.1c0.2,0.2-0.3,0.6-0.2,1.3s0.9,1.2,1.6,1.2c0.8,0,1.3-0.6,1.4-0.5c0.1,0.1-0.1,0.4-0.2,0.5
		c-0.1,0.1-0.2,0.5-0.6,0.7c-0.8,0.5-2-0.2-2.2-0.3c-0.3-0.2-0.8-0.5-1-1.1c-0.2-0.5,0-0.8,0-0.9C17.3,8.5,18,8.1,18.2,8.1L18.2,8.1
		z"/>
	<path class="st6" d="M21.2,10c-0.3,0.7-1.3,0.9-2,0.8c-1-0.2-2-1.2-1.7-2c0.2-0.8,1.4-1.2,2.3-0.9C20.7,8.1,21.5,9.3,21.2,10z"/>
</g>
</svg>
