<?xml version="1.0" encoding="UTF-8"?><svg id="Layer_1" xmlns="http://www.w3.org/2000/svg" width="90.38mm" height="96.18mm" viewBox="0 0 256.21 272.64"><defs><style>.cls-1{fill:#46b2b0;}.cls-1,.cls-2,.cls-3,.cls-4,.cls-5,.cls-6,.cls-7{stroke-width:0px;}.cls-2{fill:#c6e6e4;}.cls-3{fill:#e1f2f1;}.cls-4{fill:#8bccc9;}.cls-5{fill:#009995;}.cls-6{fill:#00403d;}.cls-7{fill:#007f7a;}</style></defs><path class="cls-6" d="m133.65,28.04v81.4c16.32,1.96,28.96,15.84,28.96,32.68,0,10.94-5.34,20.63-13.55,26.62l48.67,65.05c27.98-20.81,46.12-54.12,46.12-91.67,0-61.72-48.99-112-110.2-114.09Z"/><path class="cls-1" d="m111.4,114.75l-42.86-69.03c-18.85,11.98-33.95,29.34-43.14,49.92l73.25,35.5c2.39-6.74,6.91-12.48,12.75-16.39Z"/><path class="cls-2" d="m129.69,109.2c.98,0,1.94.05,2.9.13V28c-.96-.02-1.93-.04-2.9-.04-7.5,0-14.83.73-21.93,2.11l18.36,79.32c1.17-.13,2.37-.2,3.57-.2Z"/><path class="cls-4" d="m125.06,109.53l-18.34-79.25c-13.44,2.75-26.01,7.86-37.28,14.87l42.85,69.02c3.81-2.37,8.13-3.99,12.76-4.64Z"/><path class="cls-5" d="m96.76,142.13c0-3.48.54-6.83,1.54-9.98L24.98,96.61c-6.07,13.95-9.45,29.34-9.45,45.52,0,34.33,15.16,65.12,39.14,86.05l56.91-58.55c-8.92-5.89-14.81-16-14.81-27.49Z"/><path class="cls-7" d="m129.69,175.05c-6.3,0-12.19-1.77-17.2-4.85l-57.01,58.66c19.96,17.09,45.88,27.42,74.21,27.42,25.12,0,48.33-8.12,67.19-21.86l-48.68-65.06c-5.27,3.59-11.64,5.69-18.51,5.69Z"/><path class="cls-2" d="m239.65,118.82c-.68.36-.36,1.69-.78,3.67-.16.74-.35,1.22-.07,1.63.18.26.36.22.66.45.67.51.56,1.29.97,2.19.16.35.55,1.13,1.33,1.58.99.56,1.91.17,2.07.53.12.28-.48.56-1.2,1.48-.53.67-1.44,1.69-1.15,2.29.16.33.6.41.56.64-.03.19-.36.19-.53.47-.14.25-.04.52,0,.74.16.75-.21,1.13-.24,1.69-.07,1.51,2.48,2.74,2.23,3.16-.07.12-.27.02-.55.21-.36.24-.48.66-.52.84-.28,1.04.36,1.81,1.03,3.72.55,1.56.57,1.92,1.07,2.32.39.31,1.1.68,1.61.43.34-.17.29-.47.59-.58.45-.17.8.4,1.87.86.61.27,1.1.48,1.56.3.59-.23.5-.87,1.05-1.07.58-.21.96.4,1.65.33.28-.03.73-.17,1.57-1.42.69-1.01,1.45-2.14,1.71-3.87.22-1.39-.23-.95-.22-3.73,0-.46.02-1.61-.44-1.77-.21-.07-.46.07-.5-.01-.06-.1.38-.35.59-.63.57-.78-.61-1.88-.7-3.52-.1-1.7,1.08-1.94.8-3.44-.2-1.02-.98-2.14-1.97-2.39-.61-.15-.85.14-1.41-.08-.28-.11-.84-.43-1.35-1.85-.68-1.88-.08-2.36-.57-3.62-.6-1.52-2.19-2.6-3.42-3.01-.98-.33-1.79-.26-3.19-.99-.43-.23-.53-.32-.84-.39-1.57-.34-3.38,1.25-3.2,1.93.06.22.33.37.28.6-.04.18-.26.27-.35.32Z"/><path class="cls-2" d="m243.66,115.48c.12-.21-.09-.62-.38-.84-.19-.14-.49-.27-1.23-.16,0,0-2.04.31-3.28,2.07-.04.06-.13.19-.16.39-.08.54.41,1.14.64,1.08.11-.03.11-.22.19-.46.24-.74.9-1.16,1.25-1.38.73-.46,1.49-.53,1.78-.56.68-.06,1.06.07,1.19-.14Z"/><path class="cls-2" d="m244.04,116.15c.1-.12-.06-.5-.33-.7-.19-.14-.44-.18-1.35-.02-.8.14-1.2.21-1.47.35-.3.16-.65.57-1.35,1.4-.37.44-.52.64-.48.89.05.33.39.63.56.57.13-.05.09-.31.15-.6.14-.65.7-1.04,1.2-1.38.4-.27,1.21-.83,2.14-.68.49.08.82.32.93.19Z"/><path class="cls-3" d="m243.45,116.82c.21-.18.84.59,2.16,1.16,1.25.53,1.53.21,2.3.66,1.12.67,1.51,1.97,1.8,2.9.55,1.8.04,2.42.83,3.61.21.31.62.92,1.37,1.24.62.26.84.05,1.52.31.65.24,1.55.84,1.61,1.59.04.51-.34.55-.6,1.34-.32.98.12,1.36-.13,2.49-.06.28-.32,1.43-.78,1.49-.62.08-.97-1.89-2.48-4.53-1.51-2.66-2.18-2.45-2.96-4.52-.81-2.13-.25-2.71-1.18-3.75-.96-1.07-2.08-1.04-3.01-2.54-.34-.56-.63-1.28-.44-1.43Z"/><path class="cls-3" d="m244.38,139.92c-.09-.04-.73-.27-1.12.05-.21.18-.26.46-.28.68-.08,1,.37,1.69.85,3.05.5,1.4.47,1.93,1.05,2.3.33.21.86.43,1.1.24.17-.14.07-.41.24-.51.27-.15.72.44,1.02.3.18-.09.25-.41.21-.67-.08-.44-.51-.6-1.26-1.12-.87-.59-1.3-.89-1.52-1.36-.09-.2-.13-.72-.2-1.76-.01-.22-.07-.98-.08-1.22Z"/><polygon class="cls-3" points="220.55 114.44 217.21 108.2 217.12 105.95 228.98 105.5 229.05 107.36 233.41 113.95 234.69 147.47 222.65 149.97 220.55 114.44"/><polygon class="cls-2" points="214.19 114.69 217.21 108.2 220.55 114.44 222.65 149.97 216.05 147.13 214.19 114.69"/><rect class="cls-2" x="220.55" y="114.2" width="12.88" height=".16" transform="translate(-4.17 8.69) rotate(-2.17)"/><rect class="cls-2" x="217.19" y="107.75" width="11.87" height=".06" transform="translate(-5.94 13.29) rotate(-3.37)"/><path class="cls-2" d="m223.15,107.79c.28.15-.36,1.03.02,2.01.38.99,1.65,1.72,2.75,1.61,1.15-.12,1.88-1.17,2.13-.95.15.13-.04.58-.17.9-.07.16-.32.79-.83,1.19-1.25,1-3.26.09-3.5-.02-.49-.22-1.36-.62-1.74-1.56-.26-.65-.16-1.24-.12-1.42.23-1.08,1.2-1.91,1.48-1.76Z"/><path class="cls-3" d="m228.22,110.17c-.33,1.1-1.81,1.6-2.9,1.53-1.62-.1-3.33-1.53-3.11-2.89.2-1.26,2-2.13,3.48-1.84,1.54.3,2.92,1.9,2.54,3.2Z"/><path class="cls-2" d="m137.04,241.49c-.68.36-.36,1.69-.78,3.67-.16.74-.35,1.22-.07,1.63.18.26.36.22.66.45.67.51.56,1.29.97,2.19.16.35.55,1.13,1.33,1.58.99.56,1.91.17,2.07.53.12.28-.48.56-1.2,1.48-.53.67-1.44,1.69-1.15,2.29.16.33.6.41.56.64-.03.19-.36.19-.53.47-.14.25-.04.52,0,.74.16.75-.21,1.13-.24,1.69-.07,1.51,2.48,2.74,2.23,3.16-.07.12-.27.02-.55.21-.36.24-.48.66-.52.84-.28,1.04.36,1.81,1.03,3.72.55,1.56.57,1.92,1.07,2.32.39.31,1.1.68,1.61.43.34-.17.29-.47.59-.58.45-.17.8.4,1.87.86.61.27,1.1.48,1.56.3.59-.23.5-.87,1.05-1.07.58-.21.96.4,1.65.33.28-.03.73-.17,1.57-1.42.69-1.01,1.45-2.14,1.71-3.87.22-1.39-.23-.95-.22-3.73,0-.46.02-1.61-.44-1.77-.21-.07-.46.07-.5-.01-.06-.1.38-.35.59-.63.57-.78-.61-1.88-.7-3.52-.1-1.7,1.08-1.94.8-3.44-.2-1.02-.98-2.14-1.97-2.39-.61-.15-.85.14-1.41-.08-.28-.11-.84-.43-1.35-1.85-.68-1.88-.08-2.36-.57-3.62-.6-1.52-2.19-2.6-3.42-3.01-.98-.33-1.79-.26-3.19-.99-.43-.23-.53-.32-.84-.39-1.57-.34-3.38,1.25-3.2,1.93.06.22.33.37.28.6-.04.18-.26.27-.35.32Z"/><path class="cls-2" d="m141.05,238.16c.12-.21-.09-.62-.38-.84-.19-.14-.49-.27-1.23-.16,0,0-2.04.31-3.28,2.07-.04.06-.13.19-.16.39-.08.54.41,1.14.64,1.08.11-.03.11-.22.19-.46.24-.74.9-1.16,1.25-1.38.73-.46,1.49-.53,1.78-.56.68-.06,1.06.07,1.19-.14Z"/><path class="cls-2" d="m141.43,238.82c.1-.12-.06-.5-.33-.7-.19-.14-.44-.18-1.35-.02-.8.14-1.2.21-1.47.35-.3.16-.65.57-1.35,1.4-.37.44-.52.64-.48.89.05.33.39.63.56.57.13-.05.09-.31.15-.6.14-.65.7-1.04,1.2-1.38.4-.27,1.21-.83,2.14-.68.49.08.82.32.93.19Z"/><path class="cls-3" d="m140.84,239.5c.21-.18.84.59,2.16,1.16,1.25.53,1.53.21,2.3.66,1.12.67,1.51,1.97,1.8,2.9.55,1.8.04,2.42.83,3.61.21.31.62.92,1.37,1.24.62.26.84.05,1.52.31.65.24,1.55.84,1.61,1.59.04.51-.34.55-.6,1.34-.32.98.12,1.36-.13,2.49-.06.28-.32,1.43-.78,1.49-.62.08-.97-1.89-2.48-4.53-1.51-2.66-2.18-2.45-2.96-4.52-.81-2.13-.25-2.71-1.18-3.75-.96-1.07-2.08-1.04-3.01-2.54-.34-.56-.63-1.28-.44-1.43Z"/><path class="cls-3" d="m141.77,262.59c-.09-.04-.73-.27-1.12.05-.21.18-.26.46-.28.68-.08,1,.37,1.69.85,3.05.5,1.4.47,1.93,1.05,2.3.33.21.86.43,1.1.24.17-.14.07-.41.24-.51.27-.15.72.44,1.02.3.18-.09.25-.41.21-.67-.08-.44-.51-.6-1.26-1.12-.87-.59-1.3-.89-1.52-1.36-.09-.2-.13-.72-.2-1.76-.01-.22-.07-.98-.08-1.22Z"/><polygon class="cls-3" points="117.94 237.11 114.6 230.87 114.51 228.63 126.37 228.18 126.44 230.04 130.81 236.62 132.08 270.14 120.04 272.64 117.94 237.11"/><polygon class="cls-2" points="111.58 237.36 114.6 230.87 117.94 237.11 120.04 272.64 113.45 269.8 111.58 237.36"/><rect class="cls-2" x="117.94" y="236.87" width="12.88" height=".16" transform="translate(-8.89 4.89) rotate(-2.17)"/><rect class="cls-2" x="114.59" y="230.42" width="11.87" height=".06" transform="translate(-13.33 7.48) rotate(-3.37)"/><path class="cls-2" d="m120.55,230.46c.28.15-.36,1.03.02,2.01.38.99,1.65,1.72,2.75,1.61,1.15-.12,1.88-1.17,2.13-.95.15.13-.04.58-.17.9-.07.16-.32.79-.83,1.19-1.25,1-3.26.09-3.5-.02-.49-.22-1.36-.62-1.74-1.56-.26-.65-.16-1.24-.12-1.42.23-1.08,1.2-1.91,1.48-1.76Z"/><path class="cls-3" d="m125.61,232.84c-.33,1.1-1.81,1.6-2.9,1.53-1.62-.1-3.33-1.53-3.11-2.89.2-1.26,2-2.13,3.48-1.84,1.54.3,2.92,1.9,2.54,3.2Z"/><path class="cls-2" d="m25.46,145.03c-.68.36-.36,1.69-.78,3.67-.16.74-.35,1.22-.07,1.63.18.26.36.22.66.45.67.51.56,1.29.97,2.19.16.35.55,1.13,1.33,1.58.99.56,1.91.17,2.07.53.12.28-.48.56-1.2,1.48-.53.67-1.44,1.69-1.15,2.29.16.33.6.41.56.64-.03.19-.36.19-.53.47-.14.25-.04.52,0,.74.16.75-.21,1.13-.24,1.69-.07,1.51,2.48,2.74,2.23,3.16-.07.12-.27.02-.55.21-.36.24-.48.66-.52.84-.28,1.04.36,1.81,1.03,3.72.55,1.56.57,1.92,1.07,2.32.39.31,1.1.68,1.61.43.34-.17.29-.47.59-.58.45-.17.8.4,1.87.86.61.27,1.1.48,1.56.3.59-.23.5-.87,1.05-1.07.58-.21.96.4,1.65.33.28-.03.73-.17,1.57-1.42.69-1.01,1.45-2.14,1.71-3.87.22-1.39-.23-.95-.22-3.73,0-.46.02-1.61-.44-1.77-.21-.07-.46.07-.5-.01-.06-.1.38-.35.59-.63.57-.78-.61-1.88-.7-3.52-.1-1.7,1.08-1.94.8-3.44-.2-1.02-.98-2.14-1.97-2.39-.61-.15-.85.14-1.41-.08-.28-.11-.84-.43-1.35-1.85-.68-1.88-.08-2.36-.57-3.62-.6-1.52-2.19-2.6-3.42-3.01-.98-.33-1.79-.26-3.19-.99-.43-.23-.53-.32-.84-.39-1.57-.34-3.38,1.25-3.2,1.93.06.22.33.37.28.6-.04.18-.26.27-.35.32Z"/><path class="cls-2" d="m29.47,141.69c.12-.21-.09-.62-.38-.84-.19-.14-.49-.27-1.23-.16,0,0-2.04.31-3.28,2.07-.04.06-.13.19-.16.39-.08.54.41,1.14.64,1.08.11-.03.11-.22.19-.46.24-.74.9-1.16,1.25-1.38.73-.46,1.49-.53,1.78-.56.68-.06,1.06.07,1.19-.14Z"/><path class="cls-2" d="m29.85,142.36c.1-.12-.06-.5-.33-.7-.19-.14-.44-.18-1.35-.02-.8.14-1.2.21-1.47.35-.3.16-.65.57-1.35,1.4-.37.44-.52.64-.48.89.05.33.39.63.56.57.13-.05.09-.31.15-.6.14-.65.7-1.04,1.2-1.38.4-.27,1.21-.83,2.14-.68.49.08.82.32.93.19Z"/><path class="cls-3" d="m29.26,143.03c.21-.18.84.59,2.16,1.16,1.25.53,1.53.21,2.3.66,1.12.67,1.51,1.97,1.8,2.9.55,1.8.04,2.42.83,3.61.21.31.62.92,1.37,1.24.62.26.84.05,1.52.31.65.24,1.55.84,1.61,1.59.04.51-.34.55-.6,1.34-.32.98.12,1.36-.13,2.49-.06.28-.32,1.43-.78,1.49-.62.08-.97-1.89-2.48-4.53-1.51-2.66-2.18-2.45-2.96-4.52-.81-2.13-.25-2.71-1.18-3.75-.96-1.07-2.08-1.04-3.01-2.54-.34-.56-.63-1.28-.44-1.43Z"/><path class="cls-3" d="m30.19,166.12c-.09-.04-.73-.27-1.12.05-.21.18-.26.46-.28.68-.08,1,.37,1.69.85,3.05.5,1.4.47,1.93,1.05,2.3.33.21.86.43,1.1.24.17-.14.07-.41.24-.51.27-.15.72.44,1.02.3.18-.09.25-.41.21-.67-.08-.44-.51-.6-1.26-1.12-.87-.59-1.3-.89-1.52-1.36-.09-.2-.13-.72-.2-1.76-.01-.22-.07-.98-.08-1.22Z"/><polygon class="cls-3" points="6.36 140.64 3.01 134.41 2.93 132.16 14.79 131.71 14.86 133.57 19.22 140.16 20.49 173.68 8.45 176.17 6.36 140.64"/><polygon class="cls-2" points="0 140.9 3.01 134.41 6.36 140.64 8.45 176.17 1.86 173.33 0 140.9"/><rect class="cls-2" x="6.35" y="140.4" width="12.88" height=".16" transform="translate(-5.32 .59) rotate(-2.17)"/><rect class="cls-2" x="3" y="133.96" width="11.87" height=".06" transform="translate(-7.85 .76) rotate(-3.37)"/><path class="cls-2" d="m8.96,134c.28.15-.36,1.03.02,2.01.38.99,1.65,1.72,2.75,1.61,1.15-.12,1.88-1.17,2.13-.95.15.13-.04.58-.17.9-.07.16-.32.79-.83,1.19-1.25,1-3.26.09-3.5-.02-.49-.22-1.36-.62-1.74-1.56-.26-.65-.16-1.24-.12-1.42.23-1.08,1.2-1.91,1.48-1.76Z"/><path class="cls-3" d="m14.03,136.37c-.33,1.1-1.81,1.6-2.9,1.53-1.62-.1-3.33-1.53-3.11-2.89.2-1.26,2-2.13,3.48-1.84,1.54.3,2.92,1.9,2.54,3.2Z"/><path class="cls-2" d="m43.87,53.88c-.72.27-.55,1.64-1.2,3.55-.24.72-.49,1.17-.25,1.61.15.28.33.26.61.52.61.59.41,1.35.71,2.29.12.37.42,1.19,1.14,1.72.91.67,1.88.39,1.99.77.09.29-.54.5-1.37,1.34-.6.61-1.62,1.51-1.4,2.15.12.34.55.48.49.7-.05.19-.38.14-.58.41-.17.23-.1.51-.08.73.07.77-.34,1.1-.44,1.65-.25,1.49,2.14,3.01,1.85,3.4-.08.11-.27,0-.57.14-.39.19-.55.6-.62.77-.39,1,.15,1.84.59,3.81.36,1.61.35,1.98.79,2.43.35.35,1.02.8,1.55.61.36-.13.34-.43.65-.51.46-.11.75.49,1.75,1.07.58.34,1.04.6,1.51.47.61-.16.59-.81,1.17-.94.6-.14.91.51,1.6.52.28,0,.74-.09,1.72-1.23.8-.93,1.68-1.96,2.15-3.64.37-1.36-.12-.97.21-3.73.06-.46.21-1.6-.23-1.81-.2-.1-.46.01-.49-.07-.04-.11.42-.3.66-.56.66-.71-.39-1.93-.29-3.57.1-1.7,1.3-1.8,1.19-3.33-.08-1.03-.73-2.24-1.69-2.6-.59-.22-.86.04-1.39-.24-.27-.14-.78-.52-1.13-1.99-.46-1.94.19-2.36-.15-3.66-.42-1.58-1.87-2.83-3.05-3.38-.93-.44-1.75-.47-3.05-1.36-.4-.27-.49-.38-.79-.49-1.52-.52-3.5.85-3.4,1.55.03.23.29.41.21.63-.07.18-.29.24-.38.28Z"/><path class="cls-2" d="m48.24,51.02c.15-.2-.02-.63-.28-.87-.17-.16-.46-.32-1.2-.3,0,0-2.06.07-3.5,1.68-.05.05-.15.18-.2.37-.14.53.28,1.18.51,1.15.12-.02.14-.2.24-.44.32-.71,1.02-1.05,1.4-1.23.78-.37,1.54-.36,1.83-.35.68.02,1.05.2,1.2,0Z"/><path class="cls-2" d="m48.54,51.73c.12-.11,0-.51-.25-.73-.17-.16-.42-.23-1.33-.18-.81.05-1.22.07-1.5.18-.32.12-.71.49-1.5,1.23-.42.4-.59.58-.58.83,0,.33.32.67.49.63.14-.03.12-.3.22-.58.21-.63.82-.95,1.35-1.24.42-.22,1.29-.68,2.2-.43.48.13.78.41.9.29Z"/><path class="cls-3" d="m47.87,52.33c.23-.15.76.68,2.02,1.4,1.18.68,1.5.38,2.2.92,1.03.79,1.28,2.13,1.45,3.09.33,1.85-.24,2.41.41,3.68.17.34.51.99,1.22,1.39.59.33.82.15,1.47.48.62.32,1.44,1.01,1.42,1.77-.02.51-.4.5-.75,1.26-.43.94-.04,1.36-.41,2.45-.09.27-.48,1.38-.95,1.39-.63,0-.74-1.99-1.94-4.79-1.2-2.82-1.88-2.69-2.42-4.83-.56-2.21.07-2.72-.74-3.87-.83-1.17-1.95-1.28-2.69-2.87-.28-.6-.48-1.34-.28-1.47Z"/><path class="cls-3" d="m46.13,75.38c-.09-.05-.7-.36-1.12-.08-.23.15-.31.42-.36.64-.2.98.17,1.72.49,3.13.33,1.44.24,1.98.78,2.4.31.24.8.53,1.06.37.19-.12.12-.4.3-.47.29-.12.66.52.98.42.19-.06.3-.38.28-.64-.03-.45-.44-.66-1.13-1.25-.79-.69-1.19-1.04-1.35-1.52-.07-.21-.04-.73,0-1.77.01-.22.05-.98.06-1.22Z"/><polygon class="cls-3" points="25.4 47.32 22.8 40.73 22.98 38.49 34.81 39.41 34.66 41.27 38.24 48.32 35.63 81.76 23.38 82.85 25.4 47.32"/><polygon class="cls-2" points="19.06 46.83 22.8 40.73 25.4 47.32 23.38 82.85 17.16 79.26 19.06 46.83"/><rect class="cls-2" x="25.37" y="47.82" width="12.88" height=".16" transform="translate(3.82 -2.33) rotate(4.46)"/><rect class="cls-2" x="22.8" y="40.97" width="11.87" height=".06" transform="translate(2.39 -1.57) rotate(3.27)"/><path class="cls-2" d="m28.76,41.01c.26.18-.48.98-.22,1.99.26,1.02,1.44,1.9,2.54,1.92,1.16.01,2-.94,2.22-.7.13.15-.1.57-.27.87-.08.15-.41.74-.96,1.09-1.35.85-3.25-.29-3.48-.43-.46-.28-1.28-.77-1.55-1.75-.19-.68-.02-1.25.04-1.42.35-1.05,1.41-1.76,1.67-1.58Z"/><path class="cls-3" d="m33.52,43.96c-.45,1.06-1.98,1.38-3.06,1.19-1.59-.29-3.14-1.9-2.76-3.23.35-1.22,2.23-1.89,3.67-1.43,1.49.48,2.68,2.22,2.15,3.47Z"/><polygon class="cls-3" points="78.65 10.27 74.27 4.71 73.79 2.51 85.39 0 85.79 1.82 91.23 7.55 98.32 40.33 86.9 44.89 78.65 10.27"/><polygon class="cls-2" points="72.43 11.62 74.27 4.71 78.65 10.27 86.9 44.89 79.91 43.24 72.43 11.62"/><rect class="cls-2" x="78.52" y="8.91" width="12.88" height=".16" transform="translate(.02 18.15) rotate(-12.2)"/><rect class="cls-2" x="74.09" y="3.23" width="11.87" height=".06" transform="translate(1.42 18.62) rotate(-13.39)"/><path class="cls-2" d="m80.06,3.27c.3.1-.18,1.07.37,1.97.55.9,1.93,1.41,2.99,1.11,1.11-.32,1.65-1.48,1.93-1.31.17.1.06.58,0,.91-.04.17-.18.83-.61,1.32-1.05,1.2-3.2.65-3.45.59-.52-.13-1.45-.37-1.99-1.23-.37-.59-.38-1.19-.37-1.37.04-1.11.84-2.09,1.15-1.99Z"/><path class="cls-3" d="m85.46,4.73c-.13,1.14-1.5,1.89-2.59,2.01-1.61.18-3.55-.93-3.57-2.31-.02-1.27,1.6-2.45,3.11-2.42,1.57.03,3.21,1.36,3.05,2.71Z"/><path class="cls-2" d="m113.88,6.1c-.72.27-.55,1.64-1.2,3.55-.24.72-.49,1.17-.25,1.61.15.28.33.26.61.52.61.59.41,1.35.71,2.29.12.37.42,1.19,1.14,1.72.91.67,1.88.39,1.99.77.09.29-.54.5-1.37,1.34-.6.61-1.62,1.51-1.4,2.15.12.34.55.48.49.7-.05.19-.38.14-.58.41-.17.23-.1.51-.08.73.07.77-.34,1.1-.44,1.65-.25,1.49,2.14,3.01,1.85,3.4-.08.11-.27,0-.57.14-.39.19-.55.6-.62.77-.39,1,.15,1.84.59,3.81.36,1.61.35,1.98.79,2.43.35.35,1.02.8,1.55.61.36-.13.34-.43.65-.51.46-.11.75.49,1.75,1.07.58.34,1.04.6,1.51.47.61-.16.59-.81,1.17-.94.6-.14.91.51,1.6.52.28,0,.74-.09,1.72-1.23.8-.93,1.68-1.96,2.15-3.64.37-1.36-.12-.97.21-3.73.06-.46.21-1.6-.23-1.81-.2-.1-.46.01-.49-.07-.04-.11.42-.3.66-.56.66-.71-.39-1.93-.29-3.57.1-1.7,1.3-1.8,1.19-3.33-.08-1.03-.73-2.24-1.69-2.6-.59-.22-.86.04-1.39-.24-.27-.14-.78-.52-1.13-1.99-.46-1.94.19-2.36-.15-3.66-.42-1.58-1.87-2.83-3.05-3.38-.93-.44-1.75-.47-3.05-1.36-.4-.27-.49-.38-.79-.49-1.52-.52-3.5.85-3.4,1.55.03.23.29.41.21.63-.07.18-.29.24-.38.28Z"/><path class="cls-2" d="m118.25,3.25c.15-.2-.02-.63-.28-.87-.17-.16-.46-.32-1.2-.3,0,0-2.06.07-3.5,1.68-.05.05-.15.18-.2.37-.14.53.28,1.18.51,1.15.12-.02.14-.2.24-.44.32-.71,1.02-1.05,1.4-1.23.78-.37,1.54-.36,1.83-.35.68.02,1.05.2,1.2,0Z"/><path class="cls-2" d="m118.55,3.96c.12-.11,0-.51-.25-.73-.17-.16-.42-.23-1.33-.18-.81.05-1.22.07-1.5.18-.32.12-.71.49-1.5,1.23-.42.4-.59.58-.58.83,0,.33.32.67.49.63.14-.03.12-.3.22-.58.21-.63.82-.95,1.35-1.24.42-.22,1.29-.68,2.2-.43.48.13.78.41.9.29Z"/><path class="cls-3" d="m117.88,4.56c.23-.15.76.68,2.02,1.4,1.18.68,1.5.38,2.2.92,1.03.79,1.28,2.13,1.45,3.09.33,1.85-.24,2.41.41,3.68.17.34.51.99,1.22,1.39.59.33.82.15,1.47.48.62.32,1.44,1.01,1.42,1.77-.02.51-.4.5-.75,1.26-.43.94-.04,1.36-.41,2.45-.09.27-.48,1.38-.95,1.39-.63,0-.74-1.99-1.94-4.79-1.2-2.82-1.88-2.69-2.42-4.83-.56-2.21.07-2.72-.74-3.87-.83-1.17-1.95-1.28-2.69-2.87-.28-.6-.48-1.34-.28-1.47Z"/><path class="cls-3" d="m116.14,27.6c-.09-.05-.7-.36-1.12-.08-.23.15-.31.42-.36.64-.2.98.17,1.72.49,3.13.33,1.44.24,1.98.78,2.4.31.24.8.53,1.06.37.19-.12.12-.4.3-.47.29-.12.66.52.98.42.19-.06.3-.38.28-.64-.03-.45-.44-.66-1.13-1.25-.79-.69-1.19-1.04-1.35-1.52-.07-.21-.04-.73,0-1.77.01-.22.05-.98.06-1.22Z"/></svg>