<?xml version="1.0" encoding="UTF-8"?><svg id="Layer_1" xmlns="http://www.w3.org/2000/svg" width="47.66" height="51.8" viewBox="0 0 47.66 51.8"><defs><style>.cls-1{opacity:.55;}.cls-2{fill:#c6e6e4;}.cls-2,.cls-3{stroke-width:0px;}.cls-3{fill:#e1f2f1;}</style></defs><g class="cls-1"><path class="cls-3" d="m34.96,41.25c1.31-1.72,2.73-3.35,3.94-5.14,1.23-1.83,1.69-2.74,2.89-3.17.91-.33,1.46-.09,2.28-.68.87-.63.63-1.18,1.59-2.07.97-.89,1.71-.78,1.93-1.48.19-.58-.14-1.26-.47-1.67-.83-1.04-2.26-.55-4.71-.94-1.04-.16-3.22-.51-5.35-1.86-1.17-.74-2.46-1.88-3.82-1.55-.28.07-.47.18-.8.14-.97-.11-1.87-1.32-1.91-2.46-.03-.75.34-.76.41-1.59.1-1.27-.64-2.71-1.74-3.2-.67-.3-.88.02-1.42-.26-1.37-.72-1.78-3.8-.62-4.87.53-.49,1.24-.41,1.67-1.16.25-.43.2-.78.25-1.13.18-1.49,1.85-1.64,3.53-3.55,1.49-1.69,1.4-2.95,2.81-3.41.43-.14.81-.15,1.09-.14.07.14.22.34.24.6.07.72-.83,1.47-.88,2.03-.05.46.14.42.25,1.54.03.25.08.76.06,1.13-.07,1.42-1.26,2.49-1.54,2.74-1.2,1.08-2.61,1.3-3.08,1.36-1.93.27-2.94-.51-3.78.22-.39.35-.5.82-.61,1.28-.2.89-.14,2.32.68,2.87.63.42,1.1-.07,1.85.39.78.48.79,1.33,1.2,1.34.37.01.56-.7,1.04-1.63,1.01-1.95,2.51-3.34,3.46-4.2.64-.59.71-.56.99-.91.24-.3.93-1.23,1.15-3.42.05-.54.41-4.71-.63-5.39-.18-.3-2.72-1.57-4.92-.74-1.69.64-2.25,2.16-3.74,2.04-.32-.02-.93-.14-1.61.15-.44.19-.6.42-.88.61-.93.63-2.22.18-2.7.08-1.42-.3-3.46.7-8.57,6.01-3.18,3.31-2.56,3.1-4.48,4.96C4.91,19.12.2,20.88.01,24.18c-.02.33-.02,1.11.05,1.96.14,1.77.48,2.71.8,4.13.5,2.21.15,1.98.73,5.42.39,2.33.59,3.5.99,4.2.79,1.42,1.75,1.97,1.69,3.23-.04.74-.4,1.28-.07,1.84.24.39.57.38,1.12.67,1.1.59,1.13,1.37,2.26,2.56.54.56.98.87,1.81,1.43.22.15,2.39,1.59,4.23,2.03,3.21.76,6.58-1.32,10.97-4.03.92-.56,1.88-1.22,3.45-1.77,1.9-.67,2.48-.41,3.69-1.03.8-.4,1.15-.82,3.24-3.57Zm4.84-9.27c-.78-.23-1.82-.92-1.79-1.69.02-.62.72-1.01,2.12-1.79.92-.52,1.67-.94,2.77-1.15,1.45-.27,3.13-.11,3.22.32.07.35-1,.49-2,1.72-.65.8-.45,1.06-1,1.64-.74.77-2.07,1.33-3.32.96Z"/><path class="cls-2" d="m33.73,35.21c-.51.3-.59.72-1.55,4.12-.7,2.48-.92,3.18-1.61,3.83-.63.59-1.21.72-2.24,1.07-.17.06-1.94.9-5.49,2.59-4.63,2.2-4.65,2.35-5.57,2.48-1.96.27-4.88,0-5.38-1.42-.28-.81.24-1.9.97-2.47,1.08-.85,2.13-.18,4.64-.39,1.25-.11,4.08-.35,4.62-1.74.52-1.33-1.52-2.57-.95-4.04.45-1.16,2.18-1.54,2.79-1.67,2.15-.47,2.92.61,4.22-.06.98-.51,1.42-1.58,2.05-3.13.26-.64.59-1.44.7-2.56.08-.79.34-3.37-1.2-4.91-.94-.93-1.63-.57-2.49-1.57-1.09-1.27-1.18-3.24-.71-3.47.39-.19,1,.91,3.4,2.81,1.02.81,1.54,1.22,2.12,1.42,1.7.6,2.82-.1,3.42.59.39.46,0,.88.03,2.37.04,1.98.78,3.61,1.02,4.13.64,1.37,1.23,1.86,1.02,2.19-.39.58-2.42-.96-3.8-.16Z"/><path class="cls-2" d="m27.1,4.2c-.53.25-1.06.45-1.73.46-1.01.01-1.39-.44-2.18-.49-.51-.03-1.23.09-2.74,1.34-1.31,1.1-1.86,1.92-3.37,3.84-1.95,2.47-2.93,3.71-3.59,4.2-1.36,1.03-2.35,1.28-2.76,2.46-.3.85-.23,2,.33,2.33.56.33,1.18-.4,2.98-1.04,1.98-.7,2.28-.19,3.28-.78,1.98-1.16,1.68-3.7,2.7-3.81.91-.09,1.24,1.89,3.62,4.24.73.72,2.63,2.6,3.72,2.07.55-.27.85-1.14.73-1.87-.24-1.44-2.01-1.37-3.18-3.29-.1-.16-1.25-2.11-.48-3.41.41-.7,1.36-1.17,1.53-1.25.66-.33.84-.21,1.24-.5.71-.52.58-1.25,1.01-2.05.61-1.12,1.4-.7,2.76-1.9,1.57-1.38,1.24-2.58,2.9-3.53.61-.35,1.22-.52,1.19-.62-.04-.13-1.12-.05-2.08.22-2.3.63-3.01,2.03-5.89,3.36Z"/><path class="cls-2" d="m5.01,20.13c-.35-.31-1.96.55-2.9,1.89-1.06,1.51-1.01,3.26-.97,5.01.02.98.16,1.66.35,2.61.22,1.14.41,2.09.73,2.11.44.03.9-1.72.94-1.87.64-2.51-.39-3.08.22-5.04.27-.86.58-1.13,1.34-3.24.37-1.03.43-1.34.29-1.46Z"/></g></svg>