<?xml version="1.0" encoding="utf-8"?>
<!-- Generator: Adobe Illustrator 28.0.0, SVG Export Plug-In . SVG Version: 6.00 Build 0)  -->
<svg version="1.1" id="Layer_1" xmlns="http://www.w3.org/2000/svg" xmlns:xlink="http://www.w3.org/1999/xlink" x="0px" y="0px"
	 viewBox="0 0 800 800" style="enable-background:new 0 0 800 800;" xml:space="preserve">
<style type="text/css">
	.st0{fill:none;}
	.st1{fill:#FF1054;}
</style>
<path class="st0" d="M0,0h800v800H0V0z"/>
<path class="st1" d="M400,66.7c90.6,0,101.9,0.3,137.4,2c35.5,1.7,59.7,7.2,80.9,15.5c22,8.5,40.5,19.9,59.1,38.4
	c16.9,16.7,30.1,36.8,38.4,59.1c8.2,21.2,13.8,45.4,15.5,80.9c1.6,35.5,2,46.8,2,137.4s-0.3,101.9-2,137.4
	c-1.7,35.5-7.3,59.7-15.5,80.9c-8.3,22.3-21.5,42.4-38.4,59.1c-16.7,16.9-36.8,30.1-59.1,38.4c-21.2,8.2-45.4,13.8-80.9,15.5
	c-35.5,1.6-46.8,2-137.4,2s-101.9-0.3-137.4-2c-35.5-1.7-59.7-7.3-80.9-15.5c-22.3-8.4-42.4-21.5-59.1-38.4
	c-17-16.7-30.1-36.8-38.4-59.1c-8.3-21.2-13.8-45.4-15.5-80.9c-1.6-35.5-2-46.8-2-137.4s0.3-101.9,2-137.4s7.2-59.7,15.5-80.9
	c8.3-22.3,21.5-42.4,38.4-59.1c16.7-17,36.8-30.1,59.1-38.4c21.3-8.3,45.4-13.8,80.9-15.5C298.1,67.1,309.4,66.7,400,66.7z
	 M400,233.3c-92,0-166.7,74.6-166.7,166.7S308,566.7,400,566.7S566.7,492,566.7,400S492,233.3,400,233.3z M616.7,225
	c0-23-18.7-41.7-41.7-41.7S533.3,202,533.3,225s18.7,41.7,41.7,41.7S616.7,248,616.7,225z M400,300c55.2,0,100,44.8,100,100
	s-44.8,100-100,100s-100-44.8-100-100S344.8,300,400,300z"/>
</svg>
