<?xml version="1.0" encoding="utf-8"?>
<!-- Generator: Adobe Illustrator 28.0.0, SVG Export Plug-In . SVG Version: 6.00 Build 0)  -->
<svg version="1.1" id="Layer_1" xmlns="http://www.w3.org/2000/svg" xmlns:xlink="http://www.w3.org/1999/xlink" x="0px" y="0px"
	 viewBox="0 0 256 235.1" style="enable-background:new 0 0 256 235.1;" xml:space="preserve">
<style type="text/css">
	.st0{fill:#FF1054;}
</style>
<rect x="6.6" y="75.4" class="st0" width="49.9" height="159.7"/>
<path class="st0" d="M30.5,0C12.1,0,0,11.9,0,27.7c0,15.5,11.7,27.7,29.8,27.7h0.4c18.8,0,30.5-12.3,30.4-27.7
	C60.2,11.9,48.9,0,30.5,0z"/>
<path class="st0" d="M192.8,73.9c-28.6,0-46.5,15.6-49.8,26.6V75.4H86.9c0.7,13.3,0,159.7,0,159.7H143v-86.3c0-4.9-0.2-9.7,1.2-13.1
	c3.8-9.6,12.1-19.6,27-19.6c19.5,0,28.3,14.8,28.3,36.4v82.6h56.6v-88.8C256.1,96.9,228.3,73.9,192.8,73.9z"/>
</svg>
