<?xml version="1.0" encoding="utf-8"?>
<!-- Generator: Adobe Illustrator 28.0.0, SVG Export Plug-In . SVG Version: 6.00 Build 0)  -->
<svg version="1.1" id="Layer_1" xmlns="http://www.w3.org/2000/svg" xmlns:xlink="http://www.w3.org/1999/xlink" x="0px" y="0px"
	 viewBox="0 0 800 800" style="enable-background:new 0 0 800 800;" xml:space="preserve">
<style type="text/css">
	.st0{fill-rule:evenodd;clip-rule:evenodd;fill:#FF1054;}
</style>
<g id="icon" transform="translate(42.666738, 106.667236)">
	<path id="Shape" class="st0" d="M358.9,60c18.9,0,209.5,0.7,258.9,13.9c28.7,7.6,51.3,30.1,59,59c13.4,49.9,13.9,151.7,13.9,159.8
		v1c0,8.1-0.6,110.2-13.9,160.1c-7.7,28.8-30.3,51.3-59,59c-50.9,13.6-252.2,13.9-260.2,13.9h-0.5c-8,0-209.3-0.3-260.3-13.9
		c-28.7-7.6-51.3-30.1-58.9-59C24.6,403.9,24,301.8,24,293.7v-1c0-8.1,0.6-109.9,13.9-159.8c7.7-28.8,30.3-51.3,58.9-59
		c49.4-13.2,240-13.9,259-13.9H358.9z M289.1,194.8v197.1l174.3-98.7L289.1,194.8z"/>
</g>
</svg>
