<?xml version="1.0" encoding="UTF-8"?><svg id="Layer_1" xmlns="http://www.w3.org/2000/svg" width="85.55" height="84.85" viewBox="0 0 85.55 84.85"><defs><style>.cls-1{stroke-linejoin:round;}.cls-1,.cls-2{fill:#fff;}.cls-1,.cls-3{stroke:#221f20;stroke-width:.75px;}.cls-4{fill:#221f20;}.cls-4,.cls-2{stroke-width:0px;}.cls-3{fill:#da3652;stroke-miterlimit:10;}</style></defs><path class="cls-1" d="m.4,33.75h84.77v50.26c0,.26-.21.47-.47.47H.87c-.26,0-.47-.21-.47-.47v-50.26H.4Z"/><path class="cls-2" d="m.75,34.2c-.16,0-.3-.1-.35-.25-.05-.15,0-.32.12-.42L42.53.46c.07-.05.15-.08.23-.08s.16.03.23.08l42.02,33.08c.12.1.17.27.12.42-.05.15-.19.25-.35.25H.75Z"/><path class="cls-4" d="m42.77.75l21.01,16.54,21.01,16.54H.75l21.01-16.54L42.77.75m0-.75c-.16,0-.33.05-.46.16l-21.01,16.54L.29,33.24c-.25.2-.35.53-.24.83.1.3.39.5.71.5h84.03c.32,0,.6-.2.71-.5.1-.3,0-.64-.24-.83l-21.01-16.54L43.23.16c-.14-.11-.3-.16-.46-.16h0Z"/><path class="cls-4" d="m42.79,34.35h42.39l-21.19,16.74-20.59,16.27c-.33.26-.87.26-1.2,0l-20.59-16.27L.4,34.35h42.39Z"/><path class="cls-3" d="m52.93,30.49c-.42-.77-1.99-3.48-5.44-2.65-3.45.83-4.88,5.31-4.88,5.31,0,0-1.43-4.48-4.88-5.31-3.45-.83-5.02,1.89-5.44,2.65-.42.77-1.04,3.67,1.1,6.46,2.14,2.8,9.22,8.29,9.22,8.29,0,0,7.08-5.49,9.22-8.29,2.14-2.8,1.52-5.7,1.1-6.46Z"/></svg>