<?xml version="1.0" encoding="UTF-8"?><svg id="Layer_1" xmlns="http://www.w3.org/2000/svg" width="91.69" height="98.72" viewBox="0 0 91.69 98.72"><defs><style>.cls-1{stroke-linejoin:round;}.cls-1,.cls-2{fill:#fff;}.cls-1,.cls-3{stroke:#221f20;stroke-width:.75px;}.cls-4{fill:#221f20;}.cls-4,.cls-2{stroke-width:0px;}.cls-3{fill:#da3652;stroke-miterlimit:10;}</style></defs><path class="cls-1" d="m.38,39.21h90.94v58.67c0,.26-.21.47-.47.47H.85c-.26,0-.47-.21-.47-.47v-58.67H.38Z"/><path class="cls-2" d="m.75,39.68c-.16,0-.3-.1-.35-.25-.05-.15-.01-.31.11-.42L45.58.46c.07-.06.16-.09.24-.09s.17.03.24.09l45.07,38.56c.12.1.16.27.11.42-.05.15-.19.25-.35.25H.75Z"/><path class="cls-4" d="m45.82.75l22.54,19.28,22.54,19.28H.75l22.54-19.28L45.82.75m0-.75c-.17,0-.35.06-.49.18l-22.54,19.28L.26,38.74c-.24.2-.32.54-.22.83.11.29.39.49.7.49h90.14c.31,0,.59-.2.7-.49.11-.29.02-.63-.22-.83l-22.54-19.28L46.31.18c-.14-.12-.31-.18-.49-.18h0Z"/><path class="cls-4" d="m45.84,39.92h45.47l-22.73,19.52-22.09,18.96c-.35.3-.93.3-1.28,0l-22.09-18.96L.38,39.92h45.47Z"/><path class="cls-3" d="m56.73,35.42c-.45-.89-2.13-4.06-5.84-3.09-3.7.97-5.23,6.19-5.23,6.19,0,0-1.53-5.22-5.23-6.19-3.7-.97-5.39,2.2-5.84,3.09-.45.89-1.12,4.27,1.18,7.53,2.3,3.26,9.89,9.66,9.89,9.66,0,0,7.59-6.4,9.89-9.66s1.63-6.64,1.18-7.53Z"/></svg>