<?xml version="1.0" encoding="UTF-8"?><svg id="Layer_1" xmlns="http://www.w3.org/2000/svg" width="107.12" height="101.82" viewBox="0 0 107.12 101.82"><defs><style>.cls-1,.cls-2{stroke-miterlimit:10;}.cls-1,.cls-2,.cls-3{stroke:#221f20;stroke-width:.75px;}.cls-1,.cls-3{fill:#fff;stroke-linecap:round;}.cls-2{fill:#da3652;}.cls-3{stroke-linejoin:round;}</style></defs><path class="cls-3" d="m84.66,54.91s3.02-.28,7.83-.89c3.45-.43,6.01-1.07,7.18-1.4.35-.1.69.19.66.55l-.65,10.42c-.02.33-.34.57-.66.49-1.52-.4-5.49-1.17-8.61-1.48-3.86-.39-7.63,1.34-9.06,1.69s-13.87,5.59-16.09,5.77c-2.21.17-3.21-.52-5.29-.65-2.08-.13-6.23-1.72-6.23-1.72,0,0-1.26.02-3.34-2.48-2.08-2.5-4.46-3.66-5.59-4.74s.94-2.32,2.46-2.19,3.63,2.06,6.54,4.06c2.94,2.03,11.1,1.44,11.1,1.4"/><path class="cls-1" d="m87.8,55.95s-5.67-3.58-9.74-3.33c-4.07.25-13.62,3.67-14.2,3.84s-8.38,0-9.78.23c-1.4.23-2.8,1.27-2.62,2.27.19,1.09,1.54,1.93,3.14,1.86,1.93-.08,6.87-.7,7.8-.41s2.33.47,3.73,1.4,3.67,1.69,5.3,1.46,2.5-.64,2.5-.64"/><path class="cls-3" d="m31.08,76.85s-3.02-.28-7.83-.89c-3.45-.43-6.01-1.07-7.18-1.4-.35-.1-.69.19-.66.55l.65,10.42c.02.33.34.57.66.49,1.52-.4,5.49-1.17,8.61-1.48,3.86-.39,7.63,1.34,9.06,1.69s13.87,5.59,16.09,5.77c2.21.17,3.21-.52,5.29-.65s6.23-1.72,6.23-1.72c0,0,1.26.02,3.34-2.48,2.08-2.5,4.46-3.66,5.59-4.74,1.13-1.08-.94-2.32-2.46-2.19-1.52.13-3.63,2.06-6.54,4.06-2.94,2.03-11.1,1.44-11.1,1.4"/><path class="cls-1" d="m27.93,77.89s5.67-3.58,9.74-3.33c4.07.25,13.62,3.67,14.2,3.84s8.38,0,9.78.23,2.8,1.27,2.62,2.27c-.19,1.09-1.54,1.93-3.14,1.86-1.93-.08-6.87-.7-7.8-.41-.93.29-2.33.47-3.73,1.4-1.4.93-3.67,1.69-5.3,1.46s-2.5-.64-2.5-.64"/><path class="cls-3" d="m24.46,23.75s-3.43-.32-8.89-1.01c-3.91-.49-6.82-1.21-8.15-1.58-.4-.11-.78.21-.75.63l.73,11.83c.02.38.38.65.75.55,1.72-.45,6.23-1.32,9.78-1.68,4.38-.44,8.66,1.53,10.28,1.92s15.74,6.35,18.25,6.54,3.64-.59,6-.74,7.07-1.95,7.07-1.95c0,0,1.43.02,3.79-2.81,2.36-2.84,5.06-4.15,6.34-5.38s-1.07-2.64-2.79-2.49c-1.72.15-4.12,2.33-7.42,4.61-3.34,2.3-12.59,1.64-12.6,1.59"/><path class="cls-1" d="m20.9,24.93s6.44-4.06,11.06-3.78c4.62.28,15.45,4.16,16.11,4.36s9.51,0,11.1.26,3.17,1.44,2.97,2.58c-.22,1.23-1.75,2.19-3.57,2.11-2.19-.09-7.8-.79-8.85-.46-1.06.33-2.64.53-4.23,1.59s-4.16,1.92-6.01,1.65-2.84-.73-2.84-.73"/><path class="cls-2" d="m59.53,13.03c-.24-.49-1.16-2.21-3.18-1.69-2.02.53-2.85,3.37-2.85,3.37,0,0-.83-2.85-2.85-3.37-2.02-.53-2.94,1.2-3.18,1.69-.24.49-.61,2.33.64,4.11,1.25,1.78,5.39,5.27,5.39,5.27,0,0,4.14-3.49,5.39-5.27,1.25-1.78.89-3.62.64-4.11Z"/></svg>