<?xml version="1.0" encoding="UTF-8"?><svg id="Layer_1" xmlns="http://www.w3.org/2000/svg" width="92.99" height="86.09" viewBox="0 0 92.99 86.09"><defs><style>.cls-1,.cls-2{stroke-miterlimit:10;}.cls-1,.cls-2,.cls-3{stroke:#221f20;stroke-width:.75px;}.cls-1,.cls-3{fill:#fff;stroke-linecap:round;}.cls-2{fill:#da3652;}.cls-3{stroke-linejoin:round;}</style></defs><path class="cls-3" d="m75.67,43.93s3.26-.3,8.47-.96c3.73-.47,6.49-1.16,7.76-1.51.38-.11.74.2.72.6l-.7,11.27c-.02.36-.37.62-.72.53-1.64-.43-5.94-1.26-9.31-1.6-4.17-.42-8.25,1.45-9.8,1.83s-15,6.05-17.39,6.23c-2.39.19-3.47-.56-5.72-.7-2.25-.14-6.73-1.86-6.73-1.86,0,0-1.36.02-3.61-2.68-2.25-2.7-4.82-3.95-6.04-5.12-1.22-1.17,1.02-2.51,2.66-2.37,1.64.14,3.92,2.22,7.07,4.39,3.18,2.19,12,1.56,12,1.52"/><path class="cls-1" d="m79.06,45.06s-6.13-3.87-10.53-3.6c-4.4.27-14.72,3.96-15.35,4.15s-9.06,0-10.57.25c-1.51.25-3.02,1.37-2.83,2.45.21,1.18,1.67,2.09,3.4,2.01,2.08-.09,7.43-.76,8.43-.44,1.01.31,2.52.5,4.03,1.51s3.97,1.83,5.73,1.57,2.71-.69,2.71-.69"/><path class="cls-3" d="m22.39,69.3s-3.26-.3-8.47-.96c-3.73-.47-6.49-1.16-7.76-1.51-.38-.11-.74.2-.72.6l.7,11.27c.02.36.37.62.72.53,1.64-.43,5.94-1.26,9.31-1.6,4.17-.42,8.25,1.45,9.8,1.83,1.55.37,15,6.05,17.39,6.23,2.39.19,3.47-.56,5.72-.7,2.25-.14,6.73-1.86,6.73-1.86,0,0,1.36.02,3.61-2.68s4.82-3.95,6.04-5.12c1.22-1.17-1.02-2.51-2.66-2.37-1.64.14-3.92,2.22-7.07,4.39-3.18,2.19-12,1.56-12,1.52"/><path class="cls-1" d="m18.99,70.43s6.13-3.87,10.53-3.6c4.4.27,14.72,3.96,15.35,4.15s9.06,0,10.57.25,3.02,1.37,2.83,2.45c-.21,1.18-1.67,2.09-3.4,2.01-2.08-.09-7.43-.76-8.43-.44-1.01.31-2.52.5-4.03,1.51-1.51,1.01-3.97,1.83-5.73,1.57-1.76-.25-2.71-.69-2.71-.69"/><path class="cls-3" d="m19.61,13.89s-3.7-.34-9.61-1.09c-4.23-.53-7.37-1.31-8.81-1.71-.44-.12-.84.23-.81.68l.79,12.79c.03.41.42.7.81.6,1.86-.49,6.74-1.43,10.57-1.82,4.73-.48,9.36,1.65,11.12,2.07s17.02,6.86,19.73,7.07,3.94-.64,6.49-.8,7.64-2.11,7.64-2.11c0,0,1.54.02,4.1-3.04,2.55-3.07,5.47-4.49,6.86-5.82s-1.16-2.85-3.02-2.69c-1.86.16-4.45,2.52-8.02,4.99-3.61,2.49-13.62,1.77-13.62,1.72"/><path class="cls-1" d="m15.75,15.17s6.96-4.39,11.95-4.09c4.99.3,16.7,4.5,17.42,4.71s10.28,0,12,.29,3.43,1.56,3.21,2.79c-.24,1.33-1.89,2.37-3.86,2.29-2.36-.1-8.43-.86-9.57-.5-1.14.36-2.86.57-4.57,1.71s-4.5,2.07-6.5,1.79-3.07-.79-3.07-.79"/><path class="cls-2" d="m57.51,2.31c-.26-.53-1.26-2.39-3.44-1.82-2.18.57-3.09,3.65-3.09,3.65,0,0-.9-3.08-3.09-3.65-2.18-.57-3.18,1.3-3.44,1.82-.26.53-.66,2.52.7,4.44,1.36,1.92,5.83,5.7,5.83,5.7,0,0,4.48-3.77,5.83-5.7,1.36-1.92.96-3.92.7-4.44Z"/></svg>