<?xml version="1.0" encoding="UTF-8"?><svg id="Layer_1" xmlns="http://www.w3.org/2000/svg" width="151.45" height="151.45" viewBox="0 0 151.45 151.45"><defs><style>.cls-1{stroke-linejoin:round;}.cls-1,.cls-2{fill:#fff;}.cls-1,.cls-3{stroke:#221f20;stroke-width:.75px;}.cls-4{fill:#221f20;}.cls-4,.cls-2,.cls-5{stroke-width:0px;}.cls-5{fill:#eaf3f6;}.cls-3{fill:#da3652;stroke-miterlimit:10;}</style></defs><circle class="cls-5" cx="75.73" cy="75.73" r="75.73"/><path class="cls-1" d="m33.34,61.6h84.77v50.26c0,.26-.21.47-.47.47H33.81c-.26,0-.47-.21-.47-.47v-50.26h0Z"/><path class="cls-2" d="m33.69,62.05c-.16,0-.3-.1-.35-.25-.05-.15,0-.32.12-.42l42.02-33.08c.07-.05.15-.08.23-.08s.16.03.23.08l42.02,33.08c.12.1.17.27.12.42-.05.15-.19.25-.35.25H33.69Z"/><path class="cls-4" d="m75.71,28.6l21.01,16.54,21.01,16.54H33.69l21.01-16.54,21.01-16.54m0-.75c-.16,0-.33.05-.46.16l-21.01,16.54-21.01,16.54c-.25.2-.35.53-.24.83.1.3.39.5.71.5h84.03c.32,0,.6-.2.71-.5.1-.3,0-.64-.24-.83l-21.01-16.54-21.01-16.54c-.14-.11-.3-.16-.46-.16h0Z"/><path class="cls-4" d="m75.73,62.2h42.39l-21.19,16.74-20.59,16.27c-.33.26-.87.26-1.2,0l-20.59-16.27-21.19-16.74h42.39Z"/><path class="cls-3" d="m85.87,58.35c-.42-.77-1.99-3.48-5.44-2.65-3.45.83-4.88,5.31-4.88,5.31,0,0-1.43-4.48-4.88-5.31-3.45-.83-5.02,1.89-5.44,2.65-.42.77-1.04,3.67,1.1,6.46,2.14,2.8,9.22,8.29,9.22,8.29,0,0,7.08-5.49,9.22-8.29,2.14-2.8,1.52-5.7,1.1-6.46Z"/></svg>