<?xml version="1.0" encoding="UTF-8"?><svg id="Layer_1" xmlns="http://www.w3.org/2000/svg" width="151.45" height="151.45" viewBox="0 0 151.45 151.45"><defs><style>.cls-1{fill:#fff;stroke:#221f20;}.cls-1,.cls-2{stroke-miterlimit:10;}.cls-2{fill:#da3652;stroke:#d93953;stroke-linecap:round;stroke-width:3px;}.cls-3{fill:#221f20;}.cls-3,.cls-4{stroke-width:0px;}.cls-4{fill:#eaf3f6;}</style></defs><circle class="cls-4" cx="75.73" cy="75.73" r="75.73"/><ellipse class="cls-1" cx="75.77" cy="101.91" rx="29.33" ry="10.29"/><ellipse class="cls-1" cx="75.77" cy="91.56" rx="29.33" ry="10.29"/><ellipse class="cls-1" cx="75.77" cy="81.21" rx="29.33" ry="10.29"/><ellipse class="cls-1" cx="75.77" cy="70.86" rx="29.33" ry="10.29"/><ellipse class="cls-1" cx="75.77" cy="60.51" rx="29.33" ry="10.29"/><ellipse class="cls-1" cx="75.77" cy="50.15" rx="29.33" ry="10.29"/><path class="cls-3" d="m69.48,52.99h-2.36l5.32-6.67h2.36l-3.05,3.82,3.82-1.71h2.81l-4.16,1.86.76,2.7h-2.82l-.43-1.58-1.54.69-.71.89Z"/><path class="cls-3" d="m81.6,49.97c-.47.1-.91.24-1.34.42l-2.08,2.6h-2.36l3.64-4.56h2.36l-.39.49c.98-.38,1.94-.56,2.88-.56l-1.16,1.45c-.57.01-1.09.07-1.56.16Z"/><line class="cls-2" x1="118.22" y1="33.39" x2="33.24" y2="118.06"/></svg>