<?xml version="1.0" encoding="UTF-8"?><svg id="Layer_1" xmlns="http://www.w3.org/2000/svg" width="105.76" height="98.56" viewBox="0 0 105.76 98.56"><defs><style>.cls-1{fill:#fff;stroke:#221f20;}.cls-1,.cls-2{stroke-miterlimit:10;}.cls-2{fill:#da3652;stroke:#d93953;stroke-linecap:round;stroke-width:3px;}.cls-3{fill:#221f20;stroke-width:0px;}</style></defs><ellipse class="cls-1" cx="53.13" cy="79.44" rx="30.23" ry="10.04"/><ellipse class="cls-1" cx="53.13" cy="69.34" rx="30.23" ry="10.04"/><ellipse class="cls-1" cx="53.13" cy="59.24" rx="30.23" ry="10.04"/><ellipse class="cls-1" cx="53.13" cy="49.14" rx="30.23" ry="10.04"/><ellipse class="cls-1" cx="53.13" cy="39.04" rx="30.23" ry="10.04"/><ellipse class="cls-1" cx="53.13" cy="28.94" rx="30.23" ry="10.04"/><path class="cls-3" d="m46.65,31.71h-2.43l5.49-6.51h2.43l-3.15,3.73,3.94-1.67h2.89l-4.29,1.82.78,2.63h-2.91l-.44-1.54-1.58.67-.73.87Z"/><path class="cls-3" d="m59.14,28.77c-.48.1-.94.23-1.38.41l-2.14,2.54h-2.43l3.75-4.45h2.43l-.4.48c1.01-.37,2-.55,2.97-.55l-1.19,1.41c-.59.01-1.13.07-1.61.16Z"/><line class="cls-2" x1="95.92" y1="4.09" x2="5.72" y2="87.46"/></svg>