<?xml version="1.0" encoding="UTF-8"?><svg id="Layer_1" xmlns="http://www.w3.org/2000/svg" width="87.98" height="87.67" viewBox="0 0 87.98 87.67"><defs><style>.cls-1{fill:#fff;stroke:#221f20;}.cls-1,.cls-2{stroke-miterlimit:10;}.cls-2{fill:#da3652;stroke:#d93953;stroke-linecap:round;stroke-width:3px;}.cls-3{fill:#221f20;stroke-width:0px;}</style></defs><ellipse class="cls-1" cx="44.04" cy="70.02" rx="29.33" ry="10.29"/><ellipse class="cls-1" cx="44.04" cy="59.67" rx="29.33" ry="10.29"/><ellipse class="cls-1" cx="44.04" cy="49.32" rx="29.33" ry="10.29"/><ellipse class="cls-1" cx="44.04" cy="38.96" rx="29.33" ry="10.29"/><ellipse class="cls-1" cx="44.04" cy="28.61" rx="29.33" ry="10.29"/><ellipse class="cls-1" cx="44.04" cy="18.26" rx="29.33" ry="10.29"/><path class="cls-3" d="m37.75,21.1h-2.36l5.32-6.67h2.36l-3.05,3.82,3.82-1.71h2.81l-4.16,1.86.76,2.7h-2.82l-.43-1.58-1.54.69-.71.89Z"/><path class="cls-3" d="m49.86,18.08c-.47.1-.91.24-1.34.42l-2.08,2.6h-2.36l3.64-4.56h2.36l-.39.49c.98-.38,1.94-.56,2.88-.56l-1.16,1.45c-.57.01-1.09.07-1.56.16Z"/><line class="cls-2" x1="86.48" y1="1.5" x2="1.5" y2="86.17"/></svg>