<?xml version="1.0" encoding="UTF-8"?><svg id="Layer_1" xmlns="http://www.w3.org/2000/svg" width="83.92" height="83.23" viewBox="0 0 83.92 83.23"><defs><style>.cls-1{stroke-linejoin:round;}.cls-1,.cls-2{fill:#fff;}.cls-1,.cls-3{stroke:#221f20;stroke-width:.75px;}.cls-4{fill:#221f20;}.cls-4,.cls-2{stroke-width:0px;}.cls-3{fill:#da3652;stroke-miterlimit:10;}</style></defs><path class="cls-1" d="m.41,33.11h83.14v49.28c0,.26-.21.47-.47.47H.88c-.26,0-.47-.21-.47-.47v-49.28H.41Z"/><path class="cls-2" d="m.75,33.56c-.16,0-.3-.1-.35-.25-.05-.15,0-.32.12-.42L41.72.45c.07-.05.15-.08.23-.08s.16.03.23.08l41.21,32.44c.12.1.17.27.12.42-.05.15-.19.25-.35.25H.75Z"/><path class="cls-4" d="m41.96.75l20.6,16.22,20.6,16.22H.75l20.6-16.22L41.96.75m0-.75c-.16,0-.33.05-.46.16l-20.6,16.22L.29,32.6c-.25.2-.35.53-.24.83.1.3.39.5.71.5h82.41c.32,0,.6-.2.71-.5.1-.3,0-.64-.24-.83l-20.6-16.22L42.42.16c-.14-.11-.3-.16-.46-.16h0Z"/><path class="cls-4" d="m41.98,33.7h41.57l-20.78,16.42-20.2,15.95c-.32.26-.85.26-1.17,0l-20.2-15.95L.41,33.7h41.57Z"/><path class="cls-3" d="m51.93,29.92c-.41-.75-1.95-3.41-5.34-2.6-3.39.81-4.78,5.2-4.78,5.2,0,0-1.4-4.39-4.78-5.2-3.39-.81-4.92,1.85-5.34,2.6-.41.75-1.02,3.6,1.08,6.34,2.1,2.74,9.04,8.13,9.04,8.13,0,0,6.94-5.38,9.04-8.13s1.49-5.59,1.08-6.34Z"/></svg>