<?xml version="1.0" encoding="UTF-8"?><svg id="Layer_1" xmlns="http://www.w3.org/2000/svg" width="94.1" height="93.77" viewBox="0 0 94.1 93.77"><defs><style>.cls-1{fill:#fff;stroke:#221f20;}.cls-1,.cls-2{stroke-miterlimit:10;}.cls-2{fill:#da3652;stroke:#d93953;stroke-linecap:round;stroke-width:3px;}.cls-3{fill:#221f20;stroke-width:0px;}</style></defs><ellipse class="cls-1" cx="47.1" cy="74.96" rx="31.45" ry="11.03"/><ellipse class="cls-1" cx="47.1" cy="63.86" rx="31.45" ry="11.03"/><ellipse class="cls-1" cx="47.1" cy="52.76" rx="31.45" ry="11.03"/><ellipse class="cls-1" cx="47.1" cy="41.67" rx="31.45" ry="11.03"/><ellipse class="cls-1" cx="47.1" cy="30.57" rx="31.45" ry="11.03"/><ellipse class="cls-1" cx="47.1" cy="19.47" rx="31.45" ry="11.03"/><path class="cls-3" d="m40.36,22.51h-2.53l5.71-7.15h2.53l-3.27,4.1,4.1-1.83h3.01l-4.46,2,.81,2.89h-3.03l-.46-1.69-1.65.74-.76.96Z"/><path class="cls-3" d="m53.35,19.28c-.5.1-.98.25-1.44.45l-2.23,2.79h-2.53l3.9-4.89h2.53l-.42.52c1.05-.4,2.08-.6,3.09-.6l-1.24,1.55c-.62.01-1.17.07-1.67.18Z"/><line class="cls-2" x1="92.6" y1="1.5" x2="1.5" y2="92.27"/></svg>