<?xml version="1.0" encoding="UTF-8"?><svg id="Layer_1" xmlns="http://www.w3.org/2000/svg" width="95.13" height="93.82" viewBox="0 0 95.13 93.82"><defs><style>.cls-1{fill:none;}.cls-1,.cls-2,.cls-3{stroke:#221f20;stroke-miterlimit:10;stroke-width:.75px;}.cls-2{fill:#fff;}.cls-3{fill:#da3652;}</style></defs><polygon class="cls-2" points=".55 37.48 42.47 93.33 92.98 63.06 51.06 7.22 .55 37.48"/><polygon class="cls-2" points="1.22 34.04 43.13 89.88 93.65 59.62 51.73 3.78 1.22 34.04"/><polygon class="cls-2" points="2.15 30.76 44.07 86.6 94.58 56.34 52.67 .5 2.15 30.76"/><line class="cls-1" x1="25.13" y1="33.08" x2="46.8" y2="20.1"/><line class="cls-1" x1="30.34" y1="40.02" x2="52.01" y2="27.03"/><line class="cls-1" x1="34.78" y1="46.38" x2="56.46" y2="33.4"/><line class="cls-1" x1="39.99" y1="53.32" x2="61.66" y2="40.34"/><line class="cls-1" x1="44.98" y1="59.53" x2="66.65" y2="46.55"/><line class="cls-1" x1="50.19" y1="66.47" x2="71.86" y2="53.49"/><polygon class="cls-3" points="55.82 10.7 50.11 8.11 50.42 13.93 44.4 5.53 49.8 2.3 55.82 10.7"/></svg>