<?xml version="1.0" encoding="UTF-8"?><svg id="Layer_1" xmlns="http://www.w3.org/2000/svg" width="127.46" height="129.63" viewBox="0 0 127.46 129.63"><defs><style>.cls-1{fill:none;}.cls-1,.cls-2,.cls-3{stroke:#221f20;stroke-miterlimit:10;stroke-width:.75px;}.cls-2{fill:#fff;}.cls-3{fill:#da3652;}</style></defs><polygon class="cls-2" points="29.77 62.87 71.57 123.78 121.95 90.77 80.15 29.86 29.77 62.87"/><polygon class="cls-2" points="30.43 59.11 72.24 120.03 122.62 87.02 80.82 26.1 30.43 59.11"/><polygon class="cls-2" points="31.37 55.53 73.17 116.45 123.55 83.44 81.75 22.53 31.37 55.53"/><line class="cls-1" x1="54.28" y1="58.07" x2="75.89" y2="43.91"/><line class="cls-1" x1="59.47" y1="65.64" x2="81.09" y2="51.47"/><line class="cls-1" x1="63.91" y1="72.58" x2="85.53" y2="58.42"/><line class="cls-1" x1="69.11" y1="80.15" x2="90.72" y2="65.99"/><line class="cls-1" x1="74.08" y1="86.92" x2="95.7" y2="72.76"/><line class="cls-1" x1="79.28" y1="94.49" x2="100.89" y2="80.33"/><polygon class="cls-3" points="84.89 33.66 79.2 30.84 79.51 37.18 73.51 28.02 78.89 24.49 84.89 33.66"/></svg>