<?xml version="1.0" encoding="UTF-8"?><svg id="Layer_1" xmlns="http://www.w3.org/2000/svg" width="84.54" height="83.36" viewBox="0 0 84.54 83.36"><defs><style>.cls-1{fill:none;}.cls-1,.cls-2,.cls-3{stroke:#221f20;stroke-miterlimit:10;stroke-width:.75px;}.cls-2{fill:#fff;}.cls-3{fill:#da3652;}</style></defs><polygon class="cls-2" points=".55 33.31 37.74 82.87 82.56 56.01 45.37 6.46 .55 33.31"/><polygon class="cls-2" points="1.14 30.26 38.34 79.81 83.16 52.96 45.96 3.41 1.14 30.26"/><polygon class="cls-2" points="1.97 27.35 39.16 76.9 83.99 50.05 46.79 .5 1.97 27.35"/><line class="cls-1" x1="22.36" y1="29.41" x2="41.59" y2="17.89"/><line class="cls-1" x1="26.98" y1="35.56" x2="46.21" y2="24.04"/><line class="cls-1" x1="30.93" y1="41.21" x2="50.16" y2="29.69"/><line class="cls-1" x1="35.55" y1="47.37" x2="54.78" y2="35.85"/><line class="cls-1" x1="39.97" y1="52.88" x2="59.2" y2="41.36"/><line class="cls-1" x1="44.6" y1="59.04" x2="63.82" y2="47.52"/><polygon class="cls-3" points="49.59 9.55 44.53 7.26 44.8 12.42 39.46 4.96 44.25 2.1 49.59 9.55"/></svg>